<svg xmlns="http://www.w3.org/2000/svg" xmlns:xlink="http://www.w3.org/1999/xlink" width="116.999" height="115" viewBox="0 0 116.999 115">
  <defs>
    <clipPath id="clip-path">
      <rect id="Rectangle_385688" data-name="Rectangle 385688" width="57.634" height="56.971" fill="none"/>
    </clipPath>
    <clipPath id="clip-path-3">
      <rect id="Rectangle_385668" data-name="Rectangle 385668" width="3.236" height="6.176" fill="none"/>
    </clipPath>
    <clipPath id="clip-path-4">
      <rect id="Rectangle_385669" data-name="Rectangle 385669" width="1.717" height="1.594" fill="none"/>
    </clipPath>
    <clipPath id="clip-path-5">
      <rect id="Rectangle_385670" data-name="Rectangle 385670" width="3.92" height="5.018" fill="none"/>
    </clipPath>
    <clipPath id="clip-path-6">
      <rect id="Rectangle_385671" data-name="Rectangle 385671" width="1.916" height="1.319" fill="none"/>
    </clipPath>
    <clipPath id="clip-path-7">
      <rect id="Rectangle_385672" data-name="Rectangle 385672" width="7.693" height="9.445" fill="none"/>
    </clipPath>
    <clipPath id="clip-path-8">
      <rect id="Rectangle_385673" data-name="Rectangle 385673" width="4.552" height="10.484" fill="none"/>
    </clipPath>
    <clipPath id="clip-path-9">
      <rect id="Rectangle_385674" data-name="Rectangle 385674" width="4.583" height="8.916" fill="none"/>
    </clipPath>
    <clipPath id="clip-path-10">
      <rect id="Rectangle_385675" data-name="Rectangle 385675" width="4.601" height="8.71" fill="none"/>
    </clipPath>
    <clipPath id="clip-path-11">
      <rect id="Rectangle_385676" data-name="Rectangle 385676" width="4.602" height="8.635" fill="none"/>
    </clipPath>
    <clipPath id="clip-path-17">
      <rect id="Rectangle_385682" data-name="Rectangle 385682" width="6.483" height="6.174" fill="none"/>
    </clipPath>
    <clipPath id="clip-path-18">
      <rect id="Rectangle_385683" data-name="Rectangle 385683" width="4.499" height="9.208" fill="none"/>
    </clipPath>
    <clipPath id="clip-path-19">
      <rect id="Rectangle_385684" data-name="Rectangle 385684" width="12.332" height="4.561" fill="none"/>
    </clipPath>
    <clipPath id="clip-path-20">
      <rect id="Rectangle_385685" data-name="Rectangle 385685" width="3.795" height="7.387" fill="none"/>
    </clipPath>
    <clipPath id="clip-path-21">
      <rect id="Rectangle_385686" data-name="Rectangle 385686" width="1.442" height="2.185" fill="none"/>
    </clipPath>
  </defs>
  <g id="Group_1086702" data-name="Group 1086702" transform="translate(-1162 -4157.437)">
    <g id="Group_1084092" data-name="Group 1084092" transform="translate(736.563 -3341.034)">
      <g id="Group_1015374" data-name="Group 1015374" transform="translate(425.927 7498.205)">
        <g id="Group_1015448" data-name="Group 1015448" transform="translate(0 0)">
          <g id="Group_1014855" data-name="Group 1014855" transform="translate(0 0)">
            <path id="Union_12" data-name="Union 12" d="M58.5,0C90.809,0,117,25.744,117,57.5S90.809,115,58.5,115,0,89.256,0,57.5,26.192,0,58.5,0Z" transform="translate(-0.49 0.265)" fill="#eba325"/>
            <path id="Path_608395" data-name="Path 608395" d="M49,0C76.062,0,98,22.162,98,49.5S76.062,99,49,99,0,76.838,0,49.5,21.938,0,49,0Z" transform="translate(9.51 7.265)" fill="#fef5e5"/>
          </g>
        </g>
      </g>
    </g>
    <g id="Group_1085346" data-name="Group 1085346" transform="translate(1194.5 4186.821)">
      <g id="Group_1085345" data-name="Group 1085345" clip-path="url(#clip-path)">
        <g id="Group_1085344" data-name="Group 1085344">
          <g id="Group_1085343" data-name="Group 1085343" clip-path="url(#clip-path)">
            <path id="Path_839022" data-name="Path 839022" d="M20.194,70.223H3.868A3.867,3.867,0,0,0,0,74.09V89.548a2.308,2.308,0,1,0,4.615,0V79.5a.625.625,0,0,1,1.25,0v32.932a2.327,2.327,0,0,0,4.654,0V94.527a1.51,1.51,0,0,1,3.02,0v17.909a2.327,2.327,0,0,0,4.654,0V79.5a.625.625,0,0,1,1.25,0V89.548a2.308,2.308,0,1,0,4.615,0V74.09a3.867,3.867,0,0,0-3.867-3.867" transform="translate(-0.001 -57.793)" fill="#00d3e9"/>
            <path id="Path_839023" data-name="Path 839023" d="M42.171,11.089a5.544,5.544,0,1,0-5.544-5.544,5.544,5.544,0,0,0,5.544,5.544" transform="translate(-30.144)" fill="#00d3e9"/>
            <g id="Group_1085288" data-name="Group 1085288" transform="translate(7.072 1.361)" style="mix-blend-mode: screen;isolation: isolate">
              <g id="Group_1085287" data-name="Group 1085287">
                <g id="Group_1085286" data-name="Group 1085286" clip-path="url(#clip-path-3)">
                  <path id="Path_839024" data-name="Path 839024" d="M40.354,10.132a4.654,4.654,0,0,0-.263,3c.092.351.322.753.684.731a.621.621,0,0,0,.507-.48,2.569,2.569,0,0,0,.039-.741A4.169,4.169,0,0,1,42.3,9.925a6.883,6.883,0,0,0,.691-.833,1.107,1.107,0,0,0,.12-1.032c-.677-1.386-2.512,1.512-2.754,2.072" transform="translate(-39.952 -7.689)" fill="#404040"/>
                </g>
              </g>
            </g>
            <g id="Group_1085291" data-name="Group 1085291" transform="translate(10.726 0.349)" style="mix-blend-mode: screen;isolation: isolate">
              <g id="Group_1085290" data-name="Group 1085290">
                <g id="Group_1085289" data-name="Group 1085289" clip-path="url(#clip-path-4)">
                  <path id="Path_839025" data-name="Path 839025" d="M60.635,3.142a.76.76,0,0,0,.78.421,1.058,1.058,0,0,0,.755-.522.772.772,0,0,0,.042-.815.653.653,0,0,0-.622-.246c-.466.064-1.177.634-.954,1.162" transform="translate(-60.593 -1.973)" fill="#404040"/>
                </g>
              </g>
            </g>
            <g id="Group_1085294" data-name="Group 1085294" transform="translate(1.016 13.476)" style="mix-blend-mode: screen;isolation: isolate">
              <g id="Group_1085293" data-name="Group 1085293">
                <g id="Group_1085292" data-name="Group 1085292" clip-path="url(#clip-path-5)">
                  <path id="Path_839026" data-name="Path 839026" d="M6.479,77.876a3.572,3.572,0,0,1,2.4-1.725.7.7,0,0,1,.724.2.541.541,0,0,1-.079.6,2.015,2.015,0,0,1-.5.4,4.95,4.95,0,0,0-1.983,2.7,1.882,1.882,0,0,1-.4.885c-.668.631-.946-.267-.891-.767a5.6,5.6,0,0,1,.732-2.291" transform="translate(-5.74 -76.133)" fill="#404040"/>
                </g>
              </g>
            </g>
            <g id="Group_1085297" data-name="Group 1085297" transform="translate(5.867 13.013)" style="mix-blend-mode: screen;isolation: isolate">
              <g id="Group_1085296" data-name="Group 1085296">
                <g id="Group_1085295" data-name="Group 1085295" clip-path="url(#clip-path-6)">
                  <path id="Path_839027" data-name="Path 839027" d="M33.308,73.851a.555.555,0,0,0-.1.641.666.666,0,0,0,.347.249,1.559,1.559,0,0,0,1.134-.023.629.629,0,0,0,.319-.249.47.47,0,0,0,.028-.372.74.74,0,0,0-.214-.313,1.106,1.106,0,0,0-1.514.066" transform="translate(-33.145 -73.517)" fill="#404040"/>
                </g>
              </g>
            </g>
            <g id="Group_1085300" data-name="Group 1085300" transform="translate(9.879 1.644)" style="mix-blend-mode: multiply;isolation: isolate">
              <g id="Group_1085299" data-name="Group 1085299">
                <g id="Group_1085298" data-name="Group 1085298" clip-path="url(#clip-path-7)">
                  <path id="Path_839028" data-name="Path 839028" d="M61.93,13.224A6.86,6.86,0,0,1,58.9,17.472a5.862,5.862,0,0,1-3.085.827A5.545,5.545,0,0,0,61.9,9.286a8.4,8.4,0,0,1,.031,3.938" transform="translate(-55.811 -9.286)" fill="#ebebeb"/>
                </g>
              </g>
            </g>
            <g id="Group_1085303" data-name="Group 1085303" transform="translate(19.508 23.579)" style="mix-blend-mode: multiply;isolation: isolate">
              <g id="Group_1085302" data-name="Group 1085302">
                <g id="Group_1085301" data-name="Group 1085301" clip-path="url(#clip-path-8)">
                  <path id="Path_839029" data-name="Path 839029" d="M112.452,143.692a2.308,2.308,0,0,0,2.308-2.308v-8.176l-.557,4.56a6.63,6.63,0,0,1-1.078,3.419,2.4,2.4,0,0,1-2.917.728,2.307,2.307,0,0,0,2.244,1.777" transform="translate(-110.208 -133.208)" fill="#ebebeb"/>
                </g>
              </g>
            </g>
            <g id="Group_1085306" data-name="Group 1085306" transform="translate(0.032 25.147)" style="mix-blend-mode: multiply;isolation: isolate">
              <g id="Group_1085305" data-name="Group 1085305">
                <g id="Group_1085304" data-name="Group 1085304" clip-path="url(#clip-path-9)">
                  <path id="Path_839030" data-name="Path 839030" d="M2.456,150.979a2.308,2.308,0,0,0,2.308-2.308v-6.609q-.183,1.5-.365,2.993a6.63,6.63,0,0,1-1.078,3.419,2.3,2.3,0,0,1-3.14.563,2.306,2.306,0,0,0,2.276,1.941" transform="translate(-0.18 -142.063)" fill="#ebebeb"/>
                </g>
              </g>
            </g>
            <g id="Group_1085309" data-name="Group 1085309" transform="translate(13.592 48.262)" style="mix-blend-mode: multiply;isolation: isolate">
              <g id="Group_1085308" data-name="Group 1085308">
                <g id="Group_1085307" data-name="Group 1085307" clip-path="url(#clip-path-10)">
                  <path id="Path_839031" data-name="Path 839031" d="M79.062,281.356a2.327,2.327,0,0,0,2.327-2.327v-6.383a26.358,26.358,0,0,1-.794,3.122,6.455,6.455,0,0,1-1.724,3.035,3,3,0,0,1-2.084.717,2.327,2.327,0,0,0,2.274,1.836" transform="translate(-76.788 -272.646)" fill="#ebebeb"/>
                </g>
              </g>
            </g>
            <g id="Group_1085312" data-name="Group 1085312" transform="translate(5.918 48.336)" style="mix-blend-mode: multiply;isolation: isolate">
              <g id="Group_1085311" data-name="Group 1085311">
                <g id="Group_1085310" data-name="Group 1085310" clip-path="url(#clip-path-11)">
                  <path id="Path_839032" data-name="Path 839032" d="M38.035,279.376v-6.308a26.357,26.357,0,0,1-.779,3.047,6.455,6.455,0,0,1-1.724,3.035,2.994,2.994,0,0,1-2.1.715,2.327,2.327,0,0,0,4.6-.489" transform="translate(-33.433 -273.068)" fill="#ebebeb"/>
                </g>
              </g>
            </g>
            <path id="Path_839033" data-name="Path 839033" d="M212.415,11.089a5.544,5.544,0,1,0-5.545-5.544,5.544,5.544,0,0,0,5.545,5.544" transform="translate(-170.251)" fill="#ff6c85"/>
            <path id="Path_839034" data-name="Path 839034" d="M181.507,88.583l-3.538-8.231-3.027-7.069a5.046,5.046,0,0,0-4.639-3.06h-8.158a5.046,5.046,0,0,0-4.639,3.06l-2.8,6.541-.006,0-3.766,8.762a2.308,2.308,0,1,0,4.24,1.823l.156-.364c.015-.026.032-.052.046-.079l2.26-5.285,1.3-3.035-.006,0,1.278-2.99a.628.628,0,0,1,.9-.291.643.643,0,0,1,.243.807l-6.522,15.254a1.838,1.838,0,0,0,1.69,2.561h3.539v15.454a2.327,2.327,0,0,0,2.44,2.325,2.371,2.371,0,0,0,2.215-2.39V96.983h3.023v15.388a2.371,2.371,0,0,0,2.215,2.39,2.327,2.327,0,0,0,2.44-2.325V96.983h3.539a1.838,1.838,0,0,0,1.69-2.561L171.1,79.168a.643.643,0,0,1,.243-.807.629.629,0,0,1,.9.291l1.277,2.986-.013.006,2.892,6.728.68,1.591c0,.008.009.016.014.024l.18.419a2.308,2.308,0,0,0,4.24-1.823" transform="translate(-124.061 -57.793)" fill="#ff6c85"/>
            <g id="Group_1085315" data-name="Group 1085315" transform="translate(37.207 1.361)" style="mix-blend-mode: screen;isolation: isolate">
              <g id="Group_1085314" data-name="Group 1085314">
                <g id="Group_1085313" data-name="Group 1085313" clip-path="url(#clip-path-3)">
                  <path id="Path_839035" data-name="Path 839035" d="M210.6,10.132a4.654,4.654,0,0,0-.263,3c.092.351.322.753.684.731a.621.621,0,0,0,.507-.48,2.576,2.576,0,0,0,.04-.741,4.169,4.169,0,0,1,.974-2.719,6.886,6.886,0,0,0,.691-.833,1.107,1.107,0,0,0,.12-1.032c-.677-1.386-2.512,1.512-2.754,2.072" transform="translate(-210.195 -7.689)" fill="#404040"/>
                </g>
              </g>
            </g>
            <g id="Group_1085318" data-name="Group 1085318" transform="translate(40.861 0.349)" style="mix-blend-mode: screen;isolation: isolate">
              <g id="Group_1085317" data-name="Group 1085317">
                <g id="Group_1085316" data-name="Group 1085316" clip-path="url(#clip-path-4)">
                  <path id="Path_839036" data-name="Path 839036" d="M230.878,3.142a.76.76,0,0,0,.78.421,1.058,1.058,0,0,0,.755-.522.773.773,0,0,0,.042-.815.653.653,0,0,0-.622-.246c-.466.064-1.177.634-.954,1.162" transform="translate(-230.836 -1.973)" fill="#404040"/>
                </g>
              </g>
            </g>
            <g id="Group_1085321" data-name="Group 1085321" transform="translate(33.577 13.476)" style="mix-blend-mode: screen;isolation: isolate">
              <g id="Group_1085320" data-name="Group 1085320">
                <g id="Group_1085319" data-name="Group 1085319" clip-path="url(#clip-path-5)">
                  <path id="Path_839037" data-name="Path 839037" d="M190.424,77.876a3.572,3.572,0,0,1,2.4-1.725.7.7,0,0,1,.724.2.541.541,0,0,1-.079.6,2.015,2.015,0,0,1-.5.4,4.95,4.95,0,0,0-1.983,2.7,1.882,1.882,0,0,1-.4.885c-.668.631-.946-.267-.891-.767a5.6,5.6,0,0,1,.732-2.291" transform="translate(-189.686 -76.133)" fill="#404040"/>
                </g>
              </g>
            </g>
            <g id="Group_1085324" data-name="Group 1085324" transform="translate(38.428 13.013)" style="mix-blend-mode: screen;isolation: isolate">
              <g id="Group_1085323" data-name="Group 1085323">
                <g id="Group_1085322" data-name="Group 1085322" clip-path="url(#clip-path-6)">
                  <path id="Path_839038" data-name="Path 839038" d="M217.254,73.851a.555.555,0,0,0-.1.641.666.666,0,0,0,.347.249,1.559,1.559,0,0,0,1.134-.023.629.629,0,0,0,.319-.249.47.47,0,0,0,.028-.372.74.74,0,0,0-.214-.313,1.106,1.106,0,0,0-1.514.066" transform="translate(-217.091 -73.517)" fill="#404040"/>
                </g>
              </g>
            </g>
            <g id="Group_1085327" data-name="Group 1085327" transform="translate(40.014 1.644)" style="mix-blend-mode: multiply;isolation: isolate">
              <g id="Group_1085326" data-name="Group 1085326">
                <g id="Group_1085325" data-name="Group 1085325" clip-path="url(#clip-path-7)">
                  <path id="Path_839039" data-name="Path 839039" d="M232.173,13.224a6.86,6.86,0,0,1-3.033,4.248,5.862,5.862,0,0,1-3.085.827,5.545,5.545,0,0,0,6.088-9.013,8.4,8.4,0,0,1,.031,3.938" transform="translate(-226.054 -9.286)" fill="#ebebeb"/>
                </g>
              </g>
            </g>
            <g id="Group_1085330" data-name="Group 1085330" transform="translate(26.685 27.836)" style="mix-blend-mode: multiply;isolation: isolate">
              <g id="Group_1085329" data-name="Group 1085329">
                <g id="Group_1085328" data-name="Group 1085328" clip-path="url(#clip-path-17)">
                  <path id="Path_839040" data-name="Path 839040" d="M155.178,162.03l.156-.364c.015-.026.032-.052.046-.079l1.853-4.334a11.136,11.136,0,0,1-1.716,2.071,6.359,6.359,0,0,1-4.767,1.8,2.307,2.307,0,0,0,4.427.9" transform="translate(-150.751 -157.253)" fill="#ebebeb"/>
                </g>
              </g>
            </g>
            <g id="Group_1085333" data-name="Group 1085333" transform="translate(53.135 24.802)" style="mix-blend-mode: multiply;isolation: isolate">
              <g id="Group_1085332" data-name="Group 1085332">
                <g id="Group_1085331" data-name="Group 1085331" clip-path="url(#clip-path-18)">
                  <path id="Path_839041" data-name="Path 839041" d="M303.279,149.133a2.307,2.307,0,0,0,1.209-3.031l-2.574-5.988c.062.362.127.724.185,1.087a9.582,9.582,0,0,1,.016,3.9,4.2,4.2,0,0,1-1.938,2.665l.071.164a2.308,2.308,0,0,0,3.031,1.209" transform="translate(-300.177 -140.113)" fill="#ebebeb"/>
                </g>
              </g>
            </g>
            <g id="Group_1085336" data-name="Group 1085336" transform="translate(35.997 39.19)" style="mix-blend-mode: multiply;isolation: isolate">
              <g id="Group_1085335" data-name="Group 1085335">
                <g id="Group_1085334" data-name="Group 1085334" clip-path="url(#clip-path-19)">
                  <path id="Path_839042" data-name="Path 839042" d="M246.733,224.237l4.654,1.722V221.4h-4.654Z" transform="translate(-239.055 -221.398)" fill="#ebebeb"/>
                  <path id="Path_839043" data-name="Path 839043" d="M208.013,221.4h-4.654l4.654,1.722Z" transform="translate(-203.358 -221.397)" fill="#ebebeb"/>
                </g>
              </g>
            </g>
            <g id="Group_1085339" data-name="Group 1085339" transform="translate(33.7 25.156)" style="mix-blend-mode: screen;isolation: isolate">
              <g id="Group_1085338" data-name="Group 1085338">
                <g id="Group_1085337" data-name="Group 1085337" clip-path="url(#clip-path-20)">
                  <path id="Path_839044" data-name="Path 839044" d="M190.5,148.643c-.1.243-.191.552-.011.744a.476.476,0,0,0,.615,0,1.387,1.387,0,0,0,.374-.553l2.485-5.389a1.37,1.37,0,0,0,.178-.992c-.216-.621-.665-.262-.848.054-.374.649-.666,1.364-.983,2.043q-.948,2.027-1.809,4.094" transform="translate(-190.383 -142.112)" fill="#404040"/>
                </g>
              </g>
            </g>
            <g id="Group_1085342" data-name="Group 1085342" transform="translate(37.344 22.406)" style="mix-blend-mode: screen;isolation: isolate">
              <g id="Group_1085341" data-name="Group 1085341">
                <g id="Group_1085340" data-name="Group 1085340" clip-path="url(#clip-path-21)">
                  <path id="Path_839045" data-name="Path 839045" d="M211.019,128.151a.566.566,0,0,0-.007.452.375.375,0,0,0,.381.155.793.793,0,0,0,.381-.2,1.883,1.883,0,0,0,.59-.945,1.031,1.031,0,0,0,0-.591c-.47-1.366-1.257.84-1.348,1.131" transform="translate(-210.967 -126.577)" fill="#404040"/>
                </g>
              </g>
            </g>
          </g>
        </g>
      </g>
    </g>
  </g>
</svg>
