<svg xmlns="http://www.w3.org/2000/svg" width="583.669" height="283" viewBox="0 0 583.669 283">
  <g id="Group_1086767" data-name="Group 1086767" transform="translate(9036 2488.988)">
    <g id="Group_1086762" data-name="Group 1086762" transform="translate(-68 4695.012)">
      <path id="_133895" data-name="133895" d="M-176,0H378.7l23.93,22.073V278.144H379.846L373.168,267.3H278.009l-7.124,10.843H-176V112.869l6.045-6.405v-79.2L-176,20.45Z" transform="translate(-8792 -7180.256)" fill="#fff"/>
      <path id="Path_214669" data-name="Path 214669" d="M-4,0H76.606l8.061,9.358H4.061Z" transform="translate(-8947.329 -7184)" fill="#359547"/>
      <g id="Group_870512" data-name="Group 870512" transform="translate(-8394.407 -7027.699)">
        <path id="Path_214670" data-name="Path 214670" d="M0,0H7.487l7.487,10.076H7.487Z" transform="translate(0 71.122) rotate(-90)" fill="#3ae3fe"/>
        <path id="Path_214675" data-name="Path 214675" d="M0,0H7.487l7.487,10.076H7.487Z" transform="translate(0 37.433) rotate(-90)" fill="#3ae3fe"/>
        <path id="Path_214671" data-name="Path 214671" d="M0,0H7.487l7.487,10.076H7.487Z" transform="translate(0 59.892) rotate(-90)" fill="#3ae3fe"/>
        <path id="Path_214674" data-name="Path 214674" d="M0,0H7.487l7.487,10.076H7.487Z" transform="translate(0 26.203) rotate(-90)" fill="#3ae3fe"/>
        <path id="Path_214672" data-name="Path 214672" d="M0,0H7.487l7.487,10.076H7.487Z" transform="translate(0 48.662) rotate(-90)" fill="#3ae3fe"/>
        <path id="Path_214673" data-name="Path 214673" d="M0,0H7.487l7.487,10.076H7.487Z" transform="translate(0 14.973) rotate(-90)" fill="#3ae3fe"/>
      </g>
      <path id="Path_214676" data-name="Path 214676" d="M-7708.131-7065.546h-95.511l3.359-6.088h89.434Z" transform="translate(-710.107 164.546)" fill="#03386e"/>
    </g>
    <text id="Análisis_de_datos_ventajas" data-name="Análisis de
datos, ventajas" transform="translate(-8877 -2383)" fill="#0c5e46" font-size="20" font-family="Roboto-Medium, Roboto" font-weight="500"><tspan x="-48.877" y="0">Análisis de</tspan><tspan x="-67.397" y="20">datos, ventajas</tspan></text>
    <text id="Toma_de_decisiones" data-name="Toma de
decisiones" transform="translate(-8896 -2266)" fill="#12263f" font-size="20" font-family="Roboto-Medium, Roboto" font-weight="500"><tspan x="-38.359" y="0">Toma de</tspan><tspan x="-48.296" y="20">decisiones</tspan></text>
    <text id="Mejora_de_procesos" data-name="Mejora de
procesos" transform="translate(-8743 -2266)" fill="#12263f" font-size="20" font-family="Roboto-Medium, Roboto" font-weight="500"><tspan x="-44.6" y="0">Mejora de</tspan><tspan x="-41.279" y="20">procesos</tspan></text>
    <text id="Anticiparse_al_cambio" data-name="Anticiparse
al cambio" transform="translate(-8582 -2266)" fill="#12263f" font-size="20" font-family="Roboto-Medium, Roboto" font-weight="500"><tspan x="-50.732" y="0">Anticiparse</tspan><tspan x="-43.677" y="20">al cambio</tspan></text>
    <path id="Path_839898" data-name="Path 839898" d="M-8744.5-2423v140.5" transform="translate(0 -11)" fill="none" stroke="#0c5e46" stroke-width="2"/>
    <path id="Path_839901" data-name="Path 839901" d="M-8744.5-2423v24.912" transform="translate(-151.5 104.588)" fill="none" stroke="#0c5e46" stroke-linecap="round" stroke-width="2"/>
    <path id="Path_839902" data-name="Path 839902" d="M-8744.5-2423v24.912" transform="translate(162.5 104.588)" fill="none" stroke="#0c5e46" stroke-linecap="round" stroke-width="2"/>
    <path id="Path_839899" data-name="Path 839899" d="M-8744.5-2423v58.128" transform="translate(-11167.166 6368.294) rotate(90)" fill="none" stroke="#0c5e46" stroke-width="2"/>
    <path id="Path_839900" data-name="Path 839900" d="M-8744.5-2423v314" transform="translate(-11005 6426.088) rotate(90)" fill="none" stroke="#0c5e46" stroke-width="2"/>
    <rect id="Rectangle_386391" data-name="Rectangle 386391" width="135" height="8" rx="4" transform="translate(-8812 -2293)" fill="#e1efe3"/>
    <rect id="Rectangle_386392" data-name="Rectangle 386392" width="135" height="8" rx="4" transform="translate(-8963 -2293)" fill="#e1efe3"/>
    <rect id="Rectangle_386393" data-name="Rectangle 386393" width="135" height="8" rx="4" transform="translate(-8649 -2293)" fill="#e1efe3"/>
    <rect id="Rectangle_386390" data-name="Rectangle 386390" width="135" height="35" rx="13" transform="translate(-8812 -2455)" fill="#e1fbff"/>
    <text id="Empresas" transform="translate(-8787 -2430)" fill="#12263f" font-size="20" font-family="Roboto-Bold, Roboto" font-weight="700"><tspan x="0" y="0">Empresas</tspan></text>
    <path id="Path_839988" data-name="Path 839988" d="M-8744.5-2423v24.912" transform="translate(-58.169 33.576)" fill="none" stroke="#0c5e46" stroke-linecap="round" stroke-width="2"/>
  </g>
</svg>
