<svg xmlns="http://www.w3.org/2000/svg" width="429.655" height="329.363" viewBox="0 0 429.655 329.363">
  <g id="Group_1072050" data-name="Group 1072050" transform="translate(11836.41 12731.757)">
    <g id="Group_1072042" data-name="Group 1072042">
      <path id="Path_609164" data-name="Path 609164" d="M-9549.2-13068.74a6.387,6.387,0,0,0-5.372,4.261,18.5,18.5,0,0,0-1.509,6.084s-.845.352-1.2-.89.354-6.969-3.554-8.3-4.7-1.733-4.172-2.221,5.237-1.642,6.126-3.329a27.606,27.606,0,0,0,1.954-6.882c0-.8,1.2-1.512,1.377-.312s.754,6.75,2.708,8.037,4.795,1.554,5.106,2.087S-9548.18-13068.785-9549.2-13068.74Z" transform="translate(-2178.211 655.956)" fill="#eba325"/>
    </g>
    <g id="Group_1072043" data-name="Group 1072043" transform="translate(319.12 -255.895)">
      <path id="Path_609164-2" data-name="Path 609164" d="M-9549.2-13068.74a6.387,6.387,0,0,0-5.372,4.261,18.5,18.5,0,0,0-1.509,6.084s-.845.352-1.2-.89.354-6.969-3.554-8.3-4.7-1.733-4.172-2.221,5.237-1.642,6.126-3.329a27.606,27.606,0,0,0,1.954-6.882c0-.8,1.2-1.512,1.377-.312s.754,6.75,2.708,8.037,4.795,1.554,5.106,2.087S-9548.18-13068.785-9549.2-13068.74Z" transform="translate(-2178.211 655.956)" fill="#eba325"/>
    </g>
    <path id="Path_609165" data-name="Path 609165" d="M-9546.745-13066.858a7.372,7.372,0,0,0-6.2,4.916,21.34,21.34,0,0,0-1.741,7.02s-.974.406-1.383-1.026.408-8.041-4.1-9.578-5.429-2-4.814-2.562,6.043-1.894,7.068-3.842a31.856,31.856,0,0,0,2.255-7.94c0-.923,1.383-1.743,1.588-.36s.871,7.789,3.125,9.273,5.532,1.794,5.892,2.408S-9545.567-13066.91-9546.745-13066.858Z" transform="translate(-2271.257 349.212)" fill="#eba325"/>
  </g>
</svg>
