<svg xmlns="http://www.w3.org/2000/svg" xmlns:xlink="http://www.w3.org/1999/xlink" width="1240" height="398.64" viewBox="0 0 1240 398.64">
  <defs>
    <linearGradient id="linear-gradient" x1="0.5" x2="0.5" y2="1" gradientUnits="objectBoundingBox">
      <stop offset="0" stop-color="#fff"/>
      <stop offset="1" stop-color="#eff6f9"/>
    </linearGradient>
    <clipPath id="clip-path">
      <rect id="Rectangle_385776" data-name="Rectangle 385776" width="276.364" height="272.328" fill="none"/>
    </clipPath>
    <clipPath id="clip-path-3">
      <rect id="Rectangle_385765" data-name="Rectangle 385765" width="98.737" height="40.619" fill="none"/>
    </clipPath>
    <clipPath id="clip-path-4">
      <rect id="Rectangle_385766" data-name="Rectangle 385766" width="71.657" height="34.876" fill="none"/>
    </clipPath>
    <clipPath id="clip-path-5">
      <rect id="Rectangle_385767" data-name="Rectangle 385767" width="23.52" height="20.283" fill="none"/>
    </clipPath>
    <clipPath id="clip-path-6">
      <rect id="Rectangle_385768" data-name="Rectangle 385768" width="10.592" height="2.56" fill="none"/>
    </clipPath>
    <clipPath id="clip-path-7">
      <rect id="Rectangle_385769" data-name="Rectangle 385769" width="37.079" height="13.08" fill="none"/>
    </clipPath>
    <clipPath id="clip-path-8">
      <rect id="Rectangle_385772" data-name="Rectangle 385772" width="4.609" height="47.959" fill="none"/>
    </clipPath>
    <clipPath id="clip-path-9">
      <rect id="Rectangle_291585" data-name="Rectangle 291585" width="29.371" height="29.879" fill="#03386e"/>
    </clipPath>
    <clipPath id="clip-path-10">
      <rect id="Rectangle_291582" data-name="Rectangle 291582" width="44" height="36.98" fill="#03386e"/>
    </clipPath>
    <clipPath id="clip-path-11">
      <rect id="Rectangle_291583" data-name="Rectangle 291583" width="44.029" height="33" fill="#03386e"/>
    </clipPath>
    <clipPath id="clip-path-12">
      <rect id="Rectangle_291581" data-name="Rectangle 291581" width="46.4" height="30.405" fill="#03386e"/>
    </clipPath>
  </defs>
  <g id="Group_1086751" data-name="Group 1086751" transform="translate(-180.36 -13799)">
    <path id="Path_839902" data-name="Path 839902" d="M0,0H1240V398.639H0Z" transform="translate(1420.36 14197.639) rotate(180)" fill="url(#linear-gradient)"/>
    <g id="Group_1085413" data-name="Group 1085413" transform="translate(1409.97 14107.389)">
      <path id="Path_214670" data-name="Path 214670" d="M0,0H7.72l7.72,10.39H7.72Z" transform="translate(0 73.338) rotate(-90)" fill="#3ae3fe"/>
      <path id="Path_214675" data-name="Path 214675" d="M0,0H7.72l7.72,10.39H7.72Z" transform="translate(0 38.599) rotate(-90)" fill="#3ae3fe"/>
      <path id="Path_214671" data-name="Path 214671" d="M0,0H7.72l7.72,10.39H7.72Z" transform="translate(0 61.758) rotate(-90)" fill="#3ae3fe"/>
      <path id="Path_214674" data-name="Path 214674" d="M0,0H7.72l7.72,10.39H7.72Z" transform="translate(0 27.019) rotate(-90)" fill="#3ae3fe"/>
      <path id="Path_214672" data-name="Path 214672" d="M0,0H7.72l7.72,10.39H7.72Z" transform="translate(0 50.178) rotate(-90)" fill="#3ae3fe"/>
      <path id="Path_214673" data-name="Path 214673" d="M0,0H7.72l7.72,10.39H7.72Z" transform="translate(0 15.44) rotate(-90)" fill="#3ae3fe"/>
    </g>
    <g id="Group_1085414" data-name="Group 1085414" transform="translate(180.36 13820.482)">
      <path id="Path_214670-2" data-name="Path 214670" d="M0,0H7.72l7.72,10.39H7.72Z" transform="translate(0 73.338) rotate(-90)" fill="#03386e"/>
      <path id="Path_214675-2" data-name="Path 214675" d="M0,0H7.72l7.72,10.39H7.72Z" transform="translate(0 38.599) rotate(-90)" fill="#03386e"/>
      <path id="Path_214671-2" data-name="Path 214671" d="M0,0H7.72l7.72,10.39H7.72Z" transform="translate(0 61.758) rotate(-90)" fill="#03386e"/>
      <path id="Path_214674-2" data-name="Path 214674" d="M0,0H7.72l7.72,10.39H7.72Z" transform="translate(0 27.019) rotate(-90)" fill="#03386e"/>
      <path id="Path_214672-2" data-name="Path 214672" d="M0,0H7.72l7.72,10.39H7.72Z" transform="translate(0 50.178) rotate(-90)" fill="#03386e"/>
      <path id="Path_214673-2" data-name="Path 214673" d="M0,0H7.72l7.72,10.39H7.72Z" transform="translate(0 15.44) rotate(-90)" fill="#03386e"/>
    </g>
    <path id="Path_839243" data-name="Path 839243" d="M-4382-293.681h71.466" transform="translate(4955.493 14376.074)" fill="none" stroke="#e1fbff" stroke-width="8"/>
    <path id="Path_839244" data-name="Path 839244" d="M-4382-293.681h71.466" transform="translate(5330.294 14376.074)" fill="none" stroke="#e8e8e8" stroke-width="8"/>
    <path id="Path_839245" data-name="Path 839245" d="M-4277-494.681h61V-355" transform="translate(4961.76 14376.074)" fill="none" stroke="#e1efe3" stroke-width="8"/>
    <path id="Path_839246" data-name="Path 839246" d="M-4216-494.681h-61V-355" transform="translate(5131.76 14376.074)" fill="none" stroke="#dee4f0" stroke-width="8"/>
    <path id="Path_839903" data-name="Path 839903" d="M400,192.773H0A200.065,200.065,0,0,1,339.056,56.215,200.583,200.583,0,0,1,382.3,117.46a199.223,199.223,0,0,1,17.7,75.31Z" transform="translate(599.76 14004.867)" fill="#e8e8e8"/>
    <g id="Group_1085558" data-name="Group 1085558" transform="translate(659.305 13925.312)">
      <g id="Group_1085557" data-name="Group 1085557" clip-path="url(#clip-path)">
        <g id="Group_1085556" data-name="Group 1085556">
          <g id="Group_1085555" data-name="Group 1085555" clip-path="url(#clip-path)">
            <path id="Path_839117" data-name="Path 839117" d="M122.513,118.086c-.285-10.832-1.843-61.6-1.864-61.594C60.133,58.727,14.2,69.634,14.2,82.753c0,10.269,28.634,47.068,69.395,39.321v-1.305c11.988-1.3,25.084-2.214,38.916-2.683" transform="translate(-6.137 -24.41)" fill="#b5a392"/>
            <g id="Group_1085539" data-name="Group 1085539" transform="translate(16.877 58.109)" opacity="0.15">
              <g id="Group_1085538" data-name="Group 1085538">
                <g id="Group_1085537" data-name="Group 1085537" clip-path="url(#clip-path-3)">
                  <path id="Path_839118" data-name="Path 839118" d="M90.3,141.877v-1.305c11.766-1.272,24.6-2.177,38.154-2.653-.515-17.061-1.089-35.6-1.1-35.6-44.744,1.653-81.508,8.046-97.636,16.569,11.47,13.411,33.311,28.17,60.584,22.986" transform="translate(-29.718 -102.322)" fill="#2d2d30"/>
                </g>
              </g>
            </g>
            <path id="Path_839119" data-name="Path 839119" d="M145.9,76.679H110.988a1.424,1.424,0,0,1-1.424-1.424V31.6a1.424,1.424,0,0,1,1.424-1.424H145.9a1.424,1.424,0,0,1,1.424,1.424V75.255a1.424,1.424,0,0,1-1.424,1.424" transform="translate(-47.343 -13.04)" fill="#111"/>
            <path id="Path_839120" data-name="Path 839120" d="M151.691,46.869V39.7a7.173,7.173,0,1,0,7.173,7.173Z" transform="translate(-62.446 -17.153)" fill="#f6eee3"/>
            <path id="Path_839121" data-name="Path 839121" d="M165.668,44.273a6.129,6.129,0,0,0-6.129-6.129v6.129Z" transform="translate(-68.937 -16.482)" fill="#eb8d2e"/>
            <path id="Path_839122" data-name="Path 839122" d="M129.2,42.651H117.687a.284.284,0,0,1,0-.568H129.2a.284.284,0,1,1,0,.568" transform="translate(-50.73 -18.184)" fill="#f6eee3"/>
            <path id="Path_839123" data-name="Path 839123" d="M152.668,99.586h-9.607a.284.284,0,0,1,0-.568h9.607a.284.284,0,1,1,0,.568" transform="translate(-61.694 -42.786)" fill="#f6eee3"/>
            <path id="Path_839124" data-name="Path 839124" d="M128.011,55.048H117.687a.284.284,0,0,1,0-.568h10.324a.284.284,0,0,1,0,.568" transform="translate(-50.73 -23.541)" fill="#f6eee3"/>
            <path id="Path_839125" data-name="Path 839125" d="M130.883,65.024h-13.2a.284.284,0,0,1,0-.568h13.2a.284.284,0,1,1,0,.568" transform="translate(-50.73 -27.851)" fill="#f6eee3"/>
            <path id="Path_839126" data-name="Path 839126" d="M141.7,75.1H117.687a.284.284,0,0,1,0-.568H141.7a.284.284,0,1,1,0,.568" transform="translate(-50.73 -32.205)" fill="#f6eee3"/>
            <path id="Path_839127" data-name="Path 839127" d="M141.7,85.991H117.687a.284.284,0,0,1,0-.568H141.7a.284.284,0,1,1,0,.568" transform="translate(-50.73 -36.911)" fill="#f6eee3"/>
            <path id="Path_839128" data-name="Path 839128" d="M74.2,110.781a.851.851,0,0,1-.589-1.466L100.6,83.45a1.088,1.088,0,0,1,1.647.166l5.659,8.189L128.9,64.847a1.088,1.088,0,0,1,1.876.286l3.549,9.458L154.284,50.06a.852.852,0,1,1,1.322,1.076L134.967,76.5a1.088,1.088,0,0,1-1.862-.306l-3.54-9.432L108.731,93.515a1.118,1.118,0,0,1-.889.419,1.094,1.094,0,0,1-.864-.47l-5.724-8.284L74.79,110.544a.848.848,0,0,1-.589.237" transform="translate(-31.694 -21.495)" fill="#5c69ab"/>
            <path id="Path_839129" data-name="Path 839129" d="M212.3,56.008a.778.778,0,0,1-.1-.006.851.851,0,0,1-.744-.947l.742-6.2-6.012,1.972a.852.852,0,0,1-.531-1.619l6.931-2.273A1.087,1.087,0,0,1,214,48.094l-.857,7.162a.851.851,0,0,1-.844.751" transform="translate(-88.609 -20.255)" fill="#5c69ab"/>
            <path id="Path_839130" data-name="Path 839130" d="M109.368,108.331H86.36a1.568,1.568,0,0,1-1.568-1.569V86.676a1.568,1.568,0,0,1,1.568-1.568h23.008a1.568,1.568,0,0,1,1.569,1.568v20.087a1.568,1.568,0,0,1-1.569,1.569" transform="translate(-36.639 -36.775)" fill="#5c69ab"/>
            <path id="Path_839131" data-name="Path 839131" d="M109.152,108.4H86.143a1.855,1.855,0,0,1-1.852-1.852V86.46a1.855,1.855,0,0,1,1.852-1.852h23.008A1.854,1.854,0,0,1,111,86.46v20.087a1.854,1.854,0,0,1-1.852,1.852M86.143,85.176a1.286,1.286,0,0,0-1.285,1.285v20.087a1.286,1.286,0,0,0,1.285,1.284h23.008a1.285,1.285,0,0,0,1.284-1.284V86.46a1.286,1.286,0,0,0-1.284-1.285Z" transform="translate(-36.422 -36.559)" fill="#5c69ab"/>
            <path id="Path_839132" data-name="Path 839132" d="M109.133,105.887H94.18a.86.86,0,0,1-.86-.86V94.939a.86.86,0,0,1,.86-.86h14.953a.86.86,0,0,1,.86.86v10.088a.86.86,0,0,1-.86.86" transform="translate(-40.324 -40.652)" fill="#f6eee3"/>
            <path id="Path_839133" data-name="Path 839133" d="M93.1,110.5a.284.284,0,0,1-.182-.5l8.121-6.8a.283.283,0,0,1,.361,0l8.337,6.718a.284.284,0,0,1-.357.442l-8.155-6.572-7.943,6.647a.28.28,0,0,1-.182.066" transform="translate(-40.108 -44.563)" fill="#5c69ab"/>
            <path id="Path_839134" data-name="Path 839134" d="M93.32,94.494l6.265,4.987a3.137,3.137,0,0,0,3.92-.01l6.273-5.044" transform="translate(-40.324 -40.802)" fill="#f6eee3"/>
            <path id="Path_839135" data-name="Path 839135" d="M101.323,100.237a3.415,3.415,0,0,1-2.131-.75L92.927,94.5a.284.284,0,1,1,.354-.444l6.265,4.987a2.838,2.838,0,0,0,3.565-.009l6.272-5.044a.284.284,0,1,1,.356.442l-6.272,5.044a3.413,3.413,0,0,1-2.144.76" transform="translate(-40.108 -40.586)" fill="#5c69ab"/>
            <path id="Path_839136" data-name="Path 839136" d="M407.346,83.856c0-11.265-33.87-20.9-81.762-24.813-.194-.016-.3,45.033-.291,58.617,14.073,1.138,26.94,2.771,38.107,4.793,26.73-6.732,43.945-30.636,43.945-38.6" transform="translate(-140.559 -25.512)" fill="#b5a392"/>
            <g id="Group_1085542" data-name="Group 1085542" transform="translate(184.782 62.065)" opacity="0.15">
              <g id="Group_1085541" data-name="Group 1085541">
                <g id="Group_1085540" data-name="Group 1085540" clip-path="url(#clip-path-4)">
                  <path id="Path_839137" data-name="Path 839137" d="M397.034,123.631c-13.527-6.53-39.322-11.721-71.413-14.343-.112-.009-.2,14.858-.243,30.086,14.054,1.139,26.9,2.77,38.06,4.79,14.332-3.61,25.923-12.155,33.6-20.533" transform="translate(-325.377 -109.288)" fill="#2d2d30"/>
                </g>
              </g>
            </g>
            <path id="Path_839138" data-name="Path 839138" d="M375.781,114.027h-20.35a1.423,1.423,0,0,1-1.424-1.424V92.254a1.424,1.424,0,0,1,1.424-1.425h20.35a1.425,1.425,0,0,1,1.424,1.425V112.6a1.424,1.424,0,0,1-1.424,1.424" transform="translate(-152.966 -39.247)" fill="#111"/>
            <path id="Path_839139" data-name="Path 839139" d="M370.2,111.705a.542.542,0,0,1-.377-.153.557.557,0,0,1-.17-.4V104.56h-6.605a.543.543,0,0,1-.39-.166.532.532,0,0,1-.151-.39,7.435,7.435,0,1,1,7.714,7.7H370.2m-.263-7.713h.284v7.161a6.955,6.955,0,0,0,4.919-2.4,6.867,6.867,0,1,0-12.064-4.733Z" transform="translate(-156.641 -41.845)" fill="#f6eee3"/>
            <path id="Path_839140" data-name="Path 839140" d="M366.829,120.082h-.023a8.024,8.024,0,0,1-7.647-7.646.583.583,0,0,1,.164-.43.6.6,0,0,1,.432-.185h7.073a.593.593,0,0,1,.592.592v7.074a.6.6,0,0,1-.184.431.584.584,0,0,1-.407.165m-7.074-7.694-.028.024a7.452,7.452,0,0,0,7.1,7.1l.024-7.1Z" transform="translate(-155.192 -48.317)" fill="#eb8d2e"/>
            <path id="Path_839141" data-name="Path 839141" d="M423.362,74.383h-32.6a1.568,1.568,0,0,1-1.568-1.569V43.2a1.568,1.568,0,0,1,1.568-1.569h32.6A1.569,1.569,0,0,1,424.93,43.2V72.814a1.568,1.568,0,0,1-1.569,1.569" transform="translate(-168.169 -17.99)" fill="#5c69ab"/>
            <path id="Path_839142" data-name="Path 839142" d="M423.145,74.452h-32.6a1.854,1.854,0,0,1-1.852-1.852V42.988a1.854,1.854,0,0,1,1.852-1.852h32.6A1.854,1.854,0,0,1,425,42.988V72.6a1.854,1.854,0,0,1-1.853,1.852M390.541,41.7a1.286,1.286,0,0,0-1.285,1.285V72.6a1.286,1.286,0,0,0,1.285,1.285h32.6A1.286,1.286,0,0,0,424.43,72.6V42.988a1.286,1.286,0,0,0-1.285-1.285Z" transform="translate(-167.952 -17.775)" fill="#5c69ab"/>
            <path id="Path_839143" data-name="Path 839143" d="M423.157,62.514A10.454,10.454,0,1,1,412.7,52.06a10.454,10.454,0,0,1,10.454,10.454" transform="translate(-173.812 -22.495)" fill="#f6eee3"/>
            <path id="Path_839144" data-name="Path 839144" d="M424.036,66.1h-3.879V59.991a.284.284,0,1,1,.568,0v5.543h3.311a.284.284,0,1,1,0,.568" transform="translate(-181.55 -25.799)" fill="#5c69ab"/>
            <path id="Path_839145" data-name="Path 839145" d="M334.481,102.628a7.307,7.307,0,1,1-7.307-7.307,7.307,7.307,0,0,1,7.307,7.307" transform="translate(-138.214 -41.188)" fill="#eb8d2e"/>
            <path id="Path_839146" data-name="Path 839146" d="M330.054,106.106a.692.692,0,0,1-.49-.2l-2.608-2.608a.284.284,0,0,1,.4-.4l2.608,2.608a.125.125,0,0,0,.176,0l6.831-6.831a.284.284,0,0,1,.4.4l-6.831,6.831a.692.692,0,0,1-.49.2" transform="translate(-141.242 -42.6)" fill="#111"/>
            <path id="Path_839147" data-name="Path 839147" d="M334.735,38.375a2,2,0,0,0-2,2V54.082a2,2,0,0,0,2,2h3.658a2.863,2.863,0,0,1,2.859,2.859V62.2a.975.975,0,0,0,1.664.689l5.963-5.963a2.88,2.88,0,0,1,2.022-.838h7.336a2,2,0,0,0,2-2V40.377a2,2,0,0,0-2-2Z" transform="translate(-143.774 -16.582)" fill="#eb8d2e"/>
            <path id="Path_839148" data-name="Path 839148" d="M344.682,55.408a1.924,1.924,0,1,1,1.924-1.924,1.927,1.927,0,0,1-1.924,1.924m0-3.28a1.356,1.356,0,1,0,1.356,1.356,1.358,1.358,0,0,0-1.356-1.356" transform="translate(-148.105 -22.279)" fill="#111"/>
            <path id="Path_839149" data-name="Path 839149" d="M355.432,55.408a1.924,1.924,0,1,1,1.924-1.924,1.927,1.927,0,0,1-1.924,1.924m0-3.28a1.356,1.356,0,1,0,1.356,1.356,1.358,1.358,0,0,0-1.356-1.356" transform="translate(-152.75 -22.279)" fill="#111"/>
            <path id="Path_839150" data-name="Path 839150" d="M366.059,55.408a1.924,1.924,0,1,1,1.925-1.924,1.926,1.926,0,0,1-1.925,1.924m0-3.28a1.356,1.356,0,1,0,1.357,1.356,1.358,1.358,0,0,0-1.357-1.356" transform="translate(-157.343 -22.279)" fill="#111"/>
            <path id="Path_839151" data-name="Path 839151" d="M57.671,61.383a1.162,1.162,0,0,0-1.161,1.161v7.947a1.162,1.162,0,0,0,1.161,1.161h4.254a1.671,1.671,0,0,1,1.173.486L66.556,75.6a.565.565,0,0,0,.965-.4V73.31a1.66,1.66,0,0,1,1.658-1.658H71.3a1.162,1.162,0,0,0,1.161-1.161V62.544A1.162,1.162,0,0,0,71.3,61.383Z" transform="translate(-24.418 -26.524)" fill="#eb8d2e"/>
            <path id="Path_839152" data-name="Path 839152" d="M75.879,71.289a1.235,1.235,0,1,1,1.235-1.235,1.237,1.237,0,0,1-1.235,1.235m0-1.9a.667.667,0,1,0,.667.667.668.668,0,0,0-.667-.667" transform="translate(-32.254 -29.737)" fill="#111"/>
            <path id="Path_839153" data-name="Path 839153" d="M69.646,71.289a1.235,1.235,0,1,1,1.235-1.235,1.237,1.237,0,0,1-1.235,1.235m0-1.9a.667.667,0,1,0,.667.667.668.668,0,0,0-.667-.667" transform="translate(-29.56 -29.737)" fill="#111"/>
            <path id="Path_839154" data-name="Path 839154" d="M63.482,71.289a1.235,1.235,0,1,1,1.235-1.235,1.237,1.237,0,0,1-1.235,1.235m0-1.9a.667.667,0,1,0,.667.667.668.668,0,0,0-.667-.667" transform="translate(-26.897 -29.737)" fill="#111"/>
            <path id="Path_839155" data-name="Path 839155" d="M206.759,8.4a1.588,1.588,0,1,1-1.588-1.588A1.588,1.588,0,0,1,206.759,8.4" transform="translate(-87.968 -2.946)" fill="#eb8d2e"/>
            <path id="Path_839156" data-name="Path 839156" d="M14.014,276.447a1.588,1.588,0,1,1-1.588-1.588,1.588,1.588,0,0,1,1.588,1.588" transform="translate(-4.683 -118.766)" fill="#eb8d2e"/>
            <path id="Path_839157" data-name="Path 839157" d="M404.748,285.5a1.588,1.588,0,1,1-1.588-1.588,1.588,1.588,0,0,1,1.588,1.588" transform="translate(-173.519 -122.679)" fill="#eb8d2e"/>
            <path id="Path_839158" data-name="Path 839158" d="M470.158,14a1.588,1.588,0,1,1-1.588-1.588A1.588,1.588,0,0,1,470.158,14" transform="translate(-201.783 -5.362)" fill="#eb8d2e"/>
            <path id="Path_839159" data-name="Path 839159" d="M484.035,82.833a.794.794,0,1,1-.794-.794.794.794,0,0,1,.794.794" transform="translate(-208.465 -35.449)" fill="#5c69ab"/>
            <path id="Path_839160" data-name="Path 839160" d="M483.025,83.695a1.078,1.078,0,1,1,1.078-1.078,1.079,1.079,0,0,1-1.078,1.078m0-1.588a.51.51,0,1,0,.51.51.511.511,0,0,0-.51-.51" transform="translate(-208.249 -35.233)" fill="#5c69ab"/>
            <path id="Path_839161" data-name="Path 839161" d="M95.435,287.5a.794.794,0,1,1-.794-.794.794.794,0,0,1,.794.794" transform="translate(-40.551 -123.887)" fill="#5c69ab"/>
            <path id="Path_839162" data-name="Path 839162" d="M94.426,288.367a1.078,1.078,0,1,1,1.078-1.078,1.079,1.079,0,0,1-1.078,1.078m0-1.588a.51.51,0,1,0,.51.509.51.51,0,0,0-.51-.509" transform="translate(-40.336 -123.672)" fill="#5c69ab"/>
            <path id="Path_839163" data-name="Path 839163" d="M2.8,41.676a1.4,1.4,0,1,1-1.4,1.4,1.4,1.4,0,0,1,1.4-1.4" transform="translate(-0.604 -18.008)" fill="#5c69ab"/>
            <path id="Path_839164" data-name="Path 839164" d="M2.586,44.552a1.688,1.688,0,1,1,1.688-1.688,1.69,1.69,0,0,1-1.688,1.688m0-2.808a1.12,1.12,0,1,0,1.12,1.12,1.121,1.121,0,0,0-1.12-1.12" transform="translate(-0.388 -17.792)" fill="#5c69ab"/>
            <path id="Path_839165" data-name="Path 839165" d="M123.725.5a.544.544,0,1,1-.545.545A.544.544,0,0,1,123.725.5" transform="translate(-53.226 -0.216)" fill="#5c69ab"/>
            <path id="Path_839166" data-name="Path 839166" d="M123.51,1.657a.828.828,0,1,1,.829-.829.829.829,0,0,1-.829.829m0-1.089a.26.26,0,1,0,.261.26.261.261,0,0,0-.261-.26" transform="translate(-53.01)" fill="#5c69ab"/>
            <path id="Path_839167" data-name="Path 839167" d="M84.786,36.373a.794.794,0,1,1-.794-.794.794.794,0,0,1,.794.794" transform="translate(-35.95 -15.374)" fill="#111"/>
            <path id="Path_839168" data-name="Path 839168" d="M1.588,162.512a.794.794,0,1,1-.794-.794.794.794,0,0,1,.794.794" transform="translate(0 -69.878)" fill="#111"/>
            <path id="Path_839169" data-name="Path 839169" d="M364.826,2.368a.794.794,0,1,1-.794-.794.794.794,0,0,1,.794.794" transform="translate(-156.955 -0.68)" fill="#111"/>
            <path id="Path_839170" data-name="Path 839170" d="M485.433,254.133a.794.794,0,1,1-.794-.794.794.794,0,0,1,.794.794" transform="translate(-209.069 -109.468)" fill="#111"/>
            <path id="Path_839171" data-name="Path 839171" d="M270.509,425.767c.85-12.838-3.347-25.557-11.957-36.238l-4.64-5.757-4.432-5.5-3.18-3.946-31.494,1.878-31.493-1.878-3.18,3.946-4.431,5.5-4.64,5.757a53.509,53.509,0,0,0-11.551,25.882c-.061.418-.776,8.378-1.767,18.1H270.289Z" transform="translate(-68.161 -161.747)" fill="#111"/>
            <path id="Path_839172" data-name="Path 839172" d="M184.34,445.208l-.058,0a.568.568,0,0,1-.508-.623c.641-6.28,1.162-11.786,1.473-15.076.194-2.051.274-2.888.3-3.044A54.331,54.331,0,0,1,197.215,400.3a.568.568,0,0,1,.884.713,53.2,53.2,0,0,0-11.431,25.608c-.02.134-.133,1.331-.29,2.988-.312,3.292-.833,8.8-1.474,15.085a.568.568,0,0,1-.564.51" transform="translate(-79.408 -172.88)" fill="#f6eee3"/>
            <path id="Path_839173" data-name="Path 839173" d="M254.147,127.567a23.439,23.439,0,0,0-7.759-14.114c-.951-1-1.855-1.891-2.688-2.683-2.892-2.75-6.844-5.5-7.045-9.266-.693-12.976-20.931-22.886-27.465-17.229a24.671,24.671,0,0,0-13.471-1.115,12.607,12.607,0,1,0-18.03,14.624c-.183.552-.366,1.111-.573,1.676-2.476,6.778-6.543,11.687-12.538,16.877l-.814.7c-11.065,9.578-10.173,25.642-1.691,32.646l2.446,2.04q.567.474,1.167.9a4.527,4.527,0,0,1,2.005,4.259,21.876,21.876,0,0,0,.877,9.432c3.792,11.836,17.287,19.577,31.872,18.182,10.115-.967,18.656-5.87,23.793-12.628,6.141-8.077,13.614-15.378,21.344-22.429,6.318-5.763,9.749-13.7,8.569-21.881" transform="translate(-67.228 -31.994)" fill="#111"/>
            <path id="Path_839174" data-name="Path 839174" d="M259.87,154.6l-2.047-22.552-10.008-.179-.406-7.387-3.039,7.012-8.813-1.018-2.03-3.492a2.284,2.284,0,0,0-2.194-1.147c-.691,8.1-4.534,15.2-8.446,15.829l-5.281-1.149.007-.1-1.667.037a7.97,7.97,0,0,0-7.767,8.123l0,.181a7.97,7.97,0,0,0,8.123,7.767l3.242-.073-1.162,29.133c-.044,7.858,7,12.376,14.3,12.416l.3,0c7.3.041,13.316-6.355,13.36-14.213l.057-10.249A17.858,17.858,0,0,0,259.87,154.6" transform="translate(-89.953 -53.789)" fill="#ffa485"/>
            <path id="Path_839175" data-name="Path 839175" d="M220.148,167.09a.568.568,0,0,1-.3-1.047l2.055-1.3-2.3-2.62a.568.568,0,0,1,.854-.749l2.734,3.118a.567.567,0,0,1-.123.854L220.452,167a.563.563,0,0,1-.3.089" transform="translate(-94.829 -69.644)" fill="#e06a4b"/>
            <path id="Path_839176" data-name="Path 839176" d="M260.778,205.621s-15.589.643-18.169-4.919h0s-.758,8.461,18.009,12.979Z" transform="translate(-104.336 -85.655)" fill="#e06a4b"/>
            <path id="Path_839177" data-name="Path 839177" d="M216.9,181.493c-.1,0-.2,0-.307-.012a4.108,4.108,0,1,1,.307.012m-.005-5.962a1.85,1.85,0,1,0,.137.005c-.046,0-.091-.005-.137-.005" transform="translate(-91.941 -74.866)" fill="#f6eee3"/>
            <path id="Path_839178" data-name="Path 839178" d="M292,155.9a1.539,1.539,0,1,1-1.5-1.576A1.54,1.54,0,0,1,292,155.9" transform="translate(-124.842 -66.682)" fill="#111"/>
            <path id="Path_839179" data-name="Path 839179" d="M263.327,155.9a1.539,1.539,0,1,1-1.5-1.576,1.54,1.54,0,0,1,1.5,1.576" transform="translate(-112.454 -66.682)" fill="#111"/>
            <path id="Path_839180" data-name="Path 839180" d="M254.337,161.873c-4.041,0-7.344-3.8-7.374-8.483-.017-2.785,3.671-4.055,7.334-4.079s7.368,1.2,7.386,3.986c.03,4.7-3.248,8.55-7.306,8.576Zm.065-10.858h-.094c-3.171.02-5.649,1.059-5.641,2.364.023,3.751,2.565,6.79,5.67,6.79h.03c3.119-.02,5.637-3.1,5.613-6.862h0c-.008-1.293-2.451-2.293-5.578-2.293" transform="translate(-106.713 -64.517)" fill="#fff"/>
            <path id="Path_839181" data-name="Path 839181" d="M285.891,161.259a6.856,6.856,0,0,1-5.227-2.516,9.23,9.23,0,0,1-2.146-5.966c-.017-2.786,3.672-4.055,7.335-4.078a12.5,12.5,0,0,1,4.819.835c1.646.7,2.558,1.822,2.566,3.151a9.225,9.225,0,0,1-2.07,5.992,6.849,6.849,0,0,1-5.236,2.583Zm.065-10.858h-.093c-3.172.02-5.65,1.058-5.642,2.364a7.523,7.523,0,0,0,1.735,4.867,4.984,4.984,0,0,0,7.9-.049,7.522,7.522,0,0,0,1.673-4.889c-.008-1.293-2.451-2.293-5.578-2.293" transform="translate(-120.348 -64.252)" fill="#fff"/>
            <path id="Path_839182" data-name="Path 839182" d="M273.977,152.333l.1,5.1a1.14,1.14,0,0,0,1.162,1.117l1.133-.023a1.553,1.553,0,0,1,1.584,1.523,3.847,3.847,0,0,1-3.77,3.922l-1.774.035" transform="translate(-117.71 -65.823)" fill="#ffa485"/>
            <path id="Path_839183" data-name="Path 839183" d="M271.98,164.146a.568.568,0,0,1-.011-1.136l1.774-.035a3.28,3.28,0,0,0,3.214-3.343.986.986,0,0,0-1-.966l-1.134.023a1.707,1.707,0,0,1-1.741-1.674l-.1-5.1a.568.568,0,0,1,.557-.579h.011a.568.568,0,0,1,.568.556l.1,5.1a.566.566,0,0,0,.175.4.547.547,0,0,0,.408.16l1.133-.023a2.122,2.122,0,0,1,2.163,2.079,4.416,4.416,0,0,1-4.327,4.5l-1.774.035Z" transform="translate(-117.277 -65.391)" fill="#e06a4b"/>
            <path id="Path_839184" data-name="Path 839184" d="M238.61,155.077a.857.857,0,0,1-.248-.037l-11.939-3.63a.852.852,0,1,1,.5-1.63l11.939,3.629a.852.852,0,0,1-.248,1.667" transform="translate(-97.576 -64.704)" fill="#fff"/>
            <path id="Path_839185" data-name="Path 839185" d="M270.593,158.1a.851.851,0,0,1-.5-1.544,5.143,5.143,0,0,1,6.082,0,.852.852,0,0,1-1.063,1.332c-1.822-1.455-3.944,0-4.034.061a.847.847,0,0,1-.489.154" transform="translate(-116.554 -67.21)" fill="#fff"/>
            <path id="Path_839186" data-name="Path 839186" d="M274.691,196.6a.32.32,0,0,1-.215-.013,2.728,2.728,0,0,0-3.014.61.32.32,0,1,1-.475-.43,3.424,3.424,0,0,1,3.744-.768.32.32,0,0,1-.041.6" transform="translate(-117.058 -84.578)" fill="#e06a4b"/>
            <path id="Path_839187" data-name="Path 839187" d="M252.7,143.3a4.91,4.91,0,0,0,2.017-.272c.7-.191,1.406-.365,2.025-.495s1.339-.256,2.055-.362a4.869,4.869,0,0,0,1.952-.561c.485-.337.567-1.027-.231-1.688a5.613,5.613,0,0,0-4.534-.736,5.445,5.445,0,0,0-3.8,2.486c-.439.921-.068,1.516.518,1.628" transform="translate(-108.885 -60.073)" fill="#111"/>
            <path id="Path_839188" data-name="Path 839188" d="M293.031,143.641a3.855,3.855,0,0,1-1.595-.152c-.555-.128-1.117-.244-1.608-.327s-1.061-.16-1.628-.221a3.83,3.83,0,0,1-1.553-.381c-.392-.25-.477-.791.129-1.335a4.42,4.42,0,0,1,3.543-.72,4.288,4.288,0,0,1,3.068,1.838c.373.71.1,1.19-.358,1.3" transform="translate(-123.727 -60.678)" fill="#111"/>
            <path id="Path_839189" data-name="Path 839189" d="M266.434,180.661H266.4l-4.431-.273a3.213,3.213,0,0,1-3.014-3.223l0-.6a.568.568,0,0,1,.568-.566h0a.568.568,0,0,1,.565.571l0,.605a2.076,2.076,0,0,0,1.948,2.084l4.431.273a.568.568,0,0,1-.035,1.135" transform="translate(-111.894 -76.047)" fill="#e06a4b"/>
            <path id="Path_839190" data-name="Path 839190" d="M219.322,256.1l31.931-.184.2-.495,9.728-24.449a.3.3,0,0,1,.269-.184l-52.2-.009,9.8,24.642Z" transform="translate(-90.416 -99.721)" fill="#ffa485"/>
            <g id="Group_1085545" data-name="Group 1085545" transform="translate(146.316 133.584)" opacity="0.46">
              <g id="Group_1085544" data-name="Group 1085544">
                <g id="Group_1085543" data-name="Group 1085543" clip-path="url(#clip-path-5)">
                  <path id="Path_839191" data-name="Path 839191" d="M280.187,235.625l-10.7,5.232a19.471,19.471,0,0,0-8.011,7.259l-3.835,6.208,1.268,1.183,3.8-6.155a19.47,19.47,0,0,1,8.011-7.259l9.568-4.68.871-2.19a8.761,8.761,0,0,0-.977.4" transform="translate(-257.644 -235.224)" fill="#e06a4b"/>
                </g>
              </g>
            </g>
            <path id="Path_839192" data-name="Path 839192" d="M241.171,310.873a1.843,1.843,0,0,0,3.493,0l14.255-35.828-31.931.185Z" transform="translate(-98.081 -118.847)" fill="#eb8d2e"/>
            <path id="Path_839193" data-name="Path 839193" d="M277.13,274.034l-25.91-30.248c-7.466-8.5-11.033-12.731-22.164-12.993h-.026l-.166-.006c-.006,0-.011.005-.018.005a.3.3,0,0,0-.269.184l-9.728,24.449-.2.495L204.4,291.748a1.842,1.842,0,0,1-3.493,0L186.72,256.1l-.27-.679-9.8-24.642h0l-.275,0H176.3c-10.089.175-21.707,4.338-30.553,11.061a30.662,30.662,0,0,0-11.711,28.236,31.1,31.1,0,0,0,1.584,6.468l.567,1.614q2.854,8.112,6.408,15.955c.859,1.9,1.536,3.385,1.548,3.4l6.3,1.145a.3.3,0,0,0,.444-.009l16.7,21.141a.3.3,0,0,0,.195.278l13.075,4.815a68.492,68.492,0,0,0,43.6,0l16.231-6.325a.3.3,0,0,0,.181-.348s13.876-19.424,14-19.555l22.264-24.233a.3.3,0,0,0,.007-.395" transform="translate(-57.813 -99.721)" fill="#5c69ab"/>
            <path id="Path_839194" data-name="Path 839194" d="M201.877,328.523a65.124,65.124,0,0,1-21.338-3.581l-13.081-4.816a.588.588,0,0,1-.369-.43l-16.494-20.888a.6.6,0,0,1-.142.02.585.585,0,0,1-.357-.112l-6.22-1.132a.29.29,0,0,1-.154-.083c-.048-.051-.049-.052-1.6-3.476-2.362-5.212-4.522-10.588-6.417-15.978l-.567-1.614a30.824,30.824,0,0,1,10.223-35.024c8.793-6.682,20.564-10.943,30.721-11.119l.071.283-.006-.284.276,0a.282.282,0,0,1,.272.179l24.257,60.965a1.559,1.559,0,0,0,2.965,0L228.1,230.655a.584.584,0,0,1,.486-.361.333.333,0,0,1,.09-.007l.146,0c11.138.262,14.8,4.44,22.108,12.761l.29.329,25.913,30.251a.582.582,0,0,1-.014.772l-22.264,24.233c-.208.266-9.157,12.783-13.914,19.442a.585.585,0,0,1-.37.534l-16.231,6.324a65.065,65.065,0,0,1-21.907,3.582q-.277,0-.554,0m.554-.57a64.385,64.385,0,0,0,21.711-3.547l16.221-6.321a.328.328,0,0,1,.053-.249c3.257-4.56,13.9-19.448,14.018-19.582L276.7,274.021l.216-.2L276.7,274l-26.2-30.575c-7.195-8.2-10.805-12.312-21.668-12.568l-.157,0-.023,0-9.954,24.95-14.256,35.828a2.126,2.126,0,0,1-4.021,0l-24.185-60.782h-.148c-10.042.174-21.685,4.391-30.386,11a30.26,30.26,0,0,0-10.032,34.384l.568,1.614c1.89,5.375,4.042,10.735,6.4,15.933,1,2.2,1.361,3,1.483,3.26l6.152,1.12a.281.281,0,0,1,.157.086.312.312,0,0,1,.232-.1.306.306,0,0,1,.228.108l16.7,21.141a.289.289,0,0,1,.061.174l13.084,4.828a64.351,64.351,0,0,0,21.7,3.545" transform="translate(-57.598 -99.505)" fill="#5c69ab"/>
            <path id="Path_839195" data-name="Path 839195" d="M283.012,351.23H247.774a3.97,3.97,0,0,1-3.97-3.97V300a3.97,3.97,0,0,1,3.97-3.97h35.238a3.97,3.97,0,0,1,3.97,3.97v47.26a3.97,3.97,0,0,1-3.97,3.97" transform="translate(-105.348 -127.915)" fill="#231f20"/>
            <path id="Path_839196" data-name="Path 839196" d="M282.067,293.352h-13a1.717,1.717,0,0,1-1.717-1.717V290.2a1.718,1.718,0,0,1,1.717-1.718h13a1.717,1.717,0,0,1,1.717,1.718v1.437a1.717,1.717,0,0,1-1.717,1.717" transform="translate(-115.521 -124.652)" fill="#f6eee3"/>
            <path id="Path_839197" data-name="Path 839197" d="M281.851,293.419h-13a2,2,0,0,1-2-2v-1.437a2,2,0,0,1,2-2h13a2,2,0,0,1,2,2v1.437a2,2,0,0,1-2,2m-13-4.872a1.435,1.435,0,0,0-1.433,1.433v1.437a1.435,1.435,0,0,0,1.433,1.433h13a1.435,1.435,0,0,0,1.433-1.433v-1.437a1.436,1.436,0,0,0-1.433-1.433Z" transform="translate(-115.305 -124.436)" fill="#231f20"/>
            <path id="Path_839198" data-name="Path 839198" d="M283.925,298.45h-21.08a.545.545,0,0,1-.546-.546V296.71a.546.546,0,0,1,.546-.546h21.08a.546.546,0,0,1,.546.546V297.9a.546.546,0,0,1-.546.546" transform="translate(-113.339 -127.972)" fill="#f6eee3"/>
            <path id="Path_839199" data-name="Path 839199" d="M283.709,298.518h-21.08a.83.83,0,0,1-.83-.829v-1.194a.83.83,0,0,1,.83-.83h21.08a.83.83,0,0,1,.83.83v1.194a.83.83,0,0,1-.83.829m-21.08-2.285a.262.262,0,0,0-.262.262v1.194a.262.262,0,0,0,.262.261h21.08a.262.262,0,0,0,.262-.261v-1.194a.262.262,0,0,0-.262-.262Z" transform="translate(-113.123 -127.757)" fill="#231f20"/>
            <path id="Path_839200" data-name="Path 839200" d="M260.392,343.017c.544,2.172,2.533,2.066,4.474,1.575-1.157.488-2.015,1.263-1.594,2.7.453,2.652,2.977,2.761,5.086,2.171-1.82,1.152.495,3.94,3.314,3.9,3.955.144,7.877.27,11.833.493,2.792.157,5.437.025,7.9-1.335l3.012.127-.634-20.835-4.944.917c-.582-.4-1.173-.778-1.779-1.121,0,0-10.463-4.689-14.273-5.593a3.71,3.71,0,0,0-1.245-.141,1.358,1.358,0,0,0-1.047.613,1.806,1.806,0,0,0,.1,1.576c.672,1.558,1.266,2.909,1.87,4.1-1.478.076-1.883.09-3.614.145-3.639.381-9.717.27-8.942,5,.409,1.62,1.733,1.874,3.1,1.691-1.868.63-3.548,1.75-2.619,4.022m2.937,2.17c.314-.093.6-.172.86-.224-.25.076-.544.148-.86.224" transform="translate(-112.278 -140.805)" fill="#ffa485"/>
            <g id="Group_1085548" data-name="Group 1085548" transform="translate(159.085 189.014)" opacity="0.36">
              <g id="Group_1085547" data-name="Group 1085547">
                <g id="Group_1085546" data-name="Group 1085546" clip-path="url(#clip-path-6)">
                  <path id="Path_839201" data-name="Path 839201" d="M281.231,335.169l9.489.22s-9.086-2.644-10.591-2.558Z" transform="translate(-280.128 -332.829)" fill="#e06a4b"/>
                </g>
              </g>
            </g>
            <path id="Path_839202" data-name="Path 839202" d="M318.967,358.467l4.817.01a1.4,1.4,0,0,0,1.4-1.4l.053-24.953a1.4,1.4,0,0,0-1.4-1.4l-4.818-.01a1.4,1.4,0,0,0-1.4,1.4l-.053,24.953a1.4,1.4,0,0,0,1.4,1.4" transform="translate(-137.222 -142.9)" fill="#f2f1ec"/>
            <path id="Path_839203" data-name="Path 839203" d="M325.515,320.745v28.081a2.308,2.308,0,0,0,2.71,2.273l22.464-3.971a22.284,22.284,0,0,0,11.771-37.28l-2.167-2.261-32.408,9.95a3.356,3.356,0,0,0-2.371,3.208" transform="translate(-140.655 -132.908)" fill="#5c69ab"/>
            <path id="Path_839204" data-name="Path 839204" d="M333.669,372.215a1.524,1.524,0,1,1-2.042-.691,1.525,1.525,0,0,1,2.042.691" transform="translate(-142.929 -160.467)" fill="#f2f1ec"/>
            <path id="Path_839205" data-name="Path 839205" d="M327.6,351.2a2.592,2.592,0,0,1-2.59-2.592V320.529a3.62,3.62,0,0,1,2.572-3.479l32.408-9.95a.281.281,0,0,1,.288.075l2.167,2.261a22.568,22.568,0,0,1-11.921,37.755l-22.47,3.972a2.613,2.613,0,0,1-.454.04m32.389-43.509-32.241,9.9a3.057,3.057,0,0,0-2.171,2.937V348.61a2.026,2.026,0,0,0,2.377,1.993l22.464-3.971a22,22,0,0,0,11.616-36.8Z" transform="translate(-140.438 -132.692)" fill="#5c69ab"/>
            <line id="Line_198" data-name="Line 198" x1="5.817" y2="0.852" transform="translate(150.38 197.373)" fill="#c0644b"/>
            <path id="Path_839206" data-name="Path 839206" d="M264.583,348.47a.284.284,0,0,1-.04-.565l5.817-.852a.288.288,0,0,1,.322.24.284.284,0,0,1-.24.322l-5.817.852-.041,0" transform="translate(-114.204 -149.96)" fill="#f16f5f"/>
            <line id="Line_199" data-name="Line 199" x1="4.769" y2="1.113" transform="translate(152.588 202.675)" fill="#c0644b"/>
            <path id="Path_839207" data-name="Path 839207" d="M268.472,358.066a.284.284,0,0,1-.064-.561l4.769-1.113a.284.284,0,0,1,.128.553l-4.769,1.113a.28.28,0,0,1-.064.007" transform="translate(-115.884 -153.994)" fill="#f16f5f"/>
            <line id="Line_200" data-name="Line 200" x1="4.579" y2="1.252" transform="translate(155.826 207.604)" fill="#c0644b"/>
            <path id="Path_839208" data-name="Path 839208" d="M274.173,366.884a.284.284,0,0,1-.075-.558l4.58-1.252a.284.284,0,0,1,.149.548l-4.579,1.252a.288.288,0,0,1-.075.01" transform="translate(-118.347 -157.744)" fill="#f16f5f"/>
            <path id="Path_839209" data-name="Path 839209" d="M325.3,328.809a.284.284,0,0,1-.284-.284v-4.249a4.293,4.293,0,0,1,3.167-4.137l18.623-5.028a.284.284,0,0,1,.148.548l-18.623,5.028a3.724,3.724,0,0,0-2.747,3.589v4.249a.284.284,0,0,1-.284.284" transform="translate(-140.439 -136.155)" fill="#111"/>
            <path id="Path_839210" data-name="Path 839210" d="M330.611,314.055a.284.284,0,0,1-.245-.14l-6.992-11.832a.284.284,0,1,1,.489-.288l6.993,11.832a.284.284,0,0,1-.1.389.281.281,0,0,1-.144.039" transform="translate(-139.713 -130.345)" fill="#111"/>
            <path id="Path_839211" data-name="Path 839211" d="M255.9,258.885l6.062-9.814a19.467,19.467,0,0,1,8.011-7.259l10.7-5.233a8.819,8.819,0,0,1,4.952-.83l20.618-1.175a.671.671,0,0,1,.652.943l-.016.036a3.749,3.749,0,0,1-2.986,2.211l-9.688,1.189.476.044a3.389,3.389,0,0,1,2.874,2.213l.8,2.186.678.72a3.5,3.5,0,0,1,.709,3.682l-4.808,12.211a1.378,1.378,0,0,1-1.883.734,3.934,3.934,0,0,1-2.01-4.8l1.376-4.08-6.639,8.151a10.908,10.908,0,0,1-4.07,3.1l-5.116,2.249-3.606,10.1Z" transform="translate(-110.573 -101.359)" fill="#ffa485"/>
            <line id="Line_201" data-name="Line 201" y1="0.31" x2="7.048" transform="translate(176.512 137.838)" fill="#c0644b"/>
            <path id="Path_839212" data-name="Path 839212" d="M317.753,242.762a.338.338,0,0,1-.138.036l-7.049.31a.346.346,0,1,1-.03-.691l7.049-.311a.345.345,0,0,1,.168.655" transform="translate(-134.04 -104.614)" fill="#e06a4b"/>
            <line id="Line_202" data-name="Line 202" y1="0.892" x2="8.574" transform="translate(178.93 142.068)" fill="#c0644b"/>
            <path id="Path_839213" data-name="Path 839213" d="M323.537,250.211a.334.334,0,0,1-.117.034l-8.574.893a.345.345,0,1,1-.072-.687l8.573-.892a.345.345,0,0,1,.189.653" transform="translate(-135.881 -107.833)" fill="#e06a4b"/>
            <line id="Line_203" data-name="Line 203" x1="0.93" y2="2.348" transform="translate(181.837 148.16)" fill="#c0644b"/>
            <path id="Path_839214" data-name="Path 839214" d="M320.082,263.285a.345.345,0,0,1-.474-.437l.929-2.348a.345.345,0,0,1,.642.254l-.929,2.348a.346.346,0,0,1-.168.182" transform="translate(-138.092 -112.468)" fill="#e06a4b"/>
            <path id="Path_839215" data-name="Path 839215" d="M273.617,289.72l-3.554,3.812a1.4,1.4,0,0,1-1.98.069l-19.305-18a1.4,1.4,0,0,1-.069-1.98l3.555-3.812a1.4,1.4,0,0,1,1.98-.069l19.3,18a1.4,1.4,0,0,1,.069,1.98" transform="translate(-107.304 -116.393)" fill="#f2f1ec"/>
            <path id="Path_839216" data-name="Path 839216" d="M150.588,320.516c1,1.9,2.449,4.406,4.092,7.158a21.972,21.972,0,0,0,33.118,5.519c4.7-3.991,9.75-8.421,14.675-12.814,10.241-9.135,19.952-18.105,24.948-22.606a2.485,2.485,0,0,0,.028-3.668l-21.977-20.389a1.85,1.85,0,0,0-2.474-.038l-26.688,23.279-32.554,6.36s4,11.829,6.833,17.2" transform="translate(-62.116 -118.059)" fill="#5c69ab"/>
            <path id="Path_839217" data-name="Path 839217" d="M173.335,338.49A22.227,22.227,0,0,1,154.22,327.6c-1.794-3.006-3.173-5.418-4.1-7.171-2.815-5.328-6.812-17.122-6.852-17.241a.283.283,0,0,1,.215-.369l32.48-6.346L202.6,273.248a2.128,2.128,0,0,1,2.854.044l21.976,20.389a2.767,2.767,0,0,1-.031,4.087c-1.716,1.546-3.989,3.62-6.649,6.047-5.158,4.706-11.577,10.564-18.3,16.561-5.615,5.008-10.417,9.2-14.681,12.818a21.993,21.993,0,0,1-9.305,4.7,22.529,22.529,0,0,1-5.125.593m-29.422-35.172c.65,1.9,4.171,12.043,6.71,16.85.922,1.743,2.3,4.148,4.085,7.145a21.668,21.668,0,0,0,23.622,10.03,21.442,21.442,0,0,0,9.068-4.582c4.26-3.615,9.059-7.8,14.669-12.81,6.721-6,13.139-11.851,18.3-16.556,2.66-2.428,4.934-4.5,6.651-6.049a2.208,2.208,0,0,0,.729-1.62,2.178,2.178,0,0,0-.7-1.628l-21.976-20.389a1.562,1.562,0,0,0-2.094-.032L176.28,296.955a.275.275,0,0,1-.132.064Z" transform="translate(-61.9 -117.842)" fill="#5c69ab"/>
            <path id="Path_839218" data-name="Path 839218" d="M192.933,375.98q-.778,0-1.558-.042a.284.284,0,0,1-.267-.3.277.277,0,0,1,.3-.267,28.733,28.733,0,0,0,21.029-7.626l8.4-7.83a.284.284,0,1,1,.387.416l-8.4,7.83a29.3,29.3,0,0,1-19.89,7.819" transform="translate(-82.577 -155.486)" fill="#111"/>
            <path id="Path_839219" data-name="Path 839219" d="M181.648,311.132a.284.284,0,0,1-.184-.5l28.618-24.353a.284.284,0,0,1,.369.433l-28.619,24.353a.282.282,0,0,1-.184.068" transform="translate(-78.367 -123.672)" fill="#111"/>
            <path id="Path_839220" data-name="Path 839220" d="M186.456,303.454a.284.284,0,0,1-.246-.141L174.936,283.84a.284.284,0,1,1,.491-.285L186.7,303.027a.284.284,0,0,1-.245.427" transform="translate(-75.573 -122.463)" fill="#111"/>
            <path id="Path_839221" data-name="Path 839221" d="M278.046,311.081A1.524,1.524,0,1,1,276,310.39a1.525,1.525,0,0,1,2.042.691" transform="translate(-118.894 -134.051)" fill="#f2f1ec"/>
            <path id="Path_839222" data-name="Path 839222" d="M14.2,102.735V169.7c0,10.269,28.145,19.181,69.395,23.641V126.376C42.348,121.916,14.2,113,14.2,102.735" transform="translate(-6.137 -44.392)" fill="#eb8d2e"/>
            <path id="Path_839223" data-name="Path 839223" d="M81.651,154.8l-.031,0c-34.031-3.679-55.171-10.957-55.171-18.991a.284.284,0,0,1,.568,0c0,7.6,21.457,14.836,54.664,18.427a.284.284,0,0,1-.03.566" transform="translate(-11.429 -58.558)" fill="#f6eee3"/>
            <path id="Path_839224" data-name="Path 839224" d="M61.634,177.1a.28.28,0,0,1-.065-.007,104.991,104.991,0,0,1-13.676-4.048.284.284,0,0,1,.2-.53,104.487,104.487,0,0,0,13.6,4.025.284.284,0,0,1-.064.561" transform="translate(-20.616 -74.536)" fill="#f6eee3"/>
            <path id="Path_839225" data-name="Path 839225" d="M108.05,186.3l-.031,0c-7.262-.785-14.073-1.752-20.242-2.874a.284.284,0,0,1,.1-.559c6.155,1.119,12.953,2.084,20.2,2.868a.284.284,0,0,1-.03.566" transform="translate(-37.828 -79.013)" fill="#111"/>
            <path id="Path_839226" data-name="Path 839226" d="M29.718,210.895l7.838,2.511V202.23l-7.838-3.012Z" transform="translate(-12.841 -86.082)" fill="#111"/>
            <path id="Path_839227" data-name="Path 839227" d="M37.624,208.275l-8.406-2.692V186.447l8.406,3.231Zm-7.838-3.106,7.27,2.328V190.068l-7.27-2.794Z" transform="translate(-12.625 -80.564)" fill="#f6eee3"/>
            <path id="Path_839228" data-name="Path 839228" d="M57.515,220.9l-8.406-2.692V207.594l8.406,3.231ZM49.677,217.8l7.27,2.328v-8.91l-7.27-2.794Z" transform="translate(-21.22 -89.701)" fill="#f6eee3"/>
            <path id="Path_839229" data-name="Path 839229" d="M431.814,102.735V169.7c0,8.484-19.21,16.041-49.15,20.928-.848.139-1.01-66.8-.29-66.915,30.105-4.884,49.44-12.464,49.44-20.975" transform="translate(-165.027 -44.392)" fill="#eb8d2e"/>
            <path id="Path_839230" data-name="Path 839230" d="M432.857,147.132a.284.284,0,0,1-.065-.56c7.113-1.69,12.444-3.614,15.846-5.719a.284.284,0,1,1,.3.483c-3.453,2.136-8.841,4.084-16.014,5.788a.258.258,0,0,1-.065.008" transform="translate(-186.915 -60.844)" fill="#111"/>
            <path id="Path_839231" data-name="Path 839231" d="M433.573,163.352a.284.284,0,0,1-.065-.56c6.93-1.646,12.125-3.521,15.44-5.572a.284.284,0,0,1,.3.483c-3.367,2.083-8.617,3.981-15.608,5.641a.256.256,0,0,1-.065.008" transform="translate(-187.224 -67.916)" fill="#f6eee3"/>
            <g id="Group_1085551" data-name="Group 1085551" transform="translate(50.159 119.245)" opacity="0.69">
              <g id="Group_1085550" data-name="Group 1085550">
                <g id="Group_1085549" data-name="Group 1085549" clip-path="url(#clip-path-7)">
                  <path id="Path_839232" data-name="Path 839232" d="M99.585,223.056,88.564,211.687a.852.852,0,1,1,1.223-1.185l9.855,10.165,11.4-10.691,14.035,10.883a.852.852,0,0,1-1.044,1.346l-12.886-9.993Z" transform="translate(-88.324 -209.975)" fill="#1b1f38"/>
                </g>
              </g>
            </g>
            <path id="Path_839233" data-name="Path 839233" d="M90.508,209.77a2.858,2.858,0,1,1-2.858-2.858,2.858,2.858,0,0,1,2.858,2.858" transform="translate(-36.639 -89.407)" fill="#bcc5f6"/>
            <path id="Path_839234" data-name="Path 839234" d="M129.1,209.77a2.858,2.858,0,1,1-2.858-2.858,2.858,2.858,0,0,1,2.858,2.858" transform="translate(-53.313 -89.407)" fill="#bcc5f6"/>
            <path id="Path_839235" data-name="Path 839235" d="M108.888,228.15a2.858,2.858,0,1,1-2.858-2.858,2.858,2.858,0,0,1,2.858,2.858" transform="translate(-44.581 -97.349)" fill="#5f73d3"/>
            <path id="Path_839236" data-name="Path 839236" d="M152.8,228.15a2.858,2.858,0,1,1-2.858-2.858,2.858,2.858,0,0,1,2.858,2.858" transform="translate(-63.554 -97.349)" fill="#5f73d3"/>
            <rect id="Rectangle_385770" data-name="Rectangle 385770" width="4.608" height="32.768" transform="translate(197.982 97.461)" fill="#5c69ab"/>
            <path id="Path_839237" data-name="Path 839237" d="M353.3,204.452H348.12V171.115H353.3Zm-4.608-.568h4.04v-32.2h-4.04Z" transform="translate(-150.423 -73.939)" fill="#5c69ab"/>
            <path id="Path_839238" data-name="Path 839238" d="M368.77,197.7h-5.176V155.488h5.176Zm-4.608-.568h4.04V156.056h-4.04Z" transform="translate(-157.109 -67.186)" fill="#111"/>
            <path id="Path_839239" data-name="Path 839239" d="M400.93,197.7h-5.176V155.488h5.176Zm-4.608-.568h4.04V156.056h-4.04Z" transform="translate(-171.005 -67.186)" fill="#111"/>
            <g id="Group_1085554" data-name="Group 1085554" transform="translate(233.566 82.271)" opacity="0.46">
              <g id="Group_1085553" data-name="Group 1085553">
                <g id="Group_1085552" data-name="Group 1085552" clip-path="url(#clip-path-8)">
                  <rect id="Rectangle_385771" data-name="Rectangle 385771" width="4.608" height="47.958" transform="translate(0.001 0.001)" fill="#fff"/>
                </g>
              </g>
            </g>
            <rect id="Rectangle_385773" data-name="Rectangle 385773" width="4.608" height="31.318" transform="translate(233.567 98.911)" fill="#5c69ab"/>
            <path id="Path_839240" data-name="Path 839240" d="M415.957,205.555h-5.176V173.67h5.176Zm-4.608-.567h4.04v-30.75h-4.04Z" transform="translate(-177.498 -75.043)" fill="#5c69ab"/>
            <rect id="Rectangle_385774" data-name="Rectangle 385774" width="4.608" height="29.355" transform="translate(216.158 100.874)" fill="#5c69ab"/>
            <path id="Path_839241" data-name="Path 839241" d="M385.3,207.049h-5.176V177.126H385.3Zm-4.608-.567h4.04V177.694h-4.04Z" transform="translate(-164.253 -76.536)" fill="#5c69ab"/>
          </g>
        </g>
      </g>
    </g>
    <path id="Path_839904" data-name="Path 839904" d="M0,0H186.5V41.249H157.941l-4.8,9.166H0Z" transform="translate(391.36 14061.476)" fill="#e1fbff"/>
    <path id="Path_839905" data-name="Path 839905" d="M3.779,12.491V17H1.143V4.2H6.135A5.776,5.776,0,0,1,8.67,4.73a3.886,3.886,0,0,1,1.683,1.5,4.178,4.178,0,0,1,.589,2.21,3.674,3.674,0,0,1-1.288,2.966,5.363,5.363,0,0,1-3.564,1.085Zm0-2.136H6.135a2.316,2.316,0,0,0,1.6-.492,1.79,1.79,0,0,0,.549-1.406,2.111,2.111,0,0,0-.554-1.521,2.068,2.068,0,0,0-1.529-.6H3.779ZM15.267,17H12.718V3.5h2.549Zm7.6,0a2.821,2.821,0,0,1-.255-.853,3.073,3.073,0,0,1-2.4,1.028,3.376,3.376,0,0,1-2.316-.809,2.6,2.6,0,0,1-.918-2.039,2.687,2.687,0,0,1,1.121-2.32,5.529,5.529,0,0,1,3.239-.817h1.169v-.545a1.567,1.567,0,0,0-.338-1.055A1.331,1.331,0,0,0,21.1,9.2,1.513,1.513,0,0,0,20.1,9.5a1.045,1.045,0,0,0-.365.844h-2.54a2.551,2.551,0,0,1,.51-1.529,3.37,3.37,0,0,1,1.441-1.1,5.253,5.253,0,0,1,2.092-.4,4.15,4.15,0,0,1,2.791.883,3.09,3.09,0,0,1,1.033,2.483V14.8a4.546,4.546,0,0,0,.378,2.048V17Zm-2.1-1.767a2.188,2.188,0,0,0,1.037-.25,1.645,1.645,0,0,0,.7-.672V12.676H21.56q-1.907,0-2.03,1.318l-.009.149a1.017,1.017,0,0,0,.334.782A1.3,1.3,0,0,0,20.769,15.233ZM29.347,7.49l.079,1.1a3.32,3.32,0,0,1,2.733-1.274,2.759,2.759,0,0,1,2.25.888,4.142,4.142,0,0,1,.756,2.654V17h-2.54V10.918a1.648,1.648,0,0,0-.352-1.173A1.574,1.574,0,0,0,31.1,9.38a1.747,1.747,0,0,0-1.608.914V17h-2.54V7.49ZM39.771,17H37.222V7.49h2.549Zm-2.7-11.971a1.251,1.251,0,0,1,.382-.94,1.648,1.648,0,0,1,2.079,0,1.244,1.244,0,0,1,.387.94,1.247,1.247,0,0,1-.391.949,1.629,1.629,0,0,1-2.065,0A1.247,1.247,0,0,1,37.072,5.029ZM42.478,17V9.354H41.063V7.49h1.415V7.051a3.566,3.566,0,0,1,1.1-2.764,4.438,4.438,0,0,1,3.063-.971,10.16,10.16,0,0,1,2.883.519l-.369,2.1a11.248,11.248,0,0,0-1.336-.33A6.564,6.564,0,0,0,46.8,5.53q-1.775,0-1.775,1.573V7.49H46.9V9.354H45.026V17Zm8.235,0H48.164V7.49h2.549Zm6.056-1.872a1.666,1.666,0,0,0,1.143-.387,1.355,1.355,0,0,0,.457-1.028H60.75a3.258,3.258,0,0,1-.527,1.771A3.48,3.48,0,0,1,58.8,16.732a4.442,4.442,0,0,1-1.991.444,4.129,4.129,0,0,1-3.217-1.3A5.13,5.13,0,0,1,52.418,12.3v-.167a5.071,5.071,0,0,1,1.169-3.507,4.08,4.08,0,0,1,3.208-1.31A4,4,0,0,1,59.656,8.33a3.594,3.594,0,0,1,1.094,2.7H58.368a1.745,1.745,0,0,0-.457-1.206,1.7,1.7,0,0,0-2.5.183,3.749,3.749,0,0,0-.453,2.1v.264a3.8,3.8,0,0,0,.448,2.113A1.549,1.549,0,0,0,56.769,15.128ZM67.711,17a2.821,2.821,0,0,1-.255-.853,3.073,3.073,0,0,1-2.4,1.028,3.376,3.376,0,0,1-2.316-.809,2.6,2.6,0,0,1-.918-2.039,2.687,2.687,0,0,1,1.121-2.32,5.529,5.529,0,0,1,3.239-.817h1.169v-.545a1.567,1.567,0,0,0-.338-1.055,1.331,1.331,0,0,0-1.068-.4,1.513,1.513,0,0,0-1.006.308,1.045,1.045,0,0,0-.365.844h-2.54a2.551,2.551,0,0,1,.51-1.529,3.37,3.37,0,0,1,1.441-1.1,5.253,5.253,0,0,1,2.092-.4,4.15,4.15,0,0,1,2.791.883A3.09,3.09,0,0,1,69.9,10.681V14.8a4.546,4.546,0,0,0,.378,2.048V17Zm-2.1-1.767a2.188,2.188,0,0,0,1.037-.25,1.645,1.645,0,0,0,.7-.672V12.676H66.4q-1.907,0-2.03,1.318l-.009.149a1.017,1.017,0,0,0,.334.782A1.3,1.3,0,0,0,65.61,15.233Zm10.2-.105a1.666,1.666,0,0,0,1.143-.387,1.355,1.355,0,0,0,.457-1.028h2.382a3.258,3.258,0,0,1-.527,1.771,3.48,3.48,0,0,1-1.419,1.248,4.442,4.442,0,0,1-1.991.444,4.129,4.129,0,0,1-3.217-1.3A5.13,5.13,0,0,1,71.455,12.3v-.167a5.071,5.071,0,0,1,1.169-3.507,4.08,4.08,0,0,1,3.208-1.31A4,4,0,0,1,78.693,8.33a3.594,3.594,0,0,1,1.094,2.7H77.405a1.745,1.745,0,0,0-.457-1.206,1.7,1.7,0,0,0-2.5.183,3.749,3.749,0,0,0-.453,2.1v.264a3.8,3.8,0,0,0,.448,2.113A1.549,1.549,0,0,0,75.806,15.128ZM83.918,17H81.369V7.49h2.549ZM81.22,5.029a1.251,1.251,0,0,1,.382-.94,1.648,1.648,0,0,1,2.079,0,1.244,1.244,0,0,1,.387.94,1.247,1.247,0,0,1-.391.949,1.629,1.629,0,0,1-2.065,0A1.247,1.247,0,0,1,81.22,5.029Zm4.395,7.128a5.64,5.64,0,0,1,.545-2.522,3.989,3.989,0,0,1,1.569-1.714,4.577,4.577,0,0,1,2.377-.606,4.33,4.33,0,0,1,3.142,1.178,4.727,4.727,0,0,1,1.358,3.2l.018.65A4.97,4.97,0,0,1,93.4,15.853a4.735,4.735,0,0,1-6.561,0,5.058,5.058,0,0,1-1.226-3.586Zm2.54.18a3.555,3.555,0,0,0,.51,2.073,1.831,1.831,0,0,0,2.9.009,3.89,3.89,0,0,0,.519-2.267,3.519,3.519,0,0,0-.519-2.06,1.686,1.686,0,0,0-1.459-.731,1.658,1.658,0,0,0-1.441.726A3.955,3.955,0,0,0,88.154,12.338ZM90.606,3.5h2.769L90.94,6.225H88.875Zm7.919,3.99.079,1.1a3.32,3.32,0,0,1,2.733-1.274,2.759,2.759,0,0,1,2.25.888,4.142,4.142,0,0,1,.756,2.654V17H101.8V10.918a1.648,1.648,0,0,0-.352-1.173,1.574,1.574,0,0,0-1.169-.365,1.747,1.747,0,0,0-1.608.914V17h-2.54V7.49Z" transform="translate(413.36 14072.091)" fill="#12263f"/>
    <path id="Path_213850" data-name="Path 213850" d="M2.538,1.311H57.953V22.217H-7.718Z" transform="translate(521.807 14097.176)" fill="#3ae3fe" opacity="0.5"/>
    <path id="Path_839906" data-name="Path 839906" d="M0,0H186.5V41.249H157.941l-4.8,9.166H0Z" transform="translate(494.76 13860.476)" fill="#e1efe3"/>
    <path id="Path_839907" data-name="Path 839907" d="M11.654,10.892a7.725,7.725,0,0,1-.668,3.313,5.03,5.03,0,0,1-1.912,2.2,5.288,5.288,0,0,1-2.852.773,5.324,5.324,0,0,1-2.839-.765A5.08,5.08,0,0,1,1.45,14.227a7.5,7.5,0,0,1-.694-3.265v-.633A7.685,7.685,0,0,1,1.437,7,5.072,5.072,0,0,1,3.362,4.8a5.3,5.3,0,0,1,2.843-.769A5.3,5.3,0,0,1,9.048,4.8,5.072,5.072,0,0,1,10.973,7a7.663,7.663,0,0,1,.681,3.318Zm-2.672-.58a5.385,5.385,0,0,0-.721-3.059A2.349,2.349,0,0,0,6.205,6.207,2.349,2.349,0,0,0,4.157,7.24a5.324,5.324,0,0,0-.729,3.028v.624a5.453,5.453,0,0,0,.721,3.041,2.342,2.342,0,0,0,2.074,1.081,2.321,2.321,0,0,0,2.039-1.042,5.421,5.421,0,0,0,.721-3.037Zm9.765-.439a6.9,6.9,0,0,0-.914-.07,1.86,1.86,0,0,0-1.89.976V17H13.4V7.49h2.4l.07,1.134a2.354,2.354,0,0,1,2.118-1.31,2.662,2.662,0,0,1,.791.114Zm.686,2.3A5.573,5.573,0,0,1,20.474,8.65a3.375,3.375,0,0,1,2.808-1.336,2.96,2.96,0,0,1,2.435,1.072l.105-.9h2.3v9.193a4.064,4.064,0,0,1-.567,2.171,3.641,3.641,0,0,1-1.6,1.406,5.608,5.608,0,0,1-2.408.483,5.215,5.215,0,0,1-2.039-.417,3.619,3.619,0,0,1-1.5-1.077L21.138,17.7a2.975,2.975,0,0,0,2.3,1.063,2.178,2.178,0,0,0,1.573-.541,2.027,2.027,0,0,0,.563-1.534v-.51a2.938,2.938,0,0,1-2.312.993,3.366,3.366,0,0,1-2.773-1.34,5.572,5.572,0,0,1-1.059-3.555Zm2.54.189a3.47,3.47,0,0,0,.519,2.029,1.65,1.65,0,0,0,1.424.735,1.764,1.764,0,0,0,1.661-.871V10.251a1.76,1.76,0,0,0-1.644-.871,1.66,1.66,0,0,0-1.437.748A3.911,3.911,0,0,0,21.973,12.364ZM35.587,17a2.821,2.821,0,0,1-.255-.853,3.073,3.073,0,0,1-2.4,1.028,3.376,3.376,0,0,1-2.316-.809,2.6,2.6,0,0,1-.918-2.039,2.687,2.687,0,0,1,1.121-2.32,5.529,5.529,0,0,1,3.239-.817h1.169v-.545a1.567,1.567,0,0,0-.338-1.055,1.331,1.331,0,0,0-1.068-.4,1.513,1.513,0,0,0-1.006.308,1.045,1.045,0,0,0-.365.844h-2.54a2.551,2.551,0,0,1,.51-1.529,3.37,3.37,0,0,1,1.441-1.1,5.253,5.253,0,0,1,2.092-.4,4.15,4.15,0,0,1,2.791.883,3.09,3.09,0,0,1,1.033,2.483V14.8a4.546,4.546,0,0,0,.378,2.048V17Zm-2.1-1.767a2.188,2.188,0,0,0,1.037-.25,1.645,1.645,0,0,0,.7-.672V12.676h-.949q-1.907,0-2.03,1.318l-.009.149a1.017,1.017,0,0,0,.334.782A1.3,1.3,0,0,0,33.486,15.233ZM42.064,7.49l.079,1.1a3.32,3.32,0,0,1,2.733-1.274,2.759,2.759,0,0,1,2.25.888,4.142,4.142,0,0,1,.756,2.654V17h-2.54V10.918a1.648,1.648,0,0,0-.352-1.173,1.574,1.574,0,0,0-1.169-.365,1.747,1.747,0,0,0-1.608.914V17h-2.54V7.49ZM52.488,17H49.939V7.49h2.549ZM49.79,5.029a1.251,1.251,0,0,1,.382-.94,1.648,1.648,0,0,1,2.079,0,1.244,1.244,0,0,1,.387.94,1.247,1.247,0,0,1-.391.949,1.629,1.629,0,0,1-2.065,0A1.247,1.247,0,0,1,49.79,5.029ZM57.5,14.952h4.649V17H54.255V15.453l4.474-5.915H54.387V7.49h7.62v1.5ZM69.249,17a2.821,2.821,0,0,1-.255-.853,3.073,3.073,0,0,1-2.4,1.028,3.376,3.376,0,0,1-2.316-.809,2.6,2.6,0,0,1-.918-2.039,2.687,2.687,0,0,1,1.121-2.32,5.529,5.529,0,0,1,3.239-.817h1.169v-.545a1.567,1.567,0,0,0-.338-1.055,1.331,1.331,0,0,0-1.068-.4,1.513,1.513,0,0,0-1.006.308,1.045,1.045,0,0,0-.365.844h-2.54a2.551,2.551,0,0,1,.51-1.529,3.37,3.37,0,0,1,1.441-1.1,5.253,5.253,0,0,1,2.092-.4A4.15,4.15,0,0,1,70.4,8.2a3.09,3.09,0,0,1,1.033,2.483V14.8a4.546,4.546,0,0,0,.378,2.048V17Zm-2.1-1.767a2.188,2.188,0,0,0,1.037-.25,1.645,1.645,0,0,0,.7-.672V12.676h-.949q-1.907,0-2.03,1.318l-.009.149a1.017,1.017,0,0,0,.334.782A1.3,1.3,0,0,0,67.148,15.233Zm10.2-.105a1.666,1.666,0,0,0,1.143-.387,1.355,1.355,0,0,0,.457-1.028h2.382a3.258,3.258,0,0,1-.527,1.771,3.48,3.48,0,0,1-1.419,1.248,4.442,4.442,0,0,1-1.991.444,4.129,4.129,0,0,1-3.217-1.3A5.13,5.13,0,0,1,72.993,12.3v-.167a5.071,5.071,0,0,1,1.169-3.507,4.08,4.08,0,0,1,3.208-1.31A4,4,0,0,1,80.231,8.33a3.594,3.594,0,0,1,1.094,2.7H78.943a1.745,1.745,0,0,0-.457-1.206,1.7,1.7,0,0,0-2.5.183,3.749,3.749,0,0,0-.453,2.1v.264a3.8,3.8,0,0,0,.448,2.113A1.549,1.549,0,0,0,77.344,15.128ZM85.456,17H82.907V7.49h2.549Zm-2.7-11.971a1.251,1.251,0,0,1,.382-.94,1.648,1.648,0,0,1,2.079,0,1.244,1.244,0,0,1,.387.94,1.247,1.247,0,0,1-.391.949,1.629,1.629,0,0,1-2.065,0A1.247,1.247,0,0,1,82.758,5.029Zm4.395,7.128A5.64,5.64,0,0,1,87.7,9.635a3.989,3.989,0,0,1,1.569-1.714,4.577,4.577,0,0,1,2.377-.606,4.33,4.33,0,0,1,3.142,1.178,4.727,4.727,0,0,1,1.358,3.2l.018.65a4.97,4.97,0,0,1-1.222,3.511,4.735,4.735,0,0,1-6.561,0,5.058,5.058,0,0,1-1.226-3.586Zm2.54.18a3.555,3.555,0,0,0,.51,2.073,1.831,1.831,0,0,0,2.9.009,3.89,3.89,0,0,0,.519-2.267,3.519,3.519,0,0,0-.519-2.06,1.686,1.686,0,0,0-1.459-.731,1.658,1.658,0,0,0-1.441.726A3.955,3.955,0,0,0,89.692,12.338ZM92.145,3.5h2.769L92.479,6.225H90.413Zm7.919,3.99.079,1.1a3.32,3.32,0,0,1,2.733-1.274,2.759,2.759,0,0,1,2.25.888,4.142,4.142,0,0,1,.756,2.654V17h-2.54V10.918a1.648,1.648,0,0,0-.352-1.173,1.574,1.574,0,0,0-1.169-.365,1.747,1.747,0,0,0-1.608.914V17h-2.54V7.49Z" transform="translate(516.76 13871.091)" fill="#12263f"/>
    <path id="Path_213850-2" data-name="Path 213850" d="M2.538,1.311H57.953V22.217H-7.718Z" transform="translate(625.207 13896.176)" fill="#2b7e3b" opacity="0.5"/>
    <path id="Path_839908" data-name="Path 839908" d="M0,0H186.5V41.249H157.941l-4.8,9.166H0Z" transform="translate(1019.76 14061.476)" fill="#e8e8e8"/>
    <path id="Path_839909" data-name="Path 839909" d="M11.188,12.737a4.528,4.528,0,0,1-1.525,3.252,5.355,5.355,0,0,1-3.625,1.187,4.816,4.816,0,0,1-3.872-1.657A6.793,6.793,0,0,1,.756,10.971v-.782a7.671,7.671,0,0,1,.65-3.252A4.874,4.874,0,0,1,3.265,4.779a5.207,5.207,0,0,1,2.808-.751A5.217,5.217,0,0,1,9.642,5.214a4.866,4.866,0,0,1,1.564,3.331H8.569a2.673,2.673,0,0,0-.69-1.8,2.555,2.555,0,0,0-1.806-.558A2.24,2.24,0,0,0,4.1,7.134a5.3,5.3,0,0,0-.672,2.931v.967a5.667,5.667,0,0,0,.628,3.032,2.2,2.2,0,0,0,1.982.958,2.6,2.6,0,0,0,1.824-.558,2.521,2.521,0,0,0,.69-1.727Zm1.169-.58A5.64,5.64,0,0,1,12.9,9.635a3.989,3.989,0,0,1,1.569-1.714,4.577,4.577,0,0,1,2.377-.606,4.33,4.33,0,0,1,3.142,1.178,4.727,4.727,0,0,1,1.358,3.2l.018.65a4.97,4.97,0,0,1-1.222,3.511,4.247,4.247,0,0,1-3.278,1.323,4.268,4.268,0,0,1-3.283-1.318,5.058,5.058,0,0,1-1.226-3.586Zm2.54.18a3.555,3.555,0,0,0,.51,2.073,1.831,1.831,0,0,0,2.9.009,3.89,3.89,0,0,0,.519-2.267,3.519,3.519,0,0,0-.519-2.06,1.686,1.686,0,0,0-1.459-.731,1.658,1.658,0,0,0-1.441.726A3.955,3.955,0,0,0,14.9,12.338ZM25.269,7.49l.079,1.1a3.32,3.32,0,0,1,2.733-1.274,2.759,2.759,0,0,1,2.25.888,4.142,4.142,0,0,1,.756,2.654V17h-2.54V10.918A1.648,1.648,0,0,0,28.2,9.745a1.574,1.574,0,0,0-1.169-.365,1.747,1.747,0,0,0-1.608.914V17h-2.54V7.49ZM36.053,5.152V7.49h1.626V9.354H36.053V14.1a1.133,1.133,0,0,0,.2.756,1.015,1.015,0,0,0,.773.229,4.051,4.051,0,0,0,.747-.062v1.925a5.229,5.229,0,0,1-1.538.229,2.425,2.425,0,0,1-2.725-2.7V9.354H32.124V7.49h1.389V5.152Zm8.385,4.72a6.9,6.9,0,0,0-.914-.07,1.86,1.86,0,0,0-1.89.976V17h-2.54V7.49h2.4l.07,1.134a2.354,2.354,0,0,1,2.118-1.31,2.662,2.662,0,0,1,.791.114Zm.51,2.285a5.64,5.64,0,0,1,.545-2.522,3.989,3.989,0,0,1,1.569-1.714,4.577,4.577,0,0,1,2.377-.606,4.33,4.33,0,0,1,3.142,1.178,4.727,4.727,0,0,1,1.358,3.2l.018.65a4.97,4.97,0,0,1-1.222,3.511,4.735,4.735,0,0,1-6.561,0,5.058,5.058,0,0,1-1.226-3.586Zm2.54.18A3.555,3.555,0,0,0,48,14.411a1.831,1.831,0,0,0,2.9.009,3.89,3.89,0,0,0,.519-2.267,3.519,3.519,0,0,0-.519-2.06,1.686,1.686,0,0,0-1.459-.731A1.658,1.658,0,0,0,48,10.089,3.955,3.955,0,0,0,47.487,12.338ZM58.2,17H55.652V3.5H58.2Z" transform="translate(1041.76 14074.091)" fill="#12263f"/>
    <path id="Path_213850-3" data-name="Path 213850" d="M2.538,1.311H57.953V22.217H-7.718Z" transform="translate(1150.207 14097.176)" fill="#afafaf"/>
    <path id="Path_839910" data-name="Path 839910" d="M0,0H186.5V41.249H157.941l-4.8,9.166H0Z" transform="translate(914.76 13860.476)" fill="#dee4f0"/>
    <path id="Path_839911" data-name="Path 839911" d="M8.842,11.454H3.779v3.428H9.721V17H1.143V4.2H9.7V6.339H3.779v3.05H8.842ZM13.79,7.49V17.519a3.4,3.4,0,0,1-.835,2.448,3.174,3.174,0,0,1-2.408.875,5.165,5.165,0,0,1-1.257-.149V18.679a4.768,4.768,0,0,0,.8.079q1.151,0,1.151-1.222V7.49ZM11.039,5.029a1.251,1.251,0,0,1,.382-.94,1.436,1.436,0,0,1,1.042-.369,1.436,1.436,0,0,1,1.042.369,1.251,1.251,0,0,1,.382.94,1.247,1.247,0,0,1-.391.949,1.443,1.443,0,0,1-1.033.369,1.443,1.443,0,0,1-1.033-.369A1.247,1.247,0,0,1,11.039,5.029Zm9.114,12.146a4.668,4.668,0,0,1-3.406-1.283,4.561,4.561,0,0,1-1.314-3.419v-.246a5.745,5.745,0,0,1,.554-2.562,4.064,4.064,0,0,1,1.569-1.74,4.4,4.4,0,0,1,2.316-.611,3.947,3.947,0,0,1,3.072,1.23,5,5,0,0,1,1.121,3.489v1.037H18.009a2.36,2.36,0,0,0,.743,1.494,2.245,2.245,0,0,0,1.569.563,2.742,2.742,0,0,0,2.294-1.063l1.248,1.4a3.813,3.813,0,0,1-1.547,1.261A5.075,5.075,0,0,1,20.153,17.176Zm-.29-7.813a1.587,1.587,0,0,0-1.226.512,2.651,2.651,0,0,0-.6,1.466h3.533v-.2a1.891,1.891,0,0,0-.457-1.311A1.638,1.638,0,0,0,19.863,9.362Zm9.6,5.766a1.666,1.666,0,0,0,1.143-.387,1.355,1.355,0,0,0,.457-1.028h2.382a3.258,3.258,0,0,1-.527,1.771A3.48,3.48,0,0,1,31.5,16.732a4.442,4.442,0,0,1-1.991.444,4.129,4.129,0,0,1-3.217-1.3A5.13,5.13,0,0,1,25.11,12.3v-.167a5.071,5.071,0,0,1,1.169-3.507,4.08,4.08,0,0,1,3.208-1.31A4,4,0,0,1,32.348,8.33a3.594,3.594,0,0,1,1.094,2.7H31.061A1.745,1.745,0,0,0,30.6,9.826a1.7,1.7,0,0,0-2.5.183,3.749,3.749,0,0,0-.453,2.1v.264a3.8,3.8,0,0,0,.448,2.113A1.549,1.549,0,0,0,29.461,15.128Zm11.127.905a3.185,3.185,0,0,1-2.6,1.143,3,3,0,0,1-2.333-.879,3.752,3.752,0,0,1-.822-2.575V7.49h2.54v6.151q0,1.487,1.354,1.487a1.834,1.834,0,0,0,1.775-.9V7.49h2.549V17H40.658Zm8.332-.905a1.666,1.666,0,0,0,1.143-.387,1.355,1.355,0,0,0,.457-1.028H52.9a3.258,3.258,0,0,1-.527,1.771,3.48,3.48,0,0,1-1.419,1.248,4.442,4.442,0,0,1-1.991.444,4.129,4.129,0,0,1-3.217-1.3A5.13,5.13,0,0,1,44.569,12.3v-.167a5.071,5.071,0,0,1,1.169-3.507,4.08,4.08,0,0,1,3.208-1.31A4,4,0,0,1,51.807,8.33a3.594,3.594,0,0,1,1.094,2.7H50.52a1.745,1.745,0,0,0-.457-1.206,1.7,1.7,0,0,0-2.5.183,3.749,3.749,0,0,0-.453,2.1v.264a3.8,3.8,0,0,0,.448,2.113A1.549,1.549,0,0,0,48.92,15.128ZM57.032,17H54.483V7.49h2.549Zm-2.7-11.971a1.251,1.251,0,0,1,.382-.94,1.648,1.648,0,0,1,2.079,0,1.244,1.244,0,0,1,.387.94,1.247,1.247,0,0,1-.391.949,1.629,1.629,0,0,1-2.065,0A1.247,1.247,0,0,1,54.334,5.029Zm4.395,7.128a5.64,5.64,0,0,1,.545-2.522,3.989,3.989,0,0,1,1.569-1.714,4.577,4.577,0,0,1,2.377-.606,4.33,4.33,0,0,1,3.142,1.178,4.727,4.727,0,0,1,1.358,3.2l.018.65a4.97,4.97,0,0,1-1.222,3.511,4.735,4.735,0,0,1-6.561,0,5.058,5.058,0,0,1-1.226-3.586Zm2.54.18a3.555,3.555,0,0,0,.51,2.073,1.831,1.831,0,0,0,2.9.009,3.89,3.89,0,0,0,.519-2.267,3.519,3.519,0,0,0-.519-2.06,1.686,1.686,0,0,0-1.459-.731,1.658,1.658,0,0,0-1.441.726A3.955,3.955,0,0,0,61.269,12.338ZM63.721,3.5h2.769L64.055,6.225H61.989ZM71.64,7.49l.079,1.1a3.32,3.32,0,0,1,2.733-1.274A2.759,2.759,0,0,1,76.7,8.2a4.142,4.142,0,0,1,.756,2.654V17h-2.54V10.918a1.648,1.648,0,0,0-.352-1.173A1.574,1.574,0,0,0,73.4,9.38a1.747,1.747,0,0,0-1.608.914V17h-2.54V7.49Z" transform="translate(936.76 13871.091)" fill="#12263f"/>
    <path id="Path_213850-4" data-name="Path 213850" d="M2.538,1.311H57.953V22.217H-7.718Z" transform="translate(1045.207 13896.176)" fill="#b0c0d2"/>
    <path id="Path_839912" data-name="Path 839912" d="M-1.406-8.818q0,4.424-1.831,6.768A6.391,6.391,0,0,1-8.6.293a6.436,6.436,0,0,1-5.332-2.3A10.488,10.488,0,0,1-15.82-8.6v-3.926q0-4.468,1.853-6.782a6.439,6.439,0,0,1,5.339-2.314A6.445,6.445,0,0,1-3.3-19.329a10.456,10.456,0,0,1,1.89,6.584ZM-5.64-13.135A7.81,7.81,0,0,0-6.365-17a2.45,2.45,0,0,0-2.263-1.21,2.407,2.407,0,0,0-2.2,1.151,7.309,7.309,0,0,0-.754,3.6v5.191a8.2,8.2,0,0,0,.71,3.878A2.418,2.418,0,0,0-8.6-3.12,2.377,2.377,0,0,0-6.357-4.337,8,8,0,0,0-5.64-8.061ZM11.733,0H7.5V-16.318L2.446-14.751v-3.442l8.833-3.164h.454Z" transform="translate(553.36 14111.394)" fill="#03386e"/>
    <path id="Path_839913" data-name="Path 839913" d="M-1.406-8.818q0,4.424-1.831,6.768A6.391,6.391,0,0,1-8.6.293a6.436,6.436,0,0,1-5.332-2.3A10.488,10.488,0,0,1-15.82-8.6v-3.926q0-4.468,1.853-6.782a6.439,6.439,0,0,1,5.339-2.314A6.445,6.445,0,0,1-3.3-19.329a10.456,10.456,0,0,1,1.89,6.584ZM-5.64-13.135A7.81,7.81,0,0,0-6.365-17a2.45,2.45,0,0,0-2.263-1.21,2.407,2.407,0,0,0-2.2,1.151,7.309,7.309,0,0,0-.754,3.6v5.191a8.2,8.2,0,0,0,.71,3.878A2.418,2.418,0,0,0-8.6-3.12,2.377,2.377,0,0,0-6.357-4.337,8,8,0,0,0-5.64-8.061ZM13.975-8.027h2.417v3.413H13.975V0H9.741V-4.614H1L.806-7.28,9.7-21.328h4.277Zm-8.95,0H9.741v-7.529l-.278.483Z" transform="translate(1181.76 14111.394)" fill="#03386e"/>
    <path id="Path_839914" data-name="Path 839914" d="M-1.406-8.818q0,4.424-1.831,6.768A6.391,6.391,0,0,1-8.6.293a6.436,6.436,0,0,1-5.332-2.3A10.488,10.488,0,0,1-15.82-8.6v-3.926q0-4.468,1.853-6.782a6.439,6.439,0,0,1,5.339-2.314A6.445,6.445,0,0,1-3.3-19.329a10.456,10.456,0,0,1,1.89,6.584ZM-5.64-13.135A7.81,7.81,0,0,0-6.365-17a2.45,2.45,0,0,0-2.263-1.21,2.407,2.407,0,0,0-2.2,1.151,7.309,7.309,0,0,0-.754,3.6v5.191a8.2,8.2,0,0,0,.71,3.878A2.418,2.418,0,0,0-8.6-3.12,2.377,2.377,0,0,0-6.357-4.337,8,8,0,0,0-5.64-8.061Zm11.4.6H8.013a3.179,3.179,0,0,0,2.388-.806,2.952,2.952,0,0,0,.776-2.139,2.61,2.61,0,0,0-.769-2.007,2.98,2.98,0,0,0-2.117-.718,3.124,3.124,0,0,0-2.036.667,2.131,2.131,0,0,0-.82,1.736H1.2a5.206,5.206,0,0,1,.9-3,6,6,0,0,1,2.52-2.073,8.409,8.409,0,0,1,3.567-.747A7.975,7.975,0,0,1,13.491-20a5.523,5.523,0,0,1,1.919,4.46,4.488,4.488,0,0,1-.894,2.7,5.805,5.805,0,0,1-2.344,1.89,5.3,5.3,0,0,1,2.688,1.934,5.245,5.245,0,0,1,.886,3.047,5.614,5.614,0,0,1-2.073,4.556A8.334,8.334,0,0,1,8.188.293,7.9,7.9,0,0,1,2.966-1.392,5.5,5.5,0,0,1,.938-5.845H5.171a2.453,2.453,0,0,0,.9,1.963,3.32,3.32,0,0,0,2.219.762,3.335,3.335,0,0,0,2.366-.8,2.756,2.756,0,0,0,.857-2.117q0-3.193-3.516-3.193H5.757Z" transform="translate(1076.76 13910.394)" fill="#03386e"/>
    <path id="Path_839915" data-name="Path 839915" d="M-1.406-8.818q0,4.424-1.831,6.768A6.391,6.391,0,0,1-8.6.293a6.436,6.436,0,0,1-5.332-2.3A10.488,10.488,0,0,1-15.82-8.6v-3.926q0-4.468,1.853-6.782a6.439,6.439,0,0,1,5.339-2.314A6.445,6.445,0,0,1-3.3-19.329a10.456,10.456,0,0,1,1.89,6.584ZM-5.64-13.135A7.81,7.81,0,0,0-6.365-17a2.45,2.45,0,0,0-2.263-1.21,2.407,2.407,0,0,0-2.2,1.151,7.309,7.309,0,0,0-.754,3.6v5.191a8.2,8.2,0,0,0,.71,3.878A2.418,2.418,0,0,0-8.6-3.12,2.377,2.377,0,0,0-6.357-4.337,8,8,0,0,0-5.64-8.061ZM16.069,0H1.45V-2.9l6.9-7.354a17.021,17.021,0,0,0,2.1-2.71,4.354,4.354,0,0,0,.681-2.2,3.258,3.258,0,0,0-.718-2.234,2.591,2.591,0,0,0-2.051-.813,2.794,2.794,0,0,0-2.263.989,3.917,3.917,0,0,0-.828,2.6H1.025a6.992,6.992,0,0,1,.93-3.56,6.556,6.556,0,0,1,2.629-2.527,7.992,7.992,0,0,1,3.853-.916,7.567,7.567,0,0,1,5.12,1.582,5.6,5.6,0,0,1,1.824,4.468,7.171,7.171,0,0,1-.82,3.223,17.909,17.909,0,0,1-2.812,3.823L6.9-3.413h9.17Z" transform="translate(654.76 13910.394)" fill="#03386e"/>
    <g id="Group_871045" data-name="Group 871045" transform="translate(533.713 14042.074)" clip-path="url(#clip-path-9)">
      <path id="Path_216394" data-name="Path 216394" d="M22.883,29.879H1.636A1.64,1.64,0,0,1,0,28.238V1.641A1.64,1.64,0,0,1,1.636,0H22.883a1.641,1.641,0,0,1,1.636,1.641v2.04a.623.623,0,0,1-1.246,0V1.641a.393.393,0,0,0-.389-.395H1.636a.393.393,0,0,0-.389.395v26.6a.393.393,0,0,0,.389.395H22.883a.393.393,0,0,0,.389-.395V15.61a.623.623,0,0,1,1.246,0V28.238a1.641,1.641,0,0,1-1.636,1.641" fill="#03386e"/>
      <path id="Path_216395" data-name="Path 216395" d="M121.634,63.069a.728.728,0,0,1-.7-.932l1.12-3.827.1-.109,13.015-13.819a1.022,1.022,0,0,1,1.449-.04l2.074,1.975a1.029,1.029,0,0,1,.039,1.448L125.62,61.693l-3.741,1.333a.726.726,0,0,1-.245.043m1.536-4.122-.75,2.564,2.5-.891,12.762-13.551L135.929,45.4Zm2.1,2.21h0Z" transform="translate(-109.646 -39.956)" fill="#03386e"/>
      <path id="Path_216396" data-name="Path 216396" d="M135.809,197.539a.621.621,0,0,1-.43-.172l-2.655-2.528a.623.623,0,1,1,.859-.9l2.655,2.528a.623.623,0,0,1-.43,1.074" transform="translate(-120.186 -175.715)" fill="#03386e"/>
      <path id="Path_216397" data-name="Path 216397" d="M54.957,50H38.8a.623.623,0,1,1,0-1.246H54.957a.623.623,0,0,1,0,1.246" transform="translate(-34.617 -44.213)" fill="#03386e"/>
      <path id="Path_216398" data-name="Path 216398" d="M51.479,101.933H38.8a.623.623,0,1,1,0-1.246H51.479a.623.623,0,0,1,0,1.246" transform="translate(-34.618 -91.308)" fill="#03386e"/>
      <path id="Path_216399" data-name="Path 216399" d="M46.261,153.864H38.8a.623.623,0,0,1,0-1.246h7.464a.623.623,0,0,1,0,1.246" transform="translate(-34.618 -138.401)" fill="#03386e"/>
      <path id="Path_216400" data-name="Path 216400" d="M43.653,205.8H38.8a.623.623,0,0,1,0-1.246h4.855a.623.623,0,0,1,0,1.246" transform="translate(-34.618 -185.495)" fill="#03386e"/>
      <path id="Path_216401" data-name="Path 216401" d="M54.957,257.727H38.8a.623.623,0,1,1,0-1.246H54.957a.623.623,0,0,1,0,1.246" transform="translate(-34.617 -232.589)" fill="#03386e"/>
    </g>
    <g id="Group_871033" data-name="Group 871033" transform="translate(1035.76 13834)" clip-path="url(#clip-path-10)">
      <path id="Path_216369" data-name="Path 216369" d="M118.488,212.955h-18.5a1.3,1.3,0,0,1-1.3-1.3v-5.181a3.948,3.948,0,0,1,2.754-3.772l3.957-1.266a.734.734,0,0,0,.512-.7v-.889a.776.776,0,0,1,1.552,0v.889a2.281,2.281,0,0,1-1.591,2.179l-3.957,1.266a2.4,2.4,0,0,0-1.674,2.294V211.4h18v-4.928a2.4,2.4,0,0,0-1.674-2.294l-3.969-1.27A2.281,2.281,0,0,1,111,200.731v-.885a.776.776,0,0,1,1.552,0v.885a.733.733,0,0,0,.512.7l3.969,1.27a3.948,3.948,0,0,1,2.754,3.772v5.181a1.3,1.3,0,0,1-1.3,1.3" transform="translate(-87.237 -175.975)" fill="#03386e"/>
      <path id="Path_216370" data-name="Path 216370" d="M144.268,115.93c-3.283,0-5.954-3.208-5.954-7.15,0-3.725,2.448-6.327,5.954-6.327s5.954,2.6,5.954,6.327c0,3.943-2.671,7.15-5.954,7.15m0-11.925c-2.633,0-4.4,1.919-4.4,4.775,0,3.087,1.974,5.6,4.4,5.6s4.4-2.511,4.4-5.6c0-2.856-1.769-4.775-4.4-4.775" transform="translate(-122.267 -90.567)" fill="#03386e"/>
      <path id="Path_216371" data-name="Path 216371" d="M135.462,275.842a.776.776,0,0,1-.776-.776v-4.079a.776.776,0,1,1,1.552,0v4.079a.776.776,0,0,1-.776.776" transform="translate(-119.06 -238.861)" fill="#03386e"/>
      <path id="Path_216372" data-name="Path 216372" d="M231.973,275.842a.776.776,0,0,1-.776-.776v-4.079a.776.776,0,1,1,1.552,0v4.079a.776.776,0,0,1-.776.776" transform="translate(-204.375 -238.861)" fill="#03386e"/>
      <path id="Path_216373" data-name="Path 216373" d="M183.717,15.639a.776.776,0,0,1-.776-.776V7.17a.776.776,0,1,1,1.552,0v7.693a.776.776,0,0,1-.776.776" transform="translate(-161.717 -5.652)" fill="#03386e"/>
      <path id="Path_216374" data-name="Path 216374" d="M155.492,5.7a.773.773,0,0,1-.549-.227l-3.715-3.715L147.513,5.47a.776.776,0,0,1-1.1-1.1l4.06-4.06a1.065,1.065,0,0,1,1.506,0l4.06,4.06a.776.776,0,0,1-.549,1.325" transform="translate(-129.228 0)" fill="#03386e"/>
      <path id="Path_216375" data-name="Path 216375" d="M301.647,206.389h-7.693a.776.776,0,0,1,0-1.552h7.693a.776.776,0,0,1,0,1.552" transform="translate(-259.165 -181.073)" fill="#03386e"/>
      <path id="Path_216376" data-name="Path 216376" d="M330.934,178.164a.776.776,0,0,1-.549-1.325l3.715-3.715-3.715-3.715a.776.776,0,0,1,1.1-1.1l4.06,4.06a1.065,1.065,0,0,1,0,1.506l-4.06,4.06a.774.774,0,0,1-.549.227m3.511-4.7h0Z" transform="translate(-291.855 -148.584)" fill="#03386e"/>
      <path id="Path_216377" data-name="Path 216377" d="M14.863,206.389H7.17a.776.776,0,0,1,0-1.552h7.693a.776.776,0,0,1,0,1.552" transform="translate(-5.652 -181.073)" fill="#03386e"/>
      <path id="Path_216378" data-name="Path 216378" d="M4.921,178.164a.773.773,0,0,1-.549-.227l-4.06-4.06a1.065,1.065,0,0,1,0-1.506l4.06-4.06a.776.776,0,1,1,1.1,1.1l-3.715,3.715,3.715,3.715a.776.776,0,0,1-.549,1.325" transform="translate(0 -148.583)" fill="#03386e"/>
    </g>
    <g id="Group_871037" data-name="Group 871037" transform="translate(1130.76 14041.475)" clip-path="url(#clip-path-11)">
      <path id="Path_216379" data-name="Path 216379" d="M204.6,100.033a9.29,9.29,0,1,1,.47-.012c-.157.008-.314.012-.47.012m.015-17.072q-.2,0-.4.01a7.776,7.776,0,1,0,.4-.01" transform="translate(-173.532 -72.38)" fill="#03386e"/>
      <path id="Path_216380" data-name="Path 216380" d="M318.112,216.587a2.337,2.337,0,0,1-1.774-.81l-5.027-5.819a.746.746,0,0,1,1.129-.976l5.027,5.819a.849.849,0,0,0,1.285-1.11l-5.027-5.819a.746.746,0,1,1,1.129-.976l5.027,5.819a2.341,2.341,0,0,1-1.77,3.872" transform="translate(-276.422 -183.587)" fill="#03386e"/>
      <path id="Path_216381" data-name="Path 216381" d="M6.116,195.674H1.269A1.271,1.271,0,0,1,0,194.4v-7.88a1.271,1.271,0,0,1,1.269-1.269H6.116a1.271,1.271,0,0,1,1.269,1.269v7.88a1.271,1.271,0,0,1-1.269,1.269m-4.623-1.493h4.4v-7.433h-4.4Z" transform="translate(0 -164.589)" fill="#03386e"/>
      <path id="Path_216382" data-name="Path 216382" d="M90.571,100.786H85.724a1.27,1.27,0,0,1-1.269-1.269V79.722a1.27,1.27,0,0,1,1.269-1.269h4.847a1.27,1.27,0,0,1,1.269,1.269V99.517a1.27,1.27,0,0,1-1.269,1.269m-4.623-1.493h4.4V79.946h-4.4Z" transform="translate(-75.034 -69.701)" fill="#03386e"/>
      <path id="Path_216383" data-name="Path 216383" d="M175.026,142.345h-4.847a1.271,1.271,0,0,1-1.269-1.269V126.5a1.271,1.271,0,0,1,1.269-1.269.746.746,0,0,1,.224,1.459v14.163h4.4v-1.174a.746.746,0,1,1,1.493,0v1.4a1.271,1.271,0,0,1-1.269,1.269" transform="translate(-150.068 -111.261)" fill="#03386e"/>
      <path id="Path_216384" data-name="Path 216384" d="M259.48,257.161h-4.847a1.271,1.271,0,0,1-1.269-1.269v-.453a.746.746,0,0,1,1.493,0v.229h4.4v-.459a.746.746,0,0,1,1.493,0v.683a1.271,1.271,0,0,1-1.269,1.269" transform="translate(-225.1 -226.077)" fill="#03386e"/>
      <path id="Path_216385" data-name="Path 216385" d="M260,8.509a.746.746,0,0,1-.746-.746V1.493h-4.4V7.007a.746.746,0,1,1-1.493,0V1.269A1.271,1.271,0,0,1,254.633,0h4.847a1.271,1.271,0,0,1,1.269,1.269V7.763a.746.746,0,0,1-.746.746" transform="translate(-225.1)" fill="#03386e"/>
    </g>
    <g id="Group_871029" data-name="Group 871029" transform="translate(623.36 13839.226)" clip-path="url(#clip-path-12)">
      <path id="Path_216365" data-name="Path 216365" d="M73.083,25.339H35.092V2.64A2.643,2.643,0,0,1,37.732,0H70.444a2.643,2.643,0,0,1,2.64,2.64ZM36.635,23.8H71.541V2.64a1.1,1.1,0,0,0-1.1-1.1H37.732a1.1,1.1,0,0,0-1.1,1.1Z" transform="translate(-31.047)" fill="#03386e"/>
      <path id="Path_216366" data-name="Path 216366" d="M44.931,213.041H1.468a1.471,1.471,0,0,1-1.04-2.508l4.068-4.1H41.569l4.361,4.059a1.472,1.472,0,0,1-1,2.549m-.053-1.42h0ZM1.642,211.5h43.1l-3.785-3.523H5.138Z" transform="translate(0 -182.636)" fill="#03386e"/>
      <path id="Path_216367" data-name="Path 216367" d="M129.065,45.528q-.186,0-.375-.009a7.426,7.426,0,1,1,.375.009m-.011-13.314a5.886,5.886,0,1,0,5.885,6.179l.77.039-.77-.039a5.892,5.892,0,0,0-5.585-6.172q-.151-.008-.3-.007" transform="translate(-107.611 -27.136)" fill="#03386e"/>
      <path id="Path_216368" data-name="Path 216368" d="M226.091,135.9a.769.769,0,0,1-.545-.226l-5.136-5.136a.771.771,0,0,1,1.091-1.091l5.136,5.136a.771.771,0,0,1-.545,1.317" transform="translate(-194.801 -114.326)" fill="#03386e"/>
    </g>
  </g>
</svg>
