<svg xmlns="http://www.w3.org/2000/svg" xmlns:xlink="http://www.w3.org/1999/xlink" width="463" height="321.723" viewBox="0 0 463 321.723">
  <defs>
    <clipPath id="clip-path">
      <rect id="Rectangle_43551" data-name="Rectangle 43551" width="463" height="321.722" fill="#359547"/>
    </clipPath>
  </defs>
  <g id="Group_1086752" data-name="Group 1086752" transform="translate(44.668 -8724)">
    <path id="digital-marketing-with-icons-business-people" d="M-7740.38-8945.879h1.678l6.119,6.18h88.447V-8631H-8022.02l-4.189-4.5h-62.64v-310.439Z" transform="translate(8046.671 17673.998)" fill="#fff"/>
    <g id="Mask_Group_154253" data-name="Mask Group 154253" transform="translate(-44.668 8724)" clip-path="url(#clip-path)">
      <g id="Group_154255" data-name="Group 154255" transform="translate(453.996 21.557)">
        <rect id="Rectangle_43544" data-name="Rectangle 43544" width="4.374" height="34.974" transform="translate(0)" fill="#359547"/>
        <rect id="Rectangle_43545" data-name="Rectangle 43545" width="4.374" height="2.98" transform="translate(0 39.51)" fill="#359547"/>
        <rect id="Rectangle_43546" data-name="Rectangle 43546" width="4.374" height="2.979" transform="translate(0 43.968)" fill="#359547"/>
        <rect id="Rectangle_43547" data-name="Rectangle 43547" width="4.374" height="2.979" transform="translate(0 48.425)" fill="#359547"/>
        <rect id="Rectangle_43548" data-name="Rectangle 43548" width="4.374" height="2.98" transform="translate(0 52.882)" fill="#359547"/>
      </g>
      <path id="Path_213992" data-name="Path 213992" d="M.5,223.386v.729H62.993l4.145,4.144.515-.515-4.359-4.358Z" transform="translate(-0.136 92.463)" fill="#03386e"/>
      <path id="Path_213993" data-name="Path 213993" d="M426.992,6.839H338.32l-6.1-6.1.515-.515,5.882,5.882h88.37Z" transform="translate(23.403 -0.062)" fill="#03386e"/>
      <g id="Group_154256" data-name="Group 154256" transform="translate(0 12.361)">
        <rect id="Rectangle_43549" data-name="Rectangle 43549" width="5.103" height="1.459" fill="#03386e"/>
        <path id="Path_213994" data-name="Path 213994" d="M0,98.722H5.1v-2.9H0Zm0-6.535H5.1v-2.9H0Zm0-6.534H5.1v-2.9H0Zm0-6.535H5.1v-2.9H0Zm0-6.535H5.1v-2.9H0Zm0-6.535H5.1v-2.9H0Zm0-6.534H5.1v-2.9H0ZM0,52.98H5.1v-2.9H0Zm0-6.535H5.1v-2.9H0ZM0,39.91H5.1v-2.9H0Zm0-6.535H5.1v-2.9H0Zm0-6.535H5.1v-2.9H0Z" transform="translate(0 -18.848)" fill="#03386e"/>
        <rect id="Rectangle_43550" data-name="Rectangle 43550" width="5.103" height="1.458" transform="translate(0 83.505)" fill="#03386e"/>
      </g>
      <path id="Path_213995" data-name="Path 213995" d="M27.606,8.138h5.048V0H27.606Zm10.8,0h4.674V0H38.407ZM46.317,0V8.138H159.171L151.033,0Z" transform="translate(-7.481)" fill="#3ae3fe"/>
    </g>
    <path id="Path_839916" data-name="Path 839916" d="M0,0H151V61H0Z" transform="translate(113 8753.999)" fill="#dbe5f3"/>
    <path id="Path_839917" data-name="Path 839917" d="M12.472,13.643a1.353,1.353,0,0,0-.527-1.147,6.917,6.917,0,0,0-1.9-.844,13.458,13.458,0,0,1-2.171-.875A3.547,3.547,0,0,1,5.7,7.6a3.09,3.09,0,0,1,.584-1.85,3.812,3.812,0,0,1,1.679-1.27,6.318,6.318,0,0,1,2.457-.457,5.751,5.751,0,0,1,2.443.5,3.891,3.891,0,0,1,1.666,1.4,3.668,3.668,0,0,1,.593,2.057H12.48a1.726,1.726,0,0,0-.554-1.367,2.276,2.276,0,0,0-1.556-.488,2.432,2.432,0,0,0-1.5.409,1.289,1.289,0,0,0-.536,1.077A1.235,1.235,0,0,0,8.96,8.659a7.1,7.1,0,0,0,1.85.791,7.994,7.994,0,0,1,3.278,1.679,3.343,3.343,0,0,1,1.028,2.5,3.08,3.08,0,0,1-1.257,2.606,5.5,5.5,0,0,1-3.384.945,6.534,6.534,0,0,1-2.689-.541,4.256,4.256,0,0,1-1.85-1.481,3.793,3.793,0,0,1-.637-2.18H7.945q0,2.118,2.531,2.118a2.462,2.462,0,0,0,1.468-.382A1.244,1.244,0,0,0,12.472,13.643Zm8.64,3.533a4.668,4.668,0,0,1-3.406-1.283,4.561,4.561,0,0,1-1.314-3.419v-.246a5.745,5.745,0,0,1,.554-2.562,4.064,4.064,0,0,1,1.569-1.74,4.4,4.4,0,0,1,2.316-.611A3.947,3.947,0,0,1,23.9,8.545a5,5,0,0,1,1.121,3.489v1.037H18.967a2.36,2.36,0,0,0,.743,1.494,2.245,2.245,0,0,0,1.569.563,2.742,2.742,0,0,0,2.294-1.063l1.248,1.4a3.813,3.813,0,0,1-1.547,1.261A5.075,5.075,0,0,1,21.111,17.176Zm-.29-7.813a1.587,1.587,0,0,0-1.226.512,2.651,2.651,0,0,0-.6,1.466h3.533v-.2a1.891,1.891,0,0,0-.457-1.311A1.638,1.638,0,0,0,20.821,9.362Zm5.273,2.813A5.573,5.573,0,0,1,27.136,8.65a3.375,3.375,0,0,1,2.808-1.336,2.96,2.96,0,0,1,2.435,1.072l.105-.9h2.3v9.193a4.064,4.064,0,0,1-.567,2.171,3.641,3.641,0,0,1-1.6,1.406,5.608,5.608,0,0,1-2.408.483,5.215,5.215,0,0,1-2.039-.417,3.619,3.619,0,0,1-1.5-1.077L27.8,17.7a2.975,2.975,0,0,0,2.3,1.063,2.178,2.178,0,0,0,1.573-.541,2.027,2.027,0,0,0,.563-1.534v-.51a2.938,2.938,0,0,1-2.312.993,3.366,3.366,0,0,1-2.773-1.34,5.572,5.572,0,0,1-1.059-3.555Zm2.54.189a3.47,3.47,0,0,0,.519,2.029,1.65,1.65,0,0,0,1.424.735,1.764,1.764,0,0,0,1.661-.871V10.251a1.76,1.76,0,0,0-1.644-.871,1.66,1.66,0,0,0-1.437.748A3.911,3.911,0,0,0,28.635,12.364ZM39.12,7.49,39.2,8.554a3.342,3.342,0,0,1,2.733-1.239,2.536,2.536,0,0,1,2.522,1.45,3.265,3.265,0,0,1,2.856-1.45,2.836,2.836,0,0,1,2.3.9,4.141,4.141,0,0,1,.756,2.711V17H47.821V10.936A1.811,1.811,0,0,0,47.5,9.753a1.4,1.4,0,0,0-1.116-.374,1.585,1.585,0,0,0-1.582,1.09L44.815,17h-2.54V10.944a1.789,1.789,0,0,0-.325-1.2,1.416,1.416,0,0,0-1.107-.369,1.646,1.646,0,0,0-1.564.9V17h-2.54V7.49ZM56.7,17.176a4.668,4.668,0,0,1-3.406-1.283,4.561,4.561,0,0,1-1.314-3.419v-.246a5.745,5.745,0,0,1,.554-2.562A4.064,4.064,0,0,1,54.1,7.925a4.4,4.4,0,0,1,2.316-.611,3.947,3.947,0,0,1,3.072,1.23,5,5,0,0,1,1.121,3.489v1.037H54.554a2.36,2.36,0,0,0,.743,1.494,2.245,2.245,0,0,0,1.569.563,2.742,2.742,0,0,0,2.294-1.063l1.248,1.4a3.813,3.813,0,0,1-1.547,1.261A5.075,5.075,0,0,1,56.7,17.176Zm-.29-7.813a1.587,1.587,0,0,0-1.226.512,2.651,2.651,0,0,0-.6,1.466h3.533v-.2a1.891,1.891,0,0,0-.457-1.311A1.638,1.638,0,0,0,56.408,9.362Zm7.98-1.872.079,1.1A3.32,3.32,0,0,1,67.2,7.314a2.759,2.759,0,0,1,2.25.888,4.142,4.142,0,0,1,.756,2.654V17h-2.54V10.918a1.648,1.648,0,0,0-.352-1.173,1.574,1.574,0,0,0-1.169-.365,1.747,1.747,0,0,0-1.608.914V17H62V7.49ZM75.173,5.152V7.49H76.8V9.354H75.173V14.1a1.133,1.133,0,0,0,.2.756,1.015,1.015,0,0,0,.773.229,4.051,4.051,0,0,0,.747-.062v1.925a5.229,5.229,0,0,1-1.538.229,2.425,2.425,0,0,1-2.725-2.7V9.354H71.244V7.49h1.389V5.152ZM83.725,17a2.821,2.821,0,0,1-.255-.853,3.073,3.073,0,0,1-2.4,1.028,3.376,3.376,0,0,1-2.316-.809,2.6,2.6,0,0,1-.918-2.039,2.687,2.687,0,0,1,1.121-2.32A5.529,5.529,0,0,1,82.2,11.19h1.169v-.545a1.567,1.567,0,0,0-.338-1.055,1.331,1.331,0,0,0-1.068-.4,1.513,1.513,0,0,0-1.006.308,1.045,1.045,0,0,0-.365.844h-2.54a2.551,2.551,0,0,1,.51-1.529A3.37,3.37,0,0,1,80,7.714a5.253,5.253,0,0,1,2.092-.4A4.15,4.15,0,0,1,84.88,8.2a3.09,3.09,0,0,1,1.033,2.483V14.8a4.546,4.546,0,0,0,.378,2.048V17Zm-2.1-1.767a2.188,2.188,0,0,0,1.037-.25,1.645,1.645,0,0,0,.7-.672V12.676h-.949q-1.907,0-2.03,1.318l-.009.149a1.017,1.017,0,0,0,.334.782A1.3,1.3,0,0,0,81.624,15.233Zm10.2-.105a1.666,1.666,0,0,0,1.143-.387,1.355,1.355,0,0,0,.457-1.028H95.8a3.258,3.258,0,0,1-.527,1.771,3.48,3.48,0,0,1-1.419,1.248,4.442,4.442,0,0,1-1.991.444,4.129,4.129,0,0,1-3.217-1.3A5.13,5.13,0,0,1,87.469,12.3v-.167a5.071,5.071,0,0,1,1.169-3.507,4.08,4.08,0,0,1,3.208-1.31A4,4,0,0,1,94.707,8.33a3.594,3.594,0,0,1,1.094,2.7H93.419a1.745,1.745,0,0,0-.457-1.206,1.7,1.7,0,0,0-2.5.183,3.749,3.749,0,0,0-.453,2.1v.264a3.8,3.8,0,0,0,.448,2.113A1.549,1.549,0,0,0,91.819,15.128ZM99.932,17H97.383V7.49h2.549Zm-2.7-11.971a1.251,1.251,0,0,1,.382-.94,1.648,1.648,0,0,1,2.079,0,1.244,1.244,0,0,1,.387.94,1.247,1.247,0,0,1-.391.949,1.629,1.629,0,0,1-2.065,0A1.247,1.247,0,0,1,97.233,5.029Zm4.395,7.128a5.64,5.64,0,0,1,.545-2.522,3.989,3.989,0,0,1,1.569-1.714,4.577,4.577,0,0,1,2.377-.606,4.33,4.33,0,0,1,3.142,1.178,4.727,4.727,0,0,1,1.358,3.2l.018.65a4.97,4.97,0,0,1-1.222,3.511,4.735,4.735,0,0,1-6.561,0,5.058,5.058,0,0,1-1.226-3.586Zm2.54.18a3.555,3.555,0,0,0,.51,2.073,1.831,1.831,0,0,0,2.9.009,3.89,3.89,0,0,0,.519-2.267,3.519,3.519,0,0,0-.519-2.06,1.686,1.686,0,0,0-1.459-.731,1.658,1.658,0,0,0-1.441.726A3.955,3.955,0,0,0,104.168,12.338ZM106.62,3.5h2.769l-2.435,2.725h-2.065Zm7.919,3.99.079,1.1a3.32,3.32,0,0,1,2.733-1.274,2.759,2.759,0,0,1,2.25.888,4.142,4.142,0,0,1,.756,2.654V17h-2.54V10.918a1.648,1.648,0,0,0-.352-1.173A1.574,1.574,0,0,0,116.3,9.38a1.747,1.747,0,0,0-1.608.914V17h-2.54V7.49ZM13.482,32.175a5.731,5.731,0,0,1,1-3.542,3.237,3.237,0,0,1,2.729-1.318A2.913,2.913,0,0,1,19.5,28.352V23.5h2.549V37H19.758l-.123-1.011a2.989,2.989,0,0,1-2.443,1.187A3.228,3.228,0,0,1,14.5,35.853,5.916,5.916,0,0,1,13.482,32.175Zm2.54.189a3.754,3.754,0,0,0,.466,2.051,1.517,1.517,0,0,0,1.354.713,1.7,1.7,0,0,0,1.661-.995V30.375a1.675,1.675,0,0,0-1.644-.995Q16.022,29.38,16.022,32.364ZM28.4,37.176a4.668,4.668,0,0,1-3.406-1.283,4.561,4.561,0,0,1-1.314-3.419v-.246a5.745,5.745,0,0,1,.554-2.562,4.064,4.064,0,0,1,1.569-1.74,4.4,4.4,0,0,1,2.316-.611,3.947,3.947,0,0,1,3.072,1.23,5,5,0,0,1,1.121,3.489v1.037H26.253A2.36,2.36,0,0,0,27,34.565a2.245,2.245,0,0,0,1.569.563,2.742,2.742,0,0,0,2.294-1.063l1.248,1.4a3.813,3.813,0,0,1-1.547,1.261A5.075,5.075,0,0,1,28.4,37.176Zm-.29-7.813a1.587,1.587,0,0,0-1.226.512,2.651,2.651,0,0,0-.6,1.466h3.533v-.2a1.891,1.891,0,0,0-.457-1.311A1.638,1.638,0,0,0,28.107,29.362ZM36.431,37H33.882V23.5h2.549Zm8.956-9.51.079,1.063A3.342,3.342,0,0,1,48.2,27.314a2.536,2.536,0,0,1,2.522,1.45,3.265,3.265,0,0,1,2.856-1.45,2.836,2.836,0,0,1,2.3.9,4.141,4.141,0,0,1,.756,2.711V37H54.088V30.936a1.811,1.811,0,0,0-.316-1.182,1.4,1.4,0,0,0-1.116-.374,1.585,1.585,0,0,0-1.582,1.09L51.082,37h-2.54V30.944a1.789,1.789,0,0,0-.325-1.2,1.416,1.416,0,0,0-1.107-.369,1.646,1.646,0,0,0-1.564.9V37H43V27.49Zm17.578,9.686a4.668,4.668,0,0,1-3.406-1.283,4.561,4.561,0,0,1-1.314-3.419v-.246a5.745,5.745,0,0,1,.554-2.562,4.064,4.064,0,0,1,1.569-1.74,4.4,4.4,0,0,1,2.316-.611,3.947,3.947,0,0,1,3.072,1.23,5,5,0,0,1,1.121,3.489v1.037H60.82a2.36,2.36,0,0,0,.743,1.494,2.245,2.245,0,0,0,1.569.563,2.742,2.742,0,0,0,2.294-1.063l1.248,1.4a3.813,3.813,0,0,1-1.547,1.261A5.075,5.075,0,0,1,62.965,37.176Zm-.29-7.813a1.587,1.587,0,0,0-1.226.512,2.651,2.651,0,0,0-.6,1.466H64.38v-.2a1.891,1.891,0,0,0-.457-1.311A1.638,1.638,0,0,0,62.675,29.362Zm10.986.51a6.9,6.9,0,0,0-.914-.07,1.86,1.86,0,0,0-1.89.976V37h-2.54V27.49h2.4l.07,1.134a2.354,2.354,0,0,1,2.118-1.31,2.662,2.662,0,0,1,.791.114Zm5.01,5.256a1.666,1.666,0,0,0,1.143-.387,1.355,1.355,0,0,0,.457-1.028h2.382a3.258,3.258,0,0,1-.527,1.771,3.48,3.48,0,0,1-1.419,1.248,4.442,4.442,0,0,1-1.991.444,4.129,4.129,0,0,1-3.217-1.3A5.13,5.13,0,0,1,74.32,32.3v-.167a5.071,5.071,0,0,1,1.169-3.507,4.08,4.08,0,0,1,3.208-1.31,4,4,0,0,1,2.861,1.015,3.594,3.594,0,0,1,1.094,2.7H80.271a1.745,1.745,0,0,0-.457-1.206,1.7,1.7,0,0,0-2.5.183,3.749,3.749,0,0,0-.453,2.1v.264a3.8,3.8,0,0,0,.448,2.113A1.549,1.549,0,0,0,78.671,35.128ZM89.613,37a2.821,2.821,0,0,1-.255-.853,3.073,3.073,0,0,1-2.4,1.028,3.376,3.376,0,0,1-2.316-.809,2.6,2.6,0,0,1-.918-2.039,2.687,2.687,0,0,1,1.121-2.32,5.529,5.529,0,0,1,3.239-.817h1.169v-.545a1.567,1.567,0,0,0-.338-1.055,1.331,1.331,0,0,0-1.068-.4,1.513,1.513,0,0,0-1.006.308,1.045,1.045,0,0,0-.365.844h-2.54a2.551,2.551,0,0,1,.51-1.529,3.37,3.37,0,0,1,1.441-1.1,5.253,5.253,0,0,1,2.092-.4,4.15,4.15,0,0,1,2.791.883A3.09,3.09,0,0,1,91.8,30.681V34.8a4.546,4.546,0,0,0,.378,2.048V37Zm-2.1-1.767a2.188,2.188,0,0,0,1.037-.25,1.645,1.645,0,0,0,.7-.672V32.676H88.3q-1.907,0-2.03,1.318l-.009.149a1.017,1.017,0,0,0,.334.782A1.3,1.3,0,0,0,87.513,35.233Zm5.845-3.059a5.731,5.731,0,0,1,1-3.542,3.237,3.237,0,0,1,2.729-1.318,2.913,2.913,0,0,1,2.294,1.037V23.5h2.549V37H99.633l-.123-1.011a2.989,2.989,0,0,1-2.443,1.187,3.228,3.228,0,0,1-2.694-1.323A5.916,5.916,0,0,1,93.357,32.175Zm2.54.189a3.754,3.754,0,0,0,.466,2.051,1.517,1.517,0,0,0,1.354.713,1.7,1.7,0,0,0,1.661-.995V30.375a1.675,1.675,0,0,0-1.644-.995Q95.9,29.38,95.9,32.364Zm7.6-.207a5.64,5.64,0,0,1,.545-2.522,3.989,3.989,0,0,1,1.569-1.714,4.577,4.577,0,0,1,2.377-.606,4.33,4.33,0,0,1,3.142,1.178,4.727,4.727,0,0,1,1.358,3.2l.018.65a4.97,4.97,0,0,1-1.222,3.511,4.735,4.735,0,0,1-6.561,0,5.058,5.058,0,0,1-1.226-3.586Zm2.54.18a3.555,3.555,0,0,0,.51,2.073,1.831,1.831,0,0,0,2.9.009,3.89,3.89,0,0,0,.519-2.267,3.519,3.519,0,0,0-.519-2.06,1.686,1.686,0,0,0-1.459-.731,1.658,1.658,0,0,0-1.441.726A3.955,3.955,0,0,0,106.04,32.338Z" transform="translate(125 8763.001)" fill="#12263f"/>
    <path id="Path_839918" data-name="Path 839918" d="M26.456,11.742V16h-2.49V3.914h4.715a5.455,5.455,0,0,1,2.395.5,3.67,3.67,0,0,1,1.59,1.415,3.946,3.946,0,0,1,.556,2.088,3.47,3.47,0,0,1-1.216,2.8,5.065,5.065,0,0,1-3.366,1.025Zm0-2.017h2.225a2.187,2.187,0,0,0,1.507-.465,1.691,1.691,0,0,0,.519-1.328A1.994,1.994,0,0,0,30.183,6.5a1.953,1.953,0,0,0-1.444-.564H26.456ZM38.8,16.166a4.409,4.409,0,0,1-3.217-1.212,4.308,4.308,0,0,1-1.241-3.229v-.232a5.426,5.426,0,0,1,.523-2.42,3.838,3.838,0,0,1,1.482-1.644,4.159,4.159,0,0,1,2.187-.577,3.727,3.727,0,0,1,2.9,1.162,4.722,4.722,0,0,1,1.058,3.3v.979H36.774a2.229,2.229,0,0,0,.7,1.411,2.12,2.12,0,0,0,1.482.531,2.589,2.589,0,0,0,2.167-1l1.179,1.32a3.6,3.6,0,0,1-1.461,1.191A4.793,4.793,0,0,1,38.8,16.166Zm-.274-7.379a1.5,1.5,0,0,0-1.158.484,2.5,2.5,0,0,0-.569,1.384h3.337v-.192A1.786,1.786,0,0,0,39.7,9.224,1.547,1.547,0,0,0,38.526,8.787ZM48.9,9.268a6.517,6.517,0,0,0-.863-.066,1.757,1.757,0,0,0-1.785.921V16h-2.4V7.019h2.266l.066,1.071a2.223,2.223,0,0,1,2-1.237,2.514,2.514,0,0,1,.747.108ZM50.636,16V8.778H49.3V7.019h1.336V6.6a3.368,3.368,0,0,1,1.042-2.611,4.191,4.191,0,0,1,2.893-.917,9.6,9.6,0,0,1,2.723.49l-.349,1.984a10.623,10.623,0,0,0-1.262-.311,6.2,6.2,0,0,0-.963-.071q-1.677,0-1.677,1.486v.365h1.768v1.76H53.044V16Zm7.778,0H56.007V7.019h2.407Zm4.516,0H60.523V3.25H62.93Zm7.18,0a2.664,2.664,0,0,1-.241-.805,2.9,2.9,0,0,1-2.266.971,3.189,3.189,0,0,1-2.187-.764,2.456,2.456,0,0,1-.867-1.926,2.538,2.538,0,0,1,1.058-2.191,5.222,5.222,0,0,1,3.059-.772h1.1V10a1.48,1.48,0,0,0-.32-1,1.257,1.257,0,0,0-1.009-.374,1.429,1.429,0,0,0-.95.291.987.987,0,0,0-.344.8h-2.4a2.41,2.41,0,0,1,.481-1.444A3.182,3.182,0,0,1,66.591,7.23a4.961,4.961,0,0,1,1.976-.378,3.92,3.92,0,0,1,2.635.834,2.918,2.918,0,0,1,.975,2.345v3.893a4.294,4.294,0,0,0,.357,1.934V16Zm-1.984-1.668a2.066,2.066,0,0,0,.979-.237,1.554,1.554,0,0,0,.664-.635V11.916h-.9q-1.8,0-1.917,1.245l-.008.141a.96.96,0,0,0,.315.739A1.225,1.225,0,0,0,68.126,14.332Zm9.629-.1a1.573,1.573,0,0,0,1.079-.365,1.28,1.28,0,0,0,.432-.971h2.25a3.077,3.077,0,0,1-.5,1.673,3.286,3.286,0,0,1-1.341,1.179,4.2,4.2,0,0,1-1.88.419,3.9,3.9,0,0,1-3.038-1.224,4.845,4.845,0,0,1-1.112-3.383V11.4a4.79,4.79,0,0,1,1.1-3.312,3.854,3.854,0,0,1,3.03-1.237,3.778,3.778,0,0,1,2.7.959,3.4,3.4,0,0,1,1.033,2.552h-2.25a1.648,1.648,0,0,0-.432-1.139,1.6,1.6,0,0,0-2.362.173,3.541,3.541,0,0,0-.427,1.983v.249a3.586,3.586,0,0,0,.423,2A1.463,1.463,0,0,0,77.755,14.232ZM85.417,16H83.01V7.019h2.407ZM82.868,4.694a1.181,1.181,0,0,1,.361-.888,1.556,1.556,0,0,1,1.963,0,1.175,1.175,0,0,1,.365.888,1.178,1.178,0,0,1-.369.9,1.539,1.539,0,0,1-1.951,0A1.178,1.178,0,0,1,82.868,4.694Zm4.15,6.732a5.326,5.326,0,0,1,.515-2.382,3.768,3.768,0,0,1,1.482-1.619,4.323,4.323,0,0,1,2.245-.573,4.09,4.09,0,0,1,2.968,1.112,4.464,4.464,0,0,1,1.282,3.021l.017.614a4.694,4.694,0,0,1-1.154,3.316,4.472,4.472,0,0,1-6.2,0,4.777,4.777,0,0,1-1.158-3.387Zm2.4.17a3.357,3.357,0,0,0,.481,1.958,1.73,1.73,0,0,0,2.739.008,3.674,3.674,0,0,0,.49-2.141,3.324,3.324,0,0,0-.49-1.945,1.592,1.592,0,0,0-1.378-.69,1.566,1.566,0,0,0-1.361.686A3.736,3.736,0,0,0,89.418,11.6ZM91.734,3.25h2.615l-2.3,2.573H90.1Zm7.479,3.769.075,1.038a3.136,3.136,0,0,1,2.582-1.2,2.606,2.606,0,0,1,2.125.838,3.912,3.912,0,0,1,.714,2.507V16h-2.4V10.256a1.556,1.556,0,0,0-.332-1.108,1.486,1.486,0,0,0-1.1-.344,1.65,1.65,0,0,0-1.519.863V16h-2.4V7.019Zm11.173,4.424a5.413,5.413,0,0,1,.942-3.345,3.057,3.057,0,0,1,2.577-1.245,2.751,2.751,0,0,1,2.167.979V3.25h2.407V16h-2.167l-.116-.955a2.823,2.823,0,0,1-2.308,1.121,3.049,3.049,0,0,1-2.544-1.249A5.587,5.587,0,0,1,110.385,11.443Zm2.4.179a3.546,3.546,0,0,0,.44,1.937,1.433,1.433,0,0,0,1.278.673,1.605,1.605,0,0,0,1.569-.939V9.743a1.582,1.582,0,0,0-1.552-.939Q112.784,8.8,112.784,11.621Zm11.688,4.545a4.409,4.409,0,0,1-3.217-1.212,4.308,4.308,0,0,1-1.241-3.229v-.232a5.426,5.426,0,0,1,.523-2.42,3.838,3.838,0,0,1,1.482-1.644,4.159,4.159,0,0,1,2.187-.577,3.727,3.727,0,0,1,2.9,1.162,4.722,4.722,0,0,1,1.058,3.3v.979h-5.719a2.229,2.229,0,0,0,.7,1.411,2.12,2.12,0,0,0,1.482.531,2.589,2.589,0,0,0,2.167-1l1.179,1.32a3.6,3.6,0,0,1-1.461,1.191A4.793,4.793,0,0,1,124.472,16.166ZM124.2,8.787a1.5,1.5,0,0,0-1.158.484,2.5,2.5,0,0,0-.569,1.384h3.337v-.192a1.786,1.786,0,0,0-.432-1.238A1.547,1.547,0,0,0,124.2,8.787ZM132.059,16h-2.407V3.25h2.407ZM26.257,33.592a5.387,5.387,0,0,1-.942,3.324,3.021,3.021,0,0,1-2.544,1.249,2.8,2.8,0,0,1-2.2-.946v4.233h-2.4V29.019H20.4l.083.88a2.819,2.819,0,0,1,2.274-1.046,3.041,3.041,0,0,1,2.582,1.229,5.532,5.532,0,0,1,.921,3.387Zm-2.4-.174a3.535,3.535,0,0,0-.444-1.934,1.446,1.446,0,0,0-1.291-.681,1.571,1.571,0,0,0-1.552.863v3.677a1.6,1.6,0,0,0,1.569.888Q23.858,36.232,23.858,33.418Zm9.264,3.669a3.008,3.008,0,0,1-2.457,1.079,2.837,2.837,0,0,1-2.2-.83,3.543,3.543,0,0,1-.776-2.432V29.019h2.4v5.809q0,1.4,1.278,1.4a1.732,1.732,0,0,0,1.677-.848V29.019h2.407V38H33.188ZM32.051,25.25h2.615l-2.3,2.573H30.416Zm13.3,8.342a5.439,5.439,0,0,1-.921,3.366,3.052,3.052,0,0,1-2.573,1.208,2.8,2.8,0,0,1-2.333-1.121L39.414,38H37.256V25.25h2.4v4.574a2.732,2.732,0,0,1,2.183-.971,3.077,3.077,0,0,1,2.577,1.208,5.446,5.446,0,0,1,.934,3.4Zm-2.4-.174a3.573,3.573,0,0,0-.432-1.988,1.46,1.46,0,0,0-1.287-.627,1.582,1.582,0,0,0-1.577.938v3.544a1.6,1.6,0,0,0,1.594.946,1.481,1.481,0,0,0,1.527-1.146A5.909,5.909,0,0,0,42.95,33.418ZM49.358,38H46.951V25.25h2.407Zm4.507,0H51.458V29.019h2.407ZM51.317,26.694a1.181,1.181,0,0,1,.361-.888,1.556,1.556,0,0,1,1.963,0,1.268,1.268,0,0,1,0,1.785,1.539,1.539,0,0,1-1.951,0A1.178,1.178,0,0,1,51.317,26.694Zm8.259,9.538a1.573,1.573,0,0,0,1.079-.365,1.28,1.28,0,0,0,.432-.971h2.25a3.077,3.077,0,0,1-.5,1.673A3.286,3.286,0,0,1,61.5,37.747a4.2,4.2,0,0,1-1.88.419,3.9,3.9,0,0,1-3.038-1.224,4.845,4.845,0,0,1-1.112-3.383V33.4a4.79,4.79,0,0,1,1.1-3.312,3.854,3.854,0,0,1,3.03-1.237,3.778,3.778,0,0,1,2.7.959,3.4,3.4,0,0,1,1.033,2.552h-2.25a1.648,1.648,0,0,0-.432-1.139,1.6,1.6,0,0,0-2.362.173,3.541,3.541,0,0,0-.427,1.983v.249a3.586,3.586,0,0,0,.423,2A1.463,1.463,0,0,0,59.576,36.232Zm4.756-2.806a5.326,5.326,0,0,1,.515-2.382,3.768,3.768,0,0,1,1.482-1.619,4.323,4.323,0,0,1,2.245-.573,4.09,4.09,0,0,1,2.968,1.112,4.464,4.464,0,0,1,1.282,3.021l.017.614a4.694,4.694,0,0,1-1.154,3.316,4.472,4.472,0,0,1-6.2,0,4.777,4.777,0,0,1-1.158-3.387Zm2.4.17a3.357,3.357,0,0,0,.481,1.958,1.73,1.73,0,0,0,2.739.008,3.674,3.674,0,0,0,.49-2.141,3.324,3.324,0,0,0-.49-1.945,1.592,1.592,0,0,0-1.378-.69,1.566,1.566,0,0,0-1.361.686A3.736,3.736,0,0,0,66.732,33.6Zm11.447-.17a5.326,5.326,0,0,1,.515-2.382,3.768,3.768,0,0,1,1.482-1.619,4.323,4.323,0,0,1,2.245-.573,4.09,4.09,0,0,1,2.968,1.112,4.464,4.464,0,0,1,1.282,3.021l.017.614a4.694,4.694,0,0,1-1.154,3.316,4.472,4.472,0,0,1-6.2,0,4.777,4.777,0,0,1-1.158-3.387Zm2.4.17a3.357,3.357,0,0,0,.481,1.958,1.73,1.73,0,0,0,2.739.008,3.674,3.674,0,0,0,.49-2.141,3.324,3.324,0,0,0-.49-1.945,1.592,1.592,0,0,0-1.378-.69,1.566,1.566,0,0,0-1.361.686A3.736,3.736,0,0,0,80.577,33.6Zm15.68,0a5.439,5.439,0,0,1-.921,3.366,3.052,3.052,0,0,1-2.573,1.208,2.8,2.8,0,0,1-2.333-1.121L90.323,38H88.164V25.25h2.4v4.574a2.732,2.732,0,0,1,2.183-.971,3.077,3.077,0,0,1,2.577,1.208,5.446,5.446,0,0,1,.934,3.4Zm-2.4-.174a3.573,3.573,0,0,0-.432-1.988A1.46,1.46,0,0,0,92.14,30.8a1.582,1.582,0,0,0-1.577.938v3.544a1.6,1.6,0,0,0,1.594.946,1.481,1.481,0,0,0,1.527-1.146A5.909,5.909,0,0,0,93.859,33.418Zm6.417-4.4V38.49a3.213,3.213,0,0,1-.789,2.312,3,3,0,0,1-2.274.826,4.878,4.878,0,0,1-1.187-.141v-1.9a4.5,4.5,0,0,0,.755.075q1.087,0,1.087-1.154V29.019Zm-2.6-2.324a1.181,1.181,0,0,1,.361-.888,1.562,1.562,0,0,1,1.967,0A1.273,1.273,0,0,1,100,27.591a1.539,1.539,0,0,1-1.951,0A1.178,1.178,0,0,1,97.677,26.694Zm8.608,11.472a4.409,4.409,0,0,1-3.217-1.212,4.308,4.308,0,0,1-1.241-3.229v-.232a5.426,5.426,0,0,1,.523-2.42,3.838,3.838,0,0,1,1.482-1.644,4.159,4.159,0,0,1,2.187-.577,3.727,3.727,0,0,1,2.9,1.162,4.722,4.722,0,0,1,1.058,3.3v.979H104.26a2.229,2.229,0,0,0,.7,1.411,2.12,2.12,0,0,0,1.482.531,2.589,2.589,0,0,0,2.167-1l1.179,1.32a3.6,3.6,0,0,1-1.461,1.191A4.793,4.793,0,0,1,106.285,38.166Zm-.274-7.379a1.5,1.5,0,0,0-1.158.484,2.5,2.5,0,0,0-.569,1.384h3.337v-.192a1.786,1.786,0,0,0-.432-1.238A1.547,1.547,0,0,0,106.011,30.787Zm8.2-3.976v2.208h1.536v1.76h-1.536v4.482a1.07,1.07,0,0,0,.191.714.959.959,0,0,0,.73.216,3.825,3.825,0,0,0,.706-.058V37.95a4.939,4.939,0,0,1-1.453.216,2.29,2.29,0,0,1-2.573-2.548V30.778H110.5v-1.76h1.312V26.811ZM119.616,38h-2.407V29.019h2.407Zm-2.548-11.306a1.181,1.181,0,0,1,.361-.888,1.556,1.556,0,0,1,1.963,0,1.268,1.268,0,0,1,0,1.785,1.539,1.539,0,0,1-1.951,0A1.178,1.178,0,0,1,117.068,26.694Zm7.886,8.375,1.668-6.051h2.507L126.1,38h-2.291l-3.03-8.981h2.507Zm4.731-1.644a5.327,5.327,0,0,1,.515-2.382,3.767,3.767,0,0,1,1.482-1.619,4.323,4.323,0,0,1,2.245-.573,4.09,4.09,0,0,1,2.968,1.112,4.464,4.464,0,0,1,1.282,3.021l.017.614a4.694,4.694,0,0,1-1.154,3.316,4.472,4.472,0,0,1-6.2,0,4.777,4.777,0,0,1-1.158-3.387Zm2.4.17a3.357,3.357,0,0,0,.481,1.958,1.73,1.73,0,0,0,2.739.008,3.674,3.674,0,0,0,.49-2.141,3.324,3.324,0,0,0-.49-1.945,1.592,1.592,0,0,0-1.378-.69,1.566,1.566,0,0,0-1.361.686A3.735,3.735,0,0,0,132.084,33.6Z" transform="translate(-9 8822.001)" fill="#12263f"/>
    <path id="Path_839919" data-name="Path 839919" d="M11.88,12.165a4.447,4.447,0,0,1-1.415,2.959A4.638,4.638,0,0,1,7.3,16.166,4.259,4.259,0,0,1,3.866,14.63a6.178,6.178,0,0,1-1.291-4.109V9.359a6.886,6.886,0,0,1,.6-2.963A4.5,4.5,0,0,1,4.883,4.433a4.75,4.75,0,0,1,2.557-.685,4.367,4.367,0,0,1,3.088,1.075A4.5,4.5,0,0,1,11.88,7.8h-1.6a3.472,3.472,0,0,0-.9-2.1,2.725,2.725,0,0,0-1.938-.649,2.851,2.851,0,0,0-2.395,1.13A5.187,5.187,0,0,0,4.177,9.4v1.171A5.332,5.332,0,0,0,5,13.7a2.655,2.655,0,0,0,2.3,1.163,3.067,3.067,0,0,0,2.038-.6,3.34,3.34,0,0,0,.942-2.1Zm1.527-.739a5.3,5.3,0,0,1,.519-2.374,3.87,3.87,0,0,1,1.444-1.627,3.932,3.932,0,0,1,2.113-.573,3.788,3.788,0,0,1,2.968,1.27A4.886,4.886,0,0,1,21.584,11.5v.108a5.351,5.351,0,0,1-.5,2.353,3.813,3.813,0,0,1-1.436,1.623,3.977,3.977,0,0,1-2.146.581,3.778,3.778,0,0,1-2.959-1.27,4.861,4.861,0,0,1-1.133-3.362Zm1.544.183a3.842,3.842,0,0,0,.693,2.4A2.349,2.349,0,0,0,19.359,14a4.2,4.2,0,0,0,.689-2.569,3.836,3.836,0,0,0-.7-2.395,2.23,2.23,0,0,0-1.864-.917,2.205,2.205,0,0,0-1.834.9A4.17,4.17,0,0,0,14.951,11.609Zm10-4.59.042,1A3.317,3.317,0,0,1,27.66,6.853,2.568,2.568,0,0,1,30.225,8.3a3.4,3.4,0,0,1,1.166-1.046,3.445,3.445,0,0,1,1.7-.4q2.955,0,3,3.129V16H34.558V10.073a2.062,2.062,0,0,0-.44-1.44,1.937,1.937,0,0,0-1.478-.477,2.036,2.036,0,0,0-1.419.51,2.071,2.071,0,0,0-.656,1.374V16H29.021V10.115A1.713,1.713,0,0,0,27.1,8.156a2.055,2.055,0,0,0-2.067,1.287V16H23.5V7.019ZM46,11.609a5.378,5.378,0,0,1-.938,3.3,3.006,3.006,0,0,1-2.54,1.253,3.294,3.294,0,0,1-2.573-1.038v4.325H38.409V7.019h1.4l.075,1a3.163,3.163,0,0,1,2.606-1.162,3.063,3.063,0,0,1,2.561,1.22,5.437,5.437,0,0,1,.942,3.4Zm-1.536-.174a3.968,3.968,0,0,0-.647-2.4,2.086,2.086,0,0,0-1.776-.88,2.257,2.257,0,0,0-2.092,1.237v4.292a2.262,2.262,0,0,0,2.108,1.229,2.076,2.076,0,0,0,1.756-.876A4.332,4.332,0,0,0,44.461,11.435Zm3.08-.008a5.3,5.3,0,0,1,.519-2.374A3.87,3.87,0,0,1,49.5,7.425a3.932,3.932,0,0,1,2.113-.573,3.788,3.788,0,0,1,2.968,1.27A4.886,4.886,0,0,1,55.717,11.5v.108a5.351,5.351,0,0,1-.5,2.353,3.813,3.813,0,0,1-1.436,1.623,3.977,3.977,0,0,1-2.146.581,3.778,3.778,0,0,1-2.959-1.27,4.861,4.861,0,0,1-1.133-3.362Zm1.544.183a3.842,3.842,0,0,0,.693,2.4A2.349,2.349,0,0,0,53.492,14a4.2,4.2,0,0,0,.689-2.569,3.836,3.836,0,0,0-.7-2.395,2.23,2.23,0,0,0-1.864-.917,2.205,2.205,0,0,0-1.834.9A4.17,4.17,0,0,0,49.084,11.609ZM61.984,8.4a4.6,4.6,0,0,0-.755-.058,2.024,2.024,0,0,0-2.05,1.287V16H57.642V7.019h1.494l.025,1.038a2.391,2.391,0,0,1,2.142-1.2,1.569,1.569,0,0,1,.681.116Zm3.91-3.553V7.019H67.57V8.206H65.893v5.577a1.247,1.247,0,0,0,.224.81.943.943,0,0,0,.764.27,3.718,3.718,0,0,0,.73-.1V16a4.478,4.478,0,0,1-1.179.165,1.912,1.912,0,0,1-1.552-.623,2.675,2.675,0,0,1-.523-1.768V8.206H62.722V7.019h1.635V4.844ZM74.908,16a3.226,3.226,0,0,1-.216-.946,3.426,3.426,0,0,1-2.557,1.112,3.17,3.17,0,0,1-2.179-.751,2.43,2.43,0,0,1-.851-1.905,2.539,2.539,0,0,1,1.067-2.179,5.029,5.029,0,0,1,3-.776h1.494V9.849a1.725,1.725,0,0,0-.481-1.282,1.935,1.935,0,0,0-1.419-.477,2.239,2.239,0,0,0-1.378.415,1.223,1.223,0,0,0-.556,1H69.288a2.119,2.119,0,0,1,.477-1.3,3.258,3.258,0,0,1,1.295-.992,4.356,4.356,0,0,1,1.8-.365,3.551,3.551,0,0,1,2.432.776A2.8,2.8,0,0,1,76.2,9.766V13.9a5.054,5.054,0,0,0,.315,1.967V16ZM72.36,14.83a2.7,2.7,0,0,0,1.37-.374,2.259,2.259,0,0,0,.938-.971V11.642h-1.2q-2.822,0-2.822,1.652a1.4,1.4,0,0,0,.481,1.129A1.85,1.85,0,0,0,72.36,14.83Zm7.695-7.811.042,1A3.317,3.317,0,0,1,82.76,6.853,2.568,2.568,0,0,1,85.325,8.3a3.4,3.4,0,0,1,1.166-1.046,3.445,3.445,0,0,1,1.7-.4q2.955,0,3,3.129V16H89.658V10.073a2.062,2.062,0,0,0-.44-1.44,1.937,1.937,0,0,0-1.478-.477,2.036,2.036,0,0,0-1.419.51,2.071,2.071,0,0,0-.656,1.374V16H84.122V10.115A1.713,1.713,0,0,0,82.2,8.156a2.055,2.055,0,0,0-2.067,1.287V16H78.6V7.019ZM95.178,16H93.643V7.019h1.536ZM93.518,4.636a.917.917,0,0,1,.228-.631.857.857,0,0,1,.677-.257.87.87,0,0,1,.681.257.907.907,0,0,1,.232.631.877.877,0,0,1-.232.623.886.886,0,0,1-.681.249.872.872,0,0,1-.677-.249A.886.886,0,0,1,93.518,4.636Zm7.844,11.53a3.924,3.924,0,0,1-2.972-1.2,4.452,4.452,0,0,1-1.146-3.208v-.282a5.39,5.39,0,0,1,.51-2.386,3.982,3.982,0,0,1,1.428-1.644,3.59,3.59,0,0,1,1.988-.594,3.364,3.364,0,0,1,2.723,1.154,5,5,0,0,1,.971,3.3v.639H98.781a3.193,3.193,0,0,0,.776,2.146,2.44,2.44,0,0,0,1.888.818,2.675,2.675,0,0,0,1.378-.332,3.462,3.462,0,0,0,.988-.88l.938.73A3.772,3.772,0,0,1,101.363,16.166Zm-.191-8.052a2.048,2.048,0,0,0-1.561.677,3.288,3.288,0,0,0-.78,1.9h4.5v-.116a2.925,2.925,0,0,0-.631-1.814A1.928,1.928,0,0,0,101.172,8.114Zm6.923-1.1.05,1.129a3.273,3.273,0,0,1,2.689-1.295q2.847,0,2.872,3.212V16H112.17V10.057a2.068,2.068,0,0,0-.444-1.436,1.78,1.78,0,0,0-1.357-.465,2.216,2.216,0,0,0-1.312.4,2.706,2.706,0,0,0-.88,1.046V16h-1.536V7.019Zm10.011-2.175V7.019h1.677V8.206h-1.677v5.577a1.247,1.247,0,0,0,.224.81.943.943,0,0,0,.764.27,3.718,3.718,0,0,0,.73-.1V16a4.478,4.478,0,0,1-1.179.165,1.912,1.912,0,0,1-1.552-.623,2.675,2.675,0,0,1-.523-1.768V8.206h-1.635V7.019h1.635V4.844ZM12.656,33.426a5.3,5.3,0,0,1,.519-2.374,3.87,3.87,0,0,1,1.444-1.627,3.932,3.932,0,0,1,2.113-.573,3.788,3.788,0,0,1,2.968,1.27A4.886,4.886,0,0,1,20.833,33.5v.108a5.351,5.351,0,0,1-.5,2.353,3.813,3.813,0,0,1-1.436,1.623,3.977,3.977,0,0,1-2.146.581,3.778,3.778,0,0,1-2.959-1.27,4.861,4.861,0,0,1-1.133-3.362Zm1.544.183a3.842,3.842,0,0,0,.693,2.4A2.349,2.349,0,0,0,18.608,36a4.2,4.2,0,0,0,.689-2.569,3.836,3.836,0,0,0-.7-2.395,2.23,2.23,0,0,0-1.864-.917,2.205,2.205,0,0,0-1.834.9A4.17,4.17,0,0,0,14.2,33.609Zm16.494,4.557a3.924,3.924,0,0,1-2.972-1.2,4.452,4.452,0,0,1-1.146-3.208v-.282a5.39,5.39,0,0,1,.51-2.386,3.982,3.982,0,0,1,1.428-1.644,3.59,3.59,0,0,1,1.988-.594,3.364,3.364,0,0,1,2.723,1.154,5,5,0,0,1,.971,3.3v.639H28.112a3.193,3.193,0,0,0,.776,2.146,2.44,2.44,0,0,0,1.888.818,2.675,2.675,0,0,0,1.378-.332,3.462,3.462,0,0,0,.988-.88l.938.73A3.772,3.772,0,0,1,30.694,38.166ZM30.5,30.114a2.048,2.048,0,0,0-1.561.677,3.288,3.288,0,0,0-.78,1.9h4.5v-.116a2.925,2.925,0,0,0-.631-1.814A1.928,1.928,0,0,0,30.5,30.114Zm9.073,6.8a2.212,2.212,0,0,0,1.436-.5,1.752,1.752,0,0,0,.681-1.245h1.453a2.785,2.785,0,0,1-.531,1.469,3.5,3.5,0,0,1-1.307,1.112,3.772,3.772,0,0,1-1.731.415,3.7,3.7,0,0,1-2.918-1.224,4.877,4.877,0,0,1-1.083-3.349v-.257A5.407,5.407,0,0,1,36.056,31a3.667,3.667,0,0,1,1.382-1.585,3.926,3.926,0,0,1,2.129-.564,3.6,3.6,0,0,1,2.511.9,3.234,3.234,0,0,1,1.067,2.349H41.692a2.116,2.116,0,0,0-.66-1.432,2.053,2.053,0,0,0-1.465-.56,2.149,2.149,0,0,0-1.814.843,3.957,3.957,0,0,0-.643,2.436v.291a3.878,3.878,0,0,0,.639,2.391A2.16,2.16,0,0,0,39.576,36.913Zm4.889-3.486a5.3,5.3,0,0,1,.519-2.374,3.87,3.87,0,0,1,1.444-1.627,3.932,3.932,0,0,1,2.113-.573,3.788,3.788,0,0,1,2.968,1.27A4.886,4.886,0,0,1,52.641,33.5v.108a5.351,5.351,0,0,1-.5,2.353A3.813,3.813,0,0,1,50.7,37.585a3.977,3.977,0,0,1-2.146.581A3.778,3.778,0,0,1,45.6,36.9a4.861,4.861,0,0,1-1.133-3.362Zm1.544.183a3.842,3.842,0,0,0,.693,2.4A2.349,2.349,0,0,0,50.417,36a4.2,4.2,0,0,0,.689-2.569,3.836,3.836,0,0,0-.7-2.395,2.23,2.23,0,0,0-1.864-.917,2.205,2.205,0,0,0-1.834.9A4.17,4.17,0,0,0,46.009,33.609Zm10.011-4.59.05,1.129a3.273,3.273,0,0,1,2.689-1.295q2.847,0,2.872,3.212V38H60.1V32.057a2.068,2.068,0,0,0-.444-1.436,1.78,1.78,0,0,0-1.357-.465,2.216,2.216,0,0,0-1.312.4A2.706,2.706,0,0,0,56.1,31.6V38H54.567V29.019Zm7.521,4.408a5.3,5.3,0,0,1,.519-2.374A3.87,3.87,0,0,1,65.5,29.425a3.932,3.932,0,0,1,2.113-.573,3.788,3.788,0,0,1,2.968,1.27A4.886,4.886,0,0,1,71.716,33.5v.108a5.351,5.351,0,0,1-.5,2.353,3.813,3.813,0,0,1-1.436,1.623,3.977,3.977,0,0,1-2.146.581,3.778,3.778,0,0,1-2.959-1.27,4.861,4.861,0,0,1-1.133-3.362Zm1.544.183a3.842,3.842,0,0,0,.693,2.4A2.349,2.349,0,0,0,69.492,36a4.2,4.2,0,0,0,.689-2.569,3.836,3.836,0,0,0-.7-2.395,2.23,2.23,0,0,0-1.864-.917,2.205,2.205,0,0,0-1.834.9A4.17,4.17,0,0,0,65.084,33.609Zm3.229-8.359h1.859l-2.225,2.44-1.237,0Zm6.773,3.769.042,1a3.317,3.317,0,0,1,2.665-1.162A2.568,2.568,0,0,1,80.357,30.3a3.4,3.4,0,0,1,1.166-1.046,3.445,3.445,0,0,1,1.7-.4q2.955,0,3,3.129V38H84.69V32.073a2.062,2.062,0,0,0-.44-1.44,1.937,1.937,0,0,0-1.478-.477,2.036,2.036,0,0,0-1.419.51A2.071,2.071,0,0,0,80.7,32.04V38H79.154V32.115a1.713,1.713,0,0,0-1.917-1.959,2.055,2.055,0,0,0-2.067,1.287V38H73.634V29.019ZM90.21,38H88.675V29.019H90.21ZM88.55,26.636a.917.917,0,0,1,.228-.631.857.857,0,0,1,.677-.257.87.87,0,0,1,.681.257.907.907,0,0,1,.232.631.877.877,0,0,1-.232.623.886.886,0,0,1-.681.249.872.872,0,0,1-.677-.249A.886.886,0,0,1,88.55,26.636Zm7.72,10.276a2.212,2.212,0,0,0,1.436-.5,1.752,1.752,0,0,0,.681-1.245h1.453a2.785,2.785,0,0,1-.531,1.469A3.5,3.5,0,0,1,98,37.751a3.772,3.772,0,0,1-1.731.415,3.7,3.7,0,0,1-2.918-1.224,4.877,4.877,0,0,1-1.083-3.349v-.257A5.407,5.407,0,0,1,92.75,31a3.667,3.667,0,0,1,1.382-1.585,3.926,3.926,0,0,1,2.129-.564,3.6,3.6,0,0,1,2.511.9,3.234,3.234,0,0,1,1.067,2.349H98.387a2.116,2.116,0,0,0-.66-1.432,2.053,2.053,0,0,0-1.465-.56,2.149,2.149,0,0,0-1.814.843,3.957,3.957,0,0,0-.643,2.436v.291a3.878,3.878,0,0,0,.639,2.391A2.16,2.16,0,0,0,96.27,36.913Zm4.889-3.486a5.3,5.3,0,0,1,.519-2.374,3.87,3.87,0,0,1,1.444-1.627,3.932,3.932,0,0,1,2.113-.573,3.788,3.788,0,0,1,2.968,1.27,4.886,4.886,0,0,1,1.133,3.378v.108a5.351,5.351,0,0,1-.5,2.353,3.813,3.813,0,0,1-1.436,1.623,3.977,3.977,0,0,1-2.146.581,3.778,3.778,0,0,1-2.959-1.27,4.861,4.861,0,0,1-1.133-3.362Zm1.544.183a3.842,3.842,0,0,0,.693,2.4A2.349,2.349,0,0,0,107.111,36a4.2,4.2,0,0,0,.689-2.569,3.836,3.836,0,0,0-.7-2.395,2.23,2.23,0,0,0-1.864-.917,2.205,2.205,0,0,0-1.834.9A4.17,4.17,0,0,0,102.7,33.609Z" transform="translate(-25 8913.999)" fill="#12263f"/>
    <path id="Path_839920" data-name="Path 839920" d="M13.146,16H11.552V3.914h1.594Zm2.3-4.565a5.261,5.261,0,0,1,.979-3.324A3.1,3.1,0,0,1,18.99,6.853a3.115,3.115,0,0,1,2.5,1.079V3.25h1.536V16H21.613l-.075-.963a3.127,3.127,0,0,1-2.565,1.129,3.068,3.068,0,0,1-2.544-1.278,5.321,5.321,0,0,1-.984-3.337Zm1.536.174A3.984,3.984,0,0,0,17.612,14a2.039,2.039,0,0,0,1.743.863,2.24,2.24,0,0,0,2.133-1.312V9.426a2.257,2.257,0,0,0-2.117-1.27,2.049,2.049,0,0,0-1.76.872A4.386,4.386,0,0,0,16.981,11.609Zm12.152,4.557a3.924,3.924,0,0,1-2.972-1.2,4.452,4.452,0,0,1-1.146-3.208v-.282a5.39,5.39,0,0,1,.51-2.386,3.982,3.982,0,0,1,1.428-1.644,3.59,3.59,0,0,1,1.988-.594,3.364,3.364,0,0,1,2.723,1.154,5,5,0,0,1,.971,3.3v.639H26.552a3.193,3.193,0,0,0,.776,2.146,2.44,2.44,0,0,0,1.888.818,2.675,2.675,0,0,0,1.378-.332,3.462,3.462,0,0,0,.988-.88l.938.73A3.772,3.772,0,0,1,29.133,16.166Zm-.191-8.052a2.048,2.048,0,0,0-1.561.677,3.288,3.288,0,0,0-.78,1.9h4.5v-.116a2.925,2.925,0,0,0-.631-1.814A1.928,1.928,0,0,0,28.942,8.114Zm6.923-1.1.05,1.129A3.273,3.273,0,0,1,38.6,6.853q2.847,0,2.872,3.212V16H39.941V10.057A2.068,2.068,0,0,0,39.5,8.621a1.78,1.78,0,0,0-1.357-.465,2.216,2.216,0,0,0-1.312.4,2.706,2.706,0,0,0-.88,1.046V16H34.413V7.019ZM45.876,4.844V7.019h1.677V8.206H45.876v5.577a1.247,1.247,0,0,0,.224.81.943.943,0,0,0,.764.27,3.718,3.718,0,0,0,.73-.1V16a4.478,4.478,0,0,1-1.179.165,1.912,1.912,0,0,1-1.552-.623,2.675,2.675,0,0,1-.523-1.768V8.206H42.705V7.019H44.34V4.844ZM51.014,16H49.479V7.019h1.536ZM49.354,4.636a.917.917,0,0,1,.228-.631.857.857,0,0,1,.677-.257.87.87,0,0,1,.681.257.907.907,0,0,1,.232.631.877.877,0,0,1-.232.623.886.886,0,0,1-.681.249.872.872,0,0,1-.677-.249A.886.886,0,0,1,49.354,4.636ZM53.986,16V8.206H52.566V7.019h1.419V6.255a3.12,3.12,0,0,1,.859-2.341,3.332,3.332,0,0,1,2.428-.838,7.311,7.311,0,0,1,2.349.506l-.257,1.295a5.321,5.321,0,0,0-1.976-.415,1.933,1.933,0,0,0-1.424.444,1.831,1.831,0,0,0-.436,1.332v.78h1.834V8.206H55.53V16Zm6.4,0H58.842V7.019h1.544Zm6.1-1.087a2.212,2.212,0,0,0,1.436-.5,1.752,1.752,0,0,0,.681-1.245h1.453a2.785,2.785,0,0,1-.531,1.469,3.5,3.5,0,0,1-1.307,1.112,3.772,3.772,0,0,1-1.731.415,3.7,3.7,0,0,1-2.918-1.224,4.877,4.877,0,0,1-1.083-3.349v-.257A5.407,5.407,0,0,1,62.967,9a3.667,3.667,0,0,1,1.382-1.585,3.926,3.926,0,0,1,2.129-.564,3.6,3.6,0,0,1,2.511.9,3.234,3.234,0,0,1,1.067,2.349H68.6a2.116,2.116,0,0,0-.66-1.432,2.053,2.053,0,0,0-1.465-.56,2.149,2.149,0,0,0-1.814.843,3.957,3.957,0,0,0-.643,2.436v.291a3.878,3.878,0,0,0,.639,2.391A2.16,2.16,0,0,0,66.487,14.913ZM77.328,16a3.226,3.226,0,0,1-.216-.946,3.426,3.426,0,0,1-2.557,1.112,3.17,3.17,0,0,1-2.179-.751,2.43,2.43,0,0,1-.851-1.905,2.539,2.539,0,0,1,1.067-2.179,5.029,5.029,0,0,1,3-.776h1.494V9.849a1.725,1.725,0,0,0-.481-1.282,1.935,1.935,0,0,0-1.419-.477,2.239,2.239,0,0,0-1.378.415,1.223,1.223,0,0,0-.556,1H71.708a2.119,2.119,0,0,1,.477-1.3,3.258,3.258,0,0,1,1.295-.992,4.356,4.356,0,0,1,1.8-.365,3.551,3.551,0,0,1,2.432.776,2.8,2.8,0,0,1,.913,2.137V13.9a5.054,5.054,0,0,0,.315,1.967V16Zm-2.548-1.17a2.7,2.7,0,0,0,1.37-.374,2.259,2.259,0,0,0,.938-.971V11.642h-1.2q-2.822,0-2.822,1.652a1.4,1.4,0,0,0,.481,1.129A1.85,1.85,0,0,0,74.779,14.83Zm9.853.083a2.212,2.212,0,0,0,1.436-.5,1.752,1.752,0,0,0,.681-1.245H88.2a2.785,2.785,0,0,1-.531,1.469,3.5,3.5,0,0,1-1.307,1.112,3.772,3.772,0,0,1-1.731.415,3.7,3.7,0,0,1-2.918-1.224,4.877,4.877,0,0,1-1.083-3.349v-.257A5.407,5.407,0,0,1,81.113,9a3.667,3.667,0,0,1,1.382-1.585,3.926,3.926,0,0,1,2.129-.564,3.6,3.6,0,0,1,2.511.9A3.234,3.234,0,0,1,88.2,10.106H86.749a2.116,2.116,0,0,0-.66-1.432,2.053,2.053,0,0,0-1.465-.56,2.149,2.149,0,0,0-1.814.843,3.957,3.957,0,0,0-.643,2.436v.291a3.878,3.878,0,0,0,.639,2.391A2.16,2.16,0,0,0,84.632,14.913ZM91.6,16H90.061V7.019H91.6ZM89.937,4.636a.917.917,0,0,1,.228-.631.857.857,0,0,1,.677-.257.87.87,0,0,1,.681.257.907.907,0,0,1,.232.631.877.877,0,0,1-.232.623.886.886,0,0,1-.681.249.872.872,0,0,1-.677-.249A.886.886,0,0,1,89.937,4.636Zm3.71,6.79a5.3,5.3,0,0,1,.519-2.374A3.87,3.87,0,0,1,95.61,7.425a3.932,3.932,0,0,1,2.113-.573,3.788,3.788,0,0,1,2.968,1.27,4.886,4.886,0,0,1,1.133,3.378v.108a5.351,5.351,0,0,1-.5,2.353,3.813,3.813,0,0,1-1.436,1.623,3.977,3.977,0,0,1-2.146.581A3.778,3.778,0,0,1,94.78,14.9a4.861,4.861,0,0,1-1.133-3.362Zm1.544.183a3.842,3.842,0,0,0,.693,2.4A2.349,2.349,0,0,0,99.6,14a4.2,4.2,0,0,0,.689-2.569,3.836,3.836,0,0,0-.7-2.395,2.23,2.23,0,0,0-1.864-.917,2.205,2.205,0,0,0-1.834.9A4.17,4.17,0,0,0,95.191,11.609ZM98.42,3.25h1.859L98.055,5.69l-1.237,0ZM105.2,7.019l.05,1.129a3.273,3.273,0,0,1,2.689-1.295q2.847,0,2.872,3.212V16h-1.536V10.057a2.068,2.068,0,0,0-.444-1.436,1.78,1.78,0,0,0-1.357-.465,2.216,2.216,0,0,0-1.312.4,2.706,2.706,0,0,0-.88,1.046V16h-1.536V7.019ZM14.312,33.435a5.261,5.261,0,0,1,.979-3.324,3.1,3.1,0,0,1,2.565-1.258,3.115,3.115,0,0,1,2.5,1.079V25.25h1.536V38H20.48l-.075-.963a3.127,3.127,0,0,1-2.565,1.129A3.068,3.068,0,0,1,15.3,36.888a5.321,5.321,0,0,1-.984-3.337Zm1.536.174A3.984,3.984,0,0,0,16.479,36a2.039,2.039,0,0,0,1.743.863,2.24,2.24,0,0,0,2.133-1.312V31.426a2.257,2.257,0,0,0-2.117-1.27,2.049,2.049,0,0,0-1.76.872A4.386,4.386,0,0,0,15.848,33.609ZM28,38.166a3.924,3.924,0,0,1-2.972-1.2,4.452,4.452,0,0,1-1.146-3.208v-.282a5.39,5.39,0,0,1,.51-2.386,3.982,3.982,0,0,1,1.428-1.644,3.59,3.59,0,0,1,1.988-.594,3.364,3.364,0,0,1,2.723,1.154,5,5,0,0,1,.971,3.3v.639H25.419a3.193,3.193,0,0,0,.776,2.146,2.44,2.44,0,0,0,1.888.818,2.675,2.675,0,0,0,1.378-.332,3.462,3.462,0,0,0,.988-.88l.938.73A3.772,3.772,0,0,1,28,38.166Zm-.191-8.052a2.048,2.048,0,0,0-1.561.677,3.288,3.288,0,0,0-.78,1.9h4.5v-.116a2.925,2.925,0,0,0-.631-1.814A1.928,1.928,0,0,0,27.809,30.114Zm6.915-1.1.042,1a3.317,3.317,0,0,1,2.665-1.162A2.568,2.568,0,0,1,39.995,30.3a3.4,3.4,0,0,1,1.166-1.046,3.445,3.445,0,0,1,1.7-.4q2.955,0,3,3.129V38H44.328V32.073a2.062,2.062,0,0,0-.44-1.44,1.937,1.937,0,0,0-1.478-.477,2.036,2.036,0,0,0-1.419.51,2.071,2.071,0,0,0-.656,1.374V38H38.791V32.115a1.713,1.713,0,0,0-1.917-1.959,2.055,2.055,0,0,0-2.067,1.287V38H33.271V29.019Zm13.049,4.408a5.3,5.3,0,0,1,.519-2.374,3.87,3.87,0,0,1,1.444-1.627,3.932,3.932,0,0,1,2.113-.573,3.788,3.788,0,0,1,2.968,1.27A4.886,4.886,0,0,1,55.949,33.5v.108a5.351,5.351,0,0,1-.5,2.353,3.813,3.813,0,0,1-1.436,1.623,3.977,3.977,0,0,1-2.146.581,3.778,3.778,0,0,1-2.959-1.27,4.861,4.861,0,0,1-1.133-3.362Zm1.544.183a3.842,3.842,0,0,0,.693,2.4A2.349,2.349,0,0,0,53.724,36a4.2,4.2,0,0,0,.689-2.569,3.836,3.836,0,0,0-.7-2.395,2.23,2.23,0,0,0-1.864-.917,2.205,2.205,0,0,0-1.834.9A4.17,4.17,0,0,0,49.317,33.609Zm8.193-.174a5.279,5.279,0,0,1,.971-3.341,3.348,3.348,0,0,1,5.138-.079l.075-1h1.4v8.766a3.654,3.654,0,0,1-1.033,2.748,3.814,3.814,0,0,1-2.777,1,4.619,4.619,0,0,1-1.9-.415,3.272,3.272,0,0,1-1.419-1.137l.8-.921a3,3,0,0,0,2.416,1.22,2.353,2.353,0,0,0,1.747-.631,2.411,2.411,0,0,0,.627-1.776V37.1a3.156,3.156,0,0,1-2.515,1.063,3.068,3.068,0,0,1-2.552-1.27A5.55,5.55,0,0,1,57.51,33.435Zm1.544.174A4.027,4.027,0,0,0,59.676,36a2.023,2.023,0,0,0,1.743.867,2.249,2.249,0,0,0,2.133-1.32v-4.1a2.276,2.276,0,0,0-2.117-1.287,2.041,2.041,0,0,0-1.751.872A4.386,4.386,0,0,0,59.053,33.609Zm12.7-3.212A4.6,4.6,0,0,0,71,30.338a2.024,2.024,0,0,0-2.05,1.287V38H67.412V29.019h1.494l.025,1.038a2.391,2.391,0,0,1,2.142-1.2,1.569,1.569,0,0,1,.681.116ZM78.378,38a3.226,3.226,0,0,1-.216-.946,3.426,3.426,0,0,1-2.557,1.112,3.17,3.17,0,0,1-2.179-.751,2.43,2.43,0,0,1-.851-1.905,2.539,2.539,0,0,1,1.067-2.179,5.029,5.029,0,0,1,3-.776h1.494v-.706a1.725,1.725,0,0,0-.481-1.282,1.935,1.935,0,0,0-1.419-.477,2.239,2.239,0,0,0-1.378.415,1.223,1.223,0,0,0-.556,1H72.758a2.119,2.119,0,0,1,.477-1.3,3.258,3.258,0,0,1,1.295-.992,4.356,4.356,0,0,1,1.8-.365,3.551,3.551,0,0,1,2.432.776,2.8,2.8,0,0,1,.913,2.137V35.9a5.054,5.054,0,0,0,.315,1.967V38Zm-2.548-1.17a2.7,2.7,0,0,0,1.37-.374,2.259,2.259,0,0,0,.938-.971V33.642h-1.2q-2.822,0-2.822,1.652a1.4,1.4,0,0,0,.481,1.129A1.85,1.85,0,0,0,75.829,36.83Zm1.419-11.58h1.859l-2.225,2.44-1.237,0ZM82.594,38V30.206H81.175V29.019h1.419v-.764a3.12,3.12,0,0,1,.859-2.341,3.332,3.332,0,0,1,2.428-.838,7.311,7.311,0,0,1,2.349.506l-.257,1.295A5.321,5.321,0,0,0,86,26.462a1.933,1.933,0,0,0-1.424.444,1.831,1.831,0,0,0-.436,1.332v.78h1.834v1.187H84.138V38Zm6.4,0H87.45V29.019h1.544Zm6.1-1.087a2.212,2.212,0,0,0,1.436-.5,1.752,1.752,0,0,0,.681-1.245h1.453a2.785,2.785,0,0,1-.531,1.469,3.5,3.5,0,0,1-1.307,1.112,3.772,3.772,0,0,1-1.731.415,3.7,3.7,0,0,1-2.918-1.224,4.877,4.877,0,0,1-1.083-3.349v-.257A5.407,5.407,0,0,1,91.576,31a3.667,3.667,0,0,1,1.382-1.585,3.926,3.926,0,0,1,2.129-.564,3.6,3.6,0,0,1,2.511.9,3.234,3.234,0,0,1,1.067,2.349H97.212a2.116,2.116,0,0,0-.66-1.432,2.053,2.053,0,0,0-1.465-.56,2.149,2.149,0,0,0-1.814.843,3.957,3.957,0,0,0-.643,2.436v.291a3.878,3.878,0,0,0,.639,2.391A2.16,2.16,0,0,0,95.1,36.913ZM105.936,38a3.226,3.226,0,0,1-.216-.946,3.426,3.426,0,0,1-2.557,1.112,3.17,3.17,0,0,1-2.179-.751,2.43,2.43,0,0,1-.851-1.905,2.539,2.539,0,0,1,1.067-2.179,5.029,5.029,0,0,1,3-.776H105.7v-.706a1.725,1.725,0,0,0-.481-1.282,1.935,1.935,0,0,0-1.419-.477,2.239,2.239,0,0,0-1.378.415,1.223,1.223,0,0,0-.556,1h-1.544a2.119,2.119,0,0,1,.477-1.3,3.258,3.258,0,0,1,1.295-.992,4.356,4.356,0,0,1,1.8-.365,3.551,3.551,0,0,1,2.432.776,2.8,2.8,0,0,1,.913,2.137V35.9a5.054,5.054,0,0,0,.315,1.967V38Zm-2.548-1.17a2.7,2.7,0,0,0,1.37-.374,2.259,2.259,0,0,0,.938-.971V33.642h-1.2q-2.822,0-2.822,1.652a1.4,1.4,0,0,0,.481,1.129A1.85,1.85,0,0,0,103.388,36.83Z" transform="translate(124 8913.999)" fill="#12263f"/>
    <path id="Path_839921" data-name="Path 839921" d="M14.42,12.165A4.447,4.447,0,0,1,13,15.124a4.638,4.638,0,0,1-3.167,1.042A4.259,4.259,0,0,1,6.406,14.63a6.178,6.178,0,0,1-1.291-4.109V9.359a6.886,6.886,0,0,1,.6-2.963A4.5,4.5,0,0,1,7.423,4.433a4.75,4.75,0,0,1,2.557-.685,4.367,4.367,0,0,1,3.088,1.075A4.5,4.5,0,0,1,14.42,7.8h-1.6a3.472,3.472,0,0,0-.9-2.1,2.725,2.725,0,0,0-1.938-.649,2.851,2.851,0,0,0-2.395,1.13A5.187,5.187,0,0,0,6.717,9.4v1.171A5.332,5.332,0,0,0,7.539,13.7a2.655,2.655,0,0,0,2.3,1.163,3.067,3.067,0,0,0,2.038-.6,3.34,3.34,0,0,0,.942-2.1ZM21.9,16a3.226,3.226,0,0,1-.216-.946,3.426,3.426,0,0,1-2.557,1.112,3.17,3.17,0,0,1-2.179-.751A2.43,2.43,0,0,1,16.1,13.51a2.539,2.539,0,0,1,1.067-2.179,5.029,5.029,0,0,1,3-.776h1.494V9.849a1.725,1.725,0,0,0-.481-1.282,1.935,1.935,0,0,0-1.419-.477A2.239,2.239,0,0,0,18.38,8.5a1.223,1.223,0,0,0-.556,1H16.28a2.119,2.119,0,0,1,.477-1.3,3.258,3.258,0,0,1,1.295-.992,4.356,4.356,0,0,1,1.8-.365,3.551,3.551,0,0,1,2.432.776,2.8,2.8,0,0,1,.913,2.137V13.9a5.054,5.054,0,0,0,.315,1.967V16Zm-2.548-1.17a2.7,2.7,0,0,0,1.37-.374,2.259,2.259,0,0,0,.938-.971V11.642h-1.2q-2.822,0-2.822,1.652a1.4,1.4,0,0,0,.481,1.129A1.85,1.85,0,0,0,19.351,14.83ZM29.943,8.4a4.6,4.6,0,0,0-.755-.058,2.024,2.024,0,0,0-2.05,1.287V16H25.6V7.019H27.1l.025,1.038a2.391,2.391,0,0,1,2.142-1.2,1.569,1.569,0,0,1,.681.116ZM36.567,16a3.226,3.226,0,0,1-.216-.946,3.426,3.426,0,0,1-2.557,1.112,3.17,3.17,0,0,1-2.179-.751,2.43,2.43,0,0,1-.851-1.905,2.539,2.539,0,0,1,1.067-2.179,5.029,5.029,0,0,1,3-.776h1.494V9.849a1.725,1.725,0,0,0-.481-1.282,1.935,1.935,0,0,0-1.419-.477,2.239,2.239,0,0,0-1.378.415,1.223,1.223,0,0,0-.556,1H30.947a2.119,2.119,0,0,1,.477-1.3,3.258,3.258,0,0,1,1.295-.992,4.356,4.356,0,0,1,1.8-.365,3.551,3.551,0,0,1,2.432.776,2.8,2.8,0,0,1,.913,2.137V13.9a5.054,5.054,0,0,0,.315,1.967V16Zm-2.548-1.17a2.7,2.7,0,0,0,1.37-.374,2.259,2.259,0,0,0,.938-.971V11.642h-1.2q-2.822,0-2.822,1.652a1.4,1.4,0,0,0,.481,1.129A1.85,1.85,0,0,0,34.018,14.83Zm9.853.083a2.212,2.212,0,0,0,1.436-.5,1.752,1.752,0,0,0,.681-1.245h1.453a2.785,2.785,0,0,1-.531,1.469A3.5,3.5,0,0,1,45.6,15.751a3.772,3.772,0,0,1-1.731.415,3.7,3.7,0,0,1-2.918-1.224,4.877,4.877,0,0,1-1.083-3.349v-.257A5.407,5.407,0,0,1,40.352,9a3.667,3.667,0,0,1,1.382-1.585,3.926,3.926,0,0,1,2.129-.564,3.6,3.6,0,0,1,2.511.9,3.234,3.234,0,0,1,1.067,2.349H45.988a2.116,2.116,0,0,0-.66-1.432,2.053,2.053,0,0,0-1.465-.56,2.149,2.149,0,0,0-1.814.843,3.957,3.957,0,0,0-.643,2.436v.291a3.878,3.878,0,0,0,.639,2.391A2.16,2.16,0,0,0,43.871,14.913ZM51.251,4.844V7.019h1.677V8.206H51.251v5.577a1.247,1.247,0,0,0,.224.81.943.943,0,0,0,.764.27,3.718,3.718,0,0,0,.73-.1V16a4.478,4.478,0,0,1-1.179.165,1.912,1.912,0,0,1-1.552-.623,2.675,2.675,0,0,1-.523-1.768V8.206H48.08V7.019h1.635V4.844Zm7.2,11.322a3.924,3.924,0,0,1-2.972-1.2,4.452,4.452,0,0,1-1.146-3.208v-.282a5.39,5.39,0,0,1,.51-2.386,3.982,3.982,0,0,1,1.428-1.644,3.59,3.59,0,0,1,1.988-.594,3.364,3.364,0,0,1,2.723,1.154,5,5,0,0,1,.971,3.3v.639H55.866a3.193,3.193,0,0,0,.776,2.146,2.44,2.44,0,0,0,1.888.818,2.675,2.675,0,0,0,1.378-.332,3.462,3.462,0,0,0,.988-.88l.938.73A3.772,3.772,0,0,1,58.448,16.166Zm-.191-8.052a2.048,2.048,0,0,0-1.561.677,3.288,3.288,0,0,0-.78,1.9h4.5v-.116a2.925,2.925,0,0,0-.631-1.814A1.928,1.928,0,0,0,58.257,8.114Zm9.812.282a4.6,4.6,0,0,0-.755-.058,2.024,2.024,0,0,0-2.05,1.287V16H63.727V7.019h1.494l.025,1.038a2.391,2.391,0,0,1,2.142-1.2,1.569,1.569,0,0,1,.681.116Zm3.08,7.6H69.6V7.019h1.544Zm.017-12.742h1.859L70.8,5.7l-1.237,0Zm7.745,10.359a1.131,1.131,0,0,0-.469-.967,4.514,4.514,0,0,0-1.635-.594,7.731,7.731,0,0,1-1.851-.6,2.633,2.633,0,0,1-1.013-.83,1.986,1.986,0,0,1-.328-1.146,2.33,2.33,0,0,1,.934-1.868,3.647,3.647,0,0,1,2.386-.764,3.753,3.753,0,0,1,2.478.789,2.5,2.5,0,0,1,.95,2.017H78.818a1.386,1.386,0,0,0-.535-1.087,2.006,2.006,0,0,0-1.349-.457,2.1,2.1,0,0,0-1.312.365,1.15,1.15,0,0,0-.473.955.932.932,0,0,0,.44.838,5.413,5.413,0,0,0,1.59.54,8.283,8.283,0,0,1,1.864.614,2.718,2.718,0,0,1,1.058.859,2.112,2.112,0,0,1,.344,1.224,2.3,2.3,0,0,1-.963,1.93,4.039,4.039,0,0,1-2.5.726,4.523,4.523,0,0,1-1.909-.382,3.105,3.105,0,0,1-1.3-1.067,2.571,2.571,0,0,1-.469-1.482h1.536a1.59,1.59,0,0,0,.618,1.224,2.4,2.4,0,0,0,1.523.452,2.476,2.476,0,0,0,1.4-.353A1.084,1.084,0,0,0,78.909,13.618Zm5.62-8.774V7.019h1.677V8.206H84.529v5.577a1.247,1.247,0,0,0,.224.81.943.943,0,0,0,.764.27,3.718,3.718,0,0,0,.73-.1V16a4.478,4.478,0,0,1-1.179.165,1.912,1.912,0,0,1-1.552-.623,2.675,2.675,0,0,1-.523-1.768V8.206H81.358V7.019h1.635V4.844ZM89.667,16H88.131V7.019h1.536ZM88.007,4.636a.917.917,0,0,1,.228-.631.857.857,0,0,1,.677-.257.87.87,0,0,1,.681.257.907.907,0,0,1,.232.631.877.877,0,0,1-.232.623.886.886,0,0,1-.681.249.872.872,0,0,1-.677-.249A.886.886,0,0,1,88.007,4.636Zm7.72,10.276a2.212,2.212,0,0,0,1.436-.5,1.752,1.752,0,0,0,.681-1.245H99.3a2.785,2.785,0,0,1-.531,1.469,3.5,3.5,0,0,1-1.307,1.112,3.772,3.772,0,0,1-1.731.415,3.7,3.7,0,0,1-2.918-1.224,4.877,4.877,0,0,1-1.083-3.349v-.257A5.407,5.407,0,0,1,92.207,9a3.667,3.667,0,0,1,1.382-1.585,3.926,3.926,0,0,1,2.129-.564,3.6,3.6,0,0,1,2.511.9A3.234,3.234,0,0,1,99.3,10.106H97.843a2.116,2.116,0,0,0-.66-1.432,2.053,2.053,0,0,0-1.465-.56,2.149,2.149,0,0,0-1.814.843,3.957,3.957,0,0,0-.643,2.436v.291a3.878,3.878,0,0,0,.639,2.391A2.16,2.16,0,0,0,95.726,14.913ZM106.567,16a3.226,3.226,0,0,1-.216-.946,3.426,3.426,0,0,1-2.557,1.112,3.17,3.17,0,0,1-2.179-.751,2.43,2.43,0,0,1-.851-1.905,2.539,2.539,0,0,1,1.067-2.179,5.029,5.029,0,0,1,3-.776h1.494V9.849a1.725,1.725,0,0,0-.481-1.282,1.935,1.935,0,0,0-1.419-.477,2.239,2.239,0,0,0-1.378.415,1.223,1.223,0,0,0-.556,1h-1.544a2.119,2.119,0,0,1,.477-1.3,3.258,3.258,0,0,1,1.295-.992,4.356,4.356,0,0,1,1.8-.365,3.551,3.551,0,0,1,2.432.776,2.8,2.8,0,0,1,.913,2.137V13.9a5.054,5.054,0,0,0,.315,1.967V16Zm-2.548-1.17a2.7,2.7,0,0,0,1.37-.374,2.259,2.259,0,0,0,.938-.971V11.642h-1.2q-2.822,0-2.822,1.652a1.4,1.4,0,0,0,.481,1.129A1.85,1.85,0,0,0,104.019,14.83Zm11.48-1.212a1.131,1.131,0,0,0-.469-.967,4.514,4.514,0,0,0-1.635-.594,7.731,7.731,0,0,1-1.851-.6,2.633,2.633,0,0,1-1.013-.83,1.986,1.986,0,0,1-.328-1.146,2.33,2.33,0,0,1,.934-1.868,3.647,3.647,0,0,1,2.386-.764A3.753,3.753,0,0,1,116,7.641a2.5,2.5,0,0,1,.95,2.017h-1.544a1.386,1.386,0,0,0-.535-1.087,2.006,2.006,0,0,0-1.349-.457,2.1,2.1,0,0,0-1.312.365,1.15,1.15,0,0,0-.473.955.932.932,0,0,0,.44.838,5.413,5.413,0,0,0,1.59.54,8.283,8.283,0,0,1,1.864.614,2.718,2.718,0,0,1,1.058.859,2.112,2.112,0,0,1,.344,1.224,2.3,2.3,0,0,1-.963,1.93,4.039,4.039,0,0,1-2.5.726,4.523,4.523,0,0,1-1.909-.382,3.105,3.105,0,0,1-1.3-1.067,2.571,2.571,0,0,1-.469-1.482h1.536a1.59,1.59,0,0,0,.618,1.224,2.4,2.4,0,0,0,1.523.452,2.476,2.476,0,0,0,1.4-.353A1.084,1.084,0,0,0,115.5,13.618ZM17.176,36.913a2.212,2.212,0,0,0,1.436-.5,1.752,1.752,0,0,0,.681-1.245h1.453a2.785,2.785,0,0,1-.531,1.469,3.5,3.5,0,0,1-1.307,1.112,3.772,3.772,0,0,1-1.731.415,3.7,3.7,0,0,1-2.918-1.224,4.877,4.877,0,0,1-1.083-3.349v-.257A5.407,5.407,0,0,1,13.656,31a3.667,3.667,0,0,1,1.382-1.585,3.926,3.926,0,0,1,2.129-.564,3.6,3.6,0,0,1,2.511.9,3.234,3.234,0,0,1,1.067,2.349H19.293a2.116,2.116,0,0,0-.66-1.432,2.053,2.053,0,0,0-1.465-.56,2.149,2.149,0,0,0-1.814.843,3.957,3.957,0,0,0-.643,2.436v.291a3.878,3.878,0,0,0,.639,2.391A2.16,2.16,0,0,0,17.176,36.913Zm10.841.2a3.262,3.262,0,0,1-2.631,1.054,2.792,2.792,0,0,1-2.187-.834,3.611,3.611,0,0,1-.76-2.469V29.019h1.536v5.8q0,2.042,1.66,2.042a2.3,2.3,0,0,0,2.341-1.312V29.019h1.536V38H28.05ZM37.388,38a3.226,3.226,0,0,1-.216-.946,3.426,3.426,0,0,1-2.557,1.112,3.17,3.17,0,0,1-2.179-.751,2.43,2.43,0,0,1-.851-1.905,2.539,2.539,0,0,1,1.067-2.179,5.029,5.029,0,0,1,3-.776h1.494v-.706a1.725,1.725,0,0,0-.481-1.282,1.935,1.935,0,0,0-1.419-.477,2.239,2.239,0,0,0-1.378.415,1.223,1.223,0,0,0-.556,1H31.769a2.119,2.119,0,0,1,.477-1.3,3.258,3.258,0,0,1,1.295-.992,4.356,4.356,0,0,1,1.8-.365,3.551,3.551,0,0,1,2.432.776,2.8,2.8,0,0,1,.913,2.137V35.9A5.054,5.054,0,0,0,39,37.867V38ZM34.84,36.83a2.7,2.7,0,0,0,1.37-.374,2.259,2.259,0,0,0,.938-.971V33.642h-1.2q-2.822,0-2.822,1.652a1.4,1.4,0,0,0,.481,1.129A1.85,1.85,0,0,0,34.84,36.83Zm7.7-7.811.05,1.129a3.273,3.273,0,0,1,2.689-1.295q2.847,0,2.872,3.212V38H46.619V32.057a2.068,2.068,0,0,0-.444-1.436,1.78,1.78,0,0,0-1.357-.465,2.216,2.216,0,0,0-1.312.4,2.706,2.706,0,0,0-.88,1.046V38H41.091V29.019Zm10.011-2.175v2.175h1.677v1.187H52.554v5.577a1.247,1.247,0,0,0,.224.81.943.943,0,0,0,.764.27,3.718,3.718,0,0,0,.73-.1V38a4.478,4.478,0,0,1-1.179.165,1.912,1.912,0,0,1-1.552-.623,2.675,2.675,0,0,1-.523-1.768v-5.57H49.383V29.019h1.635V26.844ZM57.692,38H56.156V29.019h1.536Zm-1.66-11.364a.917.917,0,0,1,.228-.631.857.857,0,0,1,.677-.257.87.87,0,0,1,.681.257.907.907,0,0,1,.232.631.877.877,0,0,1-.232.623.886.886,0,0,1-.681.249.872.872,0,0,1-.677-.249A.886.886,0,0,1,56.032,26.636Zm6.2.208v2.175h1.677v1.187H62.233v5.577a1.247,1.247,0,0,0,.224.81.943.943,0,0,0,.764.27,3.718,3.718,0,0,0,.73-.1V38a4.478,4.478,0,0,1-1.179.165,1.912,1.912,0,0,1-1.552-.623,2.675,2.675,0,0,1-.523-1.768v-5.57H59.062V29.019H60.7V26.844ZM71.247,38a3.226,3.226,0,0,1-.216-.946,3.426,3.426,0,0,1-2.557,1.112,3.17,3.17,0,0,1-2.179-.751,2.43,2.43,0,0,1-.851-1.905,2.539,2.539,0,0,1,1.067-2.179,5.029,5.029,0,0,1,3-.776h1.494v-.706a1.725,1.725,0,0,0-.481-1.282,1.935,1.935,0,0,0-1.419-.477,2.239,2.239,0,0,0-1.378.415,1.223,1.223,0,0,0-.556,1H65.628a2.119,2.119,0,0,1,.477-1.3,3.258,3.258,0,0,1,1.295-.992,4.356,4.356,0,0,1,1.8-.365,3.551,3.551,0,0,1,2.432.776,2.8,2.8,0,0,1,.913,2.137V35.9a5.054,5.054,0,0,0,.315,1.967V38ZM68.7,36.83a2.7,2.7,0,0,0,1.37-.374,2.259,2.259,0,0,0,.938-.971V33.642H69.8q-2.822,0-2.822,1.652a1.4,1.4,0,0,0,.481,1.129A1.85,1.85,0,0,0,68.7,36.83Zm8.334-9.986v2.175H78.71v1.187H77.033v5.577a1.247,1.247,0,0,0,.224.81.943.943,0,0,0,.764.27,3.718,3.718,0,0,0,.73-.1V38a4.478,4.478,0,0,1-1.179.165,1.912,1.912,0,0,1-1.552-.623,2.675,2.675,0,0,1-.523-1.768v-5.57H73.862V29.019H75.5V26.844ZM82.171,38H80.635V29.019h1.536Zm-1.66-11.364a.917.917,0,0,1,.228-.631.857.857,0,0,1,.677-.257.87.87,0,0,1,.681.257.907.907,0,0,1,.232.631.877.877,0,0,1-.232.623.886.886,0,0,1-.681.249.872.872,0,0,1-.677-.249A.886.886,0,0,1,80.511,26.636Zm7.081,9.28,2.225-6.9h1.569L88.164,38h-1.17L83.74,29.019h1.569ZM98.283,38a3.226,3.226,0,0,1-.216-.946,3.426,3.426,0,0,1-2.557,1.112,3.17,3.17,0,0,1-2.179-.751,2.43,2.43,0,0,1-.851-1.905,2.539,2.539,0,0,1,1.067-2.179,5.029,5.029,0,0,1,3-.776h1.494v-.706a1.725,1.725,0,0,0-.481-1.282,1.935,1.935,0,0,0-1.419-.477,2.239,2.239,0,0,0-1.378.415,1.223,1.223,0,0,0-.556,1H92.663a2.119,2.119,0,0,1,.477-1.3,3.258,3.258,0,0,1,1.295-.992,4.356,4.356,0,0,1,1.8-.365,3.551,3.551,0,0,1,2.432.776,2.8,2.8,0,0,1,.913,2.137V35.9a5.054,5.054,0,0,0,.315,1.967V38Zm-2.548-1.17a2.7,2.7,0,0,0,1.37-.374,2.259,2.259,0,0,0,.938-.971V33.642h-1.2q-2.822,0-2.822,1.652a1.4,1.4,0,0,0,.481,1.129A1.85,1.85,0,0,0,95.735,36.83Zm11.48-1.212a1.131,1.131,0,0,0-.469-.967,4.514,4.514,0,0,0-1.635-.594,7.731,7.731,0,0,1-1.851-.6,2.633,2.633,0,0,1-1.013-.83,1.986,1.986,0,0,1-.328-1.146,2.33,2.33,0,0,1,.934-1.868,3.647,3.647,0,0,1,2.386-.764,3.753,3.753,0,0,1,2.478.789,2.5,2.5,0,0,1,.95,2.017h-1.544a1.386,1.386,0,0,0-.535-1.087,2.006,2.006,0,0,0-1.349-.457,2.1,2.1,0,0,0-1.312.365,1.15,1.15,0,0,0-.473.955.932.932,0,0,0,.44.838,5.413,5.413,0,0,0,1.59.54,8.283,8.283,0,0,1,1.864.614,2.718,2.718,0,0,1,1.058.859,2.112,2.112,0,0,1,.344,1.224,2.3,2.3,0,0,1-.963,1.93,4.039,4.039,0,0,1-2.5.726,4.523,4.523,0,0,1-1.909-.382,3.105,3.105,0,0,1-1.3-1.067,2.571,2.571,0,0,1-.469-1.482h1.536a1.59,1.59,0,0,0,.618,1.224,2.4,2.4,0,0,0,1.523.452,2.476,2.476,0,0,0,1.4-.353A1.084,1.084,0,0,0,107.215,35.618Z" transform="translate(271 8913.999)" fill="#12263f"/>
    <path id="Path_839922" data-name="Path 839922" d="M17.01,11.269V16H15.416V3.914h4.458a4.478,4.478,0,0,1,3.109,1.013,3.433,3.433,0,0,1,1.125,2.681,3.388,3.388,0,0,1-1.1,2.71,4.678,4.678,0,0,1-3.15.95Zm0-1.3h2.864a2.863,2.863,0,0,0,1.959-.6,2.2,2.2,0,0,0,.681-1.742,2.277,2.277,0,0,0-.681-1.73,2.682,2.682,0,0,0-1.868-.674H17.01Zm14.12,3.652a1.131,1.131,0,0,0-.469-.967,4.514,4.514,0,0,0-1.635-.594,7.731,7.731,0,0,1-1.851-.6,2.633,2.633,0,0,1-1.013-.83,1.986,1.986,0,0,1-.328-1.146,2.33,2.33,0,0,1,.934-1.868,3.647,3.647,0,0,1,2.386-.764,3.753,3.753,0,0,1,2.478.789,2.5,2.5,0,0,1,.95,2.017H31.038A1.386,1.386,0,0,0,30.5,8.571a2.006,2.006,0,0,0-1.349-.457,2.1,2.1,0,0,0-1.312.365,1.15,1.15,0,0,0-.473.955.932.932,0,0,0,.44.838,5.413,5.413,0,0,0,1.59.54,8.283,8.283,0,0,1,1.864.614,2.718,2.718,0,0,1,1.058.859,2.112,2.112,0,0,1,.344,1.224,2.3,2.3,0,0,1-.963,1.93,4.039,4.039,0,0,1-2.5.726,4.523,4.523,0,0,1-1.909-.382A3.105,3.105,0,0,1,26,14.718a2.571,2.571,0,0,1-.469-1.482h1.536a1.59,1.59,0,0,0,.618,1.224,2.4,2.4,0,0,0,1.523.452,2.476,2.476,0,0,0,1.4-.353A1.084,1.084,0,0,0,31.13,13.618ZM36.334,16H34.8V7.019h1.536ZM34.674,4.636a.917.917,0,0,1,.228-.631.857.857,0,0,1,.677-.257.87.87,0,0,1,.681.257.907.907,0,0,1,.232.631.877.877,0,0,1-.232.623.886.886,0,0,1-.681.249.872.872,0,0,1-.677-.249A.886.886,0,0,1,34.674,4.636Zm7.72,10.276a2.212,2.212,0,0,0,1.436-.5,1.752,1.752,0,0,0,.681-1.245h1.453a2.785,2.785,0,0,1-.531,1.469,3.5,3.5,0,0,1-1.307,1.112,3.772,3.772,0,0,1-1.731.415,3.7,3.7,0,0,1-2.918-1.224,4.877,4.877,0,0,1-1.083-3.349v-.257A5.407,5.407,0,0,1,38.874,9a3.667,3.667,0,0,1,1.382-1.585,3.926,3.926,0,0,1,2.129-.564,3.6,3.6,0,0,1,2.511.9,3.234,3.234,0,0,1,1.067,2.349H44.51a2.116,2.116,0,0,0-.66-1.432,2.053,2.053,0,0,0-1.465-.56,2.149,2.149,0,0,0-1.814.843,3.957,3.957,0,0,0-.643,2.436v.291a3.878,3.878,0,0,0,.639,2.391A2.16,2.16,0,0,0,42.394,14.913Zm4.889-3.486A5.3,5.3,0,0,1,47.8,9.052a3.87,3.87,0,0,1,1.444-1.627,3.932,3.932,0,0,1,2.113-.573,3.788,3.788,0,0,1,2.968,1.27A4.886,4.886,0,0,1,55.459,11.5v.108a5.351,5.351,0,0,1-.5,2.353,3.813,3.813,0,0,1-1.436,1.623,3.977,3.977,0,0,1-2.146.581,3.778,3.778,0,0,1-2.959-1.27,4.861,4.861,0,0,1-1.133-3.362Zm1.544.183a3.842,3.842,0,0,0,.693,2.4A2.349,2.349,0,0,0,53.235,14a4.2,4.2,0,0,0,.689-2.569,3.836,3.836,0,0,0-.7-2.395,2.23,2.23,0,0,0-1.864-.917,2.205,2.205,0,0,0-1.834.9A4.17,4.17,0,0,0,48.827,11.609Zm8.193-.174a5.279,5.279,0,0,1,.971-3.341,3.348,3.348,0,0,1,5.138-.079l.075-1h1.4v8.766a3.654,3.654,0,0,1-1.033,2.748,3.814,3.814,0,0,1-2.777,1,4.619,4.619,0,0,1-1.9-.415,3.272,3.272,0,0,1-1.419-1.137l.8-.921a3,3,0,0,0,2.416,1.22,2.353,2.353,0,0,0,1.747-.631,2.411,2.411,0,0,0,.627-1.776V15.1a3.156,3.156,0,0,1-2.515,1.063A3.068,3.068,0,0,1,58,14.9,5.55,5.55,0,0,1,57.02,11.435Zm1.544.174A4.027,4.027,0,0,0,59.186,14a2.023,2.023,0,0,0,1.743.867,2.249,2.249,0,0,0,2.133-1.32v-4.1a2.276,2.276,0,0,0-2.117-1.287,2.041,2.041,0,0,0-1.751.872A4.386,4.386,0,0,0,58.564,11.609ZM71.264,8.4a4.6,4.6,0,0,0-.755-.058,2.024,2.024,0,0,0-2.05,1.287V16H66.923V7.019h1.494l.025,1.038a2.391,2.391,0,0,1,2.142-1.2,1.569,1.569,0,0,1,.681.116ZM77.888,16a3.226,3.226,0,0,1-.216-.946,3.426,3.426,0,0,1-2.557,1.112,3.17,3.17,0,0,1-2.179-.751,2.43,2.43,0,0,1-.851-1.905,2.539,2.539,0,0,1,1.067-2.179,5.029,5.029,0,0,1,3-.776h1.494V9.849a1.725,1.725,0,0,0-.481-1.282,1.935,1.935,0,0,0-1.419-.477,2.239,2.239,0,0,0-1.378.415,1.223,1.223,0,0,0-.556,1H72.268a2.119,2.119,0,0,1,.477-1.3,3.258,3.258,0,0,1,1.295-.992,4.356,4.356,0,0,1,1.8-.365,3.551,3.551,0,0,1,2.432.776,2.8,2.8,0,0,1,.913,2.137V13.9a5.054,5.054,0,0,0,.315,1.967V16ZM75.34,14.83a2.7,2.7,0,0,0,1.37-.374,2.259,2.259,0,0,0,.938-.971V11.642h-1.2q-2.822,0-2.822,1.652a1.4,1.4,0,0,0,.481,1.129A1.85,1.85,0,0,0,75.34,14.83ZM76.759,3.25h1.859L76.394,5.69l-1.237,0ZM82.1,16V8.206H80.685V7.019H82.1V6.255a3.12,3.12,0,0,1,.859-2.341,3.332,3.332,0,0,1,2.428-.838,7.311,7.311,0,0,1,2.349.506l-.257,1.295a5.321,5.321,0,0,0-1.976-.415,1.933,1.933,0,0,0-1.424.444,1.831,1.831,0,0,0-.436,1.332v.78h1.834V8.206H83.649V16Zm6.4,0H86.961V7.019H88.5Zm6.1-1.087a2.212,2.212,0,0,0,1.436-.5,1.752,1.752,0,0,0,.681-1.245h1.453a2.785,2.785,0,0,1-.531,1.469,3.5,3.5,0,0,1-1.307,1.112,3.772,3.772,0,0,1-1.731.415,3.7,3.7,0,0,1-2.918-1.224A4.877,4.877,0,0,1,90.6,11.592v-.257A5.407,5.407,0,0,1,91.086,9a3.667,3.667,0,0,1,1.382-1.585A3.926,3.926,0,0,1,94.6,6.853a3.6,3.6,0,0,1,2.511.9,3.234,3.234,0,0,1,1.067,2.349H96.722a2.116,2.116,0,0,0-.66-1.432,2.053,2.053,0,0,0-1.465-.56,2.149,2.149,0,0,0-1.814.843,3.957,3.957,0,0,0-.643,2.436v.291a3.878,3.878,0,0,0,.639,2.391A2.16,2.16,0,0,0,94.606,14.913ZM105.447,16a3.226,3.226,0,0,1-.216-.946,3.426,3.426,0,0,1-2.557,1.112,3.17,3.17,0,0,1-2.179-.751,2.43,2.43,0,0,1-.851-1.905,2.539,2.539,0,0,1,1.067-2.179,5.029,5.029,0,0,1,3-.776h1.494V9.849a1.725,1.725,0,0,0-.481-1.282,1.935,1.935,0,0,0-1.419-.477,2.239,2.239,0,0,0-1.378.415,1.223,1.223,0,0,0-.556,1H99.827a2.119,2.119,0,0,1,.477-1.3,3.258,3.258,0,0,1,1.295-.992,4.356,4.356,0,0,1,1.8-.365,3.551,3.551,0,0,1,2.432.776,2.8,2.8,0,0,1,.913,2.137V13.9a5.054,5.054,0,0,0,.315,1.967V16ZM102.9,14.83a2.7,2.7,0,0,0,1.37-.374,2.259,2.259,0,0,0,.938-.971V11.642H104q-2.822,0-2.822,1.652a1.4,1.4,0,0,0,.481,1.129A1.85,1.85,0,0,0,102.9,14.83Z" transform="translate(57 8983.999)" fill="#12263f"/>
    <path id="Path_839923" data-name="Path 839923" d="M22.634,16h-1.6L14.947,6.687V16h-1.6V3.914h1.6l6.1,9.355V3.914h1.585Zm6.317.166a3.924,3.924,0,0,1-2.972-1.2,4.452,4.452,0,0,1-1.146-3.208v-.282a5.39,5.39,0,0,1,.51-2.386,3.982,3.982,0,0,1,1.428-1.644,3.59,3.59,0,0,1,1.988-.594,3.364,3.364,0,0,1,2.723,1.154,5,5,0,0,1,.971,3.3v.639H26.369a3.193,3.193,0,0,0,.776,2.146,2.44,2.44,0,0,0,1.888.818,2.675,2.675,0,0,0,1.378-.332,3.462,3.462,0,0,0,.988-.88l.938.73A3.772,3.772,0,0,1,28.951,16.166ZM28.76,8.114a2.048,2.048,0,0,0-1.561.677,3.288,3.288,0,0,0-.78,1.9h4.5v-.116a2.925,2.925,0,0,0-.631-1.814A1.928,1.928,0,0,0,28.76,8.114Zm9.073,6.8a2.212,2.212,0,0,0,1.436-.5,1.752,1.752,0,0,0,.681-1.245H41.4a2.785,2.785,0,0,1-.531,1.469,3.5,3.5,0,0,1-1.307,1.112,3.772,3.772,0,0,1-1.731.415,3.7,3.7,0,0,1-2.918-1.224,4.877,4.877,0,0,1-1.083-3.349v-.257A5.407,5.407,0,0,1,34.313,9,3.667,3.667,0,0,1,35.7,7.417a3.926,3.926,0,0,1,2.129-.564,3.6,3.6,0,0,1,2.511.9A3.234,3.234,0,0,1,41.4,10.106H39.949a2.116,2.116,0,0,0-.66-1.432,2.053,2.053,0,0,0-1.465-.56,2.149,2.149,0,0,0-1.814.843,3.957,3.957,0,0,0-.643,2.436v.291a3.878,3.878,0,0,0,.639,2.391A2.16,2.16,0,0,0,37.833,14.913Zm9.023,1.253a3.924,3.924,0,0,1-2.972-1.2,4.452,4.452,0,0,1-1.146-3.208v-.282a5.39,5.39,0,0,1,.51-2.386,3.982,3.982,0,0,1,1.428-1.644,3.59,3.59,0,0,1,1.988-.594,3.364,3.364,0,0,1,2.723,1.154,5,5,0,0,1,.971,3.3v.639H44.274a3.193,3.193,0,0,0,.776,2.146,2.44,2.44,0,0,0,1.888.818,2.675,2.675,0,0,0,1.378-.332,3.462,3.462,0,0,0,.988-.88l.938.73A3.772,3.772,0,0,1,46.855,16.166Zm-.191-8.052a2.048,2.048,0,0,0-1.561.677,3.288,3.288,0,0,0-.78,1.9h4.5v-.116a2.925,2.925,0,0,0-.631-1.814A1.928,1.928,0,0,0,46.665,8.114Zm10.7,5.5a1.13,1.13,0,0,0-.469-.967,4.514,4.514,0,0,0-1.635-.594,7.731,7.731,0,0,1-1.851-.6,2.633,2.633,0,0,1-1.013-.83,1.986,1.986,0,0,1-.328-1.146A2.33,2.33,0,0,1,53,7.616a3.647,3.647,0,0,1,2.386-.764,3.753,3.753,0,0,1,2.478.789,2.5,2.5,0,0,1,.95,2.017H57.273a1.386,1.386,0,0,0-.535-1.087,2.006,2.006,0,0,0-1.349-.457,2.1,2.1,0,0,0-1.312.365,1.15,1.15,0,0,0-.473.955.932.932,0,0,0,.44.838,5.413,5.413,0,0,0,1.59.54,8.283,8.283,0,0,1,1.864.614,2.718,2.718,0,0,1,1.058.859A2.112,2.112,0,0,1,58.9,13.51a2.3,2.3,0,0,1-.963,1.93,4.039,4.039,0,0,1-2.5.726,4.523,4.523,0,0,1-1.909-.382,3.105,3.105,0,0,1-1.3-1.067,2.571,2.571,0,0,1-.469-1.482H53.3a1.59,1.59,0,0,0,.618,1.224,2.4,2.4,0,0,0,1.523.452,2.476,2.476,0,0,0,1.4-.353A1.084,1.084,0,0,0,57.364,13.618ZM62.569,16H61.033V7.019h1.536ZM60.909,4.636a.917.917,0,0,1,.228-.631.857.857,0,0,1,.677-.257.87.87,0,0,1,.681.257.907.907,0,0,1,.232.631.877.877,0,0,1-.232.623.886.886,0,0,1-.681.249.872.872,0,0,1-.677-.249A.886.886,0,0,1,60.909,4.636Zm3.744,6.8a5.261,5.261,0,0,1,.979-3.324A3.333,3.333,0,0,1,70.7,7.932V3.25h1.536V16H70.82l-.075-.963a3.127,3.127,0,0,1-2.565,1.129,3.068,3.068,0,0,1-2.544-1.278,5.321,5.321,0,0,1-.984-3.337Zm1.536.174A3.984,3.984,0,0,0,66.819,14a2.039,2.039,0,0,0,1.743.863A2.24,2.24,0,0,0,70.7,13.551V9.426a2.257,2.257,0,0,0-2.117-1.27,2.049,2.049,0,0,0-1.76.872A4.386,4.386,0,0,0,66.188,11.609ZM80.158,16a3.226,3.226,0,0,1-.216-.946,3.426,3.426,0,0,1-2.557,1.112,3.17,3.17,0,0,1-2.179-.751,2.43,2.43,0,0,1-.851-1.905,2.539,2.539,0,0,1,1.067-2.179,5.029,5.029,0,0,1,3-.776h1.494V9.849a1.725,1.725,0,0,0-.481-1.282,1.935,1.935,0,0,0-1.419-.477,2.239,2.239,0,0,0-1.378.415,1.223,1.223,0,0,0-.556,1H74.539a2.119,2.119,0,0,1,.477-1.3,3.258,3.258,0,0,1,1.295-.992,4.356,4.356,0,0,1,1.8-.365,3.551,3.551,0,0,1,2.432.776,2.8,2.8,0,0,1,.913,2.137V13.9a5.054,5.054,0,0,0,.315,1.967V16ZM77.61,14.83a2.7,2.7,0,0,0,1.37-.374,2.259,2.259,0,0,0,.938-.971V11.642h-1.2q-2.822,0-2.822,1.652a1.4,1.4,0,0,0,.481,1.129A1.85,1.85,0,0,0,77.61,14.83Zm5.877-3.4a5.261,5.261,0,0,1,.979-3.324,3.333,3.333,0,0,1,5.063-.178V3.25h1.536V16H89.654l-.075-.963a3.127,3.127,0,0,1-2.565,1.129,3.068,3.068,0,0,1-2.544-1.278,5.321,5.321,0,0,1-.984-3.337Zm1.536.174A3.984,3.984,0,0,0,85.653,14a2.039,2.039,0,0,0,1.743.863,2.24,2.24,0,0,0,2.133-1.312V9.426a2.257,2.257,0,0,0-2.117-1.27,2.049,2.049,0,0,0-1.76.872A4.386,4.386,0,0,0,85.022,11.609Zm12.152,4.557a3.924,3.924,0,0,1-2.972-1.2,4.452,4.452,0,0,1-1.146-3.208v-.282a5.39,5.39,0,0,1,.51-2.386A3.982,3.982,0,0,1,95,7.446a3.59,3.59,0,0,1,1.988-.594,3.364,3.364,0,0,1,2.723,1.154,5,5,0,0,1,.971,3.3v.639H94.593a3.193,3.193,0,0,0,.776,2.146,2.44,2.44,0,0,0,1.888.818,2.675,2.675,0,0,0,1.378-.332,3.462,3.462,0,0,0,.988-.88l.938.73A3.772,3.772,0,0,1,97.175,16.166Zm-.191-8.052a2.048,2.048,0,0,0-1.561.677,3.288,3.288,0,0,0-.78,1.9h4.5v-.116a2.925,2.925,0,0,0-.631-1.814A1.928,1.928,0,0,0,96.984,8.114Zm10.7,5.5a1.131,1.131,0,0,0-.469-.967,4.514,4.514,0,0,0-1.635-.594,7.731,7.731,0,0,1-1.851-.6,2.633,2.633,0,0,1-1.013-.83,1.986,1.986,0,0,1-.328-1.146,2.33,2.33,0,0,1,.934-1.868,3.647,3.647,0,0,1,2.386-.764,3.753,3.753,0,0,1,2.478.789,2.5,2.5,0,0,1,.95,2.017h-1.544a1.386,1.386,0,0,0-.535-1.087,2.006,2.006,0,0,0-1.349-.457,2.1,2.1,0,0,0-1.312.365,1.15,1.15,0,0,0-.473.955.932.932,0,0,0,.44.838,5.413,5.413,0,0,0,1.59.54,8.283,8.283,0,0,1,1.864.614,2.718,2.718,0,0,1,1.058.859,2.112,2.112,0,0,1,.344,1.224,2.3,2.3,0,0,1-.963,1.93,4.039,4.039,0,0,1-2.5.726,4.523,4.523,0,0,1-1.909-.382,3.105,3.105,0,0,1-1.3-1.067,2.571,2.571,0,0,1-.469-1.482h1.536a1.59,1.59,0,0,0,.618,1.224,2.4,2.4,0,0,0,1.523.452,2.476,2.476,0,0,0,1.4-.353A1.084,1.084,0,0,0,107.684,13.618Zm-93,23.295a2.212,2.212,0,0,0,1.436-.5,1.752,1.752,0,0,0,.681-1.245h1.453a2.785,2.785,0,0,1-.531,1.469,3.5,3.5,0,0,1-1.307,1.112,3.772,3.772,0,0,1-1.731.415,3.7,3.7,0,0,1-2.918-1.224,4.877,4.877,0,0,1-1.083-3.349v-.257A5.407,5.407,0,0,1,11.166,31a3.667,3.667,0,0,1,1.382-1.585,3.926,3.926,0,0,1,2.129-.564,3.6,3.6,0,0,1,2.511.9,3.234,3.234,0,0,1,1.067,2.349H16.8a2.116,2.116,0,0,0-.66-1.432,2.053,2.053,0,0,0-1.465-.56,2.149,2.149,0,0,0-1.814.843,3.957,3.957,0,0,0-.643,2.436v.291a3.878,3.878,0,0,0,.639,2.391A2.16,2.16,0,0,0,14.686,36.913Zm4.889-3.486a5.3,5.3,0,0,1,.519-2.374,3.87,3.87,0,0,1,1.444-1.627,3.932,3.932,0,0,1,2.113-.573,3.788,3.788,0,0,1,2.968,1.27A4.886,4.886,0,0,1,27.751,33.5v.108a5.351,5.351,0,0,1-.5,2.353,3.813,3.813,0,0,1-1.436,1.623,3.977,3.977,0,0,1-2.146.581,3.778,3.778,0,0,1-2.959-1.27,4.861,4.861,0,0,1-1.133-3.362Zm1.544.183a3.842,3.842,0,0,0,.693,2.4A2.349,2.349,0,0,0,25.527,36a4.2,4.2,0,0,0,.689-2.569,3.836,3.836,0,0,0-.7-2.395,2.23,2.23,0,0,0-1.864-.917,2.205,2.205,0,0,0-1.834.9A4.17,4.17,0,0,0,21.119,33.609Zm10-4.59.042,1a3.317,3.317,0,0,1,2.665-1.162A2.568,2.568,0,0,1,36.392,30.3a3.4,3.4,0,0,1,1.166-1.046,3.445,3.445,0,0,1,1.7-.4q2.955,0,3,3.129V38H40.725V32.073a2.062,2.062,0,0,0-.44-1.44,1.937,1.937,0,0,0-1.478-.477,2.036,2.036,0,0,0-1.419.51,2.071,2.071,0,0,0-.656,1.374V38H35.189V32.115a1.713,1.713,0,0,0-1.917-1.959A2.055,2.055,0,0,0,31.2,31.442V38H29.669V29.019Zm19,8.093a3.262,3.262,0,0,1-2.631,1.054,2.792,2.792,0,0,1-2.187-.834,3.611,3.611,0,0,1-.76-2.469V29.019h1.536v5.8q0,2.042,1.66,2.042a2.3,2.3,0,0,0,2.341-1.312V29.019h1.536V38H50.155ZM55.4,29.019l.05,1.129a3.273,3.273,0,0,1,2.689-1.295q2.847,0,2.872,3.212V38H59.477V32.057a2.068,2.068,0,0,0-.444-1.436,1.78,1.78,0,0,0-1.357-.465,2.216,2.216,0,0,0-1.312.4,2.706,2.706,0,0,0-.88,1.046V38H53.948V29.019Zm11.654,9.147a3.924,3.924,0,0,1-2.972-1.2,4.452,4.452,0,0,1-1.146-3.208v-.282a5.39,5.39,0,0,1,.51-2.386,3.982,3.982,0,0,1,1.428-1.644,3.59,3.59,0,0,1,1.988-.594,3.364,3.364,0,0,1,2.723,1.154,5,5,0,0,1,.971,3.3v.639H64.474a3.193,3.193,0,0,0,.776,2.146,2.44,2.44,0,0,0,1.888.818,2.675,2.675,0,0,0,1.378-.332,3.462,3.462,0,0,0,.988-.88l.938.73A3.772,3.772,0,0,1,67.055,38.166Zm-.191-8.052a2.048,2.048,0,0,0-1.561.677,3.288,3.288,0,0,0-.78,1.9h4.5v-.116a2.925,2.925,0,0,0-.631-1.814A1.928,1.928,0,0,0,66.865,30.114Zm10.7,5.5a1.131,1.131,0,0,0-.469-.967,4.514,4.514,0,0,0-1.635-.594,7.731,7.731,0,0,1-1.851-.6,2.633,2.633,0,0,1-1.013-.83,1.986,1.986,0,0,1-.328-1.146,2.33,2.33,0,0,1,.934-1.868,3.647,3.647,0,0,1,2.386-.764,3.753,3.753,0,0,1,2.478.789,2.5,2.5,0,0,1,.95,2.017H77.473a1.386,1.386,0,0,0-.535-1.087,2.006,2.006,0,0,0-1.349-.457,2.1,2.1,0,0,0-1.312.365,1.15,1.15,0,0,0-.473.955.932.932,0,0,0,.44.838,5.413,5.413,0,0,0,1.59.54,8.283,8.283,0,0,1,1.864.614,2.718,2.718,0,0,1,1.058.859A2.112,2.112,0,0,1,79.1,35.51a2.3,2.3,0,0,1-.963,1.93,4.039,4.039,0,0,1-2.5.726,4.523,4.523,0,0,1-1.909-.382,3.105,3.105,0,0,1-1.3-1.067,2.571,2.571,0,0,1-.469-1.482H73.5a1.59,1.59,0,0,0,.618,1.224,2.4,2.4,0,0,0,1.523.452,2.476,2.476,0,0,0,1.4-.353A1.084,1.084,0,0,0,77.564,35.618Zm11.472,2.548a3.924,3.924,0,0,1-2.972-1.2,4.452,4.452,0,0,1-1.146-3.208v-.282a5.39,5.39,0,0,1,.51-2.386,3.982,3.982,0,0,1,1.428-1.644,3.59,3.59,0,0,1,1.988-.594,3.364,3.364,0,0,1,2.723,1.154,5,5,0,0,1,.971,3.3v.639H86.454a3.193,3.193,0,0,0,.776,2.146,2.44,2.44,0,0,0,1.888.818,2.675,2.675,0,0,0,1.378-.332,3.462,3.462,0,0,0,.988-.88l.938.73A3.772,3.772,0,0,1,89.036,38.166Zm-.191-8.052a2.048,2.048,0,0,0-1.561.677,3.288,3.288,0,0,0-.78,1.9H91v-.116a2.925,2.925,0,0,0-.631-1.814A1.928,1.928,0,0,0,88.845,30.114ZM96.4,26.844v2.175h1.677v1.187H96.4v5.577a1.247,1.247,0,0,0,.224.81.943.943,0,0,0,.764.27,3.718,3.718,0,0,0,.73-.1V38a4.478,4.478,0,0,1-1.179.165,1.912,1.912,0,0,1-1.552-.623,2.675,2.675,0,0,1-.523-1.768v-5.57H93.228V29.019h1.635V26.844Zm7.072,10.069a2.212,2.212,0,0,0,1.436-.5,1.752,1.752,0,0,0,.681-1.245h1.453a2.785,2.785,0,0,1-.531,1.469,3.5,3.5,0,0,1-1.307,1.112,3.772,3.772,0,0,1-1.731.415,3.7,3.7,0,0,1-2.918-1.224,4.877,4.877,0,0,1-1.083-3.349v-.257A5.407,5.407,0,0,1,99.951,31a3.667,3.667,0,0,1,1.382-1.585,3.926,3.926,0,0,1,2.129-.564,3.6,3.6,0,0,1,2.511.9,3.234,3.234,0,0,1,1.067,2.349h-1.453a2.116,2.116,0,0,0-.66-1.432,2.053,2.053,0,0,0-1.465-.56,2.149,2.149,0,0,0-1.814.843,3.957,3.957,0,0,0-.643,2.436v.291a3.878,3.878,0,0,0,.639,2.391A2.16,2.16,0,0,0,103.471,36.913Zm5.329.282a.962.962,0,0,1,.237-.664.9.9,0,0,1,.71-.266.928.928,0,0,1,.718.266.942.942,0,0,1,.245.664.891.891,0,0,1-.245.639.945.945,0,0,1-.718.257.854.854,0,0,1-.946-.9Z" transform="translate(200 8983.999)" fill="#12263f"/>
    <path id="Path_839294" data-name="Path 839294" d="M-3942,4984.8v-26.2h297.39v26.2" transform="translate(3977.378 3920.572)" fill="none" stroke="#afafaf" stroke-width="2"/>
    <path id="Path_839295" data-name="Path 839295" d="M-3882.5,4958.6v96.605" transform="translate(3999.236 3920.572)" fill="none" stroke="#afafaf" stroke-width="2"/>
    <path id="Path_839296" data-name="Path 839296" d="M-3743,4958.6v94.969" transform="translate(4002.495 3920.572)" fill="none" stroke="#afafaf" stroke-width="2"/>
    <path id="Path_839839" data-name="Path 839839" d="M-3743,4958.6v26.2" transform="translate(3932.19 3920.572)" fill="none" stroke="#afafaf" stroke-width="2"/>
    <path id="Path_839297" data-name="Path 839297" d="M-3816.7,4896v64.882" transform="translate(4005.89 3919.11)" fill="none" stroke="#afafaf" stroke-width="2"/>
    <path id="Path_839298" data-name="Path 839298" d="M-3790.641,4923.5H-3837" transform="translate(3979.832 3919.751)" fill="none" stroke="#afafaf" stroke-width="2"/>
  </g>
</svg>
