<svg xmlns="http://www.w3.org/2000/svg" width="400.001" height="1051.344" viewBox="0 0 400.001 1051.344">
  <g id="Group_1086701" data-name="Group 1086701" transform="translate(-179.999 -20211.656)">
    <rect id="Rectangle_345699" data-name="Rectangle 345699" width="128" height="149" rx="14" transform="translate(180 20375)" fill="#6debff"/>
    <rect id="Rectangle_385827" data-name="Rectangle 385827" width="128" height="149" rx="14" transform="translate(180 21114)" fill="#0c5e46"/>
    <rect id="Rectangle_385823" data-name="Rectangle 385823" width="128" height="149" rx="14" transform="translate(180 20676)" fill="#03386e"/>
    <rect id="Rectangle_385821" data-name="Rectangle 385821" width="128" height="149" rx="14" transform="translate(316 20375)" fill="#6debff"/>
    <rect id="Rectangle_385828" data-name="Rectangle 385828" width="128" height="149" rx="14" transform="translate(316 21114)" fill="#0c5e46"/>
    <rect id="Rectangle_385824" data-name="Rectangle 385824" width="128" height="149" rx="14" transform="translate(316 20676)" fill="#03386e"/>
    <rect id="Rectangle_385822" data-name="Rectangle 385822" width="128" height="149" rx="14" transform="translate(452 20375)" fill="#6debff"/>
    <rect id="Rectangle_385829" data-name="Rectangle 385829" width="128" height="149" rx="14" transform="translate(452 21114)" fill="#0c5e46"/>
    <rect id="Rectangle_385825" data-name="Rectangle 385825" width="128" height="149" rx="14" transform="translate(452 20676)" fill="#03386e"/>
    <rect id="Rectangle_385826" data-name="Rectangle 385826" width="128" height="149" rx="14" transform="translate(452 20852)" fill="#03386e"/>
    <text id="Análisis_interno" data-name="Análisis interno" transform="translate(210 20429)" fill="#12263f" font-size="16" font-family="Roboto-Regular, Roboto"><tspan x="-28.059" y="15">Análisis </tspan><tspan x="-24.891" y="39">interno</tspan></text>
    <text id="Las_4P_Producto_precio_punto_de_venta_y_promoción." data-name="Las 4P
Producto, precio, punto de venta y promoción." transform="translate(198 21143)" fill="#fff" font-size="16" font-family="Roboto-Regular, Roboto"><tspan x="22.699" y="15">Las 4P</tspan><tspan x="12.984" y="39">Producto, </tspan><tspan x="0.988" y="63">precio, punto </tspan><tspan x="11.063" y="87">de venta y </tspan><tspan x="6.535" y="111">promoción.</tspan></text>
    <text id="Ventaja_competitiva" data-name="Ventaja competitiva" transform="translate(195 20730)" fill="#fff" font-size="16" font-family="Roboto-Medium, Roboto" font-weight="500"><tspan x="-27.066" y="15">Ventaja </tspan><tspan x="-42.133" y="39">competitiva</tspan></text>
    <text id="Análisis_de_la_competencia" data-name="Análisis 
de la competencia" transform="translate(334 20420)" fill="#12263f" font-size="16" font-family="Roboto-Regular, Roboto"><tspan x="-28.059" y="15">Análisis </tspan><tspan x="-17.023" y="39">de la </tspan><tspan x="-46.234" y="63">competencia</tspan></text>
    <text id="Plan_de_puesta_en_marcha" data-name="Plan de puesta en marcha" transform="translate(334 21159)" fill="#fff" font-size="16" font-family="Roboto-Regular, Roboto"><tspan x="-26.484" y="15">Plan de </tspan><tspan x="-34.859" y="39">puesta en </tspan><tspan x="-26.941" y="63">marcha</tspan></text>
    <text id="Segmentación_del_mercado" data-name="Segmentación del mercado" transform="translate(330 20731)" fill="#fff" font-size="16" font-family="Roboto-Regular, Roboto"><tspan x="-51.207" y="15">Segmentación </tspan><tspan x="-44.168" y="39">del mercado</tspan></text>
    <text id="Análisis_de_los_consumidores_y_del_mercado" data-name="Análisis de los consumidores y del mercado" transform="translate(465 20417)" fill="#12263f" font-size="16" font-family="Roboto-Regular, Roboto"><tspan x="0" y="15">Análisis de los </tspan><tspan x="0" y="39">consumidores </tspan><tspan x="0" y="63">y del mercado</tspan></text>
    <text id="Presupuesto_y_definición_de_costos_y_gastos" data-name="Presupuesto y definición de costos y gastos" transform="translate(465 21156)" fill="#fff" font-size="16" font-family="Roboto-Regular, Roboto"><tspan x="-50.578" y="15">Presupuesto y </tspan><tspan x="-45.371" y="39">definición de </tspan><tspan x="-29.863" y="63">costos y </tspan><tspan x="-24.188" y="87">gastos</tspan></text>
    <text id="Posicionamiento_VS_competencia" data-name="Posicionamiento VS competencia" transform="translate(455 20736)" fill="#fff" font-size="16" font-family="Roboto-Regular, Roboto"><tspan x="-59.785" y="15">Posicionamiento </tspan><tspan x="-58.051" y="39">VS competencia</tspan></text>
    <text id="Análisis_de_los_consumidores_y_del_mercado-2" data-name="Análisis de los consumidores y del mercado" transform="translate(465 20874.041)" fill="#fff" font-size="16" font-family="Roboto-Regular, Roboto"><tspan x="0" y="15">Análisis de los </tspan><tspan x="0" y="39">consumidores </tspan><tspan x="0" y="63">y del mercado</tspan></text>
    <g id="Group_1072103" data-name="Group 1072103" transform="translate(186.379 20220.068)">
      <path id="Subtraction_7" data-name="Subtraction 7" d="M303.876,67.529H0V8.228H71.835L85,0H393.621V55.251H316.7l-12.82,12.277Z" transform="translate(0 0)" fill="#2b7e3b"/>
      <path id="Path_214008" data-name="Path 214008" d="M4.26,1.311H74.266V9.835H-4Z" transform="translate(319.355 57.693)" fill="#359547" opacity="0.4"/>
    </g>
    <text id="Estructura_de_un_plan_de_mercado_" data-name="Estructura de un plan de mercado
" transform="translate(203.359 20241.598)" fill="#fff" font-size="20" font-family="Roboto-Bold, Roboto" font-weight="700"><tspan x="-150.894" y="19">Estructura de un plan de mercado</tspan><tspan x="0" y="43"></tspan></text>
    <path id="Path_609204" data-name="Path 609204" d="M-7781.047-3821.495h67.917l17.084-10.121" transform="translate(7961.046 24044.133)" fill="none" stroke="#707070" stroke-width="2"/>
    <g id="Group_1072113" data-name="Group 1072113" transform="translate(449.265 20442.184)">
      <path id="Path_213857" data-name="Path 213857" d="M14.038,0,12.184,1.854l5.463,5.464-5.463,5.464,1.854,1.854,7.317-7.317Z" transform="translate(-7.62 0)" fill="#18b8c4"/>
      <path id="Path_213858" data-name="Path 213858" d="M0,8.773l2.872,2.872L0,14.517,1.854,16.37,6.58,11.645,1.854,6.92Z" transform="translate(0 -4.328)" fill="#18b8c4"/>
    </g>
    <path id="Path_609205" data-name="Path 609205" d="M-12474.332-9466.749h20.221" transform="translate(12908.291 29915.875)" fill="none" stroke="#18b8c4" stroke-width="3"/>
    <g id="Group_1072113-2" data-name="Group 1072113" transform="translate(449.265 21181.184)">
      <path id="Path_213857-2" data-name="Path 213857" d="M14.038,0,12.184,1.854l5.463,5.464-5.463,5.464,1.854,1.854,7.317-7.317Z" transform="translate(-7.62 0)" fill="#18b8c4"/>
      <path id="Path_213858-2" data-name="Path 213858" d="M0,8.773l2.872,2.872L0,14.517,1.854,16.37,6.58,11.645,1.854,6.92Z" transform="translate(0 -4.328)" fill="#18b8c4"/>
    </g>
    <path id="Path_609205-2" data-name="Path 609205" d="M-12474.332-9466.749h20.221" transform="translate(12908.291 30654.875)" fill="none" stroke="#18b8c4" stroke-width="3"/>
    <g id="Group_1072113-3" data-name="Group 1072113" transform="translate(449.265 20710.184)">
      <path id="Path_213857-3" data-name="Path 213857" d="M14.038,0,12.184,1.854l5.463,5.464-5.463,5.464,1.854,1.854,7.317-7.317Z" transform="translate(-7.62 0)" fill="#18b8c4"/>
      <path id="Path_213858-3" data-name="Path 213858" d="M0,8.773l2.872,2.872L0,14.517,1.854,16.37,6.58,11.645,1.854,6.92Z" transform="translate(0 -4.328)" fill="#18b8c4"/>
    </g>
    <path id="Path_609205-3" data-name="Path 609205" d="M-12474.332-9466.749h20.221" transform="translate(12908.291 30183.875)" fill="none" stroke="#18b8c4" stroke-width="3"/>
    <g id="Group_1072113-4" data-name="Group 1072113" transform="translate(316.305 20442.184)">
      <path id="Path_213857-4" data-name="Path 213857" d="M14.038,0,12.184,1.854l5.463,5.464-5.463,5.464,1.854,1.854,7.317-7.317Z" transform="translate(-7.62 0)" fill="#18b8c4"/>
      <path id="Path_213858-4" data-name="Path 213858" d="M0,8.773l2.872,2.872L0,14.517,1.854,16.37,6.58,11.645,1.854,6.92Z" transform="translate(0 -4.328)" fill="#18b8c4"/>
    </g>
    <path id="Path_609205-4" data-name="Path 609205" d="M-12474.332-9466.749h20.221" transform="translate(12775.332 29915.875)" fill="none" stroke="#18b8c4" stroke-width="3"/>
    <g id="Group_1072113-5" data-name="Group 1072113" transform="translate(316.305 21181.184)">
      <path id="Path_213857-5" data-name="Path 213857" d="M14.038,0,12.184,1.854l5.463,5.464-5.463,5.464,1.854,1.854,7.317-7.317Z" transform="translate(-7.62 0)" fill="#18b8c4"/>
      <path id="Path_213858-5" data-name="Path 213858" d="M0,8.773l2.872,2.872L0,14.517,1.854,16.37,6.58,11.645,1.854,6.92Z" transform="translate(0 -4.328)" fill="#18b8c4"/>
    </g>
    <path id="Path_609205-5" data-name="Path 609205" d="M-12474.332-9466.749h20.221" transform="translate(12775.332 30654.875)" fill="none" stroke="#18b8c4" stroke-width="3"/>
    <g id="Group_1072113-6" data-name="Group 1072113" transform="translate(316.305 20710.184)">
      <path id="Path_213857-6" data-name="Path 213857" d="M14.038,0,12.184,1.854l5.463,5.464-5.463,5.464,1.854,1.854,7.317-7.317Z" transform="translate(-7.62 0)" fill="#18b8c4"/>
      <path id="Path_213858-6" data-name="Path 213858" d="M0,8.773l2.872,2.872L0,14.517,1.854,16.37,6.58,11.645,1.854,6.92Z" transform="translate(0 -4.328)" fill="#18b8c4"/>
    </g>
    <path id="Path_609205-6" data-name="Path 609205" d="M-12474.332-9466.749h20.221" transform="translate(12775.332 30183.875)" fill="none" stroke="#18b8c4" stroke-width="3"/>
    <text id="Marketing_analítico" data-name="Marketing analítico" transform="translate(301 20322)" fill="#12263f" font-size="18" font-family="Roboto-BlackItalic, Roboto" font-weight="800" font-style="italic"><tspan x="-78.06" y="19">Marketing</tspan><tspan y="19" xml:space="preserve" font-family="Roboto-Black, Roboto" font-style="normal"> analítico</tspan></text>
    <text id="Marketing_Estratégico" data-name="Marketing Estratégico" transform="translate(269 20623)" fill="#12263f" font-size="18" font-family="Roboto-BlackItalic, Roboto" font-weight="800" font-style="italic"><tspan x="-89.257" y="19">Marketing</tspan><tspan y="19" xml:space="preserve" font-family="Roboto-Black, Roboto" font-style="normal"> Estratégico</tspan></text>
    <text id="Resumir_en_un_DOFA_o_DAFO" data-name="Resumir en un DOFA o DAFO" transform="translate(199 20550)" fill="#12263f" font-size="16" font-family="Roboto-Black, Roboto" font-weight="800"><tspan x="77.645" y="15">Resumir en un DOFA o DAFO</tspan></text>
    <path id="Polygon_9" data-name="Polygon 9" d="M9.461,0l9.461,15.983H0Z" transform="translate(389.461 20603) rotate(180)" fill="#d2e1f1"/>
    <path id="Path_839319" data-name="Path 839319" d="M-4513.067,7923.2h400" transform="translate(4693.067 12663.816)" fill="none" stroke="#d2e1f1" stroke-width="5"/>
    <path id="Polygon_9-2" data-name="Polygon 9" d="M9.461,0l9.461,15.983H0Z" transform="translate(389.461 21041.984) rotate(180)" fill="#d2e1f1"/>
    <path id="Path_839319-2" data-name="Path 839319" d="M-4513.067,7923.2h400" transform="translate(4693.067 13102.801)" fill="none" stroke="#d2e1f1" stroke-width="5"/>
    <path id="Path_839322" data-name="Path 839322" d="M0,0H31V31H0Z" transform="translate(228 20375)" fill="#e1fbff"/>
    <text id="_1" data-name="1" transform="translate(239 20381)" fill="#12263f" font-size="16" font-family="Roboto-Medium, Roboto" font-weight="500"><tspan x="0" y="15">1</tspan></text>
    <path id="Path_839322-2" data-name="Path 839322" d="M0,0H31V31H0Z" transform="translate(228 20676)" fill="#e1fbff"/>
    <text id="_4" data-name="4" transform="translate(239 20682)" fill="#12263f" font-size="16" font-family="Roboto-Medium, Roboto" font-weight="500"><tspan x="0" y="15">4</tspan></text>
    <path id="Path_839322-3" data-name="Path 839322" d="M0,0H31V31H0Z" transform="translate(228 21113)" fill="#e1fbff"/>
    <text id="_8" data-name="8" transform="translate(239 21119)" fill="#12263f" font-size="16" font-family="Roboto-Medium, Roboto" font-weight="500"><tspan x="0" y="15">8</tspan></text>
    <path id="Path_839322-4" data-name="Path 839322" d="M0,0H31V31H0Z" transform="translate(365 21113)" fill="#e1fbff"/>
    <text id="_9" data-name="9" transform="translate(376 21119)" fill="#12263f" font-size="16" font-family="Roboto-Medium, Roboto" font-weight="500"><tspan x="0" y="15">9</tspan></text>
    <path id="Path_839322-5" data-name="Path 839322" d="M0,0H31V31H0Z" transform="translate(504 21113)" fill="#e1fbff"/>
    <text id="_10" data-name="10" transform="translate(511 21120)" fill="#12263f" font-size="16" font-family="Roboto-Medium, Roboto" font-weight="500"><tspan x="0" y="15">10</tspan></text>
    <path id="Path_839322-6" data-name="Path 839322" d="M0,0H31V31H0Z" transform="translate(367 20375)" fill="#e1fbff"/>
    <text id="_2" data-name="2" transform="translate(378 20381)" fill="#12263f" font-size="16" font-family="Roboto-Medium, Roboto" font-weight="500"><tspan x="0" y="15">2</tspan></text>
    <path id="Path_839322-7" data-name="Path 839322" d="M0,0H31V31H0Z" transform="translate(367 20676)" fill="#e1fbff"/>
    <text id="_5" data-name="5" transform="translate(378 20682)" fill="#12263f" font-size="16" font-family="Roboto-Medium, Roboto" font-weight="500"><tspan x="0" y="15">5</tspan></text>
    <path id="Path_839322-8" data-name="Path 839322" d="M0,0H31V31H0Z" transform="translate(503 20375)" fill="#e1fbff"/>
    <text id="_3" data-name="3" transform="translate(514 20381)" fill="#12263f" font-size="16" font-family="Roboto-Medium, Roboto" font-weight="500"><tspan x="0" y="15">3</tspan></text>
    <path id="Path_839322-9" data-name="Path 839322" d="M0,0H31V31H0Z" transform="translate(503 20676)" fill="#e1fbff"/>
    <text id="_6" data-name="6" transform="translate(514 20682)" fill="#12263f" font-size="16" font-family="Roboto-Medium, Roboto" font-weight="500"><tspan x="0" y="15">6</tspan></text>
    <path id="Path_839322-10" data-name="Path 839322" d="M0,0H31V31H0Z" transform="translate(503 20852)" fill="#e1fbff"/>
    <text id="_7" data-name="7" transform="translate(514 20858)" fill="#12263f" font-size="16" font-family="Roboto-Medium, Roboto" font-weight="500"><tspan x="0" y="15">7</tspan></text>
    <g id="Group_1072113-7" data-name="Group 1072113" transform="translate(525.635 20840.305) rotate(90)">
      <path id="Path_213857-7" data-name="Path 213857" d="M14.038,0,12.184,1.854l5.463,5.464-5.463,5.464,1.854,1.854,7.317-7.317Z" transform="translate(-7.62 0)" fill="#18b8c4"/>
      <path id="Path_213858-7" data-name="Path 213858" d="M0,8.773l2.872,2.872L0,14.517,1.854,16.37,6.58,11.645,1.854,6.92Z" transform="translate(0 -4.328)" fill="#18b8c4"/>
    </g>
    <path id="Path_609205-7" data-name="Path 609205" d="M-12474.332-9466.749h20.221" transform="translate(-8948.057 33299.332) rotate(90)" fill="none" stroke="#18b8c4" stroke-width="3"/>
  </g>
</svg>
