<svg xmlns="http://www.w3.org/2000/svg" xmlns:xlink="http://www.w3.org/1999/xlink" width="1240" height="706" viewBox="0 0 1240 706">
  <defs>
    <linearGradient id="linear-gradient" x1="0.5" x2="0.5" y2="1" gradientUnits="objectBoundingBox">
      <stop offset="0" stop-color="#fff"/>
      <stop offset="1" stop-color="#eff6f9"/>
    </linearGradient>
  </defs>
  <g id="Group_1086698" data-name="Group 1086698" transform="translate(-180.36 -1736)">
    <path id="Path_839828" data-name="Path 839828" d="M0,0H1240V706H0Z" transform="translate(1420.36 2442) rotate(180)" fill="url(#linear-gradient)"/>
    <path id="Path_214670" data-name="Path 214670" d="M0,0H7.72l7.72,10.39H7.72Z" transform="translate(1409.97 2425.088) rotate(-90)" fill="#3ae3fe"/>
    <path id="Path_214675" data-name="Path 214675" d="M0,0H7.72l7.72,10.39H7.72Z" transform="translate(1409.97 2390.349) rotate(-90)" fill="#3ae3fe"/>
    <path id="Path_214671" data-name="Path 214671" d="M0,0H7.72l7.72,10.39H7.72Z" transform="translate(1409.97 2413.508) rotate(-90)" fill="#3ae3fe"/>
    <path id="Path_214674" data-name="Path 214674" d="M0,0H7.72l7.72,10.39H7.72Z" transform="translate(1409.97 2378.77) rotate(-90)" fill="#3ae3fe"/>
    <path id="Path_214672" data-name="Path 214672" d="M0,0H7.72l7.72,10.39H7.72Z" transform="translate(1409.97 2401.929) rotate(-90)" fill="#3ae3fe"/>
    <path id="Path_214673" data-name="Path 214673" d="M0,0H7.72l7.72,10.39H7.72Z" transform="translate(1409.97 2367.189) rotate(-90)" fill="#3ae3fe"/>
    <path id="Path_214670-2" data-name="Path 214670" d="M0,0H7.72l7.72,10.39H7.72Z" transform="translate(180.36 1830.82) rotate(-90)" fill="#03386e"/>
    <path id="Path_214675-2" data-name="Path 214675" d="M0,0H7.72l7.72,10.39H7.72Z" transform="translate(180.36 1796.081) rotate(-90)" fill="#03386e"/>
    <path id="Path_214671-2" data-name="Path 214671" d="M0,0H7.72l7.72,10.39H7.72Z" transform="translate(180.36 1819.24) rotate(-90)" fill="#03386e"/>
    <path id="Path_214674-2" data-name="Path 214674" d="M0,0H7.72l7.72,10.39H7.72Z" transform="translate(180.36 1784.502) rotate(-90)" fill="#03386e"/>
    <path id="Path_214672-2" data-name="Path 214672" d="M0,0H7.72l7.72,10.39H7.72Z" transform="translate(180.36 1807.661) rotate(-90)" fill="#03386e"/>
    <path id="Path_214673-2" data-name="Path 214673" d="M0,0H7.72l7.72,10.39H7.72Z" transform="translate(180.36 1772.922) rotate(-90)" fill="#03386e"/>
    <path id="Path_839061" data-name="Path 839061" d="M292.239,9.358,212.57,89.027,314.925,191.382,417.28,89.027,337.612,9.358a32.177,32.177,0,0,0-45.372,0" transform="translate(485.876 1875.647)" fill="#2b7e3b"/>
    <path id="Path_839062" data-name="Path 839062" d="M294.716,27.6l-71.9,71.9,92.377,92.376L407.566,99.5l-71.9-71.9a29.04,29.04,0,0,0-40.949,0" transform="translate(485.612 1876.128)" fill="#e1efe3"/>
    <path id="Path_839063" data-name="Path 839063" d="M213.321,316.566l79.669,79.669a32.178,32.178,0,0,0,45.371,0l79.669-79.669L315.675,214.211Z" transform="translate(485.857 1870.122)" fill="#03386e" opacity="0.78"/>
    <path id="Path_839064" data-name="Path 839064" d="M223.565,306.587l71.9,71.9a29.041,29.041,0,0,0,40.95,0l71.9-71.9-92.376-92.376Z" transform="translate(485.593 1869.147)" fill="#eaeff3"/>
    <path id="Path_839065" data-name="Path 839065" d="M326.892,203,429.248,305.351l79.668-79.669a32.177,32.177,0,0,0,0-45.372l-79.668-79.668Z" transform="translate(482.927 1873.051)" fill="#6debff"/>
    <path id="Path_839066" data-name="Path 839066" d="M326.892,203.26l92.376,92.376,71.9-71.9a29.041,29.041,0,0,0,0-40.95l-71.9-71.9Z" transform="translate(481.953 1872.787)" fill="#e1fbff"/>
    <path id="Path_839068" data-name="Path 839068" d="M122.039,179.558a32.177,32.177,0,0,0,0,45.372L201.708,304.6,304.063,202.244,201.708,99.889Z" transform="translate(488.453 1873.07)" fill="#b0c0d2"/>
    <path id="Path_839069" data-name="Path 839069" d="M140.279,182.035a29.04,29.04,0,0,0,0,40.949l71.9,71.9,92.376-92.376-92.376-92.377Z" transform="translate(488.933 1872.806)" fill="#dee4f0"/>
    <path id="Path_839071" data-name="Path 839071" d="M380.534,194.024a73.83,73.83,0,1,1-73.829-73.83,73.829,73.829,0,0,1,73.829,73.83" transform="translate(495.352 1879.547)" fill="#e8e8e8"/>
    <path id="Path_839072" data-name="Path 839072" d="M366.558,196.585a57.1,57.1,0,1,1-57.1-57.105,57.1,57.1,0,0,1,57.1,57.105" transform="translate(492.766 1876.985)" fill="#f7f7f7"/>
    <path id="Path_839829" data-name="Path 839829" d="M14.336,10.07h-4.5v3.047h5.281V15H7.492V3.625H15.1v1.9H9.836V8.234h4.5Zm6.586,2.594a.727.727,0,0,0-.41-.652,4.659,4.659,0,0,0-1.316-.426q-3.016-.633-3.016-2.562a2.323,2.323,0,0,1,.934-1.879,3.766,3.766,0,0,1,2.441-.754,4.053,4.053,0,0,1,2.574.758,2.388,2.388,0,0,1,.965,1.969H20.836a1.092,1.092,0,0,0-.312-.8A1.322,1.322,0,0,0,19.547,8a1.351,1.351,0,0,0-.883.258.814.814,0,0,0-.312.656.7.7,0,0,0,.355.605,3.657,3.657,0,0,0,1.2.4,9.8,9.8,0,0,1,1.422.379,2.336,2.336,0,0,1,1.789,2.273,2.2,2.2,0,0,1-.992,1.871,4.28,4.28,0,0,1-2.562.715,4.47,4.47,0,0,1-1.887-.379,3.166,3.166,0,0,1-1.293-1.039,2.414,2.414,0,0,1-.469-1.426h2.141a1.179,1.179,0,0,0,.445.922,1.766,1.766,0,0,0,1.109.32,1.635,1.635,0,0,0,.98-.246A.766.766,0,0,0,20.922,12.664Zm6.352-8.2V6.547h1.445V8.2H27.273v4.219a1.007,1.007,0,0,0,.18.672.9.9,0,0,0,.688.2,3.6,3.6,0,0,0,.664-.055v1.711a4.648,4.648,0,0,1-1.367.2,2.156,2.156,0,0,1-2.422-2.4V8.2H23.781V6.547h1.234V4.469Zm7.453,4.2a6.134,6.134,0,0,0-.812-.062,1.654,1.654,0,0,0-1.68.867V15H29.977V6.547h2.133l.063,1.008a2.092,2.092,0,0,1,1.883-1.164,2.366,2.366,0,0,1,.7.1ZM40.477,15a2.507,2.507,0,0,1-.227-.758,2.732,2.732,0,0,1-2.133.914,3,3,0,0,1-2.059-.719,2.312,2.312,0,0,1-.816-1.812,2.389,2.389,0,0,1,1-2.062,4.915,4.915,0,0,1,2.879-.727h1.039V9.352a1.393,1.393,0,0,0-.3-.937,1.183,1.183,0,0,0-.949-.352,1.345,1.345,0,0,0-.895.273.929.929,0,0,0-.324.75H35.43a2.268,2.268,0,0,1,.453-1.359,3,3,0,0,1,1.281-.98,4.669,4.669,0,0,1,1.859-.355,3.689,3.689,0,0,1,2.48.785,2.747,2.747,0,0,1,.918,2.207v3.664a4.041,4.041,0,0,0,.336,1.82V15Zm-1.867-1.57a1.945,1.945,0,0,0,.922-.223,1.462,1.462,0,0,0,.625-.6V11.156h-.844q-1.7,0-1.8,1.172l-.008.133a.9.9,0,0,0,.3.7A1.153,1.153,0,0,0,38.609,13.43Zm8.25-8.961V6.547H48.3V8.2H46.859v4.219a1.007,1.007,0,0,0,.18.672.9.9,0,0,0,.688.2,3.6,3.6,0,0,0,.664-.055v1.711a4.648,4.648,0,0,1-1.367.2,2.156,2.156,0,0,1-2.422-2.4V8.2H43.367V6.547H44.6V4.469Zm6.594,10.688a4.15,4.15,0,0,1-3.027-1.141,4.054,4.054,0,0,1-1.168-3.039v-.219A5.106,5.106,0,0,1,49.75,8.48a3.612,3.612,0,0,1,1.395-1.547A3.914,3.914,0,0,1,53.2,6.391a3.508,3.508,0,0,1,2.73,1.094,4.444,4.444,0,0,1,1,3.1v.922H51.547a2.1,2.1,0,0,0,.66,1.328,2,2,0,0,0,1.395.5,2.437,2.437,0,0,0,2.039-.945l1.109,1.242a3.389,3.389,0,0,1-1.375,1.121A4.511,4.511,0,0,1,53.453,15.156ZM53.2,8.211a1.411,1.411,0,0,0-1.09.455,2.357,2.357,0,0,0-.535,1.3h3.141V9.788A1.681,1.681,0,0,0,54.3,8.623,1.456,1.456,0,0,0,53.2,8.211Zm4.688,2.5a4.954,4.954,0,0,1,.926-3.133,3,3,0,0,1,2.5-1.187,2.631,2.631,0,0,1,2.164.953l.094-.8h2.047v8.172a3.613,3.613,0,0,1-.5,1.93,3.236,3.236,0,0,1-1.418,1.25,4.985,4.985,0,0,1-2.141.43,4.635,4.635,0,0,1-1.812-.371A3.217,3.217,0,0,1,58.4,17l1-1.375a2.645,2.645,0,0,0,2.047.945,1.936,1.936,0,0,0,1.4-.48,1.8,1.8,0,0,0,.5-1.363v-.453a2.612,2.612,0,0,1-2.055.883,2.992,2.992,0,0,1-2.465-1.191,4.953,4.953,0,0,1-.941-3.16Zm2.258.168a3.085,3.085,0,0,0,.461,1.8,1.466,1.466,0,0,0,1.266.653,1.568,1.568,0,0,0,1.477-.775V9a1.564,1.564,0,0,0-1.461-.775,1.476,1.476,0,0,0-1.277.665A3.477,3.477,0,0,0,60.141,10.879ZM69.727,15H67.461V6.547h2.266Zm-2.4-10.641a1.112,1.112,0,0,1,.34-.836,1.465,1.465,0,0,1,1.848,0,1.105,1.105,0,0,1,.344.836,1.108,1.108,0,0,1-.348.844,1.448,1.448,0,0,1-1.836,0A1.108,1.108,0,0,1,67.328,4.359ZM76.484,15a2.507,2.507,0,0,1-.227-.758,2.732,2.732,0,0,1-2.133.914,3,3,0,0,1-2.059-.719,2.312,2.312,0,0,1-.816-1.812,2.389,2.389,0,0,1,1-2.062,4.915,4.915,0,0,1,2.879-.727h1.039V9.352a1.393,1.393,0,0,0-.3-.937,1.183,1.183,0,0,0-.949-.352,1.345,1.345,0,0,0-.895.273.929.929,0,0,0-.324.75H71.438a2.268,2.268,0,0,1,.453-1.359,3,3,0,0,1,1.281-.98,4.669,4.669,0,0,1,1.859-.355,3.689,3.689,0,0,1,2.48.785,2.747,2.747,0,0,1,.918,2.207v3.664a4.041,4.041,0,0,0,.336,1.82V15Zm-1.867-1.57a1.945,1.945,0,0,0,.922-.223,1.462,1.462,0,0,0,.625-.6V11.156H75.32q-1.7,0-1.8,1.172l-.008.133a.9.9,0,0,0,.3.7A1.153,1.153,0,0,0,74.617,13.43Zm10.125-.766a.727.727,0,0,0-.41-.652,4.659,4.659,0,0,0-1.316-.426Q80,10.953,80,9.023a2.323,2.323,0,0,1,.934-1.879,3.766,3.766,0,0,1,2.441-.754,4.053,4.053,0,0,1,2.574.758,2.388,2.388,0,0,1,.965,1.969H84.656a1.092,1.092,0,0,0-.312-.8A1.322,1.322,0,0,0,83.367,8a1.351,1.351,0,0,0-.883.258.814.814,0,0,0-.312.656.7.7,0,0,0,.355.605,3.657,3.657,0,0,0,1.2.4,9.8,9.8,0,0,1,1.422.379,2.336,2.336,0,0,1,1.789,2.273,2.2,2.2,0,0,1-.992,1.871,4.28,4.28,0,0,1-2.562.715,4.47,4.47,0,0,1-1.887-.379A3.166,3.166,0,0,1,80.2,13.738a2.414,2.414,0,0,1-.469-1.426h2.141a1.179,1.179,0,0,0,.445.922,1.766,1.766,0,0,0,1.109.32,1.635,1.635,0,0,0,.98-.246A.766.766,0,0,0,84.742,12.664ZM2.848,28.711a5.094,5.094,0,0,1,.887-3.148A2.877,2.877,0,0,1,6.16,24.391a2.589,2.589,0,0,1,2.039.922V21h2.266V33H8.426l-.109-.9a2.657,2.657,0,0,1-2.172,1.055A2.869,2.869,0,0,1,3.75,31.98,5.258,5.258,0,0,1,2.848,28.711Zm2.258.168A3.337,3.337,0,0,0,5.52,30.7a1.349,1.349,0,0,0,1.2.634A1.511,1.511,0,0,0,8.2,30.452V27.111a1.489,1.489,0,0,0-1.461-.884Q5.105,26.227,5.105,28.879Zm11,4.277a4.15,4.15,0,0,1-3.027-1.141,4.054,4.054,0,0,1-1.168-3.039v-.219A5.106,5.106,0,0,1,12.4,26.48,3.612,3.612,0,0,1,13.8,24.934a3.914,3.914,0,0,1,2.059-.543,3.508,3.508,0,0,1,2.73,1.094,4.444,4.444,0,0,1,1,3.1v.922H14.2a2.1,2.1,0,0,0,.66,1.328,2,2,0,0,0,1.395.5,2.437,2.437,0,0,0,2.039-.945L19.4,31.633a3.389,3.389,0,0,1-1.375,1.121A4.511,4.511,0,0,1,16.105,33.156Zm-.258-6.945a1.411,1.411,0,0,0-1.09.455,2.357,2.357,0,0,0-.535,1.3h3.141v-.181a1.681,1.681,0,0,0-.406-1.165A1.456,1.456,0,0,0,15.848,26.211Zm11.117-1.664.07.945a2.971,2.971,0,0,1,2.43-1.1,2.255,2.255,0,0,1,2.242,1.289,2.9,2.9,0,0,1,2.539-1.289,2.521,2.521,0,0,1,2.047.8,3.681,3.681,0,0,1,.672,2.41V33H34.7V27.609a1.61,1.61,0,0,0-.281-1.051,1.246,1.246,0,0,0-.992-.332,1.409,1.409,0,0,0-1.406.969l.008,5.8H29.77V27.617a1.59,1.59,0,0,0-.289-1.062,1.259,1.259,0,0,0-.984-.328,1.463,1.463,0,0,0-1.391.8V33H24.848V24.547ZM42.59,33.156a4.15,4.15,0,0,1-3.027-1.141,4.054,4.054,0,0,1-1.168-3.039v-.219a5.106,5.106,0,0,1,.492-2.277,3.612,3.612,0,0,1,1.395-1.547,3.914,3.914,0,0,1,2.059-.543,3.508,3.508,0,0,1,2.73,1.094,4.444,4.444,0,0,1,1,3.1v.922H40.684a2.1,2.1,0,0,0,.66,1.328,2,2,0,0,0,1.395.5,2.437,2.437,0,0,0,2.039-.945l1.109,1.242a3.389,3.389,0,0,1-1.375,1.121A4.511,4.511,0,0,1,42.59,33.156Zm-.258-6.945a1.411,1.411,0,0,0-1.09.455,2.357,2.357,0,0,0-.535,1.3h3.141v-.181a1.681,1.681,0,0,0-.406-1.165A1.456,1.456,0,0,0,42.332,26.211Zm9.766.453a6.134,6.134,0,0,0-.812-.062,1.654,1.654,0,0,0-1.68.867V33H47.348V24.547H49.48l.063,1.008a2.092,2.092,0,0,1,1.883-1.164,2.366,2.366,0,0,1,.7.1Zm4.453,4.672a1.481,1.481,0,0,0,1.016-.344,1.2,1.2,0,0,0,.406-.914H60.09a2.9,2.9,0,0,1-.469,1.574,3.093,3.093,0,0,1-1.262,1.109,3.949,3.949,0,0,1-1.77.395A3.67,3.67,0,0,1,53.73,32a4.56,4.56,0,0,1-1.047-3.184v-.148a4.508,4.508,0,0,1,1.039-3.117,3.627,3.627,0,0,1,2.852-1.164,3.555,3.555,0,0,1,2.543.9,3.2,3.2,0,0,1,.973,2.4H57.973a1.551,1.551,0,0,0-.406-1.072,1.51,1.51,0,0,0-2.223.163,3.333,3.333,0,0,0-.4,1.866v.235a3.375,3.375,0,0,0,.4,1.878A1.377,1.377,0,0,0,56.551,31.336ZM66.277,33a2.507,2.507,0,0,1-.227-.758,2.732,2.732,0,0,1-2.133.914,3,3,0,0,1-2.059-.719,2.312,2.312,0,0,1-.816-1.812,2.389,2.389,0,0,1,1-2.062,4.915,4.915,0,0,1,2.879-.727h1.039v-.484a1.393,1.393,0,0,0-.3-.937,1.183,1.183,0,0,0-.949-.352,1.345,1.345,0,0,0-.895.273.929.929,0,0,0-.324.75H61.23a2.268,2.268,0,0,1,.453-1.359,3,3,0,0,1,1.281-.98,4.669,4.669,0,0,1,1.859-.355,3.689,3.689,0,0,1,2.48.785,2.747,2.747,0,0,1,.918,2.207v3.664a4.041,4.041,0,0,0,.336,1.82V33ZM64.41,31.43a1.945,1.945,0,0,0,.922-.223,1.462,1.462,0,0,0,.625-.6V29.156h-.844q-1.7,0-1.8,1.172l-.008.133a.9.9,0,0,0,.3.7A1.153,1.153,0,0,0,64.41,31.43Zm5.2-2.719a5.094,5.094,0,0,1,.887-3.148,2.877,2.877,0,0,1,2.426-1.172,2.589,2.589,0,0,1,2.039.922V21h2.266V33H75.184l-.109-.9A2.657,2.657,0,0,1,72.9,33.156a2.869,2.869,0,0,1-2.395-1.176A5.258,5.258,0,0,1,69.605,28.711Zm2.258.168a3.337,3.337,0,0,0,.414,1.823,1.349,1.349,0,0,0,1.2.634,1.511,1.511,0,0,0,1.477-.884V27.111a1.489,1.489,0,0,0-1.461-.884Q71.863,26.227,71.863,28.879Zm6.758-.184a5.013,5.013,0,0,1,.484-2.242A3.546,3.546,0,0,1,80.5,24.93a4.069,4.069,0,0,1,2.113-.539,3.849,3.849,0,0,1,2.793,1.047,4.2,4.2,0,0,1,1.207,2.844l.016.578a4.418,4.418,0,0,1-1.086,3.121,4.209,4.209,0,0,1-5.832,0,4.5,4.5,0,0,1-1.09-3.187Zm2.258.16a3.16,3.16,0,0,0,.453,1.843,1.628,1.628,0,0,0,2.578.008,3.457,3.457,0,0,0,.461-2.015,3.128,3.128,0,0,0-.461-1.831,1.5,1.5,0,0,0-1.3-.649,1.474,1.474,0,0,0-1.281.646A3.516,3.516,0,0,0,80.879,28.856Zm7.25,3.035a1.137,1.137,0,0,1,.363-.875,1.412,1.412,0,0,1,1.828,0,1.137,1.137,0,0,1,.363.875,1.121,1.121,0,0,1-.359.863,1.435,1.435,0,0,1-1.836,0A1.121,1.121,0,0,1,88.129,31.891Zm0-6.4a1.137,1.137,0,0,1,.363-.875,1.412,1.412,0,0,1,1.828,0,1.137,1.137,0,0,1,.363.875,1.121,1.121,0,0,1-.359.863,1.435,1.435,0,0,1-1.836,0A1.121,1.121,0,0,1,88.129,25.492ZM44.7,46.719h1.289v1.82H44.7V51H42.445V48.539H37.781l-.1-1.422,4.742-7.492H44.7Zm-4.773,0h2.516V42.7l-.148.258Zm9.859.273V51H47.445V39.625h4.438a5.134,5.134,0,0,1,2.254.469,3.454,3.454,0,0,1,1.5,1.332,3.714,3.714,0,0,1,.523,1.965,3.266,3.266,0,0,1-1.145,2.637,4.767,4.767,0,0,1-3.168.965Zm0-1.9h2.094a2.059,2.059,0,0,0,1.418-.437,1.591,1.591,0,0,0,.488-1.25,1.876,1.876,0,0,0-.492-1.352,1.839,1.839,0,0,0-1.359-.531H49.789Z" transform="translate(757.545 2052.275)" fill="#12263f"/>
    <path id="Path_839830" data-name="Path 839830" d="M35.871,9.742h-4.93v4.031h5.727V15H29.441V3.625h7.148V4.852H30.941V8.516h4.93ZM39.878,15H38.433V3h1.445ZM10.957,28.867a5.062,5.062,0,0,1-.883,3.109,2.829,2.829,0,0,1-2.391,1.18,3.1,3.1,0,0,1-2.422-.977v4.07H3.816v-11.7h1.32l.07.938A2.977,2.977,0,0,1,7.66,24.391a2.882,2.882,0,0,1,2.41,1.148,5.117,5.117,0,0,1,.887,3.2ZM9.511,28.7A3.735,3.735,0,0,0,8.9,26.445a1.963,1.963,0,0,0-1.672-.828,2.125,2.125,0,0,0-1.969,1.164V30.82a2.129,2.129,0,0,0,1.984,1.156A1.954,1.954,0,0,0,8.9,31.152,4.077,4.077,0,0,0,9.511,28.7Zm7.367-2.859a4.331,4.331,0,0,0-.711-.055A1.9,1.9,0,0,0,14.238,27v6H12.792V24.547H14.2l.023.977a2.251,2.251,0,0,1,2.016-1.133,1.477,1.477,0,0,1,.641.109Zm.789,2.852a4.993,4.993,0,0,1,.488-2.234,3.643,3.643,0,0,1,1.359-1.531,3.7,3.7,0,0,1,1.988-.539,3.565,3.565,0,0,1,2.793,1.2,4.6,4.6,0,0,1,1.066,3.18v.1a5.036,5.036,0,0,1-.473,2.215,3.589,3.589,0,0,1-1.352,1.527,3.743,3.743,0,0,1-2.02.547,3.556,3.556,0,0,1-2.785-1.2A4.575,4.575,0,0,1,17.667,28.8Zm1.453.172a3.616,3.616,0,0,0,.652,2.258,2.211,2.211,0,0,0,3.5-.012,3.955,3.955,0,0,0,.648-2.418,3.61,3.61,0,0,0-.66-2.254,2.1,2.1,0,0,0-1.754-.863,2.075,2.075,0,0,0-1.727.852A3.925,3.925,0,0,0,19.121,28.867Zm7.7-.164a4.952,4.952,0,0,1,.922-3.129,3.137,3.137,0,0,1,4.766-.168V21h1.445V33H32.628l-.07-.906a2.943,2.943,0,0,1-2.414,1.063,2.887,2.887,0,0,1-2.395-1.2,5.008,5.008,0,0,1-.926-3.141Zm1.445.164a3.749,3.749,0,0,0,.594,2.25,1.92,1.92,0,0,0,1.641.813A2.108,2.108,0,0,0,32.511,30.7V26.813a2.125,2.125,0,0,0-1.992-1.2,1.929,1.929,0,0,0-1.656.82A4.128,4.128,0,0,0,28.269,28.867Zm13.148,3.3a3.07,3.07,0,0,1-2.477.992,2.628,2.628,0,0,1-2.059-.785,3.4,3.4,0,0,1-.715-2.324v-5.5h1.445v5.461q0,1.922,1.563,1.922a2.163,2.163,0,0,0,2.2-1.234V24.547h1.445V33H41.449Zm6.992-.187a2.082,2.082,0,0,0,1.352-.469,1.649,1.649,0,0,0,.641-1.172h1.367a2.621,2.621,0,0,1-.5,1.383,3.293,3.293,0,0,1-1.23,1.047,3.55,3.55,0,0,1-1.629.391A3.482,3.482,0,0,1,45.664,32a4.59,4.59,0,0,1-1.02-3.152v-.242a5.089,5.089,0,0,1,.453-2.2,3.451,3.451,0,0,1,1.3-1.492,3.7,3.7,0,0,1,2-.531,3.39,3.39,0,0,1,2.363.852,3.043,3.043,0,0,1,1,2.211H50.4a1.992,1.992,0,0,0-.621-1.348,1.932,1.932,0,0,0-1.379-.527,2.023,2.023,0,0,0-1.707.793,3.724,3.724,0,0,0-.605,2.293v.273a3.65,3.65,0,0,0,.6,2.25A2.033,2.033,0,0,0,48.41,31.977ZM55.355,22.5v2.047h1.578v1.117H55.355v5.249a1.173,1.173,0,0,0,.211.763.888.888,0,0,0,.719.254,3.5,3.5,0,0,0,.688-.094V33a4.215,4.215,0,0,1-1.109.155A1.8,1.8,0,0,1,54.4,32.57a2.517,2.517,0,0,1-.492-1.664V25.664H52.371V24.547H53.91V22.5Zm2.727,6.2a4.993,4.993,0,0,1,.488-2.234,3.643,3.643,0,0,1,1.359-1.531,3.7,3.7,0,0,1,1.988-.539,3.565,3.565,0,0,1,2.793,1.2,4.6,4.6,0,0,1,1.066,3.18v.1a5.036,5.036,0,0,1-.473,2.215,3.589,3.589,0,0,1-1.352,1.527,3.743,3.743,0,0,1-2.02.547,3.556,3.556,0,0,1-2.785-1.2A4.575,4.575,0,0,1,58.082,28.8Zm1.453.172a3.616,3.616,0,0,0,.652,2.258,2.211,2.211,0,0,0,3.5-.012,3.955,3.955,0,0,0,.648-2.418,3.61,3.61,0,0,0-.66-2.254,2.1,2.1,0,0,0-1.754-.863,2.075,2.075,0,0,0-1.727.852A3.925,3.925,0,0,0,59.535,28.867ZM1.128,46.7a4.993,4.993,0,0,1,.488-2.234A3.643,3.643,0,0,1,2.976,42.93a3.7,3.7,0,0,1,1.988-.539,3.565,3.565,0,0,1,2.793,1.2,4.6,4.6,0,0,1,1.066,3.18v.1a5.036,5.036,0,0,1-.473,2.215A3.589,3.589,0,0,1,7,50.609a3.743,3.743,0,0,1-2.02.547,3.556,3.556,0,0,1-2.785-1.2A4.575,4.575,0,0,1,1.128,46.8Zm1.453.172a3.616,3.616,0,0,0,.652,2.258,2.088,2.088,0,0,0,1.746.852,2.075,2.075,0,0,0,1.75-.863A3.955,3.955,0,0,0,7.378,46.7a3.61,3.61,0,0,0-.66-2.254,2.1,2.1,0,0,0-1.754-.863,2.075,2.075,0,0,0-1.727.852A3.925,3.925,0,0,0,2.582,46.867Zm16.938,1.891a1.064,1.064,0,0,0-.441-.91,4.249,4.249,0,0,0-1.539-.559,7.277,7.277,0,0,1-1.742-.562,2.479,2.479,0,0,1-.953-.781,1.869,1.869,0,0,1-.309-1.078,2.193,2.193,0,0,1,.879-1.758,3.432,3.432,0,0,1,2.246-.719,3.532,3.532,0,0,1,2.332.742,2.357,2.357,0,0,1,.895,1.9H19.433a1.3,1.3,0,0,0-.5-1.023,1.888,1.888,0,0,0-1.27-.43,1.976,1.976,0,0,0-1.234.344,1.082,1.082,0,0,0-.445.9.877.877,0,0,0,.414.789,5.1,5.1,0,0,0,1.5.508,7.8,7.8,0,0,1,1.754.578,2.558,2.558,0,0,1,1,.809,1.988,1.988,0,0,1,.324,1.152,2.163,2.163,0,0,1-.906,1.816,3.8,3.8,0,0,1-2.352.684,4.257,4.257,0,0,1-1.8-.359,2.922,2.922,0,0,1-1.223-1,2.42,2.42,0,0,1-.441-1.395h1.445a1.5,1.5,0,0,0,.582,1.152,2.258,2.258,0,0,0,1.434.426,2.331,2.331,0,0,0,1.316-.332A1.02,1.02,0,0,0,19.519,48.758Zm6.836,2.4a3.693,3.693,0,0,1-2.8-1.129,4.19,4.19,0,0,1-1.078-3.02v-.266a5.073,5.073,0,0,1,.48-2.246A3.748,3.748,0,0,1,24.3,42.949a3.378,3.378,0,0,1,1.871-.559,3.166,3.166,0,0,1,2.563,1.086,4.7,4.7,0,0,1,.914,3.109v.6H23.925a3,3,0,0,0,.73,2.02,2.3,2.3,0,0,0,1.777.77,2.517,2.517,0,0,0,1.3-.312,3.259,3.259,0,0,0,.93-.828l.883.688A3.55,3.55,0,0,1,26.355,51.156Zm-.18-7.578a1.928,1.928,0,0,0-1.469.637A3.1,3.1,0,0,0,23.972,46h4.234v-.109a2.753,2.753,0,0,0-.594-1.707A1.815,1.815,0,0,0,26.175,43.578Zm9.234.266a4.331,4.331,0,0,0-.711-.055A1.9,1.9,0,0,0,32.769,45v6H31.324V42.547H32.73l.023.977a2.251,2.251,0,0,1,2.016-1.133,1.477,1.477,0,0,1,.641.109Zm4.258,5.2,2.094-6.492h1.477L40.207,51H39.1l-3.062-8.453h1.477ZM46.2,51H44.753V42.547H46.2ZM44.636,40.3a.863.863,0,0,1,.215-.594.807.807,0,0,1,.637-.242.819.819,0,0,1,.641.242.854.854,0,0,1,.219.594.826.826,0,0,1-.219.586.834.834,0,0,1-.641.234.821.821,0,0,1-.637-.234A.834.834,0,0,1,44.636,40.3ZM51.9,49.977a2.082,2.082,0,0,0,1.352-.469,1.649,1.649,0,0,0,.641-1.172h1.367a2.621,2.621,0,0,1-.5,1.383,3.293,3.293,0,0,1-1.23,1.047,3.55,3.55,0,0,1-1.629.391A3.482,3.482,0,0,1,49.156,50a4.59,4.59,0,0,1-1.02-3.152v-.242a5.089,5.089,0,0,1,.453-2.2,3.451,3.451,0,0,1,1.3-1.492,3.7,3.7,0,0,1,2-.531,3.39,3.39,0,0,1,2.363.852,3.043,3.043,0,0,1,1,2.211H53.894a1.992,1.992,0,0,0-.621-1.348,1.932,1.932,0,0,0-1.379-.527,2.023,2.023,0,0,0-1.707.793,3.724,3.724,0,0,0-.605,2.293v.273a3.65,3.65,0,0,0,.6,2.25A2.033,2.033,0,0,0,51.9,49.977ZM58.457,51H57.011V42.547h1.445ZM56.894,40.3a.863.863,0,0,1,.215-.594.807.807,0,0,1,.637-.242.819.819,0,0,1,.641.242.854.854,0,0,1,.219.594.826.826,0,0,1-.219.586.834.834,0,0,1-.641.234.821.821,0,0,1-.637-.234A.834.834,0,0,1,56.894,40.3ZM60.386,46.7a4.993,4.993,0,0,1,.488-2.234,3.643,3.643,0,0,1,1.359-1.531,3.7,3.7,0,0,1,1.988-.539,3.565,3.565,0,0,1,2.793,1.2,4.6,4.6,0,0,1,1.066,3.18v.1a5.036,5.036,0,0,1-.473,2.215,3.589,3.589,0,0,1-1.352,1.527,3.743,3.743,0,0,1-2.02.547,3.556,3.556,0,0,1-2.785-1.2A4.575,4.575,0,0,1,60.386,46.8Zm1.453.172a3.616,3.616,0,0,0,.652,2.258,2.211,2.211,0,0,0,3.5-.012,3.955,3.955,0,0,0,.648-2.418,3.61,3.61,0,0,0-.66-2.254,2.1,2.1,0,0,0-1.754-.863,2.075,2.075,0,0,0-1.727.852A3.925,3.925,0,0,0,61.839,46.867Z" transform="translate(641.142 2045.358)" fill="#12263f"/>
    <path id="Path_839831" data-name="Path 839831" d="M12.364,9.742H7.435v4.031h5.727V15H5.935V3.625h7.148V4.852H7.435V8.516h4.93ZM16.372,15H14.927V3h1.445Zm13.414-4.133a5.062,5.062,0,0,1-.883,3.109,2.829,2.829,0,0,1-2.391,1.18,3.1,3.1,0,0,1-2.422-.977v4.07H22.646V6.547h1.32l.07.938a2.977,2.977,0,0,1,2.453-1.094A2.882,2.882,0,0,1,28.9,7.539a5.117,5.117,0,0,1,.887,3.2ZM28.341,10.7a3.735,3.735,0,0,0-.609-2.258,1.963,1.963,0,0,0-1.672-.828,2.125,2.125,0,0,0-1.969,1.164V12.82a2.129,2.129,0,0,0,1.984,1.156,1.954,1.954,0,0,0,1.652-.824A4.077,4.077,0,0,0,28.341,10.7Zm8.5,3.461a3.07,3.07,0,0,1-2.477.992,2.628,2.628,0,0,1-2.059-.785,3.4,3.4,0,0,1-.715-2.324v-5.5h1.445v5.461q0,1.922,1.563,1.922A2.163,2.163,0,0,0,36.8,12.7V6.547h1.445V15H36.872ZM41.81,6.547l.047,1.063a3.08,3.08,0,0,1,2.531-1.219q2.68,0,2.7,3.023V15H45.646V9.406a1.946,1.946,0,0,0-.418-1.352,1.675,1.675,0,0,0-1.277-.437,2.086,2.086,0,0,0-1.234.375,2.546,2.546,0,0,0-.828.984V15H40.442V6.547ZM51.232,4.5V6.547H52.81V7.664H51.232v5.249a1.173,1.173,0,0,0,.211.763.888.888,0,0,0,.719.254,3.5,3.5,0,0,0,.688-.094V15a4.215,4.215,0,0,1-1.109.155,1.8,1.8,0,0,1-1.461-.586,2.517,2.517,0,0,1-.492-1.664V7.664H48.247V6.547h1.539V4.5Zm2.727,6.2a4.993,4.993,0,0,1,.488-2.234A3.643,3.643,0,0,1,55.806,6.93a3.7,3.7,0,0,1,1.988-.539,3.565,3.565,0,0,1,2.793,1.2,4.6,4.6,0,0,1,1.066,3.18v.1a5.036,5.036,0,0,1-.473,2.215,3.589,3.589,0,0,1-1.352,1.527,3.743,3.743,0,0,1-2.02.547,3.556,3.556,0,0,1-2.785-1.2A4.575,4.575,0,0,1,53.958,10.8Zm1.453.172a3.616,3.616,0,0,0,.652,2.258,2.211,2.211,0,0,0,3.5-.012,3.955,3.955,0,0,0,.648-2.418,3.61,3.61,0,0,0-.66-2.254,2.1,2.1,0,0,0-1.754-.863,2.075,2.075,0,0,0-1.727.852A3.925,3.925,0,0,0,55.411,10.867ZM67.075,10.7A4.952,4.952,0,0,1,68,7.574a3.137,3.137,0,0,1,4.766-.168V3h1.445V15H72.88l-.07-.906A2.943,2.943,0,0,1,70.4,15.156,2.887,2.887,0,0,1,68,13.953a5.008,5.008,0,0,1-.926-3.141Zm1.445.164a3.749,3.749,0,0,0,.594,2.25,1.92,1.92,0,0,0,1.641.813A2.108,2.108,0,0,0,72.763,12.7V8.813a2.125,2.125,0,0,0-1.992-1.2,1.929,1.929,0,0,0-1.656.82A4.128,4.128,0,0,0,68.521,10.867Zm11.438,4.289a3.693,3.693,0,0,1-2.8-1.129,4.19,4.19,0,0,1-1.078-3.02v-.266a5.073,5.073,0,0,1,.48-2.246,3.748,3.748,0,0,1,1.344-1.547,3.378,3.378,0,0,1,1.871-.559,3.166,3.166,0,0,1,2.563,1.086,4.7,4.7,0,0,1,.914,3.109v.6H77.528a3,3,0,0,0,.73,2.02,2.3,2.3,0,0,0,1.777.77,2.517,2.517,0,0,0,1.3-.312,3.259,3.259,0,0,0,.93-.828l.883.688A3.55,3.55,0,0,1,79.958,15.156Zm-.18-7.578a1.928,1.928,0,0,0-1.469.637A3.1,3.1,0,0,0,77.575,10H81.81V9.891a2.753,2.753,0,0,0-.594-1.707A1.815,1.815,0,0,0,79.778,7.578Zm11.9,5.461,2.094-6.492h1.477L92.216,15h-1.1L88.052,6.547h1.477Zm8.367,2.117a3.693,3.693,0,0,1-2.8-1.129,4.19,4.19,0,0,1-1.078-3.02v-.266a5.073,5.073,0,0,1,.48-2.246,3.748,3.748,0,0,1,1.344-1.547,3.378,3.378,0,0,1,1.871-.559,3.166,3.166,0,0,1,2.562,1.086,4.7,4.7,0,0,1,.914,3.109v.6H97.614a3,3,0,0,0,.73,2.02,2.3,2.3,0,0,0,1.777.77,2.517,2.517,0,0,0,1.3-.312,3.259,3.259,0,0,0,.93-.828l.883.688A3.55,3.55,0,0,1,100.044,15.156Zm-.18-7.578a1.928,1.928,0,0,0-1.469.637A3.1,3.1,0,0,0,97.661,10H101.9V9.891a2.753,2.753,0,0,0-.594-1.707A1.815,1.815,0,0,0,99.864,7.578Zm6.516-1.031.047,1.063a3.08,3.08,0,0,1,2.531-1.219q2.68,0,2.7,3.023V15h-1.445V9.406a1.946,1.946,0,0,0-.418-1.352,1.675,1.675,0,0,0-1.277-.437,2.086,2.086,0,0,0-1.234.375,2.546,2.546,0,0,0-.828.984V15h-1.445V6.547ZM115.8,4.5V6.547h1.578V7.664H115.8v5.249a1.173,1.173,0,0,0,.211.763.888.888,0,0,0,.719.254,3.5,3.5,0,0,0,.688-.094V15a4.215,4.215,0,0,1-1.109.155,1.8,1.8,0,0,1-1.461-.586,2.517,2.517,0,0,1-.492-1.664V7.664h-1.539V6.547h1.539V4.5ZM124.286,15a3.036,3.036,0,0,1-.2-.891,3.225,3.225,0,0,1-2.406,1.047,2.984,2.984,0,0,1-2.051-.707,2.288,2.288,0,0,1-.8-1.793,2.39,2.39,0,0,1,1-2.051,4.733,4.733,0,0,1,2.824-.73h1.406V9.211A1.623,1.623,0,0,0,123.607,8a1.821,1.821,0,0,0-1.336-.449,2.108,2.108,0,0,0-1.3.391,1.151,1.151,0,0,0-.523.945H119a2,2,0,0,1,.449-1.223,3.066,3.066,0,0,1,1.219-.934,4.1,4.1,0,0,1,1.691-.344,3.342,3.342,0,0,1,2.289.73,2.635,2.635,0,0,1,.859,2.012v3.891a4.757,4.757,0,0,0,.3,1.852V15Zm-2.4-1.1a2.54,2.54,0,0,0,1.289-.352,2.127,2.127,0,0,0,.883-.914V10.9h-1.133q-2.656,0-2.656,1.555a1.316,1.316,0,0,0,.453,1.063A1.742,1.742,0,0,0,121.888,13.9ZM17.97,28.7a4.993,4.993,0,0,1,.488-2.234,3.643,3.643,0,0,1,1.359-1.531,3.7,3.7,0,0,1,1.988-.539,3.565,3.565,0,0,1,2.793,1.2,4.6,4.6,0,0,1,1.066,3.18v.1a5.036,5.036,0,0,1-.473,2.215,3.589,3.589,0,0,1-1.352,1.527,3.743,3.743,0,0,1-2.02.547,3.556,3.556,0,0,1-2.785-1.2A4.575,4.575,0,0,1,17.97,28.8Zm1.453.172a3.616,3.616,0,0,0,.652,2.258,2.211,2.211,0,0,0,3.5-.012A3.955,3.955,0,0,0,24.22,28.7a3.61,3.61,0,0,0-.66-2.254,2.1,2.1,0,0,0-1.754-.863,2.075,2.075,0,0,0-1.727.852A3.925,3.925,0,0,0,19.423,28.867ZM31.087,28.7a4.952,4.952,0,0,1,.922-3.129,3.137,3.137,0,0,1,4.766-.168V21H38.22V33H36.892l-.07-.906a2.943,2.943,0,0,1-2.414,1.063,2.887,2.887,0,0,1-2.395-1.2,5.008,5.008,0,0,1-.926-3.141Zm1.445.164a3.749,3.749,0,0,0,.594,2.25,1.92,1.92,0,0,0,1.641.813A2.108,2.108,0,0,0,36.774,30.7V26.813a2.125,2.125,0,0,0-1.992-1.2,1.929,1.929,0,0,0-1.656.82A4.128,4.128,0,0,0,32.532,28.867ZM42.032,33H40.587V24.547h1.445ZM40.47,22.3a.863.863,0,0,1,.215-.594.807.807,0,0,1,.637-.242.819.819,0,0,1,.641.242.854.854,0,0,1,.219.594.826.826,0,0,1-.219.586.834.834,0,0,1-.641.234.821.821,0,0,1-.637-.234A.834.834,0,0,1,40.47,22.3Zm8.8,8.453a1.064,1.064,0,0,0-.441-.91,4.249,4.249,0,0,0-1.539-.559,7.277,7.277,0,0,1-1.742-.562,2.479,2.479,0,0,1-.953-.781,1.869,1.869,0,0,1-.309-1.078,2.193,2.193,0,0,1,.879-1.758,3.432,3.432,0,0,1,2.246-.719,3.532,3.532,0,0,1,2.332.742,2.357,2.357,0,0,1,.895,1.9H49.181a1.3,1.3,0,0,0-.5-1.023,1.888,1.888,0,0,0-1.27-.43,1.976,1.976,0,0,0-1.234.344,1.082,1.082,0,0,0-.445.9.877.877,0,0,0,.414.789,5.1,5.1,0,0,0,1.5.508,7.8,7.8,0,0,1,1.754.578,2.558,2.558,0,0,1,1,.809,1.988,1.988,0,0,1,.324,1.152,2.163,2.163,0,0,1-.906,1.816,3.8,3.8,0,0,1-2.352.684,4.257,4.257,0,0,1-1.8-.359,2.922,2.922,0,0,1-1.223-1,2.42,2.42,0,0,1-.441-1.395h1.445a1.5,1.5,0,0,0,.582,1.152,2.258,2.258,0,0,0,1.434.426,2.331,2.331,0,0,0,1.316-.332A1.02,1.02,0,0,0,49.267,30.758ZM54.556,22.5v2.047h1.578v1.117H54.556v5.249a1.173,1.173,0,0,0,.211.763.888.888,0,0,0,.719.254,3.5,3.5,0,0,0,.688-.094V33a4.215,4.215,0,0,1-1.109.155A1.8,1.8,0,0,1,53.6,32.57a2.517,2.517,0,0,1-.492-1.664V25.664H51.571V24.547H53.11V22.5Zm7.352,3.344a4.331,4.331,0,0,0-.711-.055A1.9,1.9,0,0,0,59.267,27v6H57.821V24.547h1.406l.023.977a2.251,2.251,0,0,1,2.016-1.133,1.477,1.477,0,0,1,.641.109ZM64.806,33H63.36V24.547h1.445ZM63.243,22.3a.863.863,0,0,1,.215-.594.807.807,0,0,1,.637-.242.819.819,0,0,1,.641.242.854.854,0,0,1,.219.594.826.826,0,0,1-.219.586.834.834,0,0,1-.641.234.821.821,0,0,1-.637-.234A.834.834,0,0,1,63.243,22.3Zm11.031,6.563a5.026,5.026,0,0,1-.891,3.113,2.846,2.846,0,0,1-2.391,1.176,2.947,2.947,0,0,1-2.477-1.133l-.07.977H67.118V21h1.445v4.477a2.93,2.93,0,0,1,2.414-1.086A2.863,2.863,0,0,1,73.4,25.555a5.177,5.177,0,0,1,.879,3.188ZM72.829,28.7a3.906,3.906,0,0,0-.57-2.281,1.888,1.888,0,0,0-1.641-.8,2.122,2.122,0,0,0-2.055,1.328V30.6a2.181,2.181,0,0,0,2.07,1.328,1.878,1.878,0,0,0,1.617-.8A4.153,4.153,0,0,0,72.829,28.7Zm8.484,3.461a3.07,3.07,0,0,1-2.477.992,2.628,2.628,0,0,1-2.059-.785,3.4,3.4,0,0,1-.715-2.324v-5.5h1.445v5.461q0,1.922,1.563,1.922a2.163,2.163,0,0,0,2.2-1.234V24.547H82.72V33H81.345Zm6.992-.187a2.082,2.082,0,0,0,1.352-.469,1.649,1.649,0,0,0,.641-1.172h1.367a2.621,2.621,0,0,1-.5,1.383,3.293,3.293,0,0,1-1.23,1.047,3.55,3.55,0,0,1-1.629.391A3.482,3.482,0,0,1,85.56,32a4.59,4.59,0,0,1-1.02-3.152v-.242a5.089,5.089,0,0,1,.453-2.2,3.451,3.451,0,0,1,1.3-1.492,3.7,3.7,0,0,1,2-.531,3.39,3.39,0,0,1,2.363.852,3.043,3.043,0,0,1,1,2.211H90.3a1.992,1.992,0,0,0-.621-1.348,1.932,1.932,0,0,0-1.379-.527,2.023,2.023,0,0,0-1.707.793,3.724,3.724,0,0,0-.605,2.293v.273a3.65,3.65,0,0,0,.6,2.25A2.033,2.033,0,0,0,88.306,31.977ZM94.86,33H93.415V24.547H94.86ZM93.3,22.3a.863.863,0,0,1,.215-.594.807.807,0,0,1,.637-.242.819.819,0,0,1,.641.242.854.854,0,0,1,.219.594.826.826,0,0,1-.219.586.834.834,0,0,1-.641.234.821.821,0,0,1-.637-.234A.834.834,0,0,1,93.3,22.3ZM96.79,28.7a4.993,4.993,0,0,1,.488-2.234,3.643,3.643,0,0,1,1.359-1.531,3.7,3.7,0,0,1,1.988-.539,3.565,3.565,0,0,1,2.793,1.2,4.6,4.6,0,0,1,1.066,3.18v.1a5.036,5.036,0,0,1-.473,2.215,3.589,3.589,0,0,1-1.352,1.527,3.743,3.743,0,0,1-2.02.547,3.556,3.556,0,0,1-2.785-1.2A4.575,4.575,0,0,1,96.79,28.8Zm1.453.172a3.616,3.616,0,0,0,.652,2.258,2.211,2.211,0,0,0,3.5-.012,3.955,3.955,0,0,0,.648-2.418,3.61,3.61,0,0,0-.66-2.254,2.1,2.1,0,0,0-1.754-.863,2.075,2.075,0,0,0-1.727.852A3.925,3.925,0,0,0,98.243,28.867ZM101.282,21h1.75l-2.094,2.3-1.164,0Zm6.383,3.547.047,1.063a3.08,3.08,0,0,1,2.531-1.219q2.68,0,2.7,3.023V33H111.5V27.406a1.946,1.946,0,0,0-.418-1.352,1.675,1.675,0,0,0-1.277-.437,2.086,2.086,0,0,0-1.234.375,2.546,2.546,0,0,0-.828.984V33H106.3V24.547Z" transform="translate(735.715 2175.669)" fill="#12263f"/>
    <path id="Path_839832" data-name="Path 839832" d="M28.376,9.742h-4.93v4.031h5.727V15H21.946V3.625h7.148V4.852H23.446V8.516h4.93ZM32.384,15H30.939V3h1.445ZM45.8,10.867a5.062,5.062,0,0,1-.883,3.109,2.829,2.829,0,0,1-2.391,1.18A3.1,3.1,0,0,1,40.1,14.18v4.07H38.657V6.547h1.32l.07.938A2.977,2.977,0,0,1,42.5,6.391a2.882,2.882,0,0,1,2.41,1.148,5.117,5.117,0,0,1,.887,3.2ZM44.353,10.7a3.735,3.735,0,0,0-.609-2.258,1.963,1.963,0,0,0-1.672-.828A2.125,2.125,0,0,0,40.1,8.781V12.82a2.129,2.129,0,0,0,1.984,1.156,1.954,1.954,0,0,0,1.652-.824A4.077,4.077,0,0,0,44.353,10.7ZM51.72,7.844a4.331,4.331,0,0,0-.711-.055A1.9,1.9,0,0,0,49.079,9v6H47.634V6.547H49.04l.023.977a2.251,2.251,0,0,1,2.016-1.133,1.477,1.477,0,0,1,.641.109Zm4.688,7.313a3.693,3.693,0,0,1-2.8-1.129,4.19,4.19,0,0,1-1.078-3.02v-.266a5.073,5.073,0,0,1,.48-2.246,3.748,3.748,0,0,1,1.344-1.547,3.378,3.378,0,0,1,1.871-.559A3.166,3.166,0,0,1,58.79,7.477a4.7,4.7,0,0,1,.914,3.109v.6H53.978a3,3,0,0,0,.73,2.02,2.3,2.3,0,0,0,1.777.77,2.517,2.517,0,0,0,1.3-.312,3.259,3.259,0,0,0,.93-.828l.883.688A3.55,3.55,0,0,1,56.407,15.156Zm-.18-7.578a1.928,1.928,0,0,0-1.469.637A3.1,3.1,0,0,0,54.024,10h4.234V9.891a2.753,2.753,0,0,0-.594-1.707A1.815,1.815,0,0,0,56.228,7.578Zm8.539,6.4a2.082,2.082,0,0,0,1.352-.469,1.649,1.649,0,0,0,.641-1.172h1.367a2.621,2.621,0,0,1-.5,1.383,3.293,3.293,0,0,1-1.23,1.047,3.55,3.55,0,0,1-1.629.391A3.482,3.482,0,0,1,62.021,14,4.59,4.59,0,0,1,61,10.852v-.242a5.089,5.089,0,0,1,.453-2.2,3.451,3.451,0,0,1,1.3-1.492,3.7,3.7,0,0,1,2-.531,3.39,3.39,0,0,1,2.363.852,3.043,3.043,0,0,1,1,2.211H66.759a1.992,1.992,0,0,0-.621-1.348,1.932,1.932,0,0,0-1.379-.527,2.023,2.023,0,0,0-1.707.793,3.724,3.724,0,0,0-.605,2.293v.273a3.65,3.65,0,0,0,.6,2.25A2.033,2.033,0,0,0,64.767,13.977ZM71.321,15H69.876V6.547h1.445ZM69.759,4.3a.863.863,0,0,1,.215-.594.807.807,0,0,1,.637-.242.819.819,0,0,1,.641.242.854.854,0,0,1,.219.594.826.826,0,0,1-.219.586.834.834,0,0,1-.641.234.821.821,0,0,1-.637-.234A.834.834,0,0,1,69.759,4.3ZM73.251,10.7a4.993,4.993,0,0,1,.488-2.234A3.643,3.643,0,0,1,75.1,6.93a3.7,3.7,0,0,1,1.988-.539,3.565,3.565,0,0,1,2.793,1.2,4.6,4.6,0,0,1,1.066,3.18v.1a5.036,5.036,0,0,1-.473,2.215,3.589,3.589,0,0,1-1.352,1.527,3.743,3.743,0,0,1-2.02.547,3.556,3.556,0,0,1-2.785-1.2A4.575,4.575,0,0,1,73.251,10.8Zm1.453.172a3.616,3.616,0,0,0,.652,2.258,2.211,2.211,0,0,0,3.5-.012A3.955,3.955,0,0,0,79.5,10.7a3.61,3.61,0,0,0-.66-2.254,2.1,2.1,0,0,0-1.754-.863,2.075,2.075,0,0,0-1.727.852A3.925,3.925,0,0,0,74.7,10.867Z" transform="translate(749.215 1946.482)" fill="#12263f"/>
    <path id="Path_839833" data-name="Path 839833" d="M39.317,13.773h5.391V15h-6.9V3.625h1.508ZM51.411,15a3.036,3.036,0,0,1-.2-.891A3.225,3.225,0,0,1,48.8,15.156a2.984,2.984,0,0,1-2.051-.707,2.287,2.287,0,0,1-.8-1.793,2.39,2.39,0,0,1,1-2.051,4.733,4.733,0,0,1,2.824-.73h1.406V9.211A1.623,1.623,0,0,0,50.732,8,1.821,1.821,0,0,0,49.4,7.555a2.107,2.107,0,0,0-1.3.391,1.151,1.151,0,0,0-.523.945H46.122a2,2,0,0,1,.449-1.223,3.066,3.066,0,0,1,1.219-.934,4.1,4.1,0,0,1,1.691-.344,3.342,3.342,0,0,1,2.289.73,2.635,2.635,0,0,1,.859,2.012v3.891a4.757,4.757,0,0,0,.3,1.852V15Zm-2.4-1.1a2.54,2.54,0,0,0,1.289-.352,2.127,2.127,0,0,0,.883-.914V10.9H50.052q-2.656,0-2.656,1.555a1.316,1.316,0,0,0,.453,1.063A1.742,1.742,0,0,0,49.013,13.9ZM15.021,28.867a5.062,5.062,0,0,1-.883,3.109,2.829,2.829,0,0,1-2.391,1.18,3.1,3.1,0,0,1-2.422-.977v4.07H7.88v-11.7H9.2l.07.938a2.977,2.977,0,0,1,2.453-1.094,2.882,2.882,0,0,1,2.41,1.148,5.117,5.117,0,0,1,.887,3.2ZM13.575,28.7a3.735,3.735,0,0,0-.609-2.258,1.963,1.963,0,0,0-1.672-.828,2.125,2.125,0,0,0-1.969,1.164V30.82a2.129,2.129,0,0,0,1.984,1.156,1.954,1.954,0,0,0,1.652-.824A4.077,4.077,0,0,0,13.575,28.7Zm7.367-2.859a4.331,4.331,0,0,0-.711-.055A1.9,1.9,0,0,0,18.3,27v6H16.857V24.547h1.406l.023.977A2.251,2.251,0,0,1,20.3,24.391a1.477,1.477,0,0,1,.641.109Zm.789,2.852a4.993,4.993,0,0,1,.488-2.234,3.643,3.643,0,0,1,1.359-1.531,3.7,3.7,0,0,1,1.988-.539,3.565,3.565,0,0,1,2.793,1.2,4.6,4.6,0,0,1,1.066,3.18v.1a5.036,5.036,0,0,1-.473,2.215A3.589,3.589,0,0,1,27.6,32.609a3.743,3.743,0,0,1-2.02.547,3.556,3.556,0,0,1-2.785-1.2A4.575,4.575,0,0,1,21.732,28.8Zm1.453.172a3.616,3.616,0,0,0,.652,2.258,2.211,2.211,0,0,0,3.5-.012,3.955,3.955,0,0,0,.648-2.418,3.61,3.61,0,0,0-.66-2.254,2.1,2.1,0,0,0-1.754-.863,2.075,2.075,0,0,0-1.727.852A3.925,3.925,0,0,0,23.185,28.867Zm9.414-4.32.039.938a3.122,3.122,0,0,1,2.508-1.094A2.417,2.417,0,0,1,37.56,25.75a3.2,3.2,0,0,1,1.1-.984,3.242,3.242,0,0,1,1.6-.375q2.781,0,2.828,2.945V33H41.638V27.422a1.941,1.941,0,0,0-.414-1.355,1.823,1.823,0,0,0-1.391-.449,1.916,1.916,0,0,0-1.336.48,1.949,1.949,0,0,0-.617,1.293V33H36.427V27.461a1.613,1.613,0,0,0-1.8-1.844,1.934,1.934,0,0,0-1.945,1.211V33H31.232V24.547ZM44.88,28.7a4.993,4.993,0,0,1,.488-2.234,3.643,3.643,0,0,1,1.359-1.531,3.7,3.7,0,0,1,1.988-.539,3.565,3.565,0,0,1,2.793,1.2,4.6,4.6,0,0,1,1.066,3.18v.1a5.036,5.036,0,0,1-.473,2.215,3.589,3.589,0,0,1-1.352,1.527,3.743,3.743,0,0,1-2.02.547,3.556,3.556,0,0,1-2.785-1.2A4.575,4.575,0,0,1,44.88,28.8Zm1.453.172a3.616,3.616,0,0,0,.652,2.258,2.211,2.211,0,0,0,3.5-.012A3.955,3.955,0,0,0,51.13,28.7a3.61,3.61,0,0,0-.66-2.254,2.1,2.1,0,0,0-1.754-.863,2.075,2.075,0,0,0-1.727.852A3.925,3.925,0,0,0,46.333,28.867Zm11.445,3.109a2.082,2.082,0,0,0,1.352-.469,1.649,1.649,0,0,0,.641-1.172h1.367a2.621,2.621,0,0,1-.5,1.383,3.293,3.293,0,0,1-1.23,1.047,3.55,3.55,0,0,1-1.629.391A3.482,3.482,0,0,1,55.032,32a4.59,4.59,0,0,1-1.02-3.152v-.242a5.089,5.089,0,0,1,.453-2.2,3.451,3.451,0,0,1,1.3-1.492,3.7,3.7,0,0,1,2-.531,3.39,3.39,0,0,1,2.363.852,3.043,3.043,0,0,1,1,2.211H59.771a1.992,1.992,0,0,0-.621-1.348,1.932,1.932,0,0,0-1.379-.527,2.023,2.023,0,0,0-1.707.793,3.724,3.724,0,0,0-.605,2.293v.273a3.65,3.65,0,0,0,.6,2.25A2.033,2.033,0,0,0,57.778,31.977ZM64.333,33H62.888V24.547h1.445ZM62.771,22.3a.863.863,0,0,1,.215-.594.807.807,0,0,1,.637-.242.819.819,0,0,1,.641.242.854.854,0,0,1,.219.594.826.826,0,0,1-.219.586.834.834,0,0,1-.641.234.821.821,0,0,1-.637-.234A.834.834,0,0,1,62.771,22.3ZM66.263,28.7a4.993,4.993,0,0,1,.488-2.234A3.643,3.643,0,0,1,68.11,24.93a3.7,3.7,0,0,1,1.988-.539,3.565,3.565,0,0,1,2.793,1.2,4.6,4.6,0,0,1,1.066,3.18v.1a5.036,5.036,0,0,1-.473,2.215,3.589,3.589,0,0,1-1.352,1.527,3.743,3.743,0,0,1-2.02.547,3.556,3.556,0,0,1-2.785-1.2A4.575,4.575,0,0,1,66.263,28.8Zm1.453.172a3.616,3.616,0,0,0,.652,2.258,2.211,2.211,0,0,0,3.5-.012,3.955,3.955,0,0,0,.648-2.418,3.61,3.61,0,0,0-.66-2.254,2.1,2.1,0,0,0-1.754-.863,2.075,2.075,0,0,0-1.727.852A3.925,3.925,0,0,0,67.716,28.867ZM70.755,21H72.5l-2.094,2.3-1.164,0Zm6.383,3.547.047,1.063a3.08,3.08,0,0,1,2.531-1.219q2.68,0,2.7,3.023V33H80.974V27.406a1.946,1.946,0,0,0-.418-1.352,1.675,1.675,0,0,0-1.277-.437,2.086,2.086,0,0,0-1.234.375,2.546,2.546,0,0,0-.828.984V33H75.771V24.547Z" transform="translate(879.886 2052.893)" fill="#12263f"/>
    <g id="Group_1016849" data-name="Group 1016849" transform="translate(333.36 -7019.686)">
      <circle id="Ellipse_5840" data-name="Ellipse 5840" cx="28" cy="28" r="28" transform="translate(247 9067)" fill="#eba325" opacity="0.3"/>
      <circle id="Ellipse_5841" data-name="Ellipse 5841" cx="17" cy="17" r="17" transform="translate(258 9078)" fill="#eba325"/>
      <text id="A" transform="translate(270 9101)" fill="#12263f" font-size="17" font-family="Roboto-Regular, Roboto"><tspan x="0" y="0">A</tspan></text>
    </g>
    <g id="Group_1085416" data-name="Group 1085416" transform="translate(525.36 -7209.551)">
      <circle id="Ellipse_5840-2" data-name="Ellipse 5840" cx="28" cy="28" r="28" transform="translate(247 9067)" fill="#eba325" opacity="0.3"/>
      <circle id="Ellipse_5841-2" data-name="Ellipse 5841" cx="17" cy="17" r="17" transform="translate(258 9078)" fill="#eba325"/>
      <text id="B" transform="translate(270 9101)" fill="#12263f" font-size="17" font-family="Roboto-Regular, Roboto"><tspan x="0" y="0">B</tspan></text>
    </g>
    <g id="Group_1085417" data-name="Group 1085417" transform="translate(717.36 -7018.695)">
      <circle id="Ellipse_5840-3" data-name="Ellipse 5840" cx="28" cy="28" r="28" transform="translate(247 9067)" fill="#eba325" opacity="0.3"/>
      <circle id="Ellipse_5841-3" data-name="Ellipse 5841" cx="17" cy="17" r="17" transform="translate(258 9078)" fill="#eba325"/>
      <text id="C" transform="translate(270 9101)" fill="#12263f" font-size="17" font-family="Roboto-Regular, Roboto"><tspan x="0" y="0">C</tspan></text>
    </g>
    <g id="Group_1085418" data-name="Group 1085418" transform="translate(525.36 -6825.887)">
      <circle id="Ellipse_5840-4" data-name="Ellipse 5840" cx="28" cy="28" r="28" transform="translate(247 9067)" fill="#eba325" opacity="0.3"/>
      <circle id="Ellipse_5841-4" data-name="Ellipse 5841" cx="17" cy="17" r="17" transform="translate(258 9078)" fill="#eba325"/>
      <text id="D" transform="translate(270 9101)" fill="#12263f" font-size="17" font-family="Roboto-Regular, Roboto"><tspan x="0" y="0">D</tspan></text>
    </g>
    <path id="Path_839073" data-name="Path 839073" d="M85.026,11.452a10.16,10.16,0,0,1-.543-4.429c0-.652-.005-1.3,0-1.957a1.307,1.307,0,0,1,1.2-1.4A9.3,9.3,0,0,0,90.952.624c.1-.1.186-.207.282-.307A.692.692,0,0,1,92.4.328a12.163,12.163,0,0,0,2.728,2.3,7.717,7.717,0,0,0,2.79,1.031,1.3,1.3,0,0,1,1.219,1.423c-.014,1.581-.019,3.163-.091,4.742a9.239,9.239,0,0,1-.384,1.649l3.182.693c1.748.382,3.5.75,5.238,1.161a1.245,1.245,0,0,1,.708.495c1.045,1.685,2.061,3.388,3.072,5.094a2,2,0,0,1-1,2.958c-.677.279-1.363.539-2.061.814v4.174c0,.9,0,1.8,0,2.707a2,2,0,0,1-1.435,2.1q-5.3,2.084-10.606,4.154c-1.161.454-2.326.9-3.483,1.367a1.152,1.152,0,0,1-.918.006q-7.04-2.769-14.088-5.521a2.014,2.014,0,0,1-1.458-2.126c0-2.165-.005-4.331.006-6.5,0-.275-.061-.416-.341-.511-.577-.194-1.139-.433-1.705-.659a2,2,0,0,1-1.031-2.947c1.017-1.719,2.042-3.433,3.092-5.131a1.179,1.179,0,0,1,.675-.475c2.649-.6,5.307-1.17,7.962-1.749.161-.036.321-.076.549-.13m.789-6.464c0,1.181.028,2.332-.006,3.482a6.314,6.314,0,0,0,1.4,4.128,14.145,14.145,0,0,0,4.41,3.683.539.539,0,0,0,.473-.044c1.057-.76,2.144-1.487,3.131-2.331a7.938,7.938,0,0,0,2.206-3.087,8.311,8.311,0,0,0,.381-3.24c0-.857,0-1.713,0-2.589A10.363,10.363,0,0,1,91.892,1.74c-.957.716-1.847,1.446-2.8,2.078a7.764,7.764,0,0,1-3.276,1.17m6.69,17.458V35.653c.082-.026.133-.04.183-.06q6.6-2.579,13.2-5.156a.832.832,0,0,0,.593-.884c-.013-2-.005-4-.007-5.995,0-.1-.017-.2-.029-.339l-1.858.723c-2.465.963-4.928,1.931-7.395,2.887a1.978,1.978,0,0,1-2.578-.877c-.233-.377-.458-.759-.687-1.14l-1.421-2.365m-1.367.009c-.136.207-.213.317-.281.431q-.88,1.462-1.756,2.924a2.035,2.035,0,0,1-2.821.963l-6.734-2.634-2.36-.921a1.231,1.231,0,0,0-.03.173q0,3.142,0,6.286a.76.76,0,0,0,.586.756q6.155,2.4,12.307,4.811c.355.139.711.276,1.094.424Zm-.3-2.127-14.06-5.5c-.088.141-.164.255-.234.374q-1.266,2.1-2.528,4.207c-.409.683-.293,1.023.438,1.309q2.75,1.073,5.5,2.147,3.445,1.348,6.889,2.7c.492.192.768.13,1.007-.264.992-1.636,1.973-3.279,2.989-4.97m1.954,0c1.023,1.7,2.015,3.367,3.022,5.022.228.374.578.367.955.22Q103,23.13,109.231,20.7c.656-.257.775-.624.411-1.233q-.981-1.642-1.969-3.28l-.813-1.355-14.068,5.5m11.973-6.116a.979.979,0,0,0-.134-.077c-2.126-.464-4.253-.922-6.377-1.394-.241-.054-.339.046-.461.223a15.147,15.147,0,0,1-5.6,4.733.921.921,0,0,1-.738,0,15.027,15.027,0,0,1-5.58-4.693.492.492,0,0,0-.605-.247c-1.27.289-2.546.555-3.819.834-.848.185-1.7.376-2.626.584.157.07.23.108.305.137q6.1,2.383,12.191,4.771a1.219,1.219,0,0,0,.984.007c2.406-.959,4.822-1.895,7.234-2.838l5.228-2.045" transform="translate(642.179 2051.754)" fill="#12263f"/>
    <path id="Path_839074" data-name="Path 839074" d="M92.928,11.182c-.4-.421-.73-.793-1.082-1.146-.368-.369-.764-.394-1.054-.091-.275.287-.238.672.113,1.024q.762.769,1.534,1.526c.467.461.838.435,1.241-.1.621-.817,1.235-1.639,1.85-2.461.35-.466.709-.925,1.039-1.4a.657.657,0,0,0-1.053-.784c-.155.177-.29.372-.432.56l-2.157,2.871" transform="translate(640.18 2050.93)" fill="#12263f"/>
    <path id="Path_839075" data-name="Path 839075" d="M92.928,11.182l2.157-2.871c.142-.188.277-.383.432-.56a.657.657,0,0,1,1.053.784c-.33.48-.69.938-1.039,1.4-.615.821-1.229,1.644-1.85,2.461-.4.53-.773.556-1.241.1q-.772-.76-1.534-1.526c-.351-.352-.388-.737-.113-1.024.29-.3.686-.279,1.054.091.352.353.686.725,1.082,1.146" transform="translate(640.18 2050.93)" fill="#12263f"/>
    <path id="Path_839076" data-name="Path 839076" d="M202.108,81.594a6.707,6.707,0,0,1-.376.993,3.078,3.078,0,0,1-2.63,1.647c-.383.024-.768.015-1.153.006a.594.594,0,0,1-.652-.589.611.611,0,0,1,.619-.634c.314-.021.631,0,.946-.009a1.9,1.9,0,0,0,2.011-2.014q0-13.027,0-26.054a1.934,1.934,0,0,0-1.294-1.946c-2.364-.984-4.731-1.963-7.092-2.956a2.268,2.268,0,0,0-1.87.013c-1.056.456-2.12.894-3.187,1.323a.828.828,0,0,1-.584.07.9.9,0,0,1-.427-.529c-.066-.29.141-.507.425-.624.874-.36,1.742-.732,2.619-1.086a13.118,13.118,0,0,1,1.463-.534,2.956,2.956,0,0,1,1.931.187c2.416,1,4.828,2.016,7.246,3.015a3.348,3.348,0,0,1,2,2.388Z" transform="translate(617.453 1940.748)" fill="#12263f"/>
    <path id="Path_839077" data-name="Path 839077" d="M174.862,66.738h2.561v-.482q0-5.455,0-10.908a3.09,3.09,0,0,1,2.055-3.106c.315-.133.628-.272.948-.4a.619.619,0,1,1,.465,1.14c-.363.162-.739.295-1.1.465a1.806,1.806,0,0,0-1.132,1.717q-.012,5.681,0,11.361c0,.054.009.107.018.224.338,0,.674,0,1.01,0a17.967,17.967,0,0,1,2.136.055A2.463,2.463,0,0,1,184,68.781a2.555,2.555,0,0,1-1.025,2.8c-.064.05-.131.1-.222.163a2.726,2.726,0,0,1,.6,2.2,2.679,2.679,0,0,1-1.292,1.869,2.708,2.708,0,0,1,.605,2.273,2.645,2.645,0,0,1-1.378,1.858,2.776,2.776,0,0,1-.018,3.458h.471q4.754,0,9.509,0a2.04,2.04,0,0,1,.529.048.553.553,0,0,1,.435.616.569.569,0,0,1-.553.562,3.16,3.16,0,0,1-.329.006c-3.5,0-7,.011-10.5-.011a9.693,9.693,0,0,1-1.486-.245,3.526,3.526,0,0,0-.565-.07c-3.375,0-6.751-.016-10.127.005a3.82,3.82,0,0,1-2.417-.758,4.822,4.822,0,0,0-2.7-.857c0,.492.005.942,0,1.392-.009.553-.22.764-.783.765q-2.819.005-5.639,0c-.549,0-.766-.226-.766-.784q0-8.583,0-17.165c0-.6.21-.805.825-.806q2.759,0,5.516,0c.657,0,.843.193.847.865,0,.148,0,.3,0,.464.073-.013.118-.009.143-.029q1.778-1.4,3.552-2.8a6.041,6.041,0,0,0,2.476-3.525,15.163,15.163,0,0,0,.2-2.409,2.416,2.416,0,0,1,1.938-2.382,2.365,2.365,0,0,1,2.751,1.556,14.463,14.463,0,0,1,.325,8.7c-.015.051-.026.1-.052.209M162.3,83.6v-.535q0-4.259,0-8.519a2.011,2.011,0,0,1,.042-.488.6.6,0,0,1,1.173.065,3.217,3.217,0,0,1,.018.451c0,2.141.009,4.281-.008,6.421,0,.353.1.468.45.5A5.812,5.812,0,0,1,167,82.568a2.5,2.5,0,0,0,1.567.5c3.47-.012,6.942-.006,10.413-.007a4,4,0,0,0,.411-.01,1.411,1.411,0,0,0-.05-2.81c-.328-.018-.658,0-.987-.01-.47-.011-.76-.26-.752-.635s.284-.592.736-.6c.549-.006,1.1.006,1.646,0a1.428,1.428,0,1,0,.01-2.853c-.316-.007-.631,0-.947,0-.485,0-.765-.229-.766-.609s.287-.619.761-.624c.549-.006,1.1,0,1.646,0a1.414,1.414,0,1,0-.005-2.826c-.508-.009-1.015,0-1.522,0-.581,0-.884-.222-.879-.632s.289-.6.854-.6c.741,0,1.482.007,2.223,0a1.427,1.427,0,1,0-.04-2.849c-2.4-.007-4.8,0-7.2,0-.622,0-.883-.36-.671-.942a12.079,12.079,0,0,0,.732-3.362,14.522,14.522,0,0,0-.76-5.463,1.14,1.14,0,0,0-1.273-.752,1.166,1.166,0,0,0-.993,1.14c-.01.3.012.6.006.905a6.874,6.874,0,0,1-1.893,4.861c-.62.634-1.329,1.184-2.011,1.757-1.142.961-2.3,1.9-3.433,2.876a1.054,1.054,0,0,0-.269.678c-.039.629-.005,1.262-.026,1.892a.548.548,0,0,1-.59.561.566.566,0,0,1-.606-.5,2.194,2.194,0,0,1-.024-.41q0-1.646,0-3.293v-.57H157.61V83.6Z" transform="translate(621.063 1940.363)" fill="#12263f"/>
    <path id="Path_839078" data-name="Path 839078" d="M190.939,69.97c0-.43,0-.826,0-1.222.006-.461.224-.72.6-.727s.625.261.63.743c0,.4,0,.79,0,1.19a7.5,7.5,0,0,1,.751.14,2.073,2.073,0,0,1,1.472,1.884.619.619,0,1,1-1.229.126c-.1-.628-.362-.861-.981-.868-.453,0-.906-.009-1.359,0a.831.831,0,0,0-.877.88c-.01.356.007.714-.005,1.07a.659.659,0,0,0,.531.722c.824.256,1.643.527,2.461.8a1.857,1.857,0,0,1,1.462,2.012,6.223,6.223,0,0,1-.036,1.026c-.176,1.055-.88,1.673-2.189,1.948,0,.4.005.81,0,1.22-.008.451-.24.715-.617.716s-.609-.264-.616-.714c-.005-.409,0-.818,0-1.236a2.34,2.34,0,0,1-2.179-1.849,1.7,1.7,0,0,1-.043-.366.613.613,0,0,1,.536-.7c.366-.04.605.194.7.6a1.772,1.772,0,0,0,.334.764,2.576,2.576,0,0,0,2.512.018,1.145,1.145,0,0,0,.341-.671c.047-1.469.158-1.349-1.12-1.761-.638-.206-1.279-.406-1.916-.616a1.844,1.844,0,0,1-1.394-1.94c0-.329,0-.658,0-.987A2.071,2.071,0,0,1,190.728,70c.054,0,.106-.015.211-.031" transform="translate(617.176 1938.414)" fill="#12263f"/>
    <path id="Path_839079" data-name="Path 839079" d="M191.813,53.236a2.337,2.337,0,0,1,2.349,2.344,2.348,2.348,0,1,1-2.349-2.344M190.7,55.577a1.112,1.112,0,1,0,2.224-.013,1.112,1.112,0,0,0-2.224.013" transform="translate(617.086 1940.189)" fill="#12263f"/>
    <path id="Path_839080" data-name="Path 839080" d="M102.352,116.523H98.445v8.718h21.4c0-.964,0-1.91,0-2.857,0-.343-.011-.687.006-1.03a.907.907,0,0,1,.894-.9.89.89,0,0,1,.916.823c.04.433.024.872.025,1.309,0,.871,0,1.742,0,2.691.578,0,1.117,0,1.656,0,.906,0,1.193.3,1.194,1.215,0,.967,0,1.934,0,2.9,0,.731-.332,1.076-1.047,1.077q-7.044,0-14.088,0a.926.926,0,1,1-.039-1.84c.421-.018.843-.006,1.264-.006h12.041v-1.478H91.441v1.478h.61q6.623,0,13.246,0a3.126,3.126,0,0,1,.6.042.906.906,0,0,1,.734.946.927.927,0,0,1-.851.85c-.124.012-.25.008-.374.008h-14.6c-.943,0-1.229-.285-1.232-1.226s-.006-1.9,0-2.855c.007-.789.322-1.1,1.109-1.113.48-.006.961,0,1.51,0v-.589q0-5.148,0-10.3c0-.749.191-1,.908-1.2-.2-.078-.368-.143-.533-.2a4.576,4.576,0,0,1-2.973-4.156,1.749,1.749,0,0,1,.108-.591q1.538-4.509,3.088-9.014c.219-.637.449-.8,1.144-.8q6.927,0,13.854,0c.715,0,1.113.334,1.115.91s-.4.914-1.106.914c-4.306,0-8.612.007-12.918-.009a.573.573,0,0,0-.658.465c-.736,2.2-1.5,4.392-2.249,6.586-.05.145-.087.294-.153.519h18.969a4.3,4.3,0,0,1,.468.009.91.91,0,0,1,.077,1.8c-.164.033-.334.042-.533.065.231.33.428.645.658.934a2.131,2.131,0,0,0,1.6.847c.712.043,1.128.447,1.07,1.02s-.56.9-1.248.821a4.317,4.317,0,0,1-2.658-1.5,4.112,4.112,0,0,1-6.436-.19,4.568,4.568,0,0,1-3.178,1.648,4.451,4.451,0,0,1-3.289-1.5,4.472,4.472,0,0,1-3.795,1.492c.548.345.5.864.5,1.376q-.006,5.007,0,10.014v.587h2.529v-.581q0-4.375,0-8.75c0-.972.289-1.263,1.25-1.263q2.621,0,5.242,0c.814,0,1.154.326,1.156,1.123q.006,3.791,0,7.58c0,.716-.388,1.126-.991,1.082-.548-.039-.858-.417-.859-1.072q-.006-3.159,0-6.317Zm-4.464-6.841c.951,1.42,1.825,1.914,3,1.717a2.752,2.752,0,0,0,2.146-1.717Zm11.789.017h-5.134a2.685,2.685,0,0,0,2.311,1.722,2.856,2.856,0,0,0,2.823-1.722m-17.847-.015a2.53,2.53,0,0,0,2.021,1.723,2.849,2.849,0,0,0,2.908-1.723Z" transform="translate(695.789 2033.641)" fill="#12263f"/>
    <path id="Path_839081" data-name="Path 839081" d="M120.854,116.721c1.172-1.629,2.327-3.232,3.479-4.837.145-.2.271-.419.421-.618a.917.917,0,1,1,1.51,1.039q-1.105,1.623-2.253,3.216c-.787,1.085-1.6,2.155-2.411,3.219a.921.921,0,0,1-1.575.025,100.777,100.777,0,0,1-6.97-9.781,22.818,22.818,0,0,1-2.871-6.713,10.424,10.424,0,0,1,8.167-12.41,10.553,10.553,0,0,1,12.5,8.363,12.258,12.258,0,0,1-.852,7.051c-.636,1.568-1.445,3.066-2.2,4.581a.9.9,0,0,1-1.295.443.914.914,0,0,1-.3-1.336,25.9,25.9,0,0,0,2.49-5.573,9.5,9.5,0,0,0-.321-6.932A8.739,8.739,0,0,0,111.82,99.1a10.536,10.536,0,0,0,.976,5.273,36.539,36.539,0,0,0,4.4,7.529c1.116,1.54,2.281,3.044,3.426,4.562.055.073.124.136.235.255" transform="translate(695.789 2033.641)" fill="#12263f"/>
    <path id="Path_839082" data-name="Path 839082" d="M114.567,116.539h-3.284c-.3,0-.594.011-.889-.009a.883.883,0,0,1-.845-.887.852.852,0,0,1,.816-.909q2.618-.033,5.238,0c.525.007.827.393.838.991.016.826,0,1.652,0,2.478,0,1.341,0,2.681,0,4.022,0,.865-.329,1.2-1.181,1.2q-4.163,0-8.326,0c-.84,0-1.171-.325-1.173-1.154q-.009-3.2,0-6.406c0-.844.312-1.143,1.165-1.15.312,0,.624-.009.935,0a.912.912,0,1,1,.02,1.823c-.076.006-.151.016-.256.027v4.978h6.938Z" transform="translate(695.789 2033.641)" fill="#12263f"/>
    <path id="Path_839083" data-name="Path 839083" d="M115.454,100.032c.13-.573.226-1.157.4-1.717a.917.917,0,0,1,1.22-.695.939.939,0,0,1,.51,1.31,3.1,3.1,0,0,0,2.047,4.121,3.146,3.146,0,0,0,3.392-1.2,3.116,3.116,0,0,0-3.446-4.774c-.119.036-.233.09-.352.124a.918.918,0,1,1-.609-1.733A4.952,4.952,0,0,1,125.1,98.31a4.761,4.761,0,0,1-1.091,5.19,4.622,4.622,0,0,1-4.974,1.274,4.794,4.794,0,0,1-3.458-4.025c-.04-.229-.036-.465-.053-.7l-.07-.019" transform="translate(695.789 2033.641)" fill="#12263f"/>
    <path id="Path_839834" data-name="Path 839834" d="M0,0H5.151" transform="translate(793.677 2143.322)" fill="#fff"/>
    <path id="Path_839835" data-name="Path 839835" d="M0,0H5.134" transform="translate(800.332 2143.339)" fill="#fff"/>
    <path id="Path_839836" data-name="Path 839836" d="M0,0H4.929" transform="translate(787.619 2143.324)" fill="#fff"/>
    <path id="Path_839084" data-name="Path 839084" d="M15.341,87.375c.113.171.2.3.286.431q2.553,3.775,5.109,7.549a3.556,3.556,0,0,1,.688,2.453,3.41,3.41,0,0,1-2.716,3.108,3.639,3.639,0,0,1-3.788-1.623q-2.93-4.306-5.845-8.623c-.1-.143-.2-.282-.253-.362a15.523,15.523,0,0,1-2.15.717A5.723,5.723,0,0,1,0,85.226a5.446,5.446,0,0,1,2.423-4.434c1.16-.813,2.35-1.582,3.511-2.4a1.852,1.852,0,0,0,.579-.666q3.322-6.7,6.616-13.424a3.137,3.137,0,0,1,2.627-1.8,6.809,6.809,0,0,1,4.057,1.008,19.776,19.776,0,0,1,5.86,5.091,26.178,26.178,0,0,1,5.194,9.774,10.322,10.322,0,0,1,.312,4.768,4.091,4.091,0,0,1-1.436,2.506,3.129,3.129,0,0,1-1.75.675q-6.138.481-12.275.979c-.111.009-.219.041-.38.072M14.084,67.51a21.509,21.509,0,0,0,.409,2.355A24.946,24.946,0,0,0,22.865,82.6a9.277,9.277,0,0,0,3.849,2.005,1.873,1.873,0,0,0,1.985-.653,3.951,3.951,0,0,0,.731-1.491,7.248,7.248,0,0,0-.116-3.314,19.962,19.962,0,0,0-2.666-6.184,24.519,24.519,0,0,0-5.917-6.808A9.6,9.6,0,0,0,17.1,64.286a2.173,2.173,0,0,0-2.879,1.884c-.07.383-.08.776-.134,1.34M23.166,85a27.073,27.073,0,0,1-10.6-15.661,1.232,1.232,0,0,0-.093.141q-2.185,4.462-4.356,8.929a.641.641,0,0,0,.067.531c1.473,2.2,2.965,4.388,4.441,6.586a.54.54,0,0,0,.562.28c2.622-.216,5.244-.419,7.867-.627.7-.056,1.4-.118,2.116-.18M6.759,79.913c-1.2.82-2.37,1.587-3.5,2.411A3.776,3.776,0,0,0,2.3,87.4a3.756,3.756,0,0,0,5.063,1.628c1.333-.737,2.562-1.666,3.861-2.525L6.759,79.913m3.428,9.347c.19.286.362.55.539.811q2.811,4.15,5.62,8.3a1.849,1.849,0,0,0,1.448.91,1.709,1.709,0,0,0,1.7-.9,1.775,1.775,0,0,0-.127-2L13.6,87.859a.684.684,0,0,0-.988-.241c-.811.524-1.6,1.081-2.426,1.642" transform="translate(852.428 1991.042)" fill="#12263f"/>
    <path id="Path_839085" data-name="Path 839085" d="M46.824,68.984a.889.889,0,0,1-.968-.572.836.836,0,0,1,.378-1.013c.84-.562,1.688-1.112,2.531-1.667q1.609-1.059,3.219-2.118a.894.894,0,0,1,1.336.135c.307.444.163.955-.385,1.317q-2.8,1.846-5.61,3.682a3.17,3.17,0,0,1-.5.234" transform="translate(838.486 1990.763)" fill="#12263f"/>
    <path id="Path_839086" data-name="Path 839086" d="M48.841,77.147l3.593.644c1.08.193,2.159.39,3.24.579a.865.865,0,1,1-.264,1.7q-3.392-.6-6.778-1.221a.872.872,0,0,1-.787-.969.881.881,0,0,1,1-.735" transform="translate(837.867 1986.573)" fill="#12263f"/>
    <path id="Path_839087" data-name="Path 839087" d="M42.009,55.022l-.53,5.175c-.042.417-.081.834-.133,1.25a.839.839,0,0,1-.949.791.82.82,0,0,1-.735-.949q.314-3.215.653-6.426a.823.823,0,0,1,.945-.744.843.843,0,0,1,.75.9" transform="translate(840.357 1993.586)" fill="#12263f"/>
    <path id="Path_839088" data-name="Path 839088" d="M27.584,74.52a4.757,4.757,0,0,1,4.737,3.123A4.641,4.641,0,0,1,30.815,82.8a1.752,1.752,0,0,1-.556.321.828.828,0,0,1-.975-.456.846.846,0,0,1,.3-1.075,2.927,2.927,0,0,0,1.228-2.014,2.793,2.793,0,0,0-1.2-2.794,2.826,2.826,0,0,0-3.034-.218c-.117.056-.223.134-.338.195a.854.854,0,1,1-.889-1.457,4.346,4.346,0,0,1,2.238-.777" transform="translate(844.839 1987.374)" fill="#12263f"/>
  </g>
</svg>
