<svg xmlns="http://www.w3.org/2000/svg" width="54" height="54" viewBox="0 0 54 54">
  <g id="Group_1086756" data-name="Group 1086756" transform="translate(-797.36 -2757)">
    <g id="Group_1086712" data-name="Group 1086712" transform="translate(797.572 2757.211)">
      <circle id="Ellipse_5614" data-name="Ellipse 5614" cx="27" cy="27" r="27" transform="translate(-0.212 -0.211)" fill="#0c5e46"/>
    </g>
    <path id="objetivo-circular" d="M30.393,2.21H29.288V1.658a1.658,1.658,0,1,0-3.316,0V2.21h-2.21V1.658a1.658,1.658,0,0,0-3.316,0V2.21h-2.21V1.658a1.658,1.658,0,0,0-3.316,0V2.21H12.71V1.658a1.658,1.658,0,1,0-3.316,0V2.21H7.184V1.658a1.658,1.658,0,1,0-3.316,0V2.21H2.763A2.766,2.766,0,0,0,0,4.973v21a2.766,2.766,0,0,0,2.763,2.763H7.757c.136.181.276.361.421.533L7.121,30.326a1.655,1.655,0,0,0,2.337,2.342l1.229-1.229a10.962,10.962,0,0,0,11.78,0L23.7,32.668a1.654,1.654,0,1,0,2.339-2.34L24.978,29.27c.148-.173.285-.353.422-.534h4.993a2.766,2.766,0,0,0,2.763-2.763v-21A2.766,2.766,0,0,0,30.393,2.21Zm-3.316-.553a.553.553,0,1,1,1.105,0v2.21a.553.553,0,1,1-1.105,0Zm-5.526,0a.553.553,0,1,1,1.105,0v2.21a.553.553,0,1,1-1.105,0Zm-5.526,0a.553.553,0,1,1,1.105,0v2.21a.553.553,0,1,1-1.105,0Zm-5.526,0a.553.553,0,1,1,1.105,0v2.21a.553.553,0,1,1-1.105,0Zm-5.526,0a.553.553,0,0,1,1.105,0v2.21a.553.553,0,0,1-1.105,0ZM2.763,3.316H3.868v.553a1.658,1.658,0,0,0,3.316,0V3.316h2.21v.553a1.658,1.658,0,0,0,3.316,0V3.316h2.21v.553a1.658,1.658,0,0,0,3.316,0V3.316h2.21v.553a1.658,1.658,0,0,0,3.316,0V3.316h2.21v.553a1.658,1.658,0,0,0,3.316,0V3.316h1.105a1.658,1.658,0,0,1,1.658,1.658V6.631H1.105V4.973A1.658,1.658,0,0,1,2.763,3.316ZM8.676,31.885a.553.553,0,0,1-.78,0,.537.537,0,0,1,0-.774l1.038-1.038a11.005,11.005,0,0,0,.833.722ZM6.631,22.1A9.93,9.93,0,0,1,23.2,14.7l-1.172,1.172a8.318,8.318,0,1,0,.781.781l1.172-1.172A9.94,9.94,0,1,1,6.631,22.1Zm11.6,0a1.658,1.658,0,1,1-1.658-1.658,1.638,1.638,0,0,1,.71.166l-.548.548a.553.553,0,1,0,.781.781l.548-.548a1.631,1.631,0,0,1,.166.711ZM18.1,19.8a2.771,2.771,0,1,0,.781.781L20.066,19.4a4.435,4.435,0,1,1-.78-.78Zm1.973-1.973a5.535,5.535,0,1,0,.781.781l1.173-1.173a7.205,7.205,0,1,1-.781-.781ZM25.42,31.5a.541.541,0,0,1-.166.387.553.553,0,0,1-.776,0l-1.093-1.093q.434-.341.832-.718l1.037,1.038a.537.537,0,0,1,.166.387Zm4.973-3.868H26.135A10.974,10.974,0,0,0,24.761,14.7l.334-.334h1.429a.553.553,0,1,0,0-1.105H26.2l.553-.553h1.982a.553.553,0,1,0,0-1.105h-.876l.715-.715a.553.553,0,1,0-.781-.781l-.714.715V9.947a.553.553,0,0,0-1.105,0v1.982l-.553.553v-.324a.553.553,0,1,0-1.105,0v1.429l-.332.334A11.033,11.033,0,0,0,7.021,27.63H2.763a1.658,1.658,0,0,1-1.658-1.658V7.736H32.051V25.972a1.658,1.658,0,0,1-1.658,1.658Z" transform="translate(807.36 2767)" fill="#fff"/>
  </g>
</svg>
