<svg xmlns="http://www.w3.org/2000/svg" width="53.79" height="53.79" viewBox="0 0 53.79 53.79">
  <g id="Group_1086757" data-name="Group 1086757" transform="translate(-1035.36 -2757)">
    <g id="Group_1086713" data-name="Group 1086713" transform="translate(1035.36 2757)">
      <path id="Path_609168" data-name="Path 609168" d="M26.9,0A26.9,26.9,0,1,1,0,26.9,26.9,26.9,0,0,1,26.9,0Z" transform="translate(0 0)" fill="#03386e"/>
    </g>
    <g id="OUTLINE" transform="translate(1030.362 2752)">
      <path id="Path_839869" data-name="Path 839869" d="M47.618,44.988V38.9a6.527,6.527,0,0,0-2.181-4.872V17.636A1.637,1.637,0,0,0,43.8,16H20.9a1.637,1.637,0,0,0-1.636,1.636v8.192l-.062-.218a1.636,1.636,0,1,0-3.146.894L19.269,37.8v9.279A1.637,1.637,0,0,0,20.9,48.71H48.163a.545.545,0,0,0,.545-.545V46.529A1.638,1.638,0,0,0,47.618,44.988ZM46.527,38.9v6H44.892v-6a3.822,3.822,0,0,0-3.271-3.777V33.472A5.46,5.46,0,0,1,46.527,38.9Zm-5.268-.409q-.2.2-.386.409H38.9a.546.546,0,0,1-.545-.545V37.6L41.2,36.174A2.729,2.729,0,0,1,43.8,38.9v6h-4.34a8.777,8.777,0,0,1,2.568-5.635Zm-20.9-20.852a.546.546,0,0,1,.545-.545H43.8a.546.546,0,0,1,.545.545v15.6a6.514,6.514,0,0,0-1.09-.5v-14a.545.545,0,0,0-.545-.545H21.995a.545.545,0,0,0-.545.545V33.5l-1.09-3.837Zm-3.25,8.57a.545.545,0,1,1,1.049-.3l.3,1.049-1.049.3Zm.6,2.1,1.049-.3,4.574,16.1-.3.936L22.28,44.4ZM37.26,47.62H20.9a.546.546,0,0,1-.545-.545V41.633l.916,3.225a.545.545,0,0,0,.171.266l1.5,1.275a.545.545,0,0,0,.354.13H37.26Zm.418-2.181H24.044l.373-1.159a.545.545,0,0,0,.005-.316L22.54,37.34V19.271H42.166V32.446a6.557,6.557,0,0,0-1.09-.091.545.545,0,0,0-.545.545v2.389l-2.97,1.485a.545.545,0,0,0-.3.488v1.09A1.637,1.637,0,0,0,38.9,39.987h1.129a9.844,9.844,0,0,0-1.66,5,1.64,1.64,0,0,0-.687.456Zm9.94,2.181H38.35v-1.09a.546.546,0,0,1,.545-.545h8.178a.546.546,0,0,1,.545.545Z" transform="translate(0)" fill="#fff"/>
      <path id="Path_839870" data-name="Path 839870" d="M281.633,195.275a1.626,1.626,0,0,0,.7-.16l1.09,1.09a.545.545,0,0,0,.385.16h1.636v-1.09h-1.41l-.931-.931a1.635,1.635,0,1,0-1.476.931Zm0-2.181a.545.545,0,1,1-.545.545A.545.545,0,0,1,281.633,193.094Z" transform="translate(-246.009 -164.01)" fill="#fff"/>
      <path id="Path_839871" data-name="Path 839871" d="M313.634,107.275a1.626,1.626,0,0,0,.7-.16l.931.931v4.136h1.09V107.82a.545.545,0,0,0-.16-.385l-1.09-1.09a1.635,1.635,0,1,0-1.476.931Zm0-2.181a.545.545,0,1,1-.545.545A.545.545,0,0,1,313.634,105.094Z" transform="translate(-275.829 -82.007)" fill="#fff"/>
      <path id="Path_839872" data-name="Path 839872" d="M243.275,283.271a1.625,1.625,0,0,0-.16-.7l1.476-1.476h3.045V280h-3.271a.545.545,0,0,0-.385.16l-1.636,1.636a1.635,1.635,0,1,0,.931,1.476Zm-2.181,0a.545.545,0,1,1,.545.545A.545.545,0,0,1,241.094,283.271Z" transform="translate(-208.741 -246.009)" fill="#fff"/>
      <path id="Path_839873" data-name="Path 839873" d="M141.359,314.631a2.729,2.729,0,1,0-1.224,2.273l1.929,1.929.771-.771-1.929-1.929A2.71,2.71,0,0,0,141.359,314.631Zm-2.726,1.636a1.635,1.635,0,1,1,1.635-1.636A1.636,1.636,0,0,1,138.633,316.267Z" transform="translate(-111.732 -275.734)" fill="#fff"/>
      <path id="Path_839874" data-name="Path 839874" d="M136.545,191.087h2.181a.545.545,0,0,0,.545-.545V190h.753l.395.789a.545.545,0,0,0,.488.3h2.325a1.644,1.644,0,0,0,1.619-1.4l.234-1.635a1.636,1.636,0,0,0-1.619-1.867h-.225l.108-.433A1.406,1.406,0,0,0,141.984,184h-.532a.545.545,0,0,0-.488.3l-.94,1.879h-.753a.545.545,0,0,0-.545-.545h-2.181a.545.545,0,0,0-.545.545v4.361a.545.545,0,0,0,.545.545Zm2.726-3.816h1.09a.545.545,0,0,0,.488-.3l.94-1.879h.2a.316.316,0,0,1,.307.393l-.278,1.11a.545.545,0,0,0,.529.677h.924a.545.545,0,0,1,.54.622l-.234,1.635a.548.548,0,0,1-.54.468h-1.988l-.395-.789a.545.545,0,0,0-.488-.3h-1.09Zm-2.181-.545h1.09V190h-1.09Z" transform="translate(-111.824 -156.551)" fill="#fff"/>
      <path id="Path_839875" data-name="Path 839875" d="M136.3,87.03a.545.545,0,0,0,.571-.051l2.035-1.526h4.18a1.637,1.637,0,0,0,1.635-1.635V80.545a.545.545,0,0,0-.545-.545h-6.542A1.637,1.637,0,0,0,136,81.635v4.907a.545.545,0,0,0,.3.488Zm.789-5.394a.546.546,0,0,1,.545-.545h6v2.726a.546.546,0,0,1-.545.545h-4.361a.545.545,0,0,0-.327.109l-1.308.981Z" transform="translate(-111.824 -59.639)" fill="#fff"/>
      <rect id="Rectangle_386382" data-name="Rectangle 386382" width="4.661" height="0.932" transform="translate(26.252 22.946)" fill="#fff"/>
      <path id="Path_839876" data-name="Path 839876" d="M251.413,368.16l-1.09,1.09a1.636,1.636,0,1,0,.771.771l.931-.931h1.41V368H251.8a.545.545,0,0,0-.386.16Zm-1.8,3.111a.545.545,0,1,1,.545-.545A.545.545,0,0,1,249.618,371.271Z" transform="translate(-216.175 -328.013)" fill="#fff"/>
    </g>
  </g>
</svg>
