<svg xmlns="http://www.w3.org/2000/svg" width="53" height="54" viewBox="0 0 53 54">
  <g id="Group_1086758" data-name="Group 1086758" transform="translate(-1274.36 -2757)">
    <g id="Group_1086714" data-name="Group 1086714" transform="translate(1273.998 2757.211)">
      <ellipse id="Ellipse_5614" data-name="Ellipse 5614" cx="26.5" cy="27" rx="26.5" ry="27" transform="translate(0.362 -0.211)" fill="#0c5e46"/>
    </g>
    <g id="el-plan-de-trabajo" transform="translate(1283.36 2725.5)">
      <g id="Group_1086748" data-name="Group 1086748" transform="translate(7.103 55.834)">
        <path id="Path_839877" data-name="Path 839877" d="M106.061,229.756h-4.235a.53.53,0,0,1-.526-.526v-9.3a.53.53,0,0,1,.526-.526h4.235a.53.53,0,0,1,.526.526v9.3A.53.53,0,0,1,106.061,229.756Zm-3.709-1.052h3.183v-8.253h-3.183Z" transform="translate(-101.3 -219.4)" fill="#f6f6f6"/>
        <path id="Path_839878" data-name="Path 839878" d="M166.461,229.756h-4.235a.53.53,0,0,1-.526-.526v-9.3a.53.53,0,0,1,.526-.526h4.235a.53.53,0,0,1,.526.526v9.3A.53.53,0,0,1,166.461,229.756Zm-3.709-1.052h3.183v-8.253h-3.183Z" transform="translate(-157.465 -219.4)" fill="#f6f6f6"/>
        <path id="Path_839879" data-name="Path 839879" d="M226.51,229.756h-3.885a.53.53,0,0,1-.526-.526v-9.3a.53.53,0,0,1,.526-.526h4.235a.53.53,0,0,1,.526.526v8.954A.877.877,0,0,1,226.51,229.756Zm-3.359-1.052h3.183v-8.253h-3.183Z" transform="translate(-213.63 -219.4)" fill="#f6f6f6"/>
      </g>
      <g id="Group_1086749" data-name="Group 1086749" transform="translate(7.103 58.94)">
        <path id="Path_839880" data-name="Path 839880" d="M114.531,267.851H101.826a.53.53,0,0,1-.526-.526v-3.1a.53.53,0,0,1,.526-.526h12.705a.53.53,0,0,1,.526.526v3.1A.53.53,0,0,1,114.531,267.851Zm-12.18-1.052h11.654v-2.047H102.352Z" transform="translate(-101.3 -263.7)" fill="#f6f6f6"/>
        <path id="Path_839881" data-name="Path 839881" d="M114.531,308.952H101.826a.526.526,0,0,1,0-1.052h12.705a.526.526,0,0,1,0,1.052Z" transform="translate(-101.3 -304.801)" fill="#f6f6f6"/>
      </g>
      <path id="Path_839882" data-name="Path 839882" d="M17.943,46.908H1.7a1.7,1.7,0,1,1,0-3.408H17.95a1.459,1.459,0,0,1,.547.105l2.314.94h0a.713.713,0,0,1,0,1.318L18.5,46.8a1.459,1.459,0,0,1-.547.105ZM1.7,44.559a.652.652,0,0,0,0,1.3H17.95a.4.4,0,0,0,.154-.028l1.536-.624L18.1,44.587a.377.377,0,0,0-.154-.028Z" transform="translate(0 0)" fill="#f6f6f6"/>
      <rect id="Rectangle_386383" data-name="Rectangle 386383" width="1.052" height="2.356" transform="translate(16.856 44.033)" fill="#f6f6f6"/>
      <path id="Path_839883" data-name="Path 839883" d="M360.767,137.634a4.067,4.067,0,1,1,4.067-4.067A4.07,4.07,0,0,1,360.767,137.634Zm0-7.075a3.015,3.015,0,1,0,3.015,3.015A3.019,3.019,0,0,0,360.767,130.559Z" transform="translate(-331.689 -79.97)" fill="#f6f6f6"/>
      <path id="Path_839884" data-name="Path 839884" d="M411.316,142.741h-3.541a.509.509,0,0,1-.442-.245.518.518,0,0,1-.028-.5l1.529-3.19.947.456-1.171,2.44h2.7v1.052Z" transform="translate(-378.697 -88.618)" fill="#f6f6f6"/>
      <path id="Path_839885" data-name="Path 839885" d="M320.941,308.517h-2.665a.877.877,0,0,1-.876-.876v-2.664a.877.877,0,0,1,.876-.876h2.665a.877.877,0,0,1,.876.876v2.664A.877.877,0,0,1,320.941,308.517Zm-2.489-1.052h2.314v-2.314h-2.314Z" transform="translate(-295.144 -242.327)" fill="#f6f6f6"/>
      <path id="Path_839886" data-name="Path 839886" d="M83.194,183.078H68.126a.53.53,0,0,1-.526-.526v-2.475a.877.877,0,0,1,.876-.876H82.851a.877.877,0,0,1,.876.876v2.475a.53.53,0,0,1-.526.526Zm-14.543-1.052H82.675v-1.774H68.652Z" transform="translate(-62.86 -126.185)" fill="#f6f6f6"/>
      <path id="Path_839887" data-name="Path 839887" d="M70.489,229.756H68.476a.877.877,0,0,1-.876-.876v-8.954a.53.53,0,0,1,.526-.526h2.363a.53.53,0,0,1,.526.526v9.3A.53.53,0,0,1,70.489,229.756ZM68.652,228.7h1.311v-8.253H68.652V228.7Z" transform="translate(-62.86 -163.566)" fill="#f6f6f6"/>
      <rect id="Rectangle_386384" data-name="Rectangle 386384" width="25.677" height="1.052" transform="translate(2.756 67.719)" fill="#f6f6f6"/>
      <path id="Path_839888" data-name="Path 839888" d="M328.961,60.511h-9.669a2,2,0,0,1-1.991-1.991V45.491a2,2,0,0,1,1.991-1.991h1.522a.526.526,0,0,1,0,1.052h-1.522a.94.94,0,0,0-.94.94V58.519a.94.94,0,0,0,.94.94h9.669a.94.94,0,0,0,.94-.94V45.491a.94.94,0,0,0-.94-.94h-5.687a.526.526,0,0,1,0-1.052h5.687a2,2,0,0,1,1.991,1.991V58.519A1.994,1.994,0,0,1,328.961,60.511Z" transform="translate(-295.051)" fill="#f6f6f6"/>
      <path id="Path_839889" data-name="Path 839889" d="M28.917,136.618H2.279A2.283,2.283,0,0,1,0,134.339V113.879A2.283,2.283,0,0,1,2.279,111.6h20.5a.526.526,0,1,1,0,1.052H2.279a1.233,1.233,0,0,0-1.227,1.227v20.461a1.233,1.233,0,0,0,1.227,1.227H28.917a1.233,1.233,0,0,0,1.227-1.227v-2.615a.526.526,0,1,1,1.052,0v2.615A2.283,2.283,0,0,1,28.917,136.618Z" transform="translate(0 -63.325)" fill="#f6f6f6"/>
      <path id="Path_839890" data-name="Path 839890" d="M430.426,278.112a.53.53,0,0,1-.526-.526v-5.96a.526.526,0,0,1,1.052,0v5.96A.53.53,0,0,1,430.426,278.112Z" transform="translate(-399.756 -211.641)" fill="#f6f6f6"/>
      <path id="Path_839891" data-name="Path 839891" d="M32.326,147.188a.53.53,0,0,1-.526-.526v-2.286a.877.877,0,0,1,.876-.876H52.345a.526.526,0,0,1,0,1.052H32.852v2.111A.53.53,0,0,1,32.326,147.188Z" transform="translate(-29.57 -92.988)" fill="#f6f6f6"/>
      <path id="Path_839892" data-name="Path 839892" d="M57.66,231.561H32.676a.877.877,0,0,1-.876-.876V216.626a.526.526,0,0,1,1.052,0v13.883H57.477V220.482a.526.526,0,1,1,1.052,0v10.2a.877.877,0,0,1-.876.876Z" transform="translate(-29.57 -160.498)" fill="#f6f6f6"/>
      <rect id="Rectangle_386385" data-name="Rectangle 386385" width="12.593" height="1.052" transform="translate(22.781 46.866)" fill="#f6f6f6"/>
    </g>
  </g>
</svg>
