<svg xmlns="http://www.w3.org/2000/svg" width="141" height="141" viewBox="0 0 141 141">
  <g id="Group_1086823" data-name="Group 1086823" transform="translate(-317.36 -14143)">
    <g id="Group_1074906" data-name="Group 1074906" transform="translate(0.36 12100.174)">
      <g id="Group_1074450" data-name="Group 1074450" transform="translate(48 1084.826)">
        <circle id="Ellipse_5614" data-name="Ellipse 5614" cx="70.5" cy="70.5" r="70.5" transform="translate(269 958)" fill="#fff"/>
      </g>
      <g id="marketing_2_" data-name="marketing (2)" transform="translate(345 2068.826)">
        <g id="Group_1086796" data-name="Group 1086796" transform="translate(2.435 2.435)">
          <g id="Group_1086778" data-name="Group 1086778" transform="translate(0 2.869)">
            <path id="Path_839918" data-name="Path 839918" d="M59.382,74.915v5.673a5.7,5.7,0,0,1-5.738,5.673H7.738A5.7,5.7,0,0,1,2,80.589V9.673A5.7,5.7,0,0,1,7.738,4H19.215V9.673H9.173a1.431,1.431,0,0,0-1.435,1.418V79.17a1.431,1.431,0,0,0,1.435,1.418H52.209a1.431,1.431,0,0,0,1.435-1.418V74.915Z" transform="translate(-2 -4)" fill="#ffeaa7"/>
          </g>
          <g id="Group_1086779" data-name="Group 1086779" transform="translate(51.038 26.973)">
            <path id="Path_839919" data-name="Path 839919" d="M43.738,21.174v35.62H38V22.365a14.175,14.175,0,0,0,5.738-1.205Z" transform="translate(-38 -21.16)" fill="#ffeaa7"/>
          </g>
          <g id="Group_1086780" data-name="Group 1086780" transform="translate(5.738 8.607)">
            <path id="Path_839920" data-name="Path 839920" d="M43.212,24.918A14.052,14.052,0,0,1,37.56,13.663a14.292,14.292,0,0,1,.287-2.846,1.948,1.948,0,0,1-.287.014H20.346A2.859,2.859,0,0,1,17.476,8H7.435A1.429,1.429,0,0,0,6,9.416V77.37a1.429,1.429,0,0,0,1.435,1.416H50.471a1.429,1.429,0,0,0,1.435-1.416V27.82A14.337,14.337,0,0,1,43.212,24.918Z" transform="translate(-6 -8)" fill="#f0d0b4"/>
          </g>
          <g id="Group_1086781" data-name="Group 1086781" transform="translate(31.161 62.178)">
            <path id="Path_839921" data-name="Path 839921" d="M35.476,51.738v5.738l-10.128-3.8a2.065,2.065,0,0,1,0-3.873L35.476,46Z" transform="translate(-24 -46)" fill="#aab2bd"/>
          </g>
          <g id="Group_1086782" data-name="Group 1086782" transform="translate(73.654 62.178)">
            <path id="Path_839922" data-name="Path 839922" d="M63.8,47.678a5.741,5.741,0,0,1-4.06,9.8H54V46h5.738A5.774,5.774,0,0,1,63.8,47.678Z" transform="translate(-54 -46)" fill="#aab2bd"/>
          </g>
          <g id="Group_1086783" data-name="Group 1086783" transform="translate(42.094 67.916)">
            <path id="Path_839923" data-name="Path 839923" d="M63.56,50v5.738H32V50Z" transform="translate(-32 -50)" fill="#4fc1e9"/>
          </g>
          <g id="Group_1086784" data-name="Group 1086784" transform="translate(42.094 62.38)">
            <path id="Path_839924" data-name="Path 839924" d="M63.56,46v5.738H32V46H63.56Z" transform="translate(-32 -46)" fill="#b4dd7f"/>
          </g>
          <g id="Group_1086785" data-name="Group 1086785" transform="translate(11.476 26.759)">
            <path id="Path_839925" data-name="Path 839925" d="M37.658,24.515a17.246,17.246,0,1,0,6.771,13.7A17.151,17.151,0,0,0,37.658,24.515Z" transform="translate(-10 -21)" fill="#e6e9ed"/>
          </g>
          <g id="Group_1086786" data-name="Group 1086786" transform="translate(31.19 38.224)">
            <path id="Path_839926" data-name="Path 839926" d="M24,29h5.738V43.346H24Z" transform="translate(-24 -29)" fill="#fcd770"/>
          </g>
          <g id="Group_1086787" data-name="Group 1086787" transform="translate(25.519 35.373)">
            <path id="Path_839927" data-name="Path 839927" d="M25.738,29.869V44.215H20V27h5.738Z" transform="translate(-20 -27)" fill="#fcd770"/>
          </g>
          <g id="Group_1086788" data-name="Group 1086788" transform="translate(19.848 43.93)">
            <path id="Path_839928" data-name="Path 839928" d="M16,33h5.738v8.607H16Z" transform="translate(-16 -33)" fill="#fcd770"/>
          </g>
          <g id="Group_1086789" data-name="Group 1086789" transform="translate(16.958 0)">
            <path id="Path_839929" data-name="Path 839929" d="M36.953,4.869V7.738a14.244,14.244,0,0,0-2.582,5.724,1.923,1.923,0,0,1-.287.014H16.869A2.878,2.878,0,0,1,14,10.607V4.869A2.878,2.878,0,0,1,16.869,2H34.084A2.878,2.878,0,0,1,36.953,4.869Z" transform="translate(-14 -2)" fill="#b4dd7f"/>
          </g>
          <g id="Group_1086790" data-name="Group 1086790" transform="translate(72.22 14.177)">
            <path id="Path_839930" data-name="Path 839930" d="M61.607,12l2.869,5.738H55.869L53,12h8.607Z" transform="translate(-53 -12)" fill="#cf9e76"/>
          </g>
          <g id="Group_1086791" data-name="Group 1086791" transform="translate(72.22 8.607)">
            <path id="Path_839931" data-name="Path 839931" d="M64.476,8l-2.869,5.738H53L55.869,8Z" transform="translate(-53 -8)" fill="#cf9e76"/>
          </g>
          <g id="Group_1086792" data-name="Group 1086792" transform="translate(36.686 0)">
            <path id="Path_839932" data-name="Path 839932" d="M56.691,16.346a14.273,14.273,0,0,1-8.607,13.141A14.345,14.345,0,0,1,28,16.346a14.669,14.669,0,0,1,.287-2.883,14.349,14.349,0,0,1,28.4,2.883Z" transform="translate(-28 -2)" fill="#e6e9ed"/>
          </g>
          <g id="Group_1086793" data-name="Group 1086793" transform="translate(45.682 8.812)">
            <circle id="Ellipse_6032" data-name="Ellipse 6032" cx="5.5" cy="5.5" r="5.5" fill="#ff826e"/>
          </g>
          <g id="Group_1086794" data-name="Group 1086794" transform="translate(62.178 31.089)">
            <path id="Path_839933" data-name="Path 839933" d="M57.476,24A11.463,11.463,0,1,1,50.3,26.51,11.473,11.473,0,0,1,57.476,24Z" transform="translate(-46 -24)" fill="#e6e9ed"/>
          </g>
          <g id="Group_1086795" data-name="Group 1086795" transform="translate(67.916 36.827)">
            <path id="Path_839934" data-name="Path 839934" d="M60.2,31.658a2.333,2.333,0,0,1,0,4.16l-6.843,3.414A2.321,2.321,0,0,1,50,37.152V30.324a2.321,2.321,0,0,1,3.357-2.08Z" transform="translate(-50 -28)" fill="#ff826e"/>
          </g>
        </g>
        <g id="Group_1086797" data-name="Group 1086797" transform="translate(1 1)">
          <path id="Path_839935" data-name="Path 839935" d="M81.9,63.452H60.613V30.5a15.567,15.567,0,0,0,1.5-.87l5.077,6.346a12.957,12.957,0,1,0,2.224-1.766l-5.088-6.36a15.564,15.564,0,0,0,4.732-9.821h4.871l2.839,5.677h11.69l-3.548-7.1,3.548-7.1H76.768l-2.839,5.677H69.058A15.594,15.594,0,0,0,43.518,4.636,4.253,4.253,0,0,0,39.323,1H22.29a4.252,4.252,0,0,0-4,2.839H8.1a7.1,7.1,0,0,0-7.1,7.1V81.9A7.1,7.1,0,0,0,8.1,89H53.516a7.1,7.1,0,0,0,7.1-7.1V77.645H81.9a7.1,7.1,0,1,0,0-14.194ZM86.161,45a9.935,9.935,0,1,1-9.935-9.935A9.948,9.948,0,0,1,86.161,45ZM78.522,20.871,77.1,18.032h5.342l1.419,2.839Zm0-8.516h5.342l-1.419,2.839H77.1Zm-60.229,0a4.252,4.252,0,0,0,4,2.839H37.976c-.043.468-.072.94-.072,1.419A15.558,15.558,0,0,0,42.98,28.1l-2.165,2.84a18.619,18.619,0,1,0,2.251,1.727l2.167-2.844A15.482,15.482,0,0,0,52.1,32.153v31.3H44.742L34.475,67.3a3.468,3.468,0,0,0,0,6.494l10.266,3.849H52.1v2.839H9.516V12.355ZM37.9,53.516H35.065V42.161H37.9Zm-5.677,0H29.387V39.323h2.839Zm-5.677,0H23.71V47.839h2.839Zm16.293,2.839a15.594,15.594,0,0,1-24.069,0ZM44.7,53.516H40.742V39.323H35.065V36.484H26.548V45H20.871v8.516H16.917a15.613,15.613,0,1,1,27.78,0ZM35.473,71.139a.63.63,0,0,1,0-1.179l8.107-3.04v7.259Zm10.946,3.668V71.968H74.806v2.839Zm28.387-5.677H46.419V66.29H74.806ZM57.774,63.452H54.935v-31.3a15.36,15.36,0,0,0,2.839-.534ZM53.516,3.839a12.788,12.788,0,0,1,12.69,11.355H60.47a7.1,7.1,0,1,0,0,2.839h5.737A12.772,12.772,0,1,1,53.516,3.839Zm4,14.194a4.258,4.258,0,1,1,0-2.839H52.1v2.839ZM20.871,5.258A1.421,1.421,0,0,1,22.29,3.839H39.323a1.421,1.421,0,0,1,1.419,1.419V7.664a15.524,15.524,0,0,0-2.231,4.684l-16.22.007a1.421,1.421,0,0,1-1.419-1.419ZM57.774,81.9a4.263,4.263,0,0,1-4.258,4.258H8.1A4.263,4.263,0,0,1,3.839,81.9V10.935A4.263,4.263,0,0,1,8.1,6.677h9.935V9.516H9.516a2.842,2.842,0,0,0-2.839,2.839V80.484a2.842,2.842,0,0,0,2.839,2.839H52.1a2.842,2.842,0,0,0,2.839-2.839V77.645h2.839Zm24.129-7.1H77.645V66.29H81.9a4.258,4.258,0,0,1,0,8.516Z" transform="translate(-1 -1)"/>
          <path id="Path_839936" data-name="Path 839936" d="M49,37.59a3.757,3.757,0,0,0,5.436,3.36l6.836-3.417a3.757,3.757,0,0,0,0-6.719L54.436,27.4A3.757,3.757,0,0,0,49,30.756Zm2.869-6.834a.887.887,0,0,1,.887-.887.878.878,0,0,1,.4.093l6.834,3.417a.887.887,0,0,1,0,1.587l-6.834,3.417a.912.912,0,0,1-1.282-.793Z" transform="translate(18.916 9.827)"/>
          <path id="Path_839937" data-name="Path 839937" d="M9,49H26.215v2.869H9Z" transform="translate(2.476 19.105)"/>
          <path id="Path_839938" data-name="Path 839938" d="M9,53H26.215v2.869H9Z" transform="translate(2.476 20.654)"/>
          <path id="Path_839939" data-name="Path 839939" d="M9,13h2.869v2.869H9Z" transform="translate(2.476 4.026)"/>
          <path id="Path_839940" data-name="Path 839940" d="M13,13H30.215v2.869H13Z" transform="translate(3.988 4.026)"/>
          <path id="Path_839941" data-name="Path 839941" d="M9,17h2.869v2.869H9Z" transform="translate(2.476 5.702)"/>
          <path id="Path_839942" data-name="Path 839942" d="M13,17H30.215v2.869H13Z" transform="translate(3.988 5.702)"/>
        </g>
      </g>
    </g>
  </g>
</svg>
