<svg xmlns="http://www.w3.org/2000/svg" width="141" height="141" viewBox="0 0 141 141">
  <g id="Group_1086825" data-name="Group 1086825" transform="translate(-1143.36 -14143)">
    <g id="Group_1074904" data-name="Group 1074904" transform="translate(0.36 12099.737)">
      <g id="Group_1074447" data-name="Group 1074447" transform="translate(874 1085.263)">
        <circle id="Ellipse_5614" data-name="Ellipse 5614" cx="70.5" cy="70.5" r="70.5" transform="translate(269 958)" fill="#fff"/>
      </g>
    </g>
    <g id="marketing_3_" data-name="marketing (3)" transform="translate(1170.36 14170)">
      <g id="Group_1086817" data-name="Group 1086817" transform="translate(1.397 1.397)">
        <g id="Group_1086799" data-name="Group 1086799" transform="translate(79.434)">
          <path id="Path_839962" data-name="Path 839962" d="M62.587,2.4V19.157a1.4,1.4,0,0,1-1.4,1.4H57V2.4A1.4,1.4,0,0,1,58.4,1H61.19A1.4,1.4,0,0,1,62.587,2.4Z" transform="translate(-57 -1)" fill="#ff826e"/>
        </g>
        <g id="Group_1086800" data-name="Group 1086800" transform="translate(69.657 5.587)">
          <path id="Path_839963" data-name="Path 839963" d="M55.587,6.4v12.57H50V6.4A1.4,1.4,0,0,1,51.4,5H54.19A1.4,1.4,0,0,1,55.587,6.4Z" transform="translate(-50 -5)" fill="#ff826e"/>
        </g>
        <g id="Group_1086801" data-name="Group 1086801" transform="translate(59.575 11.174)">
          <path id="Path_839964" data-name="Path 839964" d="M48.587,10.4V17.38H44.4a1.4,1.4,0,0,1-1.4-1.4V10.4A1.4,1.4,0,0,1,44.4,9H47.19A1.4,1.4,0,0,1,48.587,10.4Z" transform="translate(-43 -9)" fill="#ff826e"/>
        </g>
        <g id="Group_1086802" data-name="Group 1086802" transform="translate(0 8.38)">
          <path id="Path_839965" data-name="Path 839965" d="M21.113,11.47a11.174,11.174,0,0,1-8.939,17.878,10.775,10.775,0,0,1-3.631-.615A11.17,11.17,0,1,1,21.113,11.47Z" transform="translate(-1 -7)" fill="#e6e9ed"/>
        </g>
        <g id="Group_1086803" data-name="Group 1086803" transform="translate(6.984 14.201)">
          <path id="Path_839966" data-name="Path 839966" d="M14.576,14.478a2.452,2.452,0,0,1,0,4.218L9.31,21.866a2.239,2.239,0,0,1-1.117.307A2.188,2.188,0,0,1,6,19.981V13.193A2.188,2.188,0,0,1,8.193,11a2.239,2.239,0,0,1,1.117.307Z" transform="translate(-6 -11)" fill="#ff826e"/>
        </g>
        <g id="Group_1086804" data-name="Group 1086804" transform="translate(39.717 17.021)">
          <path id="Path_839967" data-name="Path 839967" d="M34.587,15.793a2.814,2.814,0,0,1-2.793,2.793A2.8,2.8,0,0,1,29,15.793V13h5.587Z" transform="translate(-29 -13)" fill="#aab2bd"/>
        </g>
        <g id="Group_1086805" data-name="Group 1086805" transform="translate(34.13 0)">
          <path id="Path_839968" data-name="Path 839968" d="M33.38,17.761H30.587l-3.995-5A7.208,7.208,0,0,1,25,8.235a5.4,5.4,0,0,1,.042-.67A7.207,7.207,0,0,1,32.235,1h2.291a7.226,7.226,0,0,1,7.193,6.551,5.459,5.459,0,0,1,.042.684,7.208,7.208,0,0,1-1.592,4.525l-3.995,5Z" transform="translate(-25 -1)" fill="#ffeaa7"/>
        </g>
        <g id="Group_1086806" data-name="Group 1086806" transform="translate(39.717 5.587)">
          <circle id="Ellipse_6035" data-name="Ellipse 6035" cx="2.793" cy="2.793" r="2.793" fill="#fcd770"/>
        </g>
        <g id="Group_1086807" data-name="Group 1086807" transform="translate(56.739 36.9)">
          <path id="Path_839969" data-name="Path 839969" d="M43.877,27.712a3.587,3.587,0,0,1,0,6.956L41,35.38V27Z" transform="translate(-41 -27)" fill="#fcd770"/>
        </g>
        <g id="Group_1086808" data-name="Group 1086808" transform="translate(34.043 48.283)">
          <path id="Path_839970" data-name="Path 839970" d="M30.587,35v9.777a1.4,1.4,0,0,1-1.4,1.4H26.4a1.4,1.4,0,0,1-1.4-1.4V35Z" transform="translate(-25 -35)" fill="#969faa"/>
        </g>
        <g id="Group_1086809" data-name="Group 1086809" transform="translate(34.13 31.309)">
          <path id="Path_839971" data-name="Path 839971" d="M41.761,23V42.554a9.547,9.547,0,0,0-6.746-2.793H25V25.793H35.014A9.547,9.547,0,0,0,41.761,23Z" transform="translate(-25 -23)" fill="#e6e9ed"/>
        </g>
        <g id="Group_1086810" data-name="Group 1086810" transform="translate(51.065 28.513)">
          <path id="Path_839972" data-name="Path 839972" d="M42.587,37.761v6.984a1.4,1.4,0,0,1-1.4,1.4H38.4a1.4,1.4,0,0,1-1.4-1.4V22.4A1.4,1.4,0,0,1,38.4,21H41.19a1.4,1.4,0,0,1,1.4,1.4V37.761Z" transform="translate(-37 -21)" fill="#ff826e"/>
        </g>
        <g id="Group_1086811" data-name="Group 1086811" transform="translate(25.547 34.104)">
          <path id="Path_839973" data-name="Path 839973" d="M27.38,25V38.967h-1.4a6.984,6.984,0,0,1,0-13.967Z" transform="translate(-19 -25)" fill="#ff826e"/>
        </g>
        <g id="Group_1086812" data-name="Group 1086812" transform="translate(71.054 39.762)">
          <path id="Path_839974" data-name="Path 839974" d="M64.269,34.545l.7,5.629H51l.7-5.629a6.334,6.334,0,0,1,12.57,0Z" transform="translate(-51 -29)" fill="#b4dd7f"/>
        </g>
        <g id="Group_1086813" data-name="Group 1086813" transform="translate(72.45 28.402)">
          <path id="Path_839975" data-name="Path 839975" d="M57.587,21a5.623,5.623,0,1,1-1.327.168A5.156,5.156,0,0,1,57.587,21Z" transform="translate(-52 -21)" fill="#f0d0b4"/>
        </g>
        <g id="Group_1086814" data-name="Group 1086814" transform="translate(57.086 59.877)">
          <path id="Path_839976" data-name="Path 839976" d="M58.249,44.8A11.167,11.167,0,1,1,52.174,43,11.138,11.138,0,0,1,58.249,44.8Z" transform="translate(-41 -43)" fill="#fcd770"/>
        </g>
        <g id="Group_1086815" data-name="Group 1086815" transform="translate(19.941 68.258)">
          <path id="Path_839977" data-name="Path 839977" d="M37.348,50.4v8.38a1.373,1.373,0,0,1-1.173,1.369.579.579,0,0,1-.223.028H28.967l-1.062,4.232a1.784,1.784,0,0,1-3.464,0L23.38,60.174H16.4a1.4,1.4,0,0,1-1.4-1.4V50.4A1.4,1.4,0,0,1,16.4,49H35.951A1.4,1.4,0,0,1,37.348,50.4Z" transform="translate(-15 -49)" fill="#e6e9ed"/>
        </g>
        <g id="Group_1086816" data-name="Group 1086816" transform="translate(0 39.881)">
          <path id="Path_839978" data-name="Path 839978" d="M12.174,29A11.174,11.174,0,0,1,12.3,51.348h-.126A11.165,11.165,0,0,1,6.615,30.494v-.014A11.162,11.162,0,0,1,12.174,29Z" transform="translate(-1 -29)" fill="#69d6f4"/>
        </g>
      </g>
      <g id="Group_1086818" data-name="Group 1086818" transform="translate(0)">
        <path id="Path_839979" data-name="Path 839979" d="M17.57,16.984a3.884,3.884,0,0,0-1.876-3.313l-5.267-3.159A3.583,3.583,0,0,0,5,13.584v6.8a3.583,3.583,0,0,0,5.428,3.074L15.695,20.3a3.884,3.884,0,0,0,1.876-3.313Zm-3.313.918L8.99,21.061a.814.814,0,0,1-1.2-.677v-6.8a.79.79,0,0,1,1.2-.679l5.267,3.159a1.07,1.07,0,0,1,0,1.835Z" transform="translate(1.984 4.201)"/>
        <path id="Path_839980" data-name="Path 839980" d="M77.4,62.321a37.968,37.968,0,0,0,3.425-8.5H88l-.914-7.3a7.813,7.813,0,0,0-3.457-5.536,7.055,7.055,0,0,0-4.316-12.656c-.163,0-.316.037-.476.048A38.325,38.325,0,0,0,75.7,22.661h9.278a2.835,2.835,0,0,0,2.833-2.833v-17A2.835,2.835,0,0,0,84.979,0H82.146a2.835,2.835,0,0,0-2.833,2.833v17H77.9V8.5a2.835,2.835,0,0,0-2.833-2.833H72.232A2.835,2.835,0,0,0,69.4,8.5V19.828H67.983V14.163a2.835,2.835,0,0,0-2.833-2.833H63.918A37.99,37.99,0,0,0,53.629,6.94,8.772,8.772,0,0,0,45.063,0H42.747a8.768,8.768,0,0,0-8.56,6.924,37.805,37.805,0,0,0-12.151,5.62,12.733,12.733,0,1,0-14.7,20.226,38.063,38.063,0,0,0-1.593,8.992,12.728,12.728,0,0,0,6.366,23.355,38.286,38.286,0,0,0,7.716,8.468v5.728a2.835,2.835,0,0,0,2.833,2.833h5.977l.8,3.219a3.229,3.229,0,0,0,6.266,0l.8-3.218h5.977c.069,0,.133-.016.2-.02.405.013.807.02,1.215.02a37.923,37.923,0,0,0,14.809-2.987A12.737,12.737,0,1,0,77.4,62.321ZM82.146,2.833h2.833v17H82.146Zm2.13,44.038.514,4.117H73.837l.514-4.117a5,5,0,0,1,9.926,0Zm-.714-11.462a4.249,4.249,0,1,1-4.249-4.249A4.254,4.254,0,0,1,83.563,35.408ZM72.232,8.5h2.833V19.828H72.232Zm-9.914,5.665h2.833v5.665H62.318ZM42.749,2.833h2.316a5.923,5.923,0,0,1,4.624,9.624L46.057,17h-.735V13.9a4.249,4.249,0,1,0-2.833,0V17h-.735l-3.631-4.541a5.922,5.922,0,0,1,4.626-9.622Zm-.259,17h2.833v1.416a1.416,1.416,0,0,1-2.833,0Zm0-9.914a1.416,1.416,0,1,1,1.416,1.416A1.418,1.418,0,0,1,42.489,9.914ZM2.833,21.245a9.914,9.914,0,1,1,9.914,9.914A9.926,9.926,0,0,1,2.833,21.245Zm0,31.159a9.852,9.852,0,0,1,.418-2.833H5.936a14.966,14.966,0,0,0,0,5.665H3.25A9.852,9.852,0,0,1,2.833,52.4Zm5.665,0a12.324,12.324,0,0,1,.341-2.833h7.817A12.4,12.4,0,0,1,17,52.4a12.325,12.325,0,0,1-.341,2.833H8.839A12.325,12.325,0,0,1,8.5,52.4Zm4.249-9.328.659.659a12.31,12.31,0,0,1,2.2,3.005H9.884a12.309,12.309,0,0,1,2.2-3.005Zm2.862,14.993a12.275,12.275,0,0,1-2.2,3l-.659.659-.659-.659a12.275,12.275,0,0,1-2.2-3Zm3.119,0h2.143a9.959,9.959,0,0,1-4.065,3.369,14.91,14.91,0,0,0,1.922-3.369ZM22.661,52.4a9.852,9.852,0,0,1-.418,2.833H19.558a14.966,14.966,0,0,0,0-5.665h2.685A9.852,9.852,0,0,1,22.661,52.4Zm-3.933-5.665a14.958,14.958,0,0,0-1.921-3.369,9.966,9.966,0,0,1,4.063,3.369Zm-11.962,0H4.623a9.964,9.964,0,0,1,4.063-3.369A14.958,14.958,0,0,0,6.766,46.738ZM4.623,58.069H6.766a14.91,14.91,0,0,0,1.922,3.369A9.959,9.959,0,0,1,4.623,58.069ZM42.489,79.314H34.3l-1.341,5.364a.414.414,0,0,1-.772,0l-1.343-5.365H22.661v-8.5H42.489Zm2.833-.042V70.816a2.835,2.835,0,0,0-2.833-2.833H22.661a2.827,2.827,0,0,0-2.694,2A35.4,35.4,0,0,1,15.4,64.87,12.743,12.743,0,1,0,8.686,40.331a35.218,35.218,0,0,1,1.333-6.641A12.721,12.721,0,0,0,23.733,14.813,35,35,0,0,1,34.088,9.879a8.774,8.774,0,0,0,1.823,4.347l3.746,4.684v2.336a4.249,4.249,0,0,0,8.5,0V18.909L51.9,14.227a8.767,8.767,0,0,0,1.82-4.32,34.939,34.939,0,0,1,6.383,2.511,2.793,2.793,0,0,0-.62,1.745v5.665a2.835,2.835,0,0,0,2.833,2.833h9.9a35.428,35.428,0,0,1,3.864,6.484A7.012,7.012,0,0,0,75,40.983a7.808,7.808,0,0,0-3.457,5.536l-.914,7.3h7.256A35.2,35.2,0,0,1,75,60.8,12.712,12.712,0,0,0,57.447,76.618a35.376,35.376,0,0,1-12.125,2.653Zm14.163-7.039a9.922,9.922,0,0,1,8.5-9.8v2.719H65.151V69.4A4.254,4.254,0,0,0,69.4,73.648a1.417,1.417,0,0,1,1.416,1.416v1.416H69.4a1.417,1.417,0,0,1-1.416-1.416V73.648H65.151v1.416a4.243,4.243,0,0,0,2.833,3.988v2.98A9.922,9.922,0,0,1,59.485,72.232Zm11.331,9.8V79.314h2.833V75.065A4.254,4.254,0,0,0,69.4,70.816,1.417,1.417,0,0,1,67.983,69.4V67.983H69.4A1.417,1.417,0,0,1,70.816,69.4v1.416h2.833V69.4a4.243,4.243,0,0,0-2.833-3.988v-2.98a9.9,9.9,0,0,1,0,19.6Z" transform="translate(0)"/>
        <path id="Path_839981" data-name="Path 839981" d="M51.521,45.141V39.247l1.819-.454a4.974,4.974,0,0,0,0-9.651l-1.819-.455V22.793A2.8,2.8,0,0,0,48.728,20H45.934a2.8,2.8,0,0,0-2.793,2.793v.781a8.081,8.081,0,0,1-5.347,2.013H26.38a8.38,8.38,0,0,0,0,16.761v8.38a2.8,2.8,0,0,0,2.793,2.793h2.793a2.8,2.8,0,0,0,2.793-2.793v-8.38h3.034a8.2,8.2,0,0,1,5.347,2.014v.779a2.8,2.8,0,0,0,2.793,2.793h2.793A2.8,2.8,0,0,0,51.521,45.141ZM20.793,33.967A5.593,5.593,0,0,1,26.38,28.38V39.554A5.593,5.593,0,0,1,20.793,33.967ZM31.967,50.728H29.174v-8.38h2.793Zm5.827-11.174H29.174V28.38h8.621a10.861,10.861,0,0,0,5.347-1.4V40.966A11,11,0,0,0,37.794,39.554Zm14.868-7.7a2.181,2.181,0,0,1,0,4.232l-1.141.286v-4.8Zm-6.728-9.058h2.793l0,22.348h-2.8Z" transform="translate(7.783 8.574)"/>
        <path id="Path_839982" data-name="Path 839982" d="M28,29h2.793v2.793H28Z" transform="translate(11.675 12.092)"/>
        <path id="Path_839983" data-name="Path 839983" d="M32,29h2.793v2.793H32Z" transform="translate(13.343 12.092)"/>
        <path id="Path_839984" data-name="Path 839984" d="M18,52h2.793v2.793H18Z" transform="translate(7.505 21.844)"/>
        <path id="Path_839985" data-name="Path 839985" d="M22,52h2.793v2.793H22Z" transform="translate(9.173 21.844)"/>
        <path id="Path_839986" data-name="Path 839986" d="M26,52h2.793v2.793H26Z" transform="translate(10.841 21.844)"/>
      </g>
    </g>
  </g>
</svg>
