<svg xmlns="http://www.w3.org/2000/svg" width="85" height="85" viewBox="0 0 85 85">
  <g id="Group_1086824" data-name="Group 1086824" transform="translate(-285.36 -14940)">
    <circle id="Ellipse_6030" data-name="Ellipse 6030" cx="42.5" cy="42.5" r="42.5" transform="translate(285.36 14940)" fill="#0c5e46"/>
    <g id="ventas" transform="translate(301.862 14954)">
      <path id="Path_839913" data-name="Path 839913" d="M53.756,79.567c-2.632-2.62-5.675-.168-5.675-.168V65.6a.839.839,0,1,0-1.678,0V80.579A45.734,45.734,0,0,1,40.682,84.5V59.666a2.1,2.1,0,0,1,2.094-2.094h1.533A2.1,2.1,0,0,1,46.4,59.666v2.5a.839.839,0,1,0,1.678,0v-2.5a3.776,3.776,0,0,0-3.772-3.772H42.775A3.776,3.776,0,0,0,39,59.666v25.5a8.818,8.818,0,0,1-1.536.286V67.765a3.8,3.8,0,0,0-3.79-3.791h-1.5a3.8,3.8,0,0,0-3.79,3.791v8.549l-1.536.816V74.285a3.417,3.417,0,0,0-3.412-3.413H21.191a3.416,3.416,0,0,0-3.412,3.413v7.663L15.038,83.4,7.345,85.6A5.3,5.3,0,0,0,3.67,92.034l.861,3.311a.839.839,0,1,0,1.624-.423l-.861-3.311a3.6,3.6,0,0,1,2.513-4.4L14.84,85.2l5.287,14.11a3.758,3.758,0,0,1-2.5,4.634l-5.316,1.208a3.479,3.479,0,0,1-4.156-2.529L7.078,98.474a.839.839,0,1,0-1.624.422l1.079,4.153a5.147,5.147,0,0,0,4.986,3.874A41.134,41.134,0,0,0,18,105.584a5.171,5.171,0,0,0,3.915-6.111l18.39-4.5a10.582,10.582,0,0,0,4.175-2.089l8.95-7.354a3.98,3.98,0,0,0,.326-5.961ZM32.181,65.653h1.5a2.115,2.115,0,0,1,2.112,2.113V85.5l-5.295,0c-.486,0-.15-.326-.123-.347L31.9,83.913a7.976,7.976,0,0,0,2.761-4.763,3.327,3.327,0,0,0-4.588-3.714v-7.67a2.115,2.115,0,0,1,2.112-2.113ZM19.456,74.285a1.736,1.736,0,0,1,1.734-1.735h2.252a1.737,1.737,0,0,1,1.735,1.735v3.736l-5.721,3.037V74.285Zm32.908,9.947-8.95,7.354a8.885,8.885,0,0,1-3.508,1.756L21.381,97.877,16.4,84.581,30.624,77.03a1.649,1.649,0,0,1,2.389,1.785,6.344,6.344,0,0,1-2.173,3.794l-1.525,1.236a1.873,1.873,0,0,0,1.179,3.329l6.114,0h0a10.462,10.462,0,0,0,6.049-1.914l6.833-4.8a2.363,2.363,0,0,1,3.062.282,2.328,2.328,0,0,1-.19,3.492Zm0,0" transform="translate(-2.663 -49.641)" fill="#fff"/>
      <path id="Path_839914" data-name="Path 839914" d="M70.932,422.544a3.306,3.306,0,1,0-3.306,3.306A3.31,3.31,0,0,0,70.932,422.544Zm-4.933,0a1.628,1.628,0,1,1,1.628,1.627A1.629,1.629,0,0,1,66,422.544Zm0,0" transform="translate(-56.681 -372.334)" fill="#fff"/>
      <path id="Path_839915" data-name="Path 839915" d="M4.911,26.346l12.2-12.292,2.744,1.419a2.581,2.581,0,0,0,2.976-.433l6.639-6.391s-.183,3.283,2.582,3.283A2.584,2.584,0,0,0,34.63,9.35V2.581c0-.008,0-.016,0-.024A2.443,2.443,0,0,0,32.049,0h-6.71a2.584,2.584,0,0,0-2.581,2.581c0,2.837,2.887,2.581,2.887,2.581L20.58,10.038,17.8,8.6a2.571,2.571,0,0,0-3.018.474L1.246,22.709A2.584,2.584,0,0,0,1.26,26.36a2.545,2.545,0,0,0,3.65-.014ZM2.437,23.891,15.97,10.254a.763.763,0,0,1,1.056-.166L20.344,11.8a.839.839,0,0,0,.968-.141l7-6.736a.839.839,0,0,0-.582-1.444H25.339a.9.9,0,0,1,0-1.806h6.71a.789.789,0,0,1,.9.9c0,.007,0,.015,0,.023V9.35a.9.9,0,0,1-1.806,0V6.676a.839.839,0,0,0-1.421-.6l-8.061,7.759a.9.9,0,0,1-1.041.152l-3.291-1.7a.84.84,0,0,0-.981.154L3.72,25.163a.866.866,0,0,1-1.277,0,.9.9,0,0,1,0-1.277Zm0,0" transform="translate(0)" fill="#fff"/>
    </g>
  </g>
</svg>
