<svg xmlns="http://www.w3.org/2000/svg" xmlns:xlink="http://www.w3.org/1999/xlink" width="85" height="85" viewBox="0 0 85 85">
  <defs>
    <clipPath id="clip-path">
      <rect id="Rectangle_386394" data-name="Rectangle 386394" width="52.455" height="52.455" transform="translate(0 0)" fill="#fff"/>
    </clipPath>
  </defs>
  <g id="Group_1086825" data-name="Group 1086825" transform="translate(-285.36 -15058)">
    <circle id="Ellipse_6031" data-name="Ellipse 6031" cx="42.5" cy="42.5" r="42.5" transform="translate(285.36 15058)" fill="#0c5e46"/>
    <g id="Group_1086777" data-name="Group 1086777" transform="translate(301.36 15073.901)">
      <g id="Group_1086776" data-name="Group 1086776" transform="translate(0 0.099)" clip-path="url(#clip-path)">
        <path id="Path_839908" data-name="Path 839908" d="M33.537,459.213h-4.1a2.728,2.728,0,0,1-2.725-2.725V445.734a2.73,2.73,0,0,1,2.725-2.728h4.1a2.731,2.731,0,0,1,2.728,2.728v10.754a2.73,2.73,0,0,1-2.728,2.725m-4.1-14.143a.663.663,0,0,0-.661.664v10.754a.67.67,0,0,0,.661.661h4.1a.671.671,0,0,0,.664-.661V445.734a.673.673,0,0,0-.664-.664Z" transform="translate(-24.661 -408.974)" fill="#fff"/>
        <path id="Path_839909" data-name="Path 839909" d="M147.713,459.495h-9.032a1.032,1.032,0,1,1,0-2.064h9.032a1.731,1.731,0,1,0,0-3.463H142.14a2.513,2.513,0,0,1-2.1-.85l-.051-.048c-3.75-3.53-6.684-3.352-10.485-1.852a4.81,4.81,0,0,1-2.086.449l-.058,0H125.18a1.032,1.032,0,1,1,0-2.064l2.146,0a2.944,2.944,0,0,0,1.416-.307c4.334-1.71,8.145-1.979,12.656,2.268l.051.048a3.046,3.046,0,0,0,.3.265,1.586,1.586,0,0,0,.39.026h5.573a3.8,3.8,0,1,1,0,7.591" transform="translate(-114.609 -413.707)" fill="#fff"/>
        <path id="Path_839910" data-name="Path 839910" d="M228.315,34.315h-3.56a2.307,2.307,0,0,1-2.3-2.3v-.528a14.765,14.765,0,0,1-3.158-1.309l-.374.374a2.3,2.3,0,0,1-3.259,0l-2.516-2.516a2.308,2.308,0,0,1,0-3.257l.374-.374a14.775,14.775,0,0,1-1.309-3.156h-.528a2.307,2.307,0,0,1-2.3-2.3V15.376a2.307,2.307,0,0,1,2.3-2.3h.528a14.775,14.775,0,0,1,1.309-3.156l-.374-.374a2.306,2.306,0,0,1,0-3.257l2.518-2.518a2.282,2.282,0,0,1,1.629-.675h0a2.283,2.283,0,0,1,1.631.677l.372.372A14.834,14.834,0,0,1,222.45,2.83V2.3a2.307,2.307,0,0,1,2.3-2.3h3.56a2.307,2.307,0,0,1,2.3,2.3V2.83a14.791,14.791,0,0,1,3.156,1.31l.373-.373a2.282,2.282,0,0,1,1.629-.675h0a2.283,2.283,0,0,1,1.631.677l2.518,2.515a2.308,2.308,0,0,1,0,3.258l-.374.374a14.852,14.852,0,0,1,1.308,3.155h.526a2.307,2.307,0,0,1,2.3,2.3v3.563a2.307,2.307,0,0,1-2.3,2.3h-.526a14.845,14.845,0,0,1-1.308,3.155l.374.374a2.308,2.308,0,0,1,0,3.257L237.4,30.548a2.3,2.3,0,0,1-3.259,0l-.371-.371a14.715,14.715,0,0,1-3.156,1.309v.528a2.307,2.307,0,0,1-2.3,2.3m-9.185-6.47a1.03,1.03,0,0,1,.551.16,12.726,12.726,0,0,0,4.027,1.669,1.032,1.032,0,0,1,.806,1.007v1.33a.243.243,0,0,0,.24.24h3.56a.243.243,0,0,0,.24-.24v-1.33a1.032,1.032,0,0,1,.806-1.007,12.678,12.678,0,0,0,4.024-1.668,1.032,1.032,0,0,1,1.282.142l.941.941a.233.233,0,0,0,.169.07.231.231,0,0,0,.167-.068l2.523-2.521a.244.244,0,0,0,0-.337l-.941-.941a1.032,1.032,0,0,1-.143-1.281,12.81,12.81,0,0,0,1.669-4.027,1.032,1.032,0,0,1,1.007-.8h1.327a.246.246,0,0,0,.24-.24V15.376a.243.243,0,0,0-.24-.24h-1.327a1.032,1.032,0,0,1-1.007-.8,12.81,12.81,0,0,0-1.669-4.027,1.032,1.032,0,0,1,.143-1.281l.941-.941a.244.244,0,0,0,0-.338l-2.52-2.518a.239.239,0,0,0-.336,0l-.943.943a1.032,1.032,0,0,1-1.282.142,12.751,12.751,0,0,0-4.025-1.672,1.032,1.032,0,0,1-.8-1.007V2.3a.243.243,0,0,0-.24-.24h-3.56a.243.243,0,0,0-.24.24V3.631a1.032,1.032,0,0,1-.8,1.007,12.8,12.8,0,0,0-4.029,1.672,1.032,1.032,0,0,1-1.281-.143l-.941-.941a.239.239,0,0,0-.336,0l-2.52,2.52a.245.245,0,0,0,0,.338l.941.941a1.032,1.032,0,0,1,.143,1.281,12.739,12.739,0,0,0-1.669,4.025,1.032,1.032,0,0,1-1.007.806h-1.33a.243.243,0,0,0-.24.24v3.563a.246.246,0,0,0,.24.24h1.33a1.032,1.032,0,0,1,1.007.806,12.737,12.737,0,0,0,1.669,4.025,1.032,1.032,0,0,1-.143,1.281l-.941.941a.244.244,0,0,0,0,.338l2.518,2.518a.239.239,0,0,0,.336,0l.943-.943a1.031,1.031,0,0,1,.73-.3" transform="translate(-193.288 -0.008)" fill="#fff"/>
        <path id="Path_839911" data-name="Path 839911" d="M323.338,133.613a1.032,1.032,0,0,1-1.032-1.032v-6.459a1.032,1.032,0,0,1,.673-.968,7.011,7.011,0,0,0,1.513-12.388c-.081-.056-.153-.1-.217-.14,0,.129.013.249.017.313.008.1.014.185.014.267v4.835a4.245,4.245,0,0,1-3.952,4.227,1.04,1.04,0,0,1-.137,0,4.247,4.247,0,0,1-3.955-4.227v-4.835c0-.082.006-.164.014-.268,0-.064.014-.184.018-.312-.064.038-.137.084-.218.14a7.01,7.01,0,0,0,1.517,12.387,1.032,1.032,0,0,1,.673.968v6.459a1.032,1.032,0,1,1-2.064,0v-5.772a9.072,9.072,0,0,1-1.29-15.746c.383-.262,1.548-1.057,2.567-.47,1,.576.9,1.924.857,2.5,0,.05-.007.092-.008.123v4.828a1.967,1.967,0,1,0,3.915,0v-4.835c0-.023,0-.065-.008-.115-.043-.576-.142-1.924.859-2.5,1.018-.586,2.182.209,2.565.47a9.073,9.073,0,0,1-1.287,15.746v5.772a1.032,1.032,0,0,1-1.032,1.032" transform="translate(-287.04 -101.908)" fill="#fff"/>
        <path id="Path_839912" data-name="Path 839912" d="M144.744,469.624a13.372,13.372,0,0,1-3.693-.725c-.415-.12-.843-.244-1.311-.371l-10.6-2.837-.326-.09a1.087,1.087,0,0,0-.439-.066h-3.192a1.032,1.032,0,1,1,0-2.064h3.192a2.86,2.86,0,0,1,1,.144l.3.083,10.6,2.837c.488.132.926.259,1.349.381,2.745.8,3.884,1.125,6.566-.658l2.011-1.434a1.032,1.032,0,1,1,1.2,1.681l-2.024,1.443-.027.018a8.108,8.108,0,0,1-4.606,1.657m9.807-5.6a1.033,1.033,0,1,1,.723-.3l0,0a1.028,1.028,0,0,1-.72.293m3.747-2.669a1.032,1.032,0,0,1-.6-1.873l3.552-2.53a1.641,1.641,0,1,0-1.738-2.78l-8.9,4.571a1.032,1.032,0,0,1-.943-1.836l8.9-4.571a3.7,3.7,0,0,1,3.879,6.3l-3.552,2.53a1.027,1.027,0,0,1-.6.191" transform="translate(-114.61 -417.16)" fill="#fff"/>
      </g>
    </g>
  </g>
</svg>
