<svg xmlns="http://www.w3.org/2000/svg" xmlns:xlink="http://www.w3.org/1999/xlink" width="116.999" height="115" viewBox="0 0 116.999 115">
  <defs>
    <clipPath id="clip-path">
      <rect id="Rectangle_385667" data-name="Rectangle 385667" width="75.601" height="67.812" fill="none"/>
    </clipPath>
  </defs>
  <g id="Group_1086701" data-name="Group 1086701" transform="translate(-742 -4157.437)">
    <g id="Group_1071929" data-name="Group 1071929" transform="translate(316.563 -3341.034)">
      <g id="Group_1015374" data-name="Group 1015374" transform="translate(425.927 7498.205)">
        <g id="Group_1015448" data-name="Group 1015448" transform="translate(0 0)">
          <g id="Group_1014855" data-name="Group 1014855" transform="translate(0 0)">
            <path id="Union_12" data-name="Union 12" d="M58.5,0C90.809,0,117,25.744,117,57.5S90.809,115,58.5,115,0,89.256,0,57.5,26.192,0,58.5,0Z" transform="translate(-0.49 0.265)" fill="#eba325"/>
            <path id="Path_608395" data-name="Path 608395" d="M49,0C76.062,0,98,22.162,98,49.5S76.062,99,49,99,0,76.838,0,49.5,21.938,0,49,0Z" transform="translate(9.51 7.265)" fill="#fef5e5"/>
          </g>
        </g>
      </g>
    </g>
    <g id="Group_1085284" data-name="Group 1085284" transform="translate(768.199 4177.092)">
      <g id="Group_1085283" data-name="Group 1085283" clip-path="url(#clip-path)">
        <path id="Path_838997" data-name="Path 838997" d="M83.859,94.383c-.008-.369-.029-.734-.061-1.082a18.363,18.363,0,0,0-1.55-5.782A25.736,25.736,0,0,0,71.313,75.713l-.034-.019-.038.009a7.215,7.215,0,0,1-2.689.127l-.559-.078.5.261a20.678,20.678,0,0,1,6.451,5.206.434.434,0,0,1,.075.442.481.481,0,0,1-.347.31.33.33,0,0,1-.317-.137,20.3,20.3,0,0,0-16.813-7.345.346.346,0,0,1-.331-.15.485.485,0,0,1-.016-.47.412.412,0,0,1,.359-.231,20.74,20.74,0,0,1,7.528.955l.538.171-.449-.342a7.27,7.27,0,0,1-1.674-1.79l-.021-.032-.037-.009a29.542,29.542,0,0,0-5.894-.812,27.533,27.533,0,0,0-4.406.2c-.481-.523-.961-1.061-1.426-1.583q-.4-.453-.809-.9a5.709,5.709,0,0,0-2.662-1.966,1.476,1.476,0,0,0-.844-.009c-.48.161-.8.639-.982,1.461a22.122,22.122,0,0,0-.372,4.287l-.014.669q-.215.1-.429.195a21.134,21.134,0,0,0-8.043,6.42l-.072.1c-.258.343-.512.69-.766,1.037a35.041,35.041,0,0,1-2.473,3.119l-.183.2.268-.035a4.1,4.1,0,0,1,3.181,1.1,7.768,7.768,0,0,1,2,2.957,13.124,13.124,0,0,1-1.569,11.925,5.449,5.449,0,0,1-2.734,1.935l-.214.063.191.115c.413.247.892.535,1.35.823,1.039.654,1.994,1.238,2.92,1.786,2.034,1.2,3.884,2.2,5.655,3.038-.051.591-.086,1.175-.116,1.693-.037.62-.069,1.156-.118,1.591A11.335,11.335,0,0,0,44.769,114a4.99,4.99,0,0,0,.068.573,3,3,0,0,0,1.4,2.147,3.271,3.271,0,0,0,3.206-.333A8.675,8.675,0,0,0,52.648,112c.061-.152.12-.306.176-.462a35.638,35.638,0,0,0,6.932.943,33.773,33.773,0,0,0,6.5-.369q.044.364.088.716c.1.781.187,1.518.229,2.157.019.281.042.608.092.931a3.021,3.021,0,0,0,.616,1.547,2.89,2.89,0,0,0,2.077.924c.095.006.189.009.284.009a5.587,5.587,0,0,0,3.807-1.64,9.235,9.235,0,0,0,2.267-3.835,10.524,10.524,0,0,0,.537-4.555,17.49,17.49,0,0,0,6.206-7.252,15.17,15.17,0,0,0,1.4-6.73" transform="translate(-25.54 -50.582)" fill="#ef826b"/>
        <path id="Path_838998" data-name="Path 838998" d="M249.22,124.61h-.012a.506.506,0,0,0-.524.529,4.2,4.2,0,0,1-1.5,3.295,4.138,4.138,0,0,1-3.348.957,6.592,6.592,0,0,0,.641-2.41c.079-1.1-.2-3.221-1.287-4.242a1.964,1.964,0,0,0-1.677-.535,2.146,2.146,0,0,0-1.636,1.106,4.883,4.883,0,0,0-.142,3.877,5.584,5.584,0,0,0,2.408,2.745,4.858,4.858,0,0,1-4.68,1.776,6.745,6.745,0,0,0,.2-6.257,2.685,2.685,0,0,0-2.3-1.474h-.041a2.445,2.445,0,0,0-2.117,1.438,5.21,5.21,0,0,0,1.258,5.866,5.386,5.386,0,0,0,1.291.937,6.9,6.9,0,0,1-3.418,2.092.024.024,0,0,0-.018.026c.032.346.052.707.06,1.074a.025.025,0,0,0,.009.019.025.025,0,0,0,.015.005h0a7.362,7.362,0,0,0,4.467-2.782,6.009,6.009,0,0,0,6.358-2.254,4.62,4.62,0,0,0,2.186.123,5.478,5.478,0,0,0,4.363-5.382.531.531,0,0,0-.557-.528m-12.809,6.73c-.068-.033-.139-.068-.207-.105a4.6,4.6,0,0,1-2.359-3.844,2.64,2.64,0,0,1,.912-2.16,1.077,1.077,0,0,1,.928-.17,2.1,2.1,0,0,1,1.173,1.231,5.271,5.271,0,0,1-.447,5.049m6.981-4.51a5.13,5.13,0,0,1-.629,2.193,4.07,4.07,0,0,1-.861-.6c-1.206-1.095-1.947-3.061-1.1-4.455a1.127,1.127,0,0,1,.934-.626h.011a1.386,1.386,0,0,1,1.1.789,5.1,5.1,0,0,1,.542,2.7" transform="translate(-174.178 -91.607)" fill="#de5b49"/>
        <path id="Path_838999" data-name="Path 838999" d="M53.673,219.271l-.12-.071-.026.137a31.417,31.417,0,0,0-.392,3.823c-.037.619-.069,1.155-.118,1.589a8.742,8.742,0,0,0-.037,2.58,3,3,0,0,0,1.4,2.147,2.445,2.445,0,0,0,1.189.292,3.932,3.932,0,0,0,2.018-.625,6.237,6.237,0,0,0,1.477-1.319l.025-.03,0-.039a11.176,11.176,0,0,1,.1-1.972c.05-.44.082-.978.119-1.6.032-.537.068-1.144.122-1.755l.006-.068-.061-.029c-1.784-.845-3.649-1.846-5.7-3.059" transform="translate(-39.66 -164.346)" fill="#de5b49"/>
        <path id="Path_839000" data-name="Path 839000" d="M91.093,91.1a.764.764,0,0,0,.431.132.919.919,0,0,0,.214-.026c.574-.137.769-.684.941-1.166a2.605,2.605,0,0,1,.329-.707c.529-.687,1.171-.371,1.851-.034l.092.046a1.612,1.612,0,0,0,1.5.039.693.693,0,0,0,.264-.436c.2-.985-.808-2.114-1.472-2.861-.1-.117-.2-.225-.283-.323a22.82,22.82,0,0,0-2.5-2.517c-.4-.345-.994-.788-1.524-.654-.645.163-.695.9-.731,1.435,0,.053-.007.1-.011.154a23.033,23.033,0,0,0,.215,5.529,2.2,2.2,0,0,0,.679,1.388" transform="translate(-67.57 -61.905)" fill="#de5b49"/>
        <path id="Path_839001" data-name="Path 839001" d="M14.151,140.733h0A7.961,7.961,0,0,0,12.1,137.7a4.3,4.3,0,0,0-3.337-1.153l-.026,0-.043.005a8.079,8.079,0,0,0-1.1.273,4.788,4.788,0,0,1-1.738.292c-.237-.017-.458-.046-.671-.074a2.975,2.975,0,0,0-2.212.313,4.748,4.748,0,0,0-1.805,2.207A14.657,14.657,0,0,0,.277,148.1,9.674,9.674,0,0,0,4.709,154a7.015,7.015,0,0,0,3.556,1.061,5.147,5.147,0,0,0,1.456-.205,5.636,5.636,0,0,0,2.833-2,13.336,13.336,0,0,0,1.6-12.118" transform="translate(0 -102.358)" fill="#de5b49"/>
        <path id="Path_839002" data-name="Path 839002" d="M82.077,105.379c-.021-.308-.028-.621-.036-.925-.007-.28-.014-.57-.031-.856a.213.213,0,0,0-.2-.193.18.18,0,0,0-.192.156,7.211,7.211,0,0,0,.281,3.665.151.151,0,0,0,.139.092l.03,0a.175.175,0,0,0,.143-.157,6.47,6.47,0,0,0-.069-1.166c-.024-.2-.049-.41-.063-.613" transform="translate(-61.106 -77.529)" fill="#de5b49"/>
        <path id="Path_839003" data-name="Path 839003" d="M45.9,84.164c-.116-.025-.226-.05-.329-.078a46.98,46.98,0,0,1-5.679-2.081c-.382-.159-.763-.318-1.145-.474a5.715,5.715,0,0,0-3.251-.616,1.472,1.472,0,0,0-.764.359,1.752,1.752,0,0,0-.251,1.742,22.154,22.154,0,0,0,1.525,4.023l1.775,3.9.171-.227a20.939,20.939,0,0,1,7.97-6.361l.265-.124Z" transform="translate(-25.777 -60.62)" fill="#de5b49"/>
        <path id="Path_839004" data-name="Path 839004" d="M90.9,227.042a9.248,9.248,0,0,0-4.6-1.834.515.515,0,0,0-.6.476.671.671,0,0,0,.579.762,8.047,8.047,0,0,1,3.981,1.652.553.553,0,0,0,.336.124.476.476,0,0,0,.183-.037.667.667,0,0,0,.379-.534.644.644,0,0,0-.252-.61" transform="translate(-64.242 -168.846)" fill="#de5b49"/>
        <path id="Path_839005" data-name="Path 839005" d="M143.419,248.052c-.042-.644-.134-1.384-.23-2.168-.033-.267-.067-.54-.1-.817l-.012-.1-.1.016a33.516,33.516,0,0,1-6.562.383l-.115,0,.014.114c.082.67.159,1.32.2,1.9a4.25,4.25,0,0,0,.707,2.478,2.959,2.959,0,0,0,2.077.924c.095.006.189.009.284.009a5.584,5.584,0,0,0,3.807-1.64c.019-.019.037-.038.056-.058l.073-.075-.008-.049c-.048-.316-.072-.638-.09-.915" transform="translate(-102.192 -183.664)" fill="#de5b49"/>
        <path id="Path_839006" data-name="Path 839006" d="M171.841,224.289a10.842,10.842,0,0,0-5.909,2.189.673.673,0,0,0-.114.953.542.542,0,0,0,.424.228.551.551,0,0,0,.334-.123,9.717,9.717,0,0,1,5.277-2.008.613.613,0,0,0,.523-.347.685.685,0,0,0-.032-.663.537.537,0,0,0-.5-.229" transform="translate(-124.213 -168.16)" fill="#de5b49"/>
        <path id="Path_839007" data-name="Path 839007" d="M112.279,88.039a.17.17,0,0,0-.266.206c.236.369.488.735.731,1.09.274.4.558.813.82,1.23.185.294.359.61.528.915a11.789,11.789,0,0,0,.921,1.487.157.157,0,0,0,.125.061.156.156,0,0,0,.069-.016.143.143,0,0,0,.073-.171,13.2,13.2,0,0,0-3-4.8" transform="translate(-83.962 -65.968)" fill="#de5b49"/>
        <path id="Path_839008" data-name="Path 839008" d="M97.237,113.518a11.308,11.308,0,0,1-3.915,2.116,9.673,9.673,0,0,1-4.679-.009.264.264,0,0,0-.316.187.267.267,0,0,0,.173.328,7.632,7.632,0,0,0,2.59.432,8.361,8.361,0,0,0,6.379-2.789.193.193,0,0,0-.016-.251.158.158,0,0,0-.216-.015" transform="translate(-66.216 -85.084)" fill="#de5b49"/>
        <path id="Path_839009" data-name="Path 839009" d="M30.868,151.767c-.3-.722-.724-1.109-1.21-1.1a1.093,1.093,0,0,0-.92.746,3.015,3.015,0,0,0-.118,1.166c.014.429.031.859.048,1.289.054,1.371.11,2.789.056,4.176a3.44,3.44,0,0,0,.259,1.679c.343.68.722.841,1,.841a.716.716,0,0,0,.078,0c.613-.065,1.145-.87,1.334-1.594a12.557,12.557,0,0,0-.528-7.2" transform="translate(-21.453 -112.964)" fill="#a0202f"/>
        <path id="Path_839010" data-name="Path 839010" d="M12.854,151.783a1.742,1.742,0,0,0-1.16-1.087.824.824,0,0,0-.778.4,2.36,2.36,0,0,0-.3,1.469l.017.715c.036,1.49.072,3.031.053,4.548-.026,2.082.572,2.657,1.078,2.772a.854.854,0,0,0,.192.022c.877,0,1.288-1.439,1.366-1.746a11.544,11.544,0,0,0,.347-3.13,11.251,11.251,0,0,0-.816-3.961" transform="translate(-7.958 -112.981)" fill="#a0202f"/>
        <path id="Path_839011" data-name="Path 839011" d="M143.662,98.9a20.876,20.876,0,0,0-6.511-5.255l-.032-.01a7.246,7.246,0,0,1-3.381-1.406l-.03-.015a20.925,20.925,0,0,0-7.6-.964.608.608,0,0,0-.522.338.686.686,0,0,0,.028.664.543.543,0,0,0,.506.237,20.1,20.1,0,0,1,16.651,7.274.533.533,0,0,0,.415.212.509.509,0,0,0,.084-.007.672.672,0,0,0,.5-.433.629.629,0,0,0-.108-.635" transform="translate(-94.106 -68.386)" fill="#a0202f"/>
        <path id="Path_839012" data-name="Path 839012" d="M70.744,136.514a1.662,1.662,0,0,0-1.469.971,2.641,2.641,0,0,0-.071,2.524,1.66,1.66,0,0,0,1.362.751c.041,0,.081,0,.122-.005a1.729,1.729,0,0,0,1.414-1.294,3.057,3.057,0,0,0,.127-.676,2.492,2.492,0,0,0-.492-1.837,1.32,1.32,0,0,0-.993-.434" transform="translate(-51.67 -102.352)" fill="#a0202f"/>
        <path id="Path_839013" data-name="Path 839013" d="M155.373,144.244a6.885,6.885,0,0,0-1.03-2.557,1.682,1.682,0,0,0-1.458-.861c-.291.038-.695.235-.971.953-.291.757-.524,1.55-.75,2.317a16.706,16.706,0,0,1-1.537,3.953c-1.457,2.418-4,3.875-6.467,5.285a19.979,19.979,0,0,0-5.99,4.5,5.183,5.183,0,0,0-1.232,2.739,2.582,2.582,0,0,0,1.252,2.56,2.789,2.789,0,0,0,1.4.37,3.13,3.13,0,0,0,1.766-.556c.59-.406,1.125-.824,1.643-1.228a10.839,10.839,0,0,1,4.912-2.58c.457-.085.933-.143,1.393-.2a8.957,8.957,0,0,0,3.379-.868c4.416-2.493,4.624-9.634,3.686-13.826" transform="translate(-101.911 -105.579)" fill="#f39d8f"/>
        <path id="Path_839014" data-name="Path 839014" d="M182.073,233.631a1.2,1.2,0,0,0-1.12-.028,1.076,1.076,0,0,0-.612.815c-.04.279-.066.548-.091.808a6.341,6.341,0,0,1-.414,1.98,17.925,17.925,0,0,1-.932,1.8c-.153.271-.306.542-.453.815a1.133,1.133,0,0,0-.13,1.115.751.751,0,0,0,.671.316,1.916,1.916,0,0,0,.592-.107,5.23,5.23,0,0,0,3.425-5.963,2.184,2.184,0,0,0-.937-1.555" transform="translate(-133.619 -175.05)" fill="#f39d8f"/>
        <path id="Path_839015" data-name="Path 839015" d="M89.162,236.594a.793.793,0,0,0-.715-.1c-.382.17-.511.735-.615,1.188-.025.111-.049.213-.074.3a8.334,8.334,0,0,1-1.233,2.54l-.084.116a3.151,3.151,0,0,0-.426.707,1.065,1.065,0,0,0,.069,1,.953.953,0,0,0,.815.367,2.011,2.011,0,0,0,.793-.178,4,4,0,0,0,2.119-5.081,1.555,1.555,0,0,0-.648-.861" transform="translate(-64.422 -177.277)" fill="#f39d8f"/>
        <path id="Path_839016" data-name="Path 839016" d="M153.571,42.372a7.455,7.455,0,0,0-1.034,14.837,7.569,7.569,0,0,0,1.034.073,7.455,7.455,0,1,0,0-14.91" transform="translate(-109.551 -31.768)" fill="#f4a037"/>
        <path id="Path_839017" data-name="Path 839017" d="M109.42,5.285A7.426,7.426,0,1,0,98.8,13.974,7.426,7.426,0,0,0,109.42,5.285" transform="translate(-71.136 0)" fill="#f4a037"/>
        <path id="Path_839018" data-name="Path 839018" d="M155.964,45.565a6.656,6.656,0,1,0,6.656,6.656,6.656,6.656,0,0,0-6.656-6.656m4.313,10.968a6.1,6.1,0,1,1,1.786-4.313,6.078,6.078,0,0,1-1.786,4.313" transform="translate(-111.944 -34.162)" fill="#e95b32"/>
        <path id="Path_839019" data-name="Path 839019" d="M170.74,57.128a2.11,2.11,0,0,0-1.254-.288c-.12.006-.24.017-.36.029s-.269.026-.4.03a2.36,2.36,0,0,1-.28-.006,1.34,1.34,0,0,1-.19-.049,1.054,1.054,0,0,1-.116-.066,1.087,1.087,0,0,1-.1-.1,1.3,1.3,0,0,1-.092-.156,1.369,1.369,0,0,1-.054-.19,1.316,1.316,0,0,1,0-.188,1.373,1.373,0,0,1,.055-.2,1.393,1.393,0,0,1,.115-.2,1.625,1.625,0,0,1,.2-.2,1.971,1.971,0,0,1,.315-.183c.06-.023.121-.043.182-.061a2,2,0,0,1,.211-.048c.057-.006.114-.009.169-.01.1,0,.2.006.29.015l.069.009a3.271,3.271,0,0,1,.618.181,4.709,4.709,0,0,1,.478.246.557.557,0,0,0,.433.05.511.511,0,0,0,.319-.25.558.558,0,0,0-.2-.746,4.242,4.242,0,0,0-1.534-.57v-.607a.6.6,0,0,0-1.176,0v.684a2.649,2.649,0,0,0-.89.466,1.968,1.968,0,0,0-.753,1.541,1.826,1.826,0,0,0,.281.945,1.712,1.712,0,0,0,.838.678,2.01,2.01,0,0,0,.824.111c.129-.005.258-.017.387-.029s.264-.024.395-.029a2.5,2.5,0,0,1,.323.006,1.346,1.346,0,0,1,.211.054,1.3,1.3,0,0,1,.173.1,1.43,1.43,0,0,1,.167.167,1.553,1.553,0,0,1,.13.222,1.46,1.46,0,0,1,.067.239,1.609,1.609,0,0,1,0,.286,1.8,1.8,0,0,1-.091.33,1.96,1.96,0,0,1-.182.313,2.026,2.026,0,0,1-.269.269,2.384,2.384,0,0,1-.424.245c-.046.018-.093.035-.14.05a2.722,2.722,0,0,1-.414.1,2.539,2.539,0,0,1-.336.015c-.068,0-.135-.006-.2-.012a1.928,1.928,0,0,1-.358-.1,1.76,1.76,0,0,1-.273-.157,1.483,1.483,0,0,1-.17-.167,1.194,1.194,0,0,1-.1-.173.578.578,0,0,0-.249-.32.555.555,0,0,0-.427-.054.608.608,0,0,0-.352.306.476.476,0,0,0-.025.374,2.009,2.009,0,0,0,.745.963,2.24,2.24,0,0,0,.954.388q.077.012.154.02v.627a.6.6,0,0,0,.172.422.58.58,0,0,0,.416.176.594.594,0,0,0,.588-.6v-.711A3.105,3.105,0,0,0,170.4,61a2.745,2.745,0,0,0,.847-.774,2.431,2.431,0,0,0,.425-1.125,2.061,2.061,0,0,0-.93-1.97" transform="translate(-124.869 -39.796)" fill="#e95b32"/>
        <path id="Path_839020" data-name="Path 839020" d="M111.049,7.907a6.624,6.624,0,1,0,.284,1.917,6.633,6.633,0,0,0-.284-1.917m-4.594,7.731a6.068,6.068,0,1,1,4.323-5.814,6.081,6.081,0,0,1-4.323,5.814" transform="translate(-73.527 -2.392)" fill="#e95b32"/>
        <path id="Path_839021" data-name="Path 839021" d="M118.485,14.62a2.085,2.085,0,0,0-1.279.086c-.113.04-.224.086-.336.131s-.249.1-.376.145a2.279,2.279,0,0,1-.269.075,1.317,1.317,0,0,1-.195.009,1.059,1.059,0,0,1-.13-.03,1.1,1.1,0,0,1-.128-.068,1.3,1.3,0,0,1-.133-.122,1.368,1.368,0,0,1-.106-.166,1.3,1.3,0,0,1-.055-.179,1.318,1.318,0,0,1-.006-.211,1.415,1.415,0,0,1,.053-.221,1.612,1.612,0,0,1,.133-.247,1.925,1.925,0,0,1,.247-.265q.076-.059.157-.11a1.968,1.968,0,0,1,.187-.106c.053-.022.106-.041.158-.058.094-.027.188-.05.281-.069l.068-.011a3.257,3.257,0,0,1,.641-.005,4.642,4.642,0,0,1,.527.1.556.556,0,0,0,.428-.077.509.509,0,0,0,.232-.331.556.556,0,0,0-.4-.655,4.232,4.232,0,0,0-1.627-.1l-.174-.578a.447.447,0,0,0-.274-.285.651.651,0,0,0-.428-.013.544.544,0,0,0-.42.636l.2.652a2.644,2.644,0,0,0-.715.7,1.962,1.962,0,0,0-.274,1.686,1.823,1.823,0,0,0,.54.82,1.705,1.705,0,0,0,.994.406,1.993,1.993,0,0,0,.818-.132c.121-.042.241-.09.361-.139s.244-.1.368-.141a2.532,2.532,0,0,1,.31-.087,1.366,1.366,0,0,1,.216-.009,1.323,1.323,0,0,1,.194.046,1.441,1.441,0,0,1,.208.112,1.558,1.558,0,0,1,.188.174,1.475,1.475,0,0,1,.132.208,1.585,1.585,0,0,1,.083.273,1.779,1.779,0,0,1,.008.34,1.973,1.973,0,0,1-.083.351,2,2,0,0,1-.179.334,2.394,2.394,0,0,1-.333.356c-.039.031-.079.06-.119.088a2.736,2.736,0,0,1-.365.215,2.622,2.622,0,0,1-.316.111c-.065.018-.13.034-.19.045a1.943,1.943,0,0,1-.369.012,1.769,1.769,0,0,1-.306-.071,1.524,1.524,0,0,1-.21-.11,1.164,1.164,0,0,1-.147-.136.576.576,0,0,0-.33-.233.556.556,0,0,0-.423.071.605.605,0,0,0-.247.394.474.474,0,0,0,.084.364,2,2,0,0,0,.987.7,2.235,2.235,0,0,0,1.022.1q.077-.011.152-.025l.18.6a.6.6,0,0,0,.286.353.577.577,0,0,0,.794-.239.6.6,0,0,0,.043-.452l-.2-.677a3.106,3.106,0,0,0,.663-.538,2.739,2.739,0,0,0,.585-.982,2.427,2.427,0,0,0,.082-1.2,2.054,2.054,0,0,0-1.454-1.612" transform="translate(-85.756 -8.415)" fill="#e95b32"/>
      </g>
    </g>
  </g>
</svg>
