<svg xmlns="http://www.w3.org/2000/svg" width="400" height="235" viewBox="0 0 400 235">
  <g id="Group_1086822" data-name="Group 1086822" transform="translate(8317 2123)">
    <path id="Path_839990" data-name="Path 839990" d="M0,0H400V235H0Z" transform="translate(-8317 -2123)" fill="#fff"/>
    <path id="Path_839991" data-name="Path 839991" d="M-39.473-3.311H-44.98L-46.133,0H-48.7l5.371-14.219h2.217L-35.732,0h-2.578ZM-44.287-5.3h4.121l-2.061-5.9Zm11.67-5.264.068,1.221a3.8,3.8,0,0,1,3.076-1.416q3.3,0,3.359,3.779V0h-2.373V-6.846a2.176,2.176,0,0,0-.435-1.489,1.828,1.828,0,0,0-1.421-.483,2.287,2.287,0,0,0-2.139,1.3V0h-2.373V-10.566ZM-17.383,0a3.662,3.662,0,0,1-.273-.986A3.694,3.694,0,0,1-20.43.2a3.728,3.728,0,0,1-2.6-.908,2.906,2.906,0,0,1-1.006-2.246,3,3,0,0,1,1.255-2.593,6.081,6.081,0,0,1,3.589-.9h1.455v-.693a1.851,1.851,0,0,0-.459-1.313,1.819,1.819,0,0,0-1.4-.493,2.09,2.09,0,0,0-1.328.405,1.254,1.254,0,0,0-.518,1.03h-2.373a2.634,2.634,0,0,1,.576-1.626,3.839,3.839,0,0,1,1.567-1.187,5.506,5.506,0,0,1,2.212-.43,4.434,4.434,0,0,1,2.959.933,3.326,3.326,0,0,1,1.133,2.622v4.766a5.4,5.4,0,0,0,.4,2.275V0ZM-19.99-1.709a2.7,2.7,0,0,0,1.323-.342,2.284,2.284,0,0,0,.933-.918V-4.961h-1.279A3.5,3.5,0,0,0-21-4.5a1.487,1.487,0,0,0-.664,1.3,1.387,1.387,0,0,0,.454,1.089A1.758,1.758,0,0,0-19.99-1.709ZM-18.672-15h2.705l-2.705,2.959-1.9,0Zm8.32,15h-2.373V-15h2.373Zm5.107,0H-7.617V-10.566h2.373Zm-2.52-13.311a1.259,1.259,0,0,1,.347-.908,1.309,1.309,0,0,1,.991-.361,1.326,1.326,0,0,1,1,.361,1.25,1.25,0,0,1,.352.908,1.221,1.221,0,0,1-.352.894,1.336,1.336,0,0,1-1,.356,1.32,1.32,0,0,1-.991-.356A1.23,1.23,0,0,1-7.764-13.311ZM3.262-2.871a1.076,1.076,0,0,0-.522-.967,5.557,5.557,0,0,0-1.733-.586,8.911,8.911,0,0,1-2.021-.645,2.7,2.7,0,0,1-1.777-2.49A2.813,2.813,0,0,1-1.641-9.844a4.556,4.556,0,0,1,2.93-.918,4.74,4.74,0,0,1,3.062.938A2.975,2.975,0,0,1,5.518-7.393H3.145A1.462,1.462,0,0,0,2.637-8.53a1.946,1.946,0,0,0-1.348-.454,2.1,2.1,0,0,0-1.274.361,1.139,1.139,0,0,0-.493.967.962.962,0,0,0,.459.85,6.312,6.312,0,0,0,1.855.61,8.783,8.783,0,0,1,2.192.732A3.1,3.1,0,0,1,5.21-4.443,2.6,2.6,0,0,1,5.6-3,2.753,2.753,0,0,1,4.414-.688,5.039,5.039,0,0,1,1.318.2,5.464,5.464,0,0,1-1-.273,3.809,3.809,0,0,1-2.578-1.562,3.051,3.051,0,0,1-3.145-3.33h2.3A1.672,1.672,0,0,0-.205-2.036a2.467,2.467,0,0,0,1.553.454,2.4,2.4,0,0,0,1.426-.356A1.1,1.1,0,0,0,3.262-2.871ZM10.186,0H7.813V-10.566h2.373ZM7.666-13.311a1.259,1.259,0,0,1,.347-.908A1.309,1.309,0,0,1,9-14.58a1.326,1.326,0,0,1,1,.361,1.25,1.25,0,0,1,.352.908,1.221,1.221,0,0,1-.352.894,1.336,1.336,0,0,1-1,.356,1.32,1.32,0,0,1-.991-.356A1.23,1.23,0,0,1,7.666-13.311ZM18.691-2.871a1.076,1.076,0,0,0-.522-.967,5.557,5.557,0,0,0-1.733-.586,8.911,8.911,0,0,1-2.021-.645,2.7,2.7,0,0,1-1.777-2.49,2.813,2.813,0,0,1,1.152-2.285,4.556,4.556,0,0,1,2.93-.918,4.74,4.74,0,0,1,3.062.938,2.975,2.975,0,0,1,1.167,2.432H18.574a1.462,1.462,0,0,0-.508-1.138,1.946,1.946,0,0,0-1.348-.454,2.1,2.1,0,0,0-1.274.361,1.139,1.139,0,0,0-.493.967.962.962,0,0,0,.459.85,6.312,6.312,0,0,0,1.855.61,8.783,8.783,0,0,1,2.192.732A3.1,3.1,0,0,1,20.64-4.443,2.6,2.6,0,0,1,21.025-3a2.753,2.753,0,0,1-1.182,2.31,5.039,5.039,0,0,1-3.1.884,5.464,5.464,0,0,1-2.314-.469,3.809,3.809,0,0,1-1.582-1.289,3.051,3.051,0,0,1-.566-1.768h2.3a1.672,1.672,0,0,0,.635,1.294,2.467,2.467,0,0,0,1.553.454A2.4,2.4,0,0,0,18.2-1.938,1.1,1.1,0,0,0,18.691-2.871Zm8.936-2.49A6.282,6.282,0,0,1,28.76-9.282,3.63,3.63,0,0,1,31.8-10.762,3.449,3.449,0,0,1,34.512-9.59V-15h2.373V0H34.736l-.117-1.094A3.5,3.5,0,0,1,31.777.2a3.609,3.609,0,0,1-3-1.494A6.512,6.512,0,0,1,27.627-5.361ZM30-5.156a4.4,4.4,0,0,0,.62,2.515,2.012,2.012,0,0,0,1.763.9,2.241,2.241,0,0,0,2.129-1.3V-7.549A2.207,2.207,0,0,0,32.4-8.818a2.027,2.027,0,0,0-1.777.913A4.9,4.9,0,0,0,30-5.156ZM44.014.2a4.91,4.91,0,0,1-3.657-1.421,5.154,5.154,0,0,1-1.4-3.784V-5.3a6.34,6.34,0,0,1,.61-2.827,4.646,4.646,0,0,1,1.714-1.938,4.531,4.531,0,0,1,2.461-.693,4.147,4.147,0,0,1,3.335,1.377,5.823,5.823,0,0,1,1.177,3.9v.957h-6.9a3.173,3.173,0,0,0,.874,2.07A2.624,2.624,0,0,0,44.15-1.7a3.213,3.213,0,0,0,2.656-1.318L48.086-1.8a4.272,4.272,0,0,1-1.694,1.47A5.3,5.3,0,0,1,44.014.2ZM43.73-8.857a2,2,0,0,0-1.577.684,3.543,3.543,0,0,0-.767,1.9h4.521v-.176a2.884,2.884,0,0,0-.635-1.8A1.983,1.983,0,0,0,43.73-8.857Zm-110.356,23.5a6.282,6.282,0,0,1,1.133-3.921,3.63,3.63,0,0,1,3.037-1.479,3.449,3.449,0,0,1,2.715,1.172V5h2.373V20h-2.148l-.117-1.094A3.5,3.5,0,0,1-62.476,20.2a3.609,3.609,0,0,1-3-1.494A6.512,6.512,0,0,1-66.626,14.639Zm2.373.205a4.4,4.4,0,0,0,.62,2.515,2.012,2.012,0,0,0,1.763.9,2.241,2.241,0,0,0,2.129-1.3V12.451a2.207,2.207,0,0,0-2.109-1.27,2.027,2.027,0,0,0-1.777.913A4.9,4.9,0,0,0-64.253,14.844ZM-48.579,20a3.662,3.662,0,0,1-.273-.986A3.694,3.694,0,0,1-51.626,20.2a3.728,3.728,0,0,1-2.6-.908,2.906,2.906,0,0,1-1.006-2.246,3,3,0,0,1,1.255-2.593,6.081,6.081,0,0,1,3.589-.9h1.455v-.693a1.851,1.851,0,0,0-.459-1.313,1.819,1.819,0,0,0-1.4-.493,2.09,2.09,0,0,0-1.328.405,1.254,1.254,0,0,0-.518,1.03H-55a2.634,2.634,0,0,1,.576-1.626,3.838,3.838,0,0,1,1.567-1.187,5.506,5.506,0,0,1,2.212-.43,4.434,4.434,0,0,1,2.959.933,3.326,3.326,0,0,1,1.133,2.622v4.766a5.4,5.4,0,0,0,.4,2.275V20Zm-2.607-1.709a2.7,2.7,0,0,0,1.323-.342,2.284,2.284,0,0,0,.933-.918V15.039H-50.21a3.5,3.5,0,0,0-1.982.459,1.487,1.487,0,0,0-.664,1.3,1.387,1.387,0,0,0,.454,1.089A1.758,1.758,0,0,0-51.187,18.291ZM-41.1,6.865V9.434h1.865v1.758H-41.1v5.9a1.3,1.3,0,0,0,.239.874,1.109,1.109,0,0,0,.854.269,3.656,3.656,0,0,0,.83-.1v1.836a5.844,5.844,0,0,1-1.562.225q-2.734,0-2.734-3.018V11.191H-45.21V9.434h1.738V6.865Zm2.939,7.754a6.231,6.231,0,0,1,.615-2.8,4.493,4.493,0,0,1,1.729-1.914,4.87,4.87,0,0,1,2.559-.669,4.615,4.615,0,0,1,3.472,1.377,5.416,5.416,0,0,1,1.44,3.652l.01.557a6.286,6.286,0,0,1-.6,2.793,4.439,4.439,0,0,1-1.719,1.9,4.906,4.906,0,0,1-2.583.674,4.584,4.584,0,0,1-3.579-1.489,5.7,5.7,0,0,1-1.343-3.97Zm2.373.205a4.258,4.258,0,0,0,.674,2.554,2.191,2.191,0,0,0,1.875.923,2.167,2.167,0,0,0,1.87-.937,4.7,4.7,0,0,0,.669-2.744,4.2,4.2,0,0,0-.688-2.539,2.2,2.2,0,0,0-1.87-.937,2.178,2.178,0,0,0-1.846.923A4.614,4.614,0,0,0-35.786,14.824Zm15.381,2.3a1.076,1.076,0,0,0-.522-.967,5.557,5.557,0,0,0-1.733-.586,8.911,8.911,0,0,1-2.021-.645,2.7,2.7,0,0,1-1.777-2.49,2.813,2.813,0,0,1,1.152-2.285,4.556,4.556,0,0,1,2.93-.918,4.74,4.74,0,0,1,3.062.938,2.975,2.975,0,0,1,1.167,2.432h-2.373a1.462,1.462,0,0,0-.508-1.138,1.946,1.946,0,0,0-1.348-.454,2.1,2.1,0,0,0-1.274.361,1.139,1.139,0,0,0-.493.967.962.962,0,0,0,.459.85,6.312,6.312,0,0,0,1.855.61,8.783,8.783,0,0,1,2.192.732,3.1,3.1,0,0,1,1.182,1.021A2.6,2.6,0,0,1-18.071,17a2.753,2.753,0,0,1-1.182,2.31,5.039,5.039,0,0,1-3.1.884,5.464,5.464,0,0,1-2.314-.469,3.809,3.809,0,0,1-1.582-1.289,3.051,3.051,0,0,1-.566-1.768h2.3a1.672,1.672,0,0,0,.635,1.294,2.467,2.467,0,0,0,1.553.454,2.4,2.4,0,0,0,1.426-.356A1.1,1.1,0,0,0-20.405,17.129Zm4.736,6.074-1.279-.762a6.9,6.9,0,0,0,.776-1.548,4.619,4.619,0,0,0,.22-1.343V17.705h2.139l-.01,1.709a4.763,4.763,0,0,1-.522,2.075A5.155,5.155,0,0,1-15.669,23.2Zm12.764-6.211L-.669,9.434H1.782L-1.88,20H-3.94L-7.632,9.434h2.461ZM7.788,20.2a4.91,4.91,0,0,1-3.657-1.421,5.154,5.154,0,0,1-1.4-3.784V14.7a6.34,6.34,0,0,1,.61-2.827A4.645,4.645,0,0,1,5.054,9.932a4.531,4.531,0,0,1,2.461-.693,4.147,4.147,0,0,1,3.335,1.377,5.823,5.823,0,0,1,1.177,3.9v.957h-6.9A3.173,3.173,0,0,0,6,17.539a2.624,2.624,0,0,0,1.929.762,3.213,3.213,0,0,0,2.656-1.318L11.86,18.2a4.272,4.272,0,0,1-1.694,1.47A5.3,5.3,0,0,1,7.788,20.2ZM7.5,11.143a2,2,0,0,0-1.577.684,3.543,3.543,0,0,0-.767,1.9H9.683v-.176a2.884,2.884,0,0,0-.635-1.8A1.983,1.983,0,0,0,7.5,11.143Zm8.564-1.709.068,1.221a3.8,3.8,0,0,1,3.076-1.416q3.3,0,3.359,3.779V20H20.2V13.154a2.176,2.176,0,0,0-.435-1.489,1.828,1.828,0,0,0-1.421-.483,2.287,2.287,0,0,0-2.139,1.3V20H13.833V9.434ZM27.964,6.865V9.434h1.865v1.758H27.964v5.9a1.3,1.3,0,0,0,.239.874,1.109,1.109,0,0,0,.854.269,3.656,3.656,0,0,0,.83-.1v1.836a5.844,5.844,0,0,1-1.562.225q-2.734,0-2.734-3.018V11.191H23.853V9.434h1.738V6.865ZM37.954,20a3.662,3.662,0,0,1-.273-.986,3.992,3.992,0,0,1-5.371.273A2.906,2.906,0,0,1,31.3,17.041a3,3,0,0,1,1.255-2.593,6.081,6.081,0,0,1,3.589-.9H37.6v-.693a1.851,1.851,0,0,0-.459-1.313,1.819,1.819,0,0,0-1.4-.493,2.09,2.09,0,0,0-1.328.405,1.254,1.254,0,0,0-.518,1.03H31.528a2.634,2.634,0,0,1,.576-1.626,3.838,3.838,0,0,1,1.567-1.187,5.506,5.506,0,0,1,2.212-.43,4.434,4.434,0,0,1,2.959.933,3.326,3.326,0,0,1,1.133,2.622v4.766a5.4,5.4,0,0,0,.4,2.275V20Zm-2.607-1.709a2.7,2.7,0,0,0,1.323-.342,2.284,2.284,0,0,0,.933-.918V15.039H36.323a3.5,3.5,0,0,0-1.982.459,1.487,1.487,0,0,0-.664,1.3,1.387,1.387,0,0,0,.454,1.089A1.758,1.758,0,0,0,35.347,18.291Zm9.59-8.857v11.5a3.476,3.476,0,0,1-.806,2.476,3.088,3.088,0,0,1-2.358.854,4.743,4.743,0,0,1-1.26-.166V22.227a3.656,3.656,0,0,0,.84.088q1.182,0,1.211-1.289V9.434ZM42.358,6.689a1.259,1.259,0,0,1,.347-.908A1.309,1.309,0,0,1,43.7,5.42a1.326,1.326,0,0,1,1,.361,1.25,1.25,0,0,1,.352.908,1.221,1.221,0,0,1-.352.894,1.336,1.336,0,0,1-1,.356,1.32,1.32,0,0,1-.991-.356A1.23,1.23,0,0,1,42.358,6.689ZM53.784,20a3.662,3.662,0,0,1-.273-.986,3.992,3.992,0,0,1-5.371.273,2.906,2.906,0,0,1-1.006-2.246,3,3,0,0,1,1.255-2.593,6.081,6.081,0,0,1,3.589-.9h1.455v-.693a1.851,1.851,0,0,0-.459-1.313,1.819,1.819,0,0,0-1.4-.493,2.09,2.09,0,0,0-1.328.405,1.254,1.254,0,0,0-.518,1.03H47.358a2.634,2.634,0,0,1,.576-1.626A3.838,3.838,0,0,1,49.5,9.668a5.506,5.506,0,0,1,2.212-.43,4.434,4.434,0,0,1,2.959.933,3.326,3.326,0,0,1,1.133,2.622v4.766a5.4,5.4,0,0,0,.4,2.275V20Zm-2.607-1.709a2.7,2.7,0,0,0,1.323-.342,2.284,2.284,0,0,0,.933-.918V15.039H52.153a3.5,3.5,0,0,0-1.982.459,1.487,1.487,0,0,0-.664,1.3,1.387,1.387,0,0,0,.454,1.089A1.758,1.758,0,0,0,51.177,18.291Zm13.037-1.162a1.076,1.076,0,0,0-.522-.967,5.557,5.557,0,0,0-1.733-.586,8.911,8.911,0,0,1-2.021-.645,2.7,2.7,0,0,1-1.777-2.49,2.813,2.813,0,0,1,1.152-2.285,4.556,4.556,0,0,1,2.93-.918,4.74,4.74,0,0,1,3.062.938,2.975,2.975,0,0,1,1.167,2.432H64.1a1.462,1.462,0,0,0-.508-1.138,1.946,1.946,0,0,0-1.348-.454,2.1,2.1,0,0,0-1.274.361,1.139,1.139,0,0,0-.493.967.962.962,0,0,0,.459.85,6.312,6.312,0,0,0,1.855.61,8.783,8.783,0,0,1,2.192.732,3.1,3.1,0,0,1,1.182,1.021A2.6,2.6,0,0,1,66.548,17a2.753,2.753,0,0,1-1.182,2.31,5.039,5.039,0,0,1-3.1.884,5.464,5.464,0,0,1-2.314-.469,3.809,3.809,0,0,1-1.582-1.289,3.051,3.051,0,0,1-.566-1.768h2.3a1.672,1.672,0,0,0,.635,1.294,2.467,2.467,0,0,0,1.553.454,2.4,2.4,0,0,0,1.426-.356A1.1,1.1,0,0,0,64.214,17.129Z" transform="translate(-8235 -2040.012)" fill="#0c5e46"/>
    <path id="Path_839992" data-name="Path 839992" d="M-26.641-12.227h-4.434V0h-2.451V-12.227H-37.92v-1.992h11.279Zm-.84,6.846a6.231,6.231,0,0,1,.615-2.8,4.493,4.493,0,0,1,1.729-1.914,4.87,4.87,0,0,1,2.559-.669,4.615,4.615,0,0,1,3.472,1.377,5.416,5.416,0,0,1,1.44,3.652l.01.557a6.286,6.286,0,0,1-.6,2.793,4.439,4.439,0,0,1-1.719,1.9A4.906,4.906,0,0,1-22.559.2a4.584,4.584,0,0,1-3.579-1.489,5.7,5.7,0,0,1-1.343-3.97Zm2.373.205a4.258,4.258,0,0,0,.674,2.554,2.191,2.191,0,0,0,1.875.923,2.167,2.167,0,0,0,1.87-.937,4.7,4.7,0,0,0,.669-2.744,4.2,4.2,0,0,0-.688-2.539,2.2,2.2,0,0,0-1.87-.937,2.178,2.178,0,0,0-1.846.923A4.614,4.614,0,0,0-25.107-5.176Zm11.689-5.391.068,1.1a3.8,3.8,0,0,1,3.047-1.3A2.921,2.921,0,0,1-7.4-9.141,3.748,3.748,0,0,1-4.16-10.762a3.294,3.294,0,0,1,2.6.967A4.257,4.257,0,0,1-.684-6.943V0H-3.057V-6.875A2.1,2.1,0,0,0-3.5-8.35a1.924,1.924,0,0,0-1.455-.469,1.976,1.976,0,0,0-1.323.435,2.292,2.292,0,0,0-.718,1.138L-6.982,0H-9.355V-6.953a1.693,1.693,0,0,0-1.9-1.865,2.089,2.089,0,0,0-2.021,1.162V0h-2.373V-10.566ZM8.066,0a3.662,3.662,0,0,1-.273-.986A3.694,3.694,0,0,1,5.02.2a3.728,3.728,0,0,1-2.6-.908A2.906,2.906,0,0,1,1.416-2.959,3,3,0,0,1,2.671-5.552a6.081,6.081,0,0,1,3.589-.9H7.715v-.693a1.851,1.851,0,0,0-.459-1.313,1.819,1.819,0,0,0-1.4-.493,2.09,2.09,0,0,0-1.328.405,1.254,1.254,0,0,0-.518,1.03H1.641a2.634,2.634,0,0,1,.576-1.626,3.839,3.839,0,0,1,1.567-1.187A5.506,5.506,0,0,1,6-10.762a4.434,4.434,0,0,1,2.959.933,3.326,3.326,0,0,1,1.133,2.622v4.766a5.4,5.4,0,0,0,.4,2.275V0ZM5.459-1.709a2.7,2.7,0,0,0,1.323-.342,2.284,2.284,0,0,0,.933-.918V-4.961H6.436A3.5,3.5,0,0,0,4.453-4.5a1.487,1.487,0,0,0-.664,1.3,1.387,1.387,0,0,0,.454,1.089A1.758,1.758,0,0,0,5.459-1.709Zm11.65-3.652a6.282,6.282,0,0,1,1.133-3.921,3.63,3.63,0,0,1,3.037-1.479A3.449,3.449,0,0,1,23.994-9.59V-15h2.373V0H24.219L24.1-1.094A3.5,3.5,0,0,1,21.26.2a3.609,3.609,0,0,1-3-1.494A6.512,6.512,0,0,1,17.109-5.361Zm2.373.205a4.4,4.4,0,0,0,.62,2.515,2.012,2.012,0,0,0,1.763.9,2.241,2.241,0,0,0,2.129-1.3V-7.549a2.207,2.207,0,0,0-2.109-1.27,2.027,2.027,0,0,0-1.777.913A4.9,4.9,0,0,0,19.482-5.156ZM33.5.2a4.91,4.91,0,0,1-3.657-1.421,5.154,5.154,0,0,1-1.4-3.784V-5.3a6.34,6.34,0,0,1,.61-2.827,4.645,4.645,0,0,1,1.714-1.938,4.531,4.531,0,0,1,2.461-.693,4.147,4.147,0,0,1,3.335,1.377,5.823,5.823,0,0,1,1.177,3.9v.957h-6.9a3.173,3.173,0,0,0,.874,2.07,2.624,2.624,0,0,0,1.929.762,3.213,3.213,0,0,0,2.656-1.318L37.568-1.8a4.272,4.272,0,0,1-1.694,1.47A5.3,5.3,0,0,1,33.5.2Zm-.283-9.053a2,2,0,0,0-1.577.684,3.543,3.543,0,0,0-.767,1.9h4.521v-.176a2.884,2.884,0,0,0-.635-1.8A1.983,1.983,0,0,0,33.213-8.857Zm-80.737,23.5a6.282,6.282,0,0,1,1.133-3.921,3.63,3.63,0,0,1,3.037-1.479A3.449,3.449,0,0,1-40.64,10.41V5h2.373V20h-2.148l-.117-1.094A3.5,3.5,0,0,1-43.374,20.2a3.609,3.609,0,0,1-3-1.494A6.512,6.512,0,0,1-47.524,14.639Zm2.373.205a4.4,4.4,0,0,0,.62,2.515,2.012,2.012,0,0,0,1.763.9,2.241,2.241,0,0,0,2.129-1.3V12.451a2.207,2.207,0,0,0-2.109-1.27,2.027,2.027,0,0,0-1.777.913A4.9,4.9,0,0,0-45.151,14.844ZM-31.138,20.2a4.91,4.91,0,0,1-3.657-1.421,5.154,5.154,0,0,1-1.4-3.784V14.7a6.34,6.34,0,0,1,.61-2.827,4.646,4.646,0,0,1,1.714-1.938,4.531,4.531,0,0,1,2.461-.693,4.147,4.147,0,0,1,3.335,1.377,5.823,5.823,0,0,1,1.177,3.9v.957h-6.9a3.173,3.173,0,0,0,.874,2.07A2.624,2.624,0,0,0-31,18.3a3.213,3.213,0,0,0,2.656-1.318l1.279,1.221a4.272,4.272,0,0,1-1.694,1.47A5.3,5.3,0,0,1-31.138,20.2Zm-.283-9.053A2,2,0,0,0-33,11.826a3.543,3.543,0,0,0-.767,1.9h4.521v-.176a2.884,2.884,0,0,0-.635-1.8A1.983,1.983,0,0,0-31.421,11.143Zm10.7,7.158a2.146,2.146,0,0,0,1.475-.518,1.768,1.768,0,0,0,.625-1.279h2.236A3.486,3.486,0,0,1-17,18.345,4.035,4.035,0,0,1-18.56,19.7a4.656,4.656,0,0,1-2.129.5A4.505,4.505,0,0,1-24.2,18.76a5.694,5.694,0,0,1-1.3-3.965v-.244a5.6,5.6,0,0,1,1.289-3.862A4.464,4.464,0,0,1-20.7,9.238a4.341,4.341,0,0,1,3.071,1.1,3.935,3.935,0,0,1,1.245,2.886h-2.236a2.173,2.173,0,0,0-.62-1.494,2,2,0,0,0-1.479-.586,2.088,2.088,0,0,0-1.777.835,4.261,4.261,0,0,0-.635,2.534v.381a4.331,4.331,0,0,0,.62,2.563A2.086,2.086,0,0,0-20.718,18.3Zm8.652,1.7h-2.373V9.434h2.373Zm-2.52-13.311a1.259,1.259,0,0,1,.347-.908,1.309,1.309,0,0,1,.991-.361,1.326,1.326,0,0,1,1,.361,1.25,1.25,0,0,1,.352.908,1.221,1.221,0,0,1-.352.894,1.336,1.336,0,0,1-1,.356,1.32,1.32,0,0,1-.991-.356A1.23,1.23,0,0,1-14.585,6.689ZM-3.56,17.129a1.076,1.076,0,0,0-.522-.967,5.557,5.557,0,0,0-1.733-.586,8.911,8.911,0,0,1-2.021-.645,2.7,2.7,0,0,1-1.777-2.49,2.813,2.813,0,0,1,1.152-2.285,4.556,4.556,0,0,1,2.93-.918,4.74,4.74,0,0,1,3.062.938A2.975,2.975,0,0,1-1.3,12.607H-3.677a1.462,1.462,0,0,0-.508-1.138,1.946,1.946,0,0,0-1.348-.454,2.1,2.1,0,0,0-1.274.361,1.139,1.139,0,0,0-.493.967.962.962,0,0,0,.459.85,6.312,6.312,0,0,0,1.855.61,8.783,8.783,0,0,1,2.192.732,3.1,3.1,0,0,1,1.182,1.021A2.6,2.6,0,0,1-1.226,17a2.753,2.753,0,0,1-1.182,2.31,5.039,5.039,0,0,1-3.1.884,5.464,5.464,0,0,1-2.314-.469A3.809,3.809,0,0,1-9.4,18.438a3.051,3.051,0,0,1-.566-1.768h2.3a1.672,1.672,0,0,0,.635,1.294,2.467,2.467,0,0,0,1.553.454,2.4,2.4,0,0,0,1.426-.356A1.1,1.1,0,0,0-3.56,17.129ZM3.364,20H.991V9.434H3.364ZM.845,6.689a1.259,1.259,0,0,1,.347-.908,1.309,1.309,0,0,1,.991-.361,1.326,1.326,0,0,1,1,.361,1.25,1.25,0,0,1,.352.908,1.221,1.221,0,0,1-.352.894,1.336,1.336,0,0,1-1,.356,1.32,1.32,0,0,1-.991-.356A1.23,1.23,0,0,1,.845,6.689ZM5.5,14.619a6.231,6.231,0,0,1,.615-2.8A4.493,4.493,0,0,1,7.847,9.907a4.87,4.87,0,0,1,2.559-.669,4.615,4.615,0,0,1,3.472,1.377,5.416,5.416,0,0,1,1.44,3.652l.01.557a6.286,6.286,0,0,1-.6,2.793,4.439,4.439,0,0,1-1.719,1.9,4.906,4.906,0,0,1-2.583.674,4.584,4.584,0,0,1-3.579-1.489A5.7,5.7,0,0,1,5.5,14.736Zm2.373.205a4.258,4.258,0,0,0,.674,2.554,2.191,2.191,0,0,0,1.875.923,2.167,2.167,0,0,0,1.87-.937,4.7,4.7,0,0,0,.669-2.744,4.2,4.2,0,0,0-.688-2.539,2.2,2.2,0,0,0-1.87-.937,2.178,2.178,0,0,0-1.846.923A4.614,4.614,0,0,0,7.876,14.824Zm11.66-5.391.068,1.221a3.8,3.8,0,0,1,3.076-1.416q3.3,0,3.359,3.779V20H23.667V13.154a2.176,2.176,0,0,0-.435-1.489,1.828,1.828,0,0,0-1.421-.483,2.287,2.287,0,0,0-2.139,1.3V20H17.3V9.434ZM33.11,20.2a4.91,4.91,0,0,1-3.657-1.421,5.154,5.154,0,0,1-1.4-3.784V14.7a6.34,6.34,0,0,1,.61-2.827,4.645,4.645,0,0,1,1.714-1.938,4.531,4.531,0,0,1,2.461-.693,4.147,4.147,0,0,1,3.335,1.377,5.823,5.823,0,0,1,1.177,3.9v.957h-6.9a3.173,3.173,0,0,0,.874,2.07,2.624,2.624,0,0,0,1.929.762A3.213,3.213,0,0,0,35.9,16.982L37.183,18.2a4.272,4.272,0,0,1-1.694,1.47A5.3,5.3,0,0,1,33.11,20.2Zm-.283-9.053a2,2,0,0,0-1.577.684,3.543,3.543,0,0,0-.767,1.9H35v-.176a2.884,2.884,0,0,0-.635-1.8A1.983,1.983,0,0,0,32.827,11.143Zm12.285,5.986a1.076,1.076,0,0,0-.522-.967,5.557,5.557,0,0,0-1.733-.586,8.911,8.911,0,0,1-2.021-.645,2.7,2.7,0,0,1-1.777-2.49,2.813,2.813,0,0,1,1.152-2.285,4.556,4.556,0,0,1,2.93-.918,4.74,4.74,0,0,1,3.062.938,2.975,2.975,0,0,1,1.167,2.432H45a1.462,1.462,0,0,0-.508-1.138,1.946,1.946,0,0,0-1.348-.454,2.1,2.1,0,0,0-1.274.361,1.139,1.139,0,0,0-.493.967.962.962,0,0,0,.459.85,6.312,6.312,0,0,0,1.855.61,8.783,8.783,0,0,1,2.192.732,3.1,3.1,0,0,1,1.182,1.021A2.6,2.6,0,0,1,47.446,17a2.753,2.753,0,0,1-1.182,2.31,5.039,5.039,0,0,1-3.1.884,5.464,5.464,0,0,1-2.314-.469,3.809,3.809,0,0,1-1.582-1.289,3.051,3.051,0,0,1-.566-1.768h2.3a1.672,1.672,0,0,0,.635,1.294,2.467,2.467,0,0,0,1.553.454,2.4,2.4,0,0,0,1.426-.356A1.1,1.1,0,0,0,45.112,17.129Z" transform="translate(-8247.169 -1934.012)" fill="#12263f"/>
    <path id="Path_839993" data-name="Path 839993" d="M-39.951-14.219l4.1,10.9,4.092-10.9h3.193V0h-2.461V-4.687l.244-6.27L-34.98,0h-1.768l-4.189-10.947.244,6.26V0h-2.461V-14.219ZM-21.221.2a4.91,4.91,0,0,1-3.657-1.421,5.154,5.154,0,0,1-1.4-3.784V-5.3a6.34,6.34,0,0,1,.61-2.827,4.645,4.645,0,0,1,1.714-1.938,4.531,4.531,0,0,1,2.461-.693,4.147,4.147,0,0,1,3.335,1.377,5.823,5.823,0,0,1,1.177,3.9v.957h-6.9a3.173,3.173,0,0,0,.874,2.07,2.624,2.624,0,0,0,1.929.762,3.213,3.213,0,0,0,2.656-1.318L-17.148-1.8a4.272,4.272,0,0,1-1.694,1.47A5.3,5.3,0,0,1-21.221.2ZM-21.5-8.857a2,2,0,0,0-1.577.684,3.543,3.543,0,0,0-.767,1.9h4.521v-.176a2.884,2.884,0,0,0-.635-1.8A1.983,1.983,0,0,0-21.5-8.857Zm8.838-1.709V.938a3.476,3.476,0,0,1-.806,2.476,3.088,3.088,0,0,1-2.358.854A4.743,4.743,0,0,1-17.09,4.1V2.227a3.656,3.656,0,0,0,.84.088q1.182,0,1.211-1.289V-10.566Zm-2.578-2.744a1.259,1.259,0,0,1,.347-.908,1.309,1.309,0,0,1,.991-.361,1.326,1.326,0,0,1,1,.361,1.25,1.25,0,0,1,.352.908,1.221,1.221,0,0,1-.352.894,1.336,1.336,0,0,1-1,.356,1.32,1.32,0,0,1-.991-.356A1.23,1.23,0,0,1-15.244-13.311Zm4.668,7.93a6.231,6.231,0,0,1,.615-2.8,4.493,4.493,0,0,1,1.729-1.914,4.87,4.87,0,0,1,2.559-.669A4.615,4.615,0,0,1-2.2-9.385,5.416,5.416,0,0,1-.762-5.732l.01.557a6.286,6.286,0,0,1-.6,2.793,4.439,4.439,0,0,1-1.719,1.9A4.906,4.906,0,0,1-5.654.2,4.584,4.584,0,0,1-9.233-1.294a5.7,5.7,0,0,1-1.343-3.97Zm2.373.205a4.258,4.258,0,0,0,.674,2.554A2.191,2.191,0,0,0-5.654-1.7a2.167,2.167,0,0,0,1.87-.937,4.7,4.7,0,0,0,.669-2.744A4.2,4.2,0,0,0-3.8-7.92a2.2,2.2,0,0,0-1.87-.937,2.178,2.178,0,0,0-1.846.923A4.614,4.614,0,0,0-8.2-5.176ZM6.787-8.4a5.872,5.872,0,0,0-.967-.078,2.177,2.177,0,0,0-2.2,1.25V0H1.25V-10.566H3.516l.059,1.182a2.674,2.674,0,0,1,2.383-1.377,2.222,2.222,0,0,1,.84.137ZM14.307,0a3.662,3.662,0,0,1-.273-.986A3.694,3.694,0,0,1,11.26.2a3.728,3.728,0,0,1-2.6-.908A2.906,2.906,0,0,1,7.656-2.959,3,3,0,0,1,8.911-5.552a6.081,6.081,0,0,1,3.589-.9h1.455v-.693A1.851,1.851,0,0,0,13.5-8.462a1.819,1.819,0,0,0-1.4-.493,2.09,2.09,0,0,0-1.328.405,1.254,1.254,0,0,0-.518,1.03H7.881a2.634,2.634,0,0,1,.576-1.626,3.839,3.839,0,0,1,1.567-1.187,5.506,5.506,0,0,1,2.212-.43,4.434,4.434,0,0,1,2.959.933,3.326,3.326,0,0,1,1.133,2.622v4.766a5.4,5.4,0,0,0,.4,2.275V0ZM11.7-1.709a2.7,2.7,0,0,0,1.323-.342,2.284,2.284,0,0,0,.933-.918V-4.961H12.676a3.5,3.5,0,0,0-1.982.459,1.487,1.487,0,0,0-.664,1.3,1.387,1.387,0,0,0,.454,1.089A1.758,1.758,0,0,0,11.7-1.709ZM23.35-5.361a6.282,6.282,0,0,1,1.133-3.921,3.63,3.63,0,0,1,3.037-1.479A3.449,3.449,0,0,1,30.234-9.59V-15h2.373V0H30.459l-.117-1.094A3.5,3.5,0,0,1,27.5.2a3.609,3.609,0,0,1-3-1.494A6.512,6.512,0,0,1,23.35-5.361Zm2.373.205a4.4,4.4,0,0,0,.62,2.515,2.012,2.012,0,0,0,1.763.9,2.241,2.241,0,0,0,2.129-1.3V-7.549a2.207,2.207,0,0,0-2.109-1.27,2.027,2.027,0,0,0-1.777.913A4.9,4.9,0,0,0,25.723-5.156ZM39.736.2a4.91,4.91,0,0,1-3.657-1.421,5.154,5.154,0,0,1-1.4-3.784V-5.3a6.34,6.34,0,0,1,.61-2.827A4.646,4.646,0,0,1,37-10.068a4.531,4.531,0,0,1,2.461-.693A4.147,4.147,0,0,1,42.8-9.385a5.823,5.823,0,0,1,1.177,3.9v.957h-6.9a3.173,3.173,0,0,0,.874,2.07,2.624,2.624,0,0,0,1.929.762,3.213,3.213,0,0,0,2.656-1.318L43.809-1.8a4.272,4.272,0,0,1-1.694,1.47A5.3,5.3,0,0,1,39.736.2Zm-.283-9.053a2,2,0,0,0-1.577.684,3.543,3.543,0,0,0-.767,1.9h4.521v-.176A2.884,2.884,0,0,0,41-8.247,1.983,1.983,0,0,0,39.453-8.857ZM-30.811,14.824a6.291,6.291,0,0,1-1.113,3.911,3.565,3.565,0,0,1-2.988,1.46A3.589,3.589,0,0,1-37.7,19.053v5.01h-2.373V9.434h2.188l.1,1.074a3.485,3.485,0,0,1,2.842-1.27,3.6,3.6,0,0,1,3.032,1.44,6.459,6.459,0,0,1,1.1,4Zm-2.363-.205a4.407,4.407,0,0,0-.63-2.51,2.048,2.048,0,0,0-1.8-.928,2.184,2.184,0,0,0-2.09,1.2V17.07a2.2,2.2,0,0,0,2.109,1.23,2.045,2.045,0,0,0,1.772-.913A4.851,4.851,0,0,0-33.174,14.619Zm9.9-3.018a5.872,5.872,0,0,0-.967-.078,2.177,2.177,0,0,0-2.2,1.25V20h-2.373V9.434h2.266l.059,1.182A2.674,2.674,0,0,1-24.1,9.238a2.222,2.222,0,0,1,.84.137Zm.7,3.018a6.231,6.231,0,0,1,.615-2.8,4.493,4.493,0,0,1,1.729-1.914,4.87,4.87,0,0,1,2.559-.669,4.615,4.615,0,0,1,3.472,1.377,5.416,5.416,0,0,1,1.44,3.652l.01.557a6.286,6.286,0,0,1-.6,2.793,4.439,4.439,0,0,1-1.719,1.9,4.906,4.906,0,0,1-2.583.674,4.584,4.584,0,0,1-3.579-1.489,5.7,5.7,0,0,1-1.343-3.97Zm2.373.205a4.258,4.258,0,0,0,.674,2.554,2.191,2.191,0,0,0,1.875.923,2.167,2.167,0,0,0,1.87-.937,4.7,4.7,0,0,0,.669-2.744A4.2,4.2,0,0,0-15.8,12.08a2.2,2.2,0,0,0-1.87-.937,2.178,2.178,0,0,0-1.846.923A4.614,4.614,0,0,0-20.2,14.824ZM-6.4,18.3a2.146,2.146,0,0,0,1.475-.518A1.768,1.768,0,0,0-4.3,16.5h2.236a3.486,3.486,0,0,1-.615,1.841A4.035,4.035,0,0,1-4.238,19.7a4.656,4.656,0,0,1-2.129.5A4.505,4.505,0,0,1-9.883,18.76a5.694,5.694,0,0,1-1.3-3.965v-.244a5.6,5.6,0,0,1,1.289-3.862,4.464,4.464,0,0,1,3.516-1.45,4.341,4.341,0,0,1,3.071,1.1,3.935,3.935,0,0,1,1.245,2.886H-4.3a2.173,2.173,0,0,0-.62-1.494A2,2,0,0,0-6.4,11.143a2.088,2.088,0,0,0-1.777.835,4.261,4.261,0,0,0-.635,2.534v.381a4.331,4.331,0,0,0,.62,2.563A2.086,2.086,0,0,0-6.4,18.3ZM4.385,20.2A4.91,4.91,0,0,1,.728,18.774a5.154,5.154,0,0,1-1.4-3.784V14.7a6.34,6.34,0,0,1,.61-2.827A4.645,4.645,0,0,1,1.65,9.932a4.531,4.531,0,0,1,2.461-.693,4.147,4.147,0,0,1,3.335,1.377,5.823,5.823,0,0,1,1.177,3.9v.957h-6.9a3.173,3.173,0,0,0,.874,2.07,2.624,2.624,0,0,0,1.929.762,3.213,3.213,0,0,0,2.656-1.318L8.457,18.2a4.272,4.272,0,0,1-1.694,1.47A5.3,5.3,0,0,1,4.385,20.2ZM4.1,11.143a2,2,0,0,0-1.577.684,3.543,3.543,0,0,0-.767,1.9H6.279v-.176a2.884,2.884,0,0,0-.635-1.8A1.983,1.983,0,0,0,4.1,11.143Zm12.285,5.986a1.076,1.076,0,0,0-.522-.967,5.557,5.557,0,0,0-1.733-.586,8.911,8.911,0,0,1-2.021-.645,2.7,2.7,0,0,1-1.777-2.49,2.813,2.813,0,0,1,1.152-2.285,4.556,4.556,0,0,1,2.93-.918,4.74,4.74,0,0,1,3.062.938,2.975,2.975,0,0,1,1.167,2.432H16.27a1.462,1.462,0,0,0-.508-1.138,1.946,1.946,0,0,0-1.348-.454,2.1,2.1,0,0,0-1.274.361,1.139,1.139,0,0,0-.493.967.962.962,0,0,0,.459.85,6.312,6.312,0,0,0,1.855.61,8.783,8.783,0,0,1,2.192.732,3.1,3.1,0,0,1,1.182,1.021A2.6,2.6,0,0,1,18.721,17a2.753,2.753,0,0,1-1.182,2.31,5.039,5.039,0,0,1-3.1.884,5.464,5.464,0,0,1-2.314-.469,3.809,3.809,0,0,1-1.582-1.289A3.051,3.051,0,0,1,9.98,16.67h2.3a1.672,1.672,0,0,0,.635,1.294,2.467,2.467,0,0,0,1.553.454,2.4,2.4,0,0,0,1.426-.356A1.1,1.1,0,0,0,16.387,17.129Zm3.955-2.51a6.231,6.231,0,0,1,.615-2.8,4.493,4.493,0,0,1,1.729-1.914,4.87,4.87,0,0,1,2.559-.669,4.615,4.615,0,0,1,3.472,1.377,5.416,5.416,0,0,1,1.44,3.652l.01.557a6.286,6.286,0,0,1-.6,2.793,4.439,4.439,0,0,1-1.719,1.9,4.906,4.906,0,0,1-2.583.674,4.584,4.584,0,0,1-3.579-1.489,5.7,5.7,0,0,1-1.343-3.97Zm2.373.205a4.258,4.258,0,0,0,.674,2.554,2.191,2.191,0,0,0,1.875.923,2.167,2.167,0,0,0,1.87-.937,4.7,4.7,0,0,0,.669-2.744,4.2,4.2,0,0,0-.688-2.539,2.321,2.321,0,0,0-3.716-.015A4.614,4.614,0,0,0,22.715,14.824Zm15.381,2.3a1.076,1.076,0,0,0-.522-.967,5.557,5.557,0,0,0-1.733-.586,8.911,8.911,0,0,1-2.021-.645,2.7,2.7,0,0,1-1.777-2.49,2.813,2.813,0,0,1,1.152-2.285,4.556,4.556,0,0,1,2.93-.918,4.74,4.74,0,0,1,3.062.938,2.975,2.975,0,0,1,1.167,2.432H37.979a1.462,1.462,0,0,0-.508-1.138,1.946,1.946,0,0,0-1.348-.454,2.1,2.1,0,0,0-1.274.361,1.139,1.139,0,0,0-.493.967.962.962,0,0,0,.459.85,6.312,6.312,0,0,0,1.855.61,8.783,8.783,0,0,1,2.192.732,3.1,3.1,0,0,1,1.182,1.021A2.6,2.6,0,0,1,40.43,17a2.753,2.753,0,0,1-1.182,2.31,5.039,5.039,0,0,1-3.1.884,5.464,5.464,0,0,1-2.314-.469,3.809,3.809,0,0,1-1.582-1.289,3.051,3.051,0,0,1-.566-1.768h2.3a1.672,1.672,0,0,0,.635,1.294,2.467,2.467,0,0,0,1.553.454,2.4,2.4,0,0,0,1.426-.356A1.1,1.1,0,0,0,38.1,17.129Z" transform="translate(-8116 -1934.012)" fill="#12263f"/>
    <path id="Path_839994" data-name="Path 839994" d="M-41.328-3.311h-5.508L-47.988,0h-2.568l5.371-14.219h2.217L-37.588,0h-2.578ZM-46.143-5.3h4.121l-2.061-5.9Zm11.67-5.264.068,1.221a3.8,3.8,0,0,1,3.076-1.416q3.3,0,3.359,3.779V0h-2.373V-6.846a2.176,2.176,0,0,0-.435-1.489A1.828,1.828,0,0,0-32.2-8.818a2.287,2.287,0,0,0-2.139,1.3V0h-2.373V-10.566Zm11.895-2.568v2.568h1.865v1.758h-1.865v5.9a1.3,1.3,0,0,0,.239.874,1.109,1.109,0,0,0,.854.269,3.656,3.656,0,0,0,.83-.1V-.029A5.845,5.845,0,0,1-22.217.2q-2.734,0-2.734-3.018V-8.809h-1.738v-1.758h1.738v-2.568ZM-16.377,0H-18.75V-10.566h2.373ZM-18.9-13.311a1.259,1.259,0,0,1,.347-.908,1.309,1.309,0,0,1,.991-.361,1.326,1.326,0,0,1,1,.361,1.25,1.25,0,0,1,.352.908,1.221,1.221,0,0,1-.352.894,1.336,1.336,0,0,1-1,.356,1.32,1.32,0,0,1-.991-.356A1.23,1.23,0,0,1-18.9-13.311ZM-9.453-1.7a2.146,2.146,0,0,0,1.475-.518A1.768,1.768,0,0,0-7.354-3.5h2.236a3.486,3.486,0,0,1-.615,1.841A4.035,4.035,0,0,1-7.295-.3,4.656,4.656,0,0,1-9.424.2,4.505,4.505,0,0,1-12.939-1.24a5.694,5.694,0,0,1-1.3-3.965v-.244a5.6,5.6,0,0,1,1.289-3.862,4.464,4.464,0,0,1,3.516-1.45,4.341,4.341,0,0,1,3.071,1.1A3.935,3.935,0,0,1-5.117-6.777H-7.354a2.173,2.173,0,0,0-.62-1.494,2,2,0,0,0-1.479-.586,2.088,2.088,0,0,0-1.777.835,4.261,4.261,0,0,0-.635,2.534v.381a4.331,4.331,0,0,0,.62,2.563A2.086,2.086,0,0,0-9.453-1.7ZM-.8,0H-3.174V-10.566H-.8ZM-3.32-13.311a1.259,1.259,0,0,1,.347-.908,1.309,1.309,0,0,1,.991-.361,1.326,1.326,0,0,1,1,.361,1.25,1.25,0,0,1,.352.908,1.221,1.221,0,0,1-.352.894,1.336,1.336,0,0,1-1,.356,1.32,1.32,0,0,1-.991-.356A1.23,1.23,0,0,1-3.32-13.311ZM11.035-5.176A6.291,6.291,0,0,1,9.922-1.265,3.565,3.565,0,0,1,6.934.2,3.589,3.589,0,0,1,4.15-.947v5.01H1.777V-10.566H3.965l.1,1.074A3.485,3.485,0,0,1,6.9-10.762a3.6,3.6,0,0,1,3.032,1.44,6.459,6.459,0,0,1,1.1,4ZM8.672-5.381a4.407,4.407,0,0,0-.63-2.51,2.048,2.048,0,0,0-1.8-.928,2.184,2.184,0,0,0-2.09,1.2V-2.93A2.2,2.2,0,0,0,6.26-1.7a2.045,2.045,0,0,0,1.772-.913A4.851,4.851,0,0,0,8.672-5.381ZM19.355,0a3.662,3.662,0,0,1-.273-.986A3.694,3.694,0,0,1,16.309.2a3.728,3.728,0,0,1-2.6-.908,2.906,2.906,0,0,1-1.006-2.246A3,3,0,0,1,13.96-5.552a6.081,6.081,0,0,1,3.589-.9H19v-.693a1.851,1.851,0,0,0-.459-1.313,1.819,1.819,0,0,0-1.4-.493,2.09,2.09,0,0,0-1.328.405A1.254,1.254,0,0,0,15.3-7.52H12.93a2.634,2.634,0,0,1,.576-1.626,3.839,3.839,0,0,1,1.567-1.187,5.506,5.506,0,0,1,2.212-.43,4.434,4.434,0,0,1,2.959.933,3.326,3.326,0,0,1,1.133,2.622v4.766a5.4,5.4,0,0,0,.4,2.275V0ZM16.748-1.709a2.7,2.7,0,0,0,1.323-.342A2.284,2.284,0,0,0,19-2.969V-4.961H17.725a3.5,3.5,0,0,0-1.982.459,1.487,1.487,0,0,0-.664,1.3,1.387,1.387,0,0,0,.454,1.089A1.758,1.758,0,0,0,16.748-1.709ZM29.395-8.4a5.872,5.872,0,0,0-.967-.078,2.177,2.177,0,0,0-2.2,1.25V0H23.857V-10.566h2.266l.059,1.182a2.674,2.674,0,0,1,2.383-1.377,2.222,2.222,0,0,1,.84.137Zm7.422,5.527a1.076,1.076,0,0,0-.522-.967,5.557,5.557,0,0,0-1.733-.586,8.911,8.911,0,0,1-2.021-.645,2.7,2.7,0,0,1-1.777-2.49,2.813,2.813,0,0,1,1.152-2.285,4.556,4.556,0,0,1,2.93-.918,4.74,4.74,0,0,1,3.062.938,2.975,2.975,0,0,1,1.167,2.432H36.7a1.462,1.462,0,0,0-.508-1.138,1.946,1.946,0,0,0-1.348-.454,2.1,2.1,0,0,0-1.274.361,1.139,1.139,0,0,0-.493.967.962.962,0,0,0,.459.85,6.312,6.312,0,0,0,1.855.61,8.783,8.783,0,0,1,2.192.732,3.1,3.1,0,0,1,1.182,1.021A2.6,2.6,0,0,1,39.15-3a2.753,2.753,0,0,1-1.182,2.31,5.039,5.039,0,0,1-3.1.884,5.464,5.464,0,0,1-2.314-.469,3.809,3.809,0,0,1-1.582-1.289A3.051,3.051,0,0,1,30.41-3.33h2.3a1.672,1.672,0,0,0,.635,1.294,2.467,2.467,0,0,0,1.553.454,2.4,2.4,0,0,0,1.426-.356A1.1,1.1,0,0,0,36.816-2.871ZM45.869.2a4.91,4.91,0,0,1-3.657-1.421,5.154,5.154,0,0,1-1.4-3.784V-5.3a6.34,6.34,0,0,1,.61-2.827,4.646,4.646,0,0,1,1.714-1.938,4.531,4.531,0,0,1,2.461-.693,4.147,4.147,0,0,1,3.335,1.377,5.823,5.823,0,0,1,1.177,3.9v.957H43.2a3.173,3.173,0,0,0,.874,2.07,2.624,2.624,0,0,0,1.929.762,3.213,3.213,0,0,0,2.656-1.318L49.941-1.8a4.272,4.272,0,0,1-1.694,1.47A5.3,5.3,0,0,1,45.869.2Zm-.283-9.053a2,2,0,0,0-1.577.684,3.543,3.543,0,0,0-.767,1.9h4.521v-.176a2.884,2.884,0,0,0-.635-1.8A1.983,1.983,0,0,0,45.586-8.857ZM-36.147,20a3.662,3.662,0,0,1-.273-.986A3.694,3.694,0,0,1-39.194,20.2a3.728,3.728,0,0,1-2.6-.908A2.906,2.906,0,0,1-42.8,17.041a3,3,0,0,1,1.255-2.593,6.081,6.081,0,0,1,3.589-.9H-36.5v-.693a1.851,1.851,0,0,0-.459-1.313,1.819,1.819,0,0,0-1.4-.493,2.09,2.09,0,0,0-1.328.405,1.254,1.254,0,0,0-.518,1.03h-2.373A2.634,2.634,0,0,1-42,10.854,3.838,3.838,0,0,1-40.43,9.668a5.506,5.506,0,0,1,2.212-.43,4.434,4.434,0,0,1,2.959.933,3.326,3.326,0,0,1,1.133,2.622v4.766a5.4,5.4,0,0,0,.4,2.275V20Zm-2.607-1.709a2.7,2.7,0,0,0,1.323-.342,2.284,2.284,0,0,0,.933-.918V15.039h-1.279a3.5,3.5,0,0,0-1.982.459,1.487,1.487,0,0,0-.664,1.3,1.387,1.387,0,0,0,.454,1.089A1.758,1.758,0,0,0-38.755,18.291ZM-29.116,20h-2.373V5h2.373Zm11.9-1.7a2.146,2.146,0,0,0,1.475-.518,1.768,1.768,0,0,0,.625-1.279h2.236a3.486,3.486,0,0,1-.615,1.841A4.035,4.035,0,0,1-15.054,19.7a4.656,4.656,0,0,1-2.129.5A4.505,4.505,0,0,1-20.7,18.76,5.694,5.694,0,0,1-22,14.795v-.244a5.6,5.6,0,0,1,1.289-3.862,4.464,4.464,0,0,1,3.516-1.45,4.341,4.341,0,0,1,3.071,1.1,3.935,3.935,0,0,1,1.245,2.886h-2.236a2.173,2.173,0,0,0-.62-1.494,2,2,0,0,0-1.479-.586,2.088,2.088,0,0,0-1.777.835,4.261,4.261,0,0,0-.635,2.534v.381A4.331,4.331,0,0,0-19,17.456,2.086,2.086,0,0,0-17.212,18.3ZM-4.771,20a3.662,3.662,0,0,1-.273-.986A3.694,3.694,0,0,1-7.817,20.2a3.728,3.728,0,0,1-2.6-.908,2.906,2.906,0,0,1-1.006-2.246,3,3,0,0,1,1.255-2.593,6.081,6.081,0,0,1,3.589-.9h1.455v-.693a1.851,1.851,0,0,0-.459-1.313,1.819,1.819,0,0,0-1.4-.493,2.09,2.09,0,0,0-1.328.405,1.254,1.254,0,0,0-.518,1.03H-11.2a2.634,2.634,0,0,1,.576-1.626A3.839,3.839,0,0,1-9.053,9.668a5.506,5.506,0,0,1,2.212-.43,4.434,4.434,0,0,1,2.959.933,3.326,3.326,0,0,1,1.133,2.622v4.766a5.4,5.4,0,0,0,.4,2.275V20Zm-2.607-1.709a2.7,2.7,0,0,0,1.323-.342,2.284,2.284,0,0,0,.933-.918V15.039H-6.4a3.5,3.5,0,0,0-1.982.459,1.487,1.487,0,0,0-.664,1.3,1.387,1.387,0,0,0,.454,1.089A1.758,1.758,0,0,0-7.378,18.291ZM1.968,9.434l.068,1.1a3.8,3.8,0,0,1,3.047-1.3,2.921,2.921,0,0,1,2.9,1.621,3.748,3.748,0,0,1,3.242-1.621,3.294,3.294,0,0,1,2.6.967,4.257,4.257,0,0,1,.874,2.852V20H12.329V13.125a2.1,2.1,0,0,0-.439-1.475,1.924,1.924,0,0,0-1.455-.469,1.976,1.976,0,0,0-1.323.435,2.292,2.292,0,0,0-.718,1.138L8.4,20H6.03V13.047a1.693,1.693,0,0,0-1.9-1.865A2.089,2.089,0,0,0,2.1,12.344V20H-.269V9.434Zm24.443,5.391a6.347,6.347,0,0,1-1.1,3.916A3.579,3.579,0,0,1,22.29,20.2,3.447,3.447,0,0,1,19.4,18.857L19.282,20H17.134V5h2.373v5.449a3.435,3.435,0,0,1,2.764-1.211,3.62,3.62,0,0,1,3.037,1.436,6.452,6.452,0,0,1,1.1,4.014Zm-2.373-.205a4.486,4.486,0,0,0-.605-2.578,2.016,2.016,0,0,0-1.758-.859,2.2,2.2,0,0,0-2.168,1.348v4.355a2.226,2.226,0,0,0,2.188,1.377,2,2,0,0,0,1.719-.83,4.347,4.347,0,0,0,.625-2.51ZM30.923,20H28.55V9.434h2.373ZM28.4,6.689a1.259,1.259,0,0,1,.347-.908,1.309,1.309,0,0,1,.991-.361,1.326,1.326,0,0,1,1,.361,1.25,1.25,0,0,1,.352.908,1.221,1.221,0,0,1-.352.894,1.336,1.336,0,0,1-1,.356,1.32,1.32,0,0,1-.991-.356A1.23,1.23,0,0,1,28.4,6.689Zm4.658,7.93a6.231,6.231,0,0,1,.615-2.8,4.493,4.493,0,0,1,1.729-1.914,4.87,4.87,0,0,1,2.559-.669,4.615,4.615,0,0,1,3.472,1.377,5.416,5.416,0,0,1,1.44,3.652l.01.557a6.286,6.286,0,0,1-.6,2.793,4.439,4.439,0,0,1-1.719,1.9,4.906,4.906,0,0,1-2.583.674A4.584,4.584,0,0,1,34.4,18.706a5.7,5.7,0,0,1-1.343-3.97Zm2.373.205a4.258,4.258,0,0,0,.674,2.554,2.191,2.191,0,0,0,1.875.923,2.167,2.167,0,0,0,1.87-.937,4.7,4.7,0,0,0,.669-2.744,4.2,4.2,0,0,0-.688-2.539,2.321,2.321,0,0,0-3.716-.015A4.614,4.614,0,0,0,35.435,14.824Z" transform="translate(-7981.831 -1934.012)" fill="#12263f"/>
    <path id="Path_839898" data-name="Path 839898" d="M-8744.5-2423v114.249" transform="translate(628 345.239)" fill="none" stroke="#0c5e46" stroke-width="2"/>
    <path id="Path_839901" data-name="Path 839901" d="M-8744.5-2423v18.508" transform="translate(499.831 434.576)" fill="none" stroke="#0c5e46" stroke-linecap="round" stroke-width="2"/>
    <path id="Path_839987" data-name="Path 839987" d="M-8744.5-2423v18.508" transform="translate(762.669 434.576)" fill="none" stroke="#0c5e46" stroke-linecap="round" stroke-width="2"/>
    <path id="Path_839899" data-name="Path 839899" d="M-8744.5-2423v42.249" transform="translate(-10539.5 6711.282) rotate(90)" fill="none" stroke="#0c5e46" stroke-width="2"/>
    <path id="Path_839900" data-name="Path 839900" d="M0,0V262.838" transform="translate(-7981.831 -1988.424) rotate(90)" fill="none" stroke="#0c5e46" stroke-width="2"/>
    <path id="Path_839995" data-name="Path 839995" d="M13,0H122a13,13,0,0,1,13,13v9a13,13,0,0,1-13,13H13A13,13,0,0,1,0,22V13A13,13,0,0,1,13,0Z" transform="translate(-8184 -2102.916)" fill="#e1fbff"/>
    <path id="Path_839996" data-name="Path 839996" d="M9.824-6.162H4.2v3.809h6.6V0H1.27V-14.219h9.512v2.373H4.2v3.389H9.824Zm5.156-4.4.088,1.182a3.713,3.713,0,0,1,3.037-1.377,2.818,2.818,0,0,1,2.8,1.611,3.628,3.628,0,0,1,3.174-1.611,3.152,3.152,0,0,1,2.559,1,4.6,4.6,0,0,1,.84,3.013V0H24.648V-6.738A2.012,2.012,0,0,0,24.3-8.052a1.558,1.558,0,0,0-1.24-.415A1.761,1.761,0,0,0,21.3-7.256L21.309,0H18.486V-6.729a1.988,1.988,0,0,0-.361-1.328,1.573,1.573,0,0,0-1.23-.41,1.829,1.829,0,0,0-1.738,1V0H12.334V-10.566ZM39.16-5.186a6.337,6.337,0,0,1-1.108,3.911A3.554,3.554,0,0,1,35.059.2,3.292,3.292,0,0,1,32.471-.918v4.98H29.648V-10.566h2.617l.1,1.035a3.317,3.317,0,0,1,2.676-1.23,3.578,3.578,0,0,1,3.037,1.445A6.509,6.509,0,0,1,39.16-5.332Zm-2.822-.205a4.159,4.159,0,0,0-.522-2.275,1.7,1.7,0,0,0-1.519-.8,1.848,1.848,0,0,0-1.826,1.016v4.326A1.879,1.879,0,0,0,34.316-2.08Q36.338-2.08,36.338-5.391ZM46.846-7.92A7.667,7.667,0,0,0,45.83-8a2.067,2.067,0,0,0-2.1,1.084V0H40.908V-10.566h2.666l.078,1.26a2.615,2.615,0,0,1,2.354-1.455,2.957,2.957,0,0,1,.879.127ZM52.881.2A5.187,5.187,0,0,1,49.1-1.23a5.068,5.068,0,0,1-1.46-3.8V-5.3a6.383,6.383,0,0,1,.615-2.847A4.515,4.515,0,0,1,50-10.083a4.893,4.893,0,0,1,2.573-.679,4.385,4.385,0,0,1,3.413,1.367,5.555,5.555,0,0,1,1.245,3.877v1.152H50.5a2.622,2.622,0,0,0,.825,1.66,2.5,2.5,0,0,0,1.743.625,3.046,3.046,0,0,0,2.549-1.182L57-1.709a4.237,4.237,0,0,1-1.719,1.4A5.639,5.639,0,0,1,52.881.2Zm-.322-8.682a1.764,1.764,0,0,0-1.362.569,2.946,2.946,0,0,0-.669,1.628h3.926v-.226a2.1,2.1,0,0,0-.508-1.457A1.819,1.819,0,0,0,52.559-8.486ZM64.551-2.92a.909.909,0,0,0-.513-.815,5.824,5.824,0,0,0-1.646-.532q-3.77-.791-3.77-3.2A2.9,2.9,0,0,1,59.79-9.819a4.708,4.708,0,0,1,3.052-.942,5.067,5.067,0,0,1,3.218.947,2.985,2.985,0,0,1,1.206,2.461H64.443a1.366,1.366,0,0,0-.391-1,1.653,1.653,0,0,0-1.221-.4,1.689,1.689,0,0,0-1.1.322,1.017,1.017,0,0,0-.391.82.87.87,0,0,0,.444.757,4.571,4.571,0,0,0,1.5.5,12.244,12.244,0,0,1,1.777.474,2.92,2.92,0,0,1,2.236,2.842A2.756,2.756,0,0,1,66.055-.7a5.35,5.35,0,0,1-3.2.894,5.588,5.588,0,0,1-2.358-.474,3.957,3.957,0,0,1-1.616-1.3,3.018,3.018,0,0,1-.586-1.782h2.676a1.473,1.473,0,0,0,.557,1.152,2.208,2.208,0,0,0,1.387.4,2.044,2.044,0,0,0,1.226-.308A.957.957,0,0,0,64.551-2.92ZM75.234,0a3.134,3.134,0,0,1-.283-.947A3.415,3.415,0,0,1,72.285.2a3.752,3.752,0,0,1-2.573-.9,2.89,2.89,0,0,1-1.021-2.266,2.986,2.986,0,0,1,1.245-2.578,6.144,6.144,0,0,1,3.6-.908h1.3v-.605a1.741,1.741,0,0,0-.376-1.172,1.479,1.479,0,0,0-1.187-.439,1.682,1.682,0,0,0-1.118.342,1.161,1.161,0,0,0-.405.938H68.926a2.835,2.835,0,0,1,.566-1.7,3.744,3.744,0,0,1,1.6-1.226,5.837,5.837,0,0,1,2.324-.444,4.611,4.611,0,0,1,3.1.981,3.433,3.433,0,0,1,1.147,2.759v4.58a5.052,5.052,0,0,0,.42,2.275V0ZM72.9-1.963a2.431,2.431,0,0,0,1.152-.278,1.828,1.828,0,0,0,.781-.747V-4.8H73.779q-2.119,0-2.256,1.465l-.01.166a1.13,1.13,0,0,0,.371.869A1.441,1.441,0,0,0,72.9-1.963ZM85.557-2.92a.909.909,0,0,0-.513-.815A5.824,5.824,0,0,0,83.4-4.268q-3.77-.791-3.77-3.2A2.9,2.9,0,0,1,80.8-9.819a4.708,4.708,0,0,1,3.052-.942,5.067,5.067,0,0,1,3.218.947,2.985,2.985,0,0,1,1.206,2.461H85.449a1.366,1.366,0,0,0-.391-1,1.653,1.653,0,0,0-1.221-.4,1.689,1.689,0,0,0-1.1.322,1.017,1.017,0,0,0-.391.82.87.87,0,0,0,.444.757,4.571,4.571,0,0,0,1.5.5,12.244,12.244,0,0,1,1.777.474A2.92,2.92,0,0,1,88.3-3.037,2.756,2.756,0,0,1,87.061-.7a5.35,5.35,0,0,1-3.2.894A5.588,5.588,0,0,1,81.5-.278a3.957,3.957,0,0,1-1.616-1.3A3.018,3.018,0,0,1,79.3-3.359h2.676a1.473,1.473,0,0,0,.557,1.152,2.208,2.208,0,0,0,1.387.4,2.044,2.044,0,0,0,1.226-.308A.957.957,0,0,0,85.557-2.92Z" transform="translate(-8161 -2077.916)" fill="#12263f"/>
    <path id="Path_839997" data-name="Path 839997" d="M4,0H98a4,4,0,0,1,0,8H4A4,4,0,0,1,4,0Z" transform="translate(-8168 -1969.916)" fill="#e1efe3"/>
    <path id="Path_839998" data-name="Path 839998" d="M4,0H98a4,4,0,0,1,0,8H4A4,4,0,0,1,4,0Z" transform="translate(-8032.831 -1969.916)" fill="#e1efe3"/>
    <path id="Path_839999" data-name="Path 839999" d="M4,0H98a4,4,0,0,1,0,8H4A4,4,0,0,1,4,0Z" transform="translate(-8295.169 -1969.916)" fill="#e1efe3"/>
    <path id="Path_839989" data-name="Path 839989" d="M-8744.5-2423v24.912" transform="translate(585.751 376.576)" fill="none" stroke="#0c5e46" stroke-linecap="round" stroke-width="2"/>
  </g>
</svg>
