<svg xmlns="http://www.w3.org/2000/svg" xmlns:xlink="http://www.w3.org/1999/xlink" width="1240" height="440" viewBox="0 0 1240 440">
  <defs>
    <linearGradient id="linear-gradient" x1="0.5" x2="0.5" y2="1" gradientUnits="objectBoundingBox">
      <stop offset="0" stop-color="#fff"/>
      <stop offset="1" stop-color="#eff6f9"/>
    </linearGradient>
  </defs>
  <g id="Group_1086754" data-name="Group 1086754" transform="translate(-180.36 -1736)">
    <path id="Path_839944" data-name="Path 839944" d="M0,0H1240V440H0Z" transform="translate(1420.36 2176) rotate(180)" fill="url(#linear-gradient)"/>
    <path id="Path_214670" data-name="Path 214670" d="M0,0H7.72l7.72,10.39H7.72Z" transform="translate(1409.97 2158.465) rotate(-90)" fill="#3ae3fe"/>
    <path id="Path_214675" data-name="Path 214675" d="M0,0H7.72l7.72,10.39H7.72Z" transform="translate(1409.97 2123.726) rotate(-90)" fill="#3ae3fe"/>
    <path id="Path_214671" data-name="Path 214671" d="M0,0H7.72l7.72,10.39H7.72Z" transform="translate(1409.97 2146.885) rotate(-90)" fill="#3ae3fe"/>
    <path id="Path_214674" data-name="Path 214674" d="M0,0H7.72l7.72,10.39H7.72Z" transform="translate(1409.97 2112.146) rotate(-90)" fill="#3ae3fe"/>
    <path id="Path_214672" data-name="Path 214672" d="M0,0H7.72l7.72,10.39H7.72Z" transform="translate(1409.97 2135.306) rotate(-90)" fill="#3ae3fe"/>
    <path id="Path_214673" data-name="Path 214673" d="M0,0H7.72l7.72,10.39H7.72Z" transform="translate(1409.97 2100.566) rotate(-90)" fill="#3ae3fe"/>
    <path id="Path_214670-2" data-name="Path 214670" d="M0,0H7.72l7.72,10.39H7.72Z" transform="translate(180.36 1830.82) rotate(-90)" fill="#03386e"/>
    <path id="Path_214675-2" data-name="Path 214675" d="M0,0H7.72l7.72,10.39H7.72Z" transform="translate(180.36 1796.081) rotate(-90)" fill="#03386e"/>
    <path id="Path_214671-2" data-name="Path 214671" d="M0,0H7.72l7.72,10.39H7.72Z" transform="translate(180.36 1819.24) rotate(-90)" fill="#03386e"/>
    <path id="Path_214674-2" data-name="Path 214674" d="M0,0H7.72l7.72,10.39H7.72Z" transform="translate(180.36 1784.502) rotate(-90)" fill="#03386e"/>
    <path id="Path_214672-2" data-name="Path 214672" d="M0,0H7.72l7.72,10.39H7.72Z" transform="translate(180.36 1807.661) rotate(-90)" fill="#03386e"/>
    <path id="Path_214673-2" data-name="Path 214673" d="M0,0H7.72l7.72,10.39H7.72Z" transform="translate(180.36 1772.922) rotate(-90)" fill="#03386e"/>
    <path id="Path_839061" data-name="Path 839061" d="M286.923,8.734,212.57,83.087,308.1,178.611,403.62,83.087,329.268,8.734a30.03,30.03,0,0,0-42.345,0" transform="translate(501.548 1769.001)" fill="#2b7e3b"/>
    <path id="Path_839062" data-name="Path 839062" d="M289.918,27.035l-67.1,67.1,86.212,86.212,86.212-86.212-67.1-67.1a27.1,27.1,0,0,0-38.216,0" transform="translate(500.618 1768.172)" fill="#e1efe3"/>
    <path id="Path_839063" data-name="Path 839063" d="M213.321,309.736l74.353,74.353a30.031,30.031,0,0,0,42.344,0l74.353-74.353-95.525-95.525Z" transform="translate(501.48 1749.55)" fill="#03386e" opacity="0.78"/>
    <path id="Path_839064" data-name="Path 839064" d="M223.565,300.423l67.1,67.1a27.1,27.1,0,0,0,38.217,0l67.1-67.1-86.212-86.212Z" transform="translate(500.55 1748.641)" fill="#eaeff3"/>
    <path id="Path_839065" data-name="Path 839065" d="M326.892,196.165l95.525,95.525,74.352-74.353a30.03,30.03,0,0,0,0-42.345l-74.352-74.352Z" transform="translate(491.167 1759.861)" fill="#6debff"/>
    <path id="Path_839066" data-name="Path 839066" d="M326.892,197.1,413.1,283.307l67.1-67.1a27.1,27.1,0,0,0,0-38.217l-67.1-67.1Z" transform="translate(490.258 1758.933)" fill="#e1fbff"/>
    <path id="Path_839068" data-name="Path 839068" d="M121.415,174.242a30.03,30.03,0,0,0,0,42.345l74.353,74.352,95.524-95.524L195.768,99.889Z" transform="translate(510.618 1759.931)" fill="#b0c0d2"/>
    <path id="Path_839069" data-name="Path 839069" d="M139.716,177.237a27.1,27.1,0,0,0,0,38.216l67.1,67.1,86.212-86.212L206.82,110.133Z" transform="translate(509.789 1759)" fill="#dee4f0"/>
    <path id="Path_839071" data-name="Path 839071" d="M370.681,189.1a68.9,68.9,0,1,1-68.9-68.9,68.9,68.9,0,0,1,68.9,68.9" transform="translate(509.037 1764.62)" fill="#e8e8e8"/>
    <path id="Path_839072" data-name="Path 839072" d="M373.758,200.185a60.7,60.7,0,1,1-60.7-60.705,60.7,60.7,0,0,1,60.7,60.705" transform="translate(497.914 1753.521)" fill="#f7f7f7"/>
    <path id="Path_839945" data-name="Path 839945" d="M8.512,10.07h-4.5v3.047H9.293V15H1.668V3.625H9.277v1.9H4.012V8.234h4.5ZM15.1,12.664a.727.727,0,0,0-.41-.652,4.659,4.659,0,0,0-1.316-.426q-3.016-.633-3.016-2.562a2.323,2.323,0,0,1,.934-1.879,3.766,3.766,0,0,1,2.441-.754,4.053,4.053,0,0,1,2.574.758,2.388,2.388,0,0,1,.965,1.969H15.012a1.092,1.092,0,0,0-.312-.8A1.322,1.322,0,0,0,13.723,8a1.351,1.351,0,0,0-.883.258.814.814,0,0,0-.312.656.7.7,0,0,0,.355.605,3.657,3.657,0,0,0,1.2.4A9.8,9.8,0,0,1,15.5,10.3a2.336,2.336,0,0,1,1.789,2.273,2.2,2.2,0,0,1-.992,1.871,4.28,4.28,0,0,1-2.562.715,4.47,4.47,0,0,1-1.887-.379,3.166,3.166,0,0,1-1.293-1.039,2.414,2.414,0,0,1-.469-1.426H12.23a1.179,1.179,0,0,0,.445.922,1.766,1.766,0,0,0,1.109.32,1.635,1.635,0,0,0,.98-.246A.766.766,0,0,0,15.1,12.664Zm6.352-8.2V6.547h1.445V8.2H21.449v4.219a1.007,1.007,0,0,0,.18.672.9.9,0,0,0,.688.2,3.6,3.6,0,0,0,.664-.055v1.711a4.648,4.648,0,0,1-1.367.2,2.156,2.156,0,0,1-2.422-2.4V8.2H17.957V6.547h1.234V4.469Zm7.453,4.2A6.134,6.134,0,0,0,28.09,8.6a1.654,1.654,0,0,0-1.68.867V15H24.152V6.547h2.133l.063,1.008A2.092,2.092,0,0,1,28.23,6.391a2.366,2.366,0,0,1,.7.1ZM34.652,15a2.507,2.507,0,0,1-.227-.758,2.732,2.732,0,0,1-2.133.914,3,3,0,0,1-2.059-.719,2.312,2.312,0,0,1-.816-1.812,2.389,2.389,0,0,1,1-2.062,4.915,4.915,0,0,1,2.879-.727h1.039V9.352a1.393,1.393,0,0,0-.3-.937,1.183,1.183,0,0,0-.949-.352,1.345,1.345,0,0,0-.895.273.929.929,0,0,0-.324.75H29.605a2.268,2.268,0,0,1,.453-1.359,3,3,0,0,1,1.281-.98A4.669,4.669,0,0,1,33.2,6.391a3.689,3.689,0,0,1,2.48.785A2.747,2.747,0,0,1,36.6,9.383v3.664a4.041,4.041,0,0,0,.336,1.82V15Zm-1.867-1.57a1.945,1.945,0,0,0,.922-.223,1.462,1.462,0,0,0,.625-.6V11.156h-.844q-1.7,0-1.8,1.172l-.008.133a.9.9,0,0,0,.3.7A1.153,1.153,0,0,0,32.785,13.43Zm8.25-8.961V6.547H42.48V8.2H41.035v4.219a1.007,1.007,0,0,0,.18.672.9.9,0,0,0,.688.2,3.6,3.6,0,0,0,.664-.055v1.711a4.648,4.648,0,0,1-1.367.2,2.156,2.156,0,0,1-2.422-2.4V8.2H37.543V6.547h1.234V4.469Zm6.594,10.688A4.15,4.15,0,0,1,44.6,14.016a4.054,4.054,0,0,1-1.168-3.039v-.219a5.106,5.106,0,0,1,.492-2.277A3.612,3.612,0,0,1,45.32,6.934a3.914,3.914,0,0,1,2.059-.543,3.508,3.508,0,0,1,2.73,1.094,4.444,4.444,0,0,1,1,3.1v.922H45.723a2.1,2.1,0,0,0,.66,1.328,2,2,0,0,0,1.395.5,2.437,2.437,0,0,0,2.039-.945l1.109,1.242a3.389,3.389,0,0,1-1.375,1.121A4.511,4.511,0,0,1,47.629,15.156Zm-.258-6.945a1.411,1.411,0,0,0-1.09.455,2.357,2.357,0,0,0-.535,1.3h3.141V9.788a1.681,1.681,0,0,0-.406-1.165A1.456,1.456,0,0,0,47.371,8.211Zm4.688,2.5a4.954,4.954,0,0,1,.926-3.133,3,3,0,0,1,2.5-1.187,2.631,2.631,0,0,1,2.164.953l.094-.8h2.047v8.172a3.613,3.613,0,0,1-.5,1.93,3.236,3.236,0,0,1-1.418,1.25,4.985,4.985,0,0,1-2.141.43,4.635,4.635,0,0,1-1.812-.371A3.217,3.217,0,0,1,52.574,17l1-1.375a2.645,2.645,0,0,0,2.047.945,1.936,1.936,0,0,0,1.4-.48,1.8,1.8,0,0,0,.5-1.363v-.453a2.612,2.612,0,0,1-2.055.883A2.992,2.992,0,0,1,53,13.965a4.953,4.953,0,0,1-.941-3.16Zm2.258.168a3.085,3.085,0,0,0,.461,1.8,1.466,1.466,0,0,0,1.266.653,1.568,1.568,0,0,0,1.477-.775V9a1.564,1.564,0,0,0-1.461-.775,1.476,1.476,0,0,0-1.277.665A3.477,3.477,0,0,0,54.316,10.879ZM63.9,15H61.637V6.547H63.9ZM61.5,4.359a1.112,1.112,0,0,1,.34-.836,1.465,1.465,0,0,1,1.848,0,1.105,1.105,0,0,1,.344.836,1.108,1.108,0,0,1-.348.844,1.448,1.448,0,0,1-1.836,0A1.108,1.108,0,0,1,61.5,4.359ZM70.66,15a2.507,2.507,0,0,1-.227-.758,2.732,2.732,0,0,1-2.133.914,3,3,0,0,1-2.059-.719,2.312,2.312,0,0,1-.816-1.812,2.389,2.389,0,0,1,1-2.062A4.915,4.915,0,0,1,69.3,9.836H70.34V9.352a1.393,1.393,0,0,0-.3-.937,1.183,1.183,0,0,0-.949-.352,1.345,1.345,0,0,0-.895.273.929.929,0,0,0-.324.75H65.613a2.268,2.268,0,0,1,.453-1.359,3,3,0,0,1,1.281-.98,4.669,4.669,0,0,1,1.859-.355,3.689,3.689,0,0,1,2.48.785,2.747,2.747,0,0,1,.918,2.207v3.664a4.041,4.041,0,0,0,.336,1.82V15Zm-1.867-1.57a1.945,1.945,0,0,0,.922-.223,1.462,1.462,0,0,0,.625-.6V11.156H69.5q-1.7,0-1.8,1.172l-.008.133a.9.9,0,0,0,.3.7A1.153,1.153,0,0,0,68.793,13.43Zm10.125-.766a.727.727,0,0,0-.41-.652,4.659,4.659,0,0,0-1.316-.426q-3.016-.633-3.016-2.562a2.323,2.323,0,0,1,.934-1.879,3.766,3.766,0,0,1,2.441-.754,4.053,4.053,0,0,1,2.574.758,2.388,2.388,0,0,1,.965,1.969H78.832a1.092,1.092,0,0,0-.312-.8A1.322,1.322,0,0,0,77.543,8a1.351,1.351,0,0,0-.883.258.814.814,0,0,0-.312.656.7.7,0,0,0,.355.605,3.657,3.657,0,0,0,1.2.4,9.8,9.8,0,0,1,1.422.379,2.336,2.336,0,0,1,1.789,2.273,2.2,2.2,0,0,1-.992,1.871,4.28,4.28,0,0,1-2.562.715,4.47,4.47,0,0,1-1.887-.379,3.166,3.166,0,0,1-1.293-1.039,2.414,2.414,0,0,1-.469-1.426h2.141a1.179,1.179,0,0,0,.445.922,1.766,1.766,0,0,0,1.109.32,1.635,1.635,0,0,0,.98-.246A.766.766,0,0,0,78.918,12.664ZM86.2,10.711a5.094,5.094,0,0,1,.887-3.148,2.877,2.877,0,0,1,2.426-1.172,2.589,2.589,0,0,1,2.039.922V3h2.266V15H91.777l-.109-.9A2.657,2.657,0,0,1,89.5,15.156,2.869,2.869,0,0,1,87.1,13.98,5.258,5.258,0,0,1,86.2,10.711Zm2.258.168a3.337,3.337,0,0,0,.414,1.823,1.349,1.349,0,0,0,1.2.634,1.511,1.511,0,0,0,1.477-.884V9.111a1.489,1.489,0,0,0-1.461-.884Q88.457,8.227,88.457,10.879Zm11,4.277a4.15,4.15,0,0,1-3.027-1.141,4.054,4.054,0,0,1-1.168-3.039v-.219a5.106,5.106,0,0,1,.492-2.277,3.612,3.612,0,0,1,1.395-1.547,3.914,3.914,0,0,1,2.059-.543,3.508,3.508,0,0,1,2.73,1.094,4.444,4.444,0,0,1,1,3.1v.922H97.551a2.1,2.1,0,0,0,.66,1.328,2,2,0,0,0,1.395.5,2.437,2.437,0,0,0,2.039-.945l1.109,1.242a3.389,3.389,0,0,1-1.375,1.121A4.511,4.511,0,0,1,99.457,15.156ZM99.2,8.211a1.411,1.411,0,0,0-1.09.455,2.357,2.357,0,0,0-.535,1.3h3.141V9.788a1.681,1.681,0,0,0-.406-1.165A1.456,1.456,0,0,0,99.2,8.211ZM9.4,24.547l.07.945a2.971,2.971,0,0,1,2.43-1.1,2.255,2.255,0,0,1,2.242,1.289,2.9,2.9,0,0,1,2.539-1.289,2.521,2.521,0,0,1,2.047.8A3.681,3.681,0,0,1,19.4,27.6V33H17.133V27.609a1.61,1.61,0,0,0-.281-1.051,1.246,1.246,0,0,0-.992-.332,1.409,1.409,0,0,0-1.406.969l.008,5.8H12.2V27.617a1.59,1.59,0,0,0-.289-1.062,1.259,1.259,0,0,0-.984-.328,1.463,1.463,0,0,0-1.391.8V33H7.281V24.547Zm15.625,8.609A4.15,4.15,0,0,1,22,32.016a4.054,4.054,0,0,1-1.168-3.039v-.219a5.106,5.106,0,0,1,.492-2.277,3.612,3.612,0,0,1,1.395-1.547,3.914,3.914,0,0,1,2.059-.543,3.508,3.508,0,0,1,2.73,1.094,4.444,4.444,0,0,1,1,3.1v.922H23.117a2.1,2.1,0,0,0,.66,1.328,2,2,0,0,0,1.395.5,2.437,2.437,0,0,0,2.039-.945l1.109,1.242a3.389,3.389,0,0,1-1.375,1.121A4.511,4.511,0,0,1,25.023,33.156Zm-.258-6.945a1.411,1.411,0,0,0-1.09.455,2.357,2.357,0,0,0-.535,1.3h3.141v-.181a1.681,1.681,0,0,0-.406-1.165A1.456,1.456,0,0,0,24.766,26.211Zm9.766.453a6.134,6.134,0,0,0-.812-.062,1.654,1.654,0,0,0-1.68.867V33H29.781V24.547h2.133l.063,1.008a2.092,2.092,0,0,1,1.883-1.164,2.366,2.366,0,0,1,.7.1Zm4.453,4.672A1.481,1.481,0,0,0,40,30.992a1.2,1.2,0,0,0,.406-.914h2.117a2.9,2.9,0,0,1-.469,1.574,3.093,3.093,0,0,1-1.262,1.109,3.949,3.949,0,0,1-1.77.395A3.67,3.67,0,0,1,36.164,32a4.56,4.56,0,0,1-1.047-3.184v-.148a4.508,4.508,0,0,1,1.039-3.117,3.627,3.627,0,0,1,2.852-1.164,3.555,3.555,0,0,1,2.543.9,3.2,3.2,0,0,1,.973,2.4H40.406A1.551,1.551,0,0,0,40,26.623a1.51,1.51,0,0,0-2.223.163,3.333,3.333,0,0,0-.4,1.866v.235a3.375,3.375,0,0,0,.4,1.878A1.377,1.377,0,0,0,38.984,31.336ZM48.711,33a2.507,2.507,0,0,1-.227-.758,2.732,2.732,0,0,1-2.133.914,3,3,0,0,1-2.059-.719,2.312,2.312,0,0,1-.816-1.812,2.389,2.389,0,0,1,1-2.062,4.915,4.915,0,0,1,2.879-.727h1.039v-.484a1.393,1.393,0,0,0-.3-.937,1.183,1.183,0,0,0-.949-.352,1.345,1.345,0,0,0-.895.273.929.929,0,0,0-.324.75H43.664a2.268,2.268,0,0,1,.453-1.359,3,3,0,0,1,1.281-.98,4.669,4.669,0,0,1,1.859-.355,3.689,3.689,0,0,1,2.48.785,2.747,2.747,0,0,1,.918,2.207v3.664a4.041,4.041,0,0,0,.336,1.82V33Zm-1.867-1.57a1.945,1.945,0,0,0,.922-.223,1.462,1.462,0,0,0,.625-.6V29.156h-.844q-1.7,0-1.8,1.172l-.008.133a.9.9,0,0,0,.3.7A1.153,1.153,0,0,0,46.844,31.43Zm5.2-2.719a5.094,5.094,0,0,1,.887-3.148,2.877,2.877,0,0,1,2.426-1.172,2.589,2.589,0,0,1,2.039.922V21h2.266V33H57.617l-.109-.9a2.657,2.657,0,0,1-2.172,1.055,2.869,2.869,0,0,1-2.395-1.176A5.258,5.258,0,0,1,52.039,28.711Zm2.258.168a3.337,3.337,0,0,0,.414,1.823,1.349,1.349,0,0,0,1.2.634,1.511,1.511,0,0,0,1.477-.884V27.111a1.489,1.489,0,0,0-1.461-.884Q54.3,26.227,54.3,28.879Zm6.758-.184a5.013,5.013,0,0,1,.484-2.242,3.546,3.546,0,0,1,1.395-1.523,4.069,4.069,0,0,1,2.113-.539,3.849,3.849,0,0,1,2.793,1.047,4.2,4.2,0,0,1,1.207,2.844l.016.578a4.418,4.418,0,0,1-1.086,3.121,4.209,4.209,0,0,1-5.832,0,4.5,4.5,0,0,1-1.09-3.187Zm2.258.16a3.16,3.16,0,0,0,.453,1.843,1.628,1.628,0,0,0,2.578.008,3.457,3.457,0,0,0,.461-2.015,3.128,3.128,0,0,0-.461-1.831,1.5,1.5,0,0,0-1.3-.649,1.474,1.474,0,0,0-1.281.646A3.516,3.516,0,0,0,63.313,28.856Zm7.25,3.035a1.137,1.137,0,0,1,.363-.875,1.412,1.412,0,0,1,1.828,0,1.137,1.137,0,0,1,.363.875,1.121,1.121,0,0,1-.359.863,1.435,1.435,0,0,1-1.836,0A1.121,1.121,0,0,1,70.563,31.891Zm0-6.4a1.137,1.137,0,0,1,.363-.875,1.412,1.412,0,0,1,1.828,0,1.137,1.137,0,0,1,.363.875,1.121,1.121,0,0,1-.359.863,1.435,1.435,0,0,1-1.836,0A1.121,1.121,0,0,1,70.563,25.492Zm14.977,3.227h1.289v1.82H85.539V33H83.281V30.539H78.617l-.1-1.422,4.742-7.492h2.281Zm-4.773,0h2.516V24.7l-.148.258Zm9.859.273V33H88.281V21.625h4.438a5.134,5.134,0,0,1,2.254.469,3.454,3.454,0,0,1,1.5,1.332,3.714,3.714,0,0,1,.523,1.965,3.266,3.266,0,0,1-1.145,2.637,4.767,4.767,0,0,1-3.168.965Zm0-1.9h2.094a2.059,2.059,0,0,0,1.418-.437,1.591,1.591,0,0,0,.488-1.25,1.876,1.876,0,0,0-.492-1.352,1.839,1.839,0,0,0-1.359-.531H90.625Z" transform="translate(758.967 1935.001)" fill="#12263f"/>
    <path id="Path_839946" data-name="Path 839946" d="M7.75,9.742H2.82v4.031H8.547V15H1.32V3.625H8.469V4.852H2.82V8.516H7.75ZM11.758,15H10.313V3h1.445Zm13.414-4.133a5.062,5.062,0,0,1-.883,3.109,2.829,2.829,0,0,1-2.391,1.18,3.1,3.1,0,0,1-2.422-.977v4.07H18.031V6.547h1.32l.07.938a2.977,2.977,0,0,1,2.453-1.094,2.882,2.882,0,0,1,2.41,1.148,5.117,5.117,0,0,1,.887,3.2ZM23.727,10.7a3.735,3.735,0,0,0-.609-2.258,1.963,1.963,0,0,0-1.672-.828,2.125,2.125,0,0,0-1.969,1.164V12.82a2.129,2.129,0,0,0,1.984,1.156,1.954,1.954,0,0,0,1.652-.824A4.077,4.077,0,0,0,23.727,10.7Zm7.367-2.859a4.331,4.331,0,0,0-.711-.055A1.9,1.9,0,0,0,28.453,9v6H27.008V6.547h1.406l.023.977a2.251,2.251,0,0,1,2.016-1.133,1.477,1.477,0,0,1,.641.109Zm.789,2.852a4.993,4.993,0,0,1,.488-2.234A3.643,3.643,0,0,1,33.73,6.93a3.7,3.7,0,0,1,1.988-.539,3.565,3.565,0,0,1,2.793,1.2,4.6,4.6,0,0,1,1.066,3.18v.1a5.036,5.036,0,0,1-.473,2.215,3.589,3.589,0,0,1-1.352,1.527,3.743,3.743,0,0,1-2.02.547,3.556,3.556,0,0,1-2.785-1.2A4.575,4.575,0,0,1,31.883,10.8Zm1.453.172a3.616,3.616,0,0,0,.652,2.258,2.211,2.211,0,0,0,3.5-.012,3.955,3.955,0,0,0,.648-2.418,3.61,3.61,0,0,0-.66-2.254,2.1,2.1,0,0,0-1.754-.863,2.075,2.075,0,0,0-1.727.852A3.925,3.925,0,0,0,33.336,10.867Zm7.7-.164a4.952,4.952,0,0,1,.922-3.129,3.137,3.137,0,0,1,4.766-.168V3h1.445V15H46.844l-.07-.906a2.943,2.943,0,0,1-2.414,1.063,2.887,2.887,0,0,1-2.395-1.2,5.008,5.008,0,0,1-.926-3.141Zm1.445.164a3.749,3.749,0,0,0,.594,2.25,1.92,1.92,0,0,0,1.641.813A2.108,2.108,0,0,0,46.727,12.7V8.813a2.125,2.125,0,0,0-1.992-1.2,1.929,1.929,0,0,0-1.656.82A4.128,4.128,0,0,0,42.484,10.867Zm13.148,3.3a3.07,3.07,0,0,1-2.477.992,2.628,2.628,0,0,1-2.059-.785,3.4,3.4,0,0,1-.715-2.324v-5.5h1.445v5.461q0,1.922,1.563,1.922a2.163,2.163,0,0,0,2.2-1.234V6.547h1.445V15H55.664Zm6.992-.187a2.082,2.082,0,0,0,1.352-.469,1.649,1.649,0,0,0,.641-1.172h1.367a2.621,2.621,0,0,1-.5,1.383,3.293,3.293,0,0,1-1.23,1.047,3.55,3.55,0,0,1-1.629.391A3.482,3.482,0,0,1,59.879,14a4.59,4.59,0,0,1-1.02-3.152v-.242a5.089,5.089,0,0,1,.453-2.2,3.451,3.451,0,0,1,1.3-1.492,3.7,3.7,0,0,1,2-.531,3.39,3.39,0,0,1,2.363.852,3.043,3.043,0,0,1,1,2.211H64.617A1.992,1.992,0,0,0,64,8.105a1.932,1.932,0,0,0-1.379-.527,2.023,2.023,0,0,0-1.707.793,3.724,3.724,0,0,0-.605,2.293v.273a3.65,3.65,0,0,0,.6,2.25A2.033,2.033,0,0,0,62.625,13.977ZM69.57,4.5V6.547h1.578V7.664H69.57v5.249a1.173,1.173,0,0,0,.211.763.888.888,0,0,0,.719.254,3.5,3.5,0,0,0,.688-.094V15a4.215,4.215,0,0,1-1.109.155,1.8,1.8,0,0,1-1.461-.586,2.517,2.517,0,0,1-.492-1.664V7.664H66.586V6.547h1.539V4.5ZM72.3,10.7a4.993,4.993,0,0,1,.488-2.234A3.643,3.643,0,0,1,74.145,6.93a3.7,3.7,0,0,1,1.988-.539,3.565,3.565,0,0,1,2.793,1.2,4.6,4.6,0,0,1,1.066,3.18v.1a5.036,5.036,0,0,1-.473,2.215,3.589,3.589,0,0,1-1.352,1.527,3.743,3.743,0,0,1-2.02.547,3.556,3.556,0,0,1-2.785-1.2A4.575,4.575,0,0,1,72.3,10.8Zm1.453.172a3.616,3.616,0,0,0,.652,2.258,2.211,2.211,0,0,0,3.5-.012,3.955,3.955,0,0,0,.648-2.418,3.61,3.61,0,0,0-.66-2.254,2.1,2.1,0,0,0-1.754-.863,2.075,2.075,0,0,0-1.727.852A3.925,3.925,0,0,0,73.75,10.867ZM85.383,10.7a4.993,4.993,0,0,1,.488-2.234A3.643,3.643,0,0,1,87.23,6.93a3.7,3.7,0,0,1,1.988-.539,3.565,3.565,0,0,1,2.793,1.2,4.6,4.6,0,0,1,1.066,3.18v.1a5.036,5.036,0,0,1-.473,2.215,3.589,3.589,0,0,1-1.352,1.527,3.743,3.743,0,0,1-2.02.547,3.556,3.556,0,0,1-2.785-1.2A4.575,4.575,0,0,1,85.383,10.8Zm1.453.172a3.616,3.616,0,0,0,.652,2.258,2.211,2.211,0,0,0,3.5-.012,3.955,3.955,0,0,0,.648-2.418,3.61,3.61,0,0,0-.66-2.254,2.1,2.1,0,0,0-1.754-.863,2.075,2.075,0,0,0-1.727.852A3.925,3.925,0,0,0,86.836,10.867Zm16.938,1.891a1.064,1.064,0,0,0-.441-.91,4.249,4.249,0,0,0-1.539-.559,7.277,7.277,0,0,1-1.742-.562,2.479,2.479,0,0,1-.953-.781,1.869,1.869,0,0,1-.309-1.078,2.193,2.193,0,0,1,.879-1.758,3.432,3.432,0,0,1,2.246-.719,3.532,3.532,0,0,1,2.332.742,2.357,2.357,0,0,1,.895,1.9h-1.453a1.3,1.3,0,0,0-.5-1.023,1.888,1.888,0,0,0-1.27-.43,1.976,1.976,0,0,0-1.234.344,1.082,1.082,0,0,0-.445.9.877.877,0,0,0,.414.789,5.1,5.1,0,0,0,1.5.508,7.8,7.8,0,0,1,1.754.578,2.558,2.558,0,0,1,1,.809,1.988,1.988,0,0,1,.324,1.152,2.163,2.163,0,0,1-.906,1.816,3.8,3.8,0,0,1-2.352.684,4.257,4.257,0,0,1-1.8-.359,2.922,2.922,0,0,1-1.223-1A2.42,2.42,0,0,1,98.5,12.4h1.445a1.5,1.5,0,0,0,.582,1.152,2.258,2.258,0,0,0,1.434.426,2.331,2.331,0,0,0,1.316-.332A1.02,1.02,0,0,0,103.773,12.758Zm6.836,2.4a3.693,3.693,0,0,1-2.8-1.129,4.19,4.19,0,0,1-1.078-3.02v-.266a5.073,5.073,0,0,1,.48-2.246,3.748,3.748,0,0,1,1.344-1.547,3.378,3.378,0,0,1,1.871-.559,3.166,3.166,0,0,1,2.563,1.086,4.7,4.7,0,0,1,.914,3.109v.6H108.18a3,3,0,0,0,.73,2.02,2.3,2.3,0,0,0,1.777.77,2.517,2.517,0,0,0,1.3-.312,3.259,3.259,0,0,0,.93-.828l.883.688A3.55,3.55,0,0,1,110.609,15.156Zm-.18-7.578a1.928,1.928,0,0,0-1.469.637A3.1,3.1,0,0,0,108.227,10h4.234V9.891a2.753,2.753,0,0,0-.594-1.707A1.815,1.815,0,0,0,110.43,7.578Zm9.234.266a4.331,4.331,0,0,0-.711-.055A1.9,1.9,0,0,0,117.023,9v6h-1.445V6.547h1.406l.023.977a2.251,2.251,0,0,1,2.016-1.133,1.477,1.477,0,0,1,.641.109Zm4.258,5.2,2.094-6.492h1.477L124.461,15h-1.1L120.3,6.547h1.477ZM130.453,15h-1.445V6.547h1.445ZM128.891,4.3a.863.863,0,0,1,.215-.594.807.807,0,0,1,.637-.242.819.819,0,0,1,.641.242.854.854,0,0,1,.219.594.826.826,0,0,1-.219.586.834.834,0,0,1-.641.234.821.821,0,0,1-.637-.234A.834.834,0,0,1,128.891,4.3Zm7.266,9.672a2.082,2.082,0,0,0,1.352-.469,1.649,1.649,0,0,0,.641-1.172h1.367a2.621,2.621,0,0,1-.5,1.383,3.293,3.293,0,0,1-1.23,1.047,3.55,3.55,0,0,1-1.629.391A3.482,3.482,0,0,1,133.41,14a4.59,4.59,0,0,1-1.02-3.152v-.242a5.089,5.089,0,0,1,.453-2.2,3.451,3.451,0,0,1,1.3-1.492,3.7,3.7,0,0,1,2-.531,3.39,3.39,0,0,1,2.363.852,3.043,3.043,0,0,1,1,2.211h-1.367a1.992,1.992,0,0,0-.621-1.348,1.932,1.932,0,0,0-1.379-.527,2.023,2.023,0,0,0-1.707.793,3.724,3.724,0,0,0-.605,2.293v.273a3.65,3.65,0,0,0,.6,2.25A2.033,2.033,0,0,0,136.156,13.977ZM142.711,15h-1.445V6.547h1.445ZM141.148,4.3a.863.863,0,0,1,.215-.594A.807.807,0,0,1,142,3.469a.819.819,0,0,1,.641.242.854.854,0,0,1,.219.594.826.826,0,0,1-.219.586.834.834,0,0,1-.641.234.821.821,0,0,1-.637-.234A.834.834,0,0,1,141.148,4.3Zm3.492,6.391a4.993,4.993,0,0,1,.488-2.234,3.642,3.642,0,0,1,1.359-1.531,3.7,3.7,0,0,1,1.988-.539,3.565,3.565,0,0,1,2.793,1.2,4.6,4.6,0,0,1,1.066,3.18v.1a5.036,5.036,0,0,1-.473,2.215,3.589,3.589,0,0,1-1.352,1.527,3.743,3.743,0,0,1-2.02.547,3.556,3.556,0,0,1-2.785-1.2,4.575,4.575,0,0,1-1.066-3.164Zm1.453.172a3.616,3.616,0,0,0,.652,2.258,2.211,2.211,0,0,0,3.5-.012,3.954,3.954,0,0,0,.648-2.418,3.61,3.61,0,0,0-.66-2.254,2.1,2.1,0,0,0-1.754-.863,2.075,2.075,0,0,0-1.727.852A3.925,3.925,0,0,0,146.094,10.867Z" transform="translate(390 2032.74)" fill="#12263f"/>
    <path id="Path_839947" data-name="Path 839947" d="M7.75,9.742H2.82v4.031H8.547V15H1.32V3.625H8.469V4.852H2.82V8.516H7.75ZM11.758,15H10.313V3h1.445Zm13.414-4.133a5.062,5.062,0,0,1-.883,3.109,2.829,2.829,0,0,1-2.391,1.18,3.1,3.1,0,0,1-2.422-.977v4.07H18.031V6.547h1.32l.07.938a2.977,2.977,0,0,1,2.453-1.094,2.882,2.882,0,0,1,2.41,1.148,5.117,5.117,0,0,1,.887,3.2ZM23.727,10.7a3.735,3.735,0,0,0-.609-2.258,1.963,1.963,0,0,0-1.672-.828,2.125,2.125,0,0,0-1.969,1.164V12.82a2.129,2.129,0,0,0,1.984,1.156,1.954,1.954,0,0,0,1.652-.824A4.077,4.077,0,0,0,23.727,10.7Zm8.5,3.461a3.07,3.07,0,0,1-2.477.992,2.628,2.628,0,0,1-2.059-.785,3.4,3.4,0,0,1-.715-2.324v-5.5h1.445v5.461q0,1.922,1.563,1.922a2.163,2.163,0,0,0,2.2-1.234V6.547h1.445V15H32.258ZM37.2,6.547l.047,1.063a3.08,3.08,0,0,1,2.531-1.219q2.68,0,2.7,3.023V15H41.031V9.406a1.946,1.946,0,0,0-.418-1.352,1.675,1.675,0,0,0-1.277-.437,2.086,2.086,0,0,0-1.234.375,2.546,2.546,0,0,0-.828.984V15H35.828V6.547ZM46.617,4.5V6.547H48.2V7.664H46.617v5.249a1.173,1.173,0,0,0,.211.763.888.888,0,0,0,.719.254,3.5,3.5,0,0,0,.688-.094V15a4.215,4.215,0,0,1-1.109.155,1.8,1.8,0,0,1-1.461-.586,2.517,2.517,0,0,1-.492-1.664V7.664H43.633V6.547h1.539V4.5Zm2.727,6.2a4.993,4.993,0,0,1,.488-2.234A3.643,3.643,0,0,1,51.191,6.93a3.7,3.7,0,0,1,1.988-.539,3.565,3.565,0,0,1,2.793,1.2,4.6,4.6,0,0,1,1.066,3.18v.1a5.036,5.036,0,0,1-.473,2.215,3.589,3.589,0,0,1-1.352,1.527,3.743,3.743,0,0,1-2.02.547,3.556,3.556,0,0,1-2.785-1.2A4.575,4.575,0,0,1,49.344,10.8Zm1.453.172a3.616,3.616,0,0,0,.652,2.258,2.211,2.211,0,0,0,3.5-.012,3.955,3.955,0,0,0,.648-2.418,3.61,3.61,0,0,0-.66-2.254,2.1,2.1,0,0,0-1.754-.863,2.075,2.075,0,0,0-1.727.852A3.925,3.925,0,0,0,50.8,10.867ZM62.461,10.7a4.952,4.952,0,0,1,.922-3.129,3.137,3.137,0,0,1,4.766-.168V3h1.445V15H68.266l-.07-.906a2.943,2.943,0,0,1-2.414,1.063,2.887,2.887,0,0,1-2.395-1.2,5.008,5.008,0,0,1-.926-3.141Zm1.445.164a3.749,3.749,0,0,0,.594,2.25,1.92,1.92,0,0,0,1.641.813A2.108,2.108,0,0,0,68.148,12.7V8.813a2.125,2.125,0,0,0-1.992-1.2,1.929,1.929,0,0,0-1.656.82A4.128,4.128,0,0,0,63.906,10.867Zm11.438,4.289a3.693,3.693,0,0,1-2.8-1.129,4.19,4.19,0,0,1-1.078-3.02v-.266a5.073,5.073,0,0,1,.48-2.246,3.748,3.748,0,0,1,1.344-1.547,3.378,3.378,0,0,1,1.871-.559,3.166,3.166,0,0,1,2.563,1.086,4.7,4.7,0,0,1,.914,3.109v.6H72.914a3,3,0,0,0,.73,2.02,2.3,2.3,0,0,0,1.777.77,2.517,2.517,0,0,0,1.3-.312,3.259,3.259,0,0,0,.93-.828l.883.688A3.55,3.55,0,0,1,75.344,15.156Zm-.18-7.578a1.928,1.928,0,0,0-1.469.637A3.1,3.1,0,0,0,72.961,10H77.2V9.891A2.753,2.753,0,0,0,76.6,8.184,1.815,1.815,0,0,0,75.164,7.578Zm11.9,5.461,2.094-6.492h1.477L87.6,15H86.5L83.438,6.547h1.477Zm8.367,2.117a3.693,3.693,0,0,1-2.8-1.129,4.19,4.19,0,0,1-1.078-3.02v-.266a5.073,5.073,0,0,1,.48-2.246,3.748,3.748,0,0,1,1.344-1.547,3.378,3.378,0,0,1,1.871-.559,3.166,3.166,0,0,1,2.563,1.086,4.7,4.7,0,0,1,.914,3.109v.6H93a3,3,0,0,0,.73,2.02,2.3,2.3,0,0,0,1.777.77,2.517,2.517,0,0,0,1.3-.312,3.259,3.259,0,0,0,.93-.828l.883.688A3.55,3.55,0,0,1,95.43,15.156Zm-.18-7.578a1.928,1.928,0,0,0-1.469.637A3.1,3.1,0,0,0,93.047,10h4.234V9.891a2.753,2.753,0,0,0-.594-1.707A1.815,1.815,0,0,0,95.25,7.578Zm6.516-1.031.047,1.063a3.08,3.08,0,0,1,2.531-1.219q2.68,0,2.7,3.023V15H105.6V9.406a1.946,1.946,0,0,0-.418-1.352,1.675,1.675,0,0,0-1.277-.437,2.086,2.086,0,0,0-1.234.375,2.546,2.546,0,0,0-.828.984V15H100.4V6.547ZM111.188,4.5V6.547h1.578V7.664h-1.578v5.249a1.173,1.173,0,0,0,.211.763.888.888,0,0,0,.719.254,3.5,3.5,0,0,0,.688-.094V15a4.215,4.215,0,0,1-1.109.155,1.8,1.8,0,0,1-1.461-.586,2.517,2.517,0,0,1-.492-1.664V7.664H108.2V6.547h1.539V4.5ZM119.672,15a3.036,3.036,0,0,1-.2-.891,3.225,3.225,0,0,1-2.406,1.047,2.984,2.984,0,0,1-2.051-.707,2.288,2.288,0,0,1-.8-1.793,2.39,2.39,0,0,1,1-2.051,4.733,4.733,0,0,1,2.824-.73h1.406V9.211A1.623,1.623,0,0,0,118.992,8a1.821,1.821,0,0,0-1.336-.449,2.108,2.108,0,0,0-1.3.391,1.151,1.151,0,0,0-.523.945h-1.453a2,2,0,0,1,.449-1.223,3.066,3.066,0,0,1,1.219-.934,4.1,4.1,0,0,1,1.691-.344,3.342,3.342,0,0,1,2.289.73,2.635,2.635,0,0,1,.859,2.012v3.891a4.757,4.757,0,0,0,.3,1.852V15Zm-2.4-1.1a2.54,2.54,0,0,0,1.289-.352,2.127,2.127,0,0,0,.883-.914V10.9h-1.133q-2.656,0-2.656,1.555a1.316,1.316,0,0,0,.453,1.063A1.742,1.742,0,0,0,117.273,13.9Zm9.461-3.2a4.993,4.993,0,0,1,.488-2.234,3.643,3.643,0,0,1,1.359-1.531,3.7,3.7,0,0,1,1.988-.539,3.565,3.565,0,0,1,2.793,1.2,4.6,4.6,0,0,1,1.066,3.18v.1a5.036,5.036,0,0,1-.473,2.215,3.589,3.589,0,0,1-1.352,1.527,3.743,3.743,0,0,1-2.02.547,3.556,3.556,0,0,1-2.785-1.2,4.575,4.575,0,0,1-1.066-3.164Zm1.453.172a3.616,3.616,0,0,0,.652,2.258,2.211,2.211,0,0,0,3.5-.012,3.954,3.954,0,0,0,.648-2.418,3.61,3.61,0,0,0-.66-2.254,2.1,2.1,0,0,0-1.754-.863,2.075,2.075,0,0,0-1.727.852A3.925,3.925,0,0,0,128.188,10.867Zm11.664-.164a4.952,4.952,0,0,1,.922-3.129,3.137,3.137,0,0,1,4.766-.168V3h1.445V15h-1.328l-.07-.906a2.943,2.943,0,0,1-2.414,1.063,2.887,2.887,0,0,1-2.395-1.2,5.008,5.008,0,0,1-.926-3.141Zm1.445.164a3.749,3.749,0,0,0,.594,2.25,1.919,1.919,0,0,0,1.641.813,2.108,2.108,0,0,0,2.008-1.234V8.813a2.125,2.125,0,0,0-1.992-1.2,1.929,1.929,0,0,0-1.656.82A4.128,4.128,0,0,0,141.3,10.867ZM150.8,15h-1.445V6.547H150.8ZM149.234,4.3a.863.863,0,0,1,.215-.594.807.807,0,0,1,.637-.242.819.819,0,0,1,.641.242.854.854,0,0,1,.219.594.826.826,0,0,1-.219.586.834.834,0,0,1-.641.234.821.821,0,0,1-.637-.234A.834.834,0,0,1,149.234,4.3Zm8.8,8.453a1.064,1.064,0,0,0-.441-.91,4.249,4.249,0,0,0-1.539-.559,7.277,7.277,0,0,1-1.742-.562,2.479,2.479,0,0,1-.953-.781,1.869,1.869,0,0,1-.309-1.078,2.193,2.193,0,0,1,.879-1.758,3.432,3.432,0,0,1,2.246-.719,3.532,3.532,0,0,1,2.332.742,2.357,2.357,0,0,1,.895,1.9h-1.453a1.3,1.3,0,0,0-.5-1.023,1.888,1.888,0,0,0-1.27-.43,1.976,1.976,0,0,0-1.234.344,1.082,1.082,0,0,0-.445.9.877.877,0,0,0,.414.789,5.1,5.1,0,0,0,1.5.508,7.8,7.8,0,0,1,1.754.578,2.558,2.558,0,0,1,1,.809,1.988,1.988,0,0,1,.324,1.152,2.163,2.163,0,0,1-.906,1.816,3.8,3.8,0,0,1-2.352.684,4.257,4.257,0,0,1-1.8-.359,2.922,2.922,0,0,1-1.223-1,2.42,2.42,0,0,1-.441-1.395H154.2a1.5,1.5,0,0,0,.582,1.152,2.258,2.258,0,0,0,1.434.426,2.331,2.331,0,0,0,1.316-.332A1.02,1.02,0,0,0,158.031,12.758ZM163.32,4.5V6.547H164.9V7.664H163.32v5.249a1.173,1.173,0,0,0,.211.763.888.888,0,0,0,.719.254,3.5,3.5,0,0,0,.688-.094V15a4.215,4.215,0,0,1-1.109.155,1.8,1.8,0,0,1-1.461-.586,2.517,2.517,0,0,1-.492-1.664V7.664h-1.539V6.547h1.539V4.5Zm7.352,3.344a4.331,4.331,0,0,0-.711-.055A1.9,1.9,0,0,0,168.031,9v6h-1.445V6.547h1.406l.023.977a2.251,2.251,0,0,1,2.016-1.133,1.477,1.477,0,0,1,.641.109ZM173.57,15h-1.445V6.547h1.445ZM172.008,4.3a.863.863,0,0,1,.215-.594.807.807,0,0,1,.637-.242.819.819,0,0,1,.641.242.854.854,0,0,1,.219.594.826.826,0,0,1-.219.586.834.834,0,0,1-.641.234.821.821,0,0,1-.637-.234A.834.834,0,0,1,172.008,4.3Zm11.031,6.563a5.026,5.026,0,0,1-.891,3.113,2.846,2.846,0,0,1-2.391,1.176,2.947,2.947,0,0,1-2.477-1.133l-.07.977h-1.328V3h1.445V7.477a2.93,2.93,0,0,1,2.414-1.086,2.863,2.863,0,0,1,2.418,1.164,5.177,5.177,0,0,1,.879,3.188Zm-1.445-.164a3.906,3.906,0,0,0-.57-2.281,1.888,1.888,0,0,0-1.641-.8,2.122,2.122,0,0,0-2.055,1.328V12.6a2.181,2.181,0,0,0,2.07,1.328,1.878,1.878,0,0,0,1.617-.8A4.153,4.153,0,0,0,181.594,10.7Zm8.484,3.461a3.07,3.07,0,0,1-2.477.992,2.628,2.628,0,0,1-2.059-.785,3.4,3.4,0,0,1-.715-2.324v-5.5h1.445v5.461q0,1.922,1.563,1.922a2.163,2.163,0,0,0,2.2-1.234V6.547h1.445V15h-1.375Zm6.992-.187a2.082,2.082,0,0,0,1.352-.469,1.649,1.649,0,0,0,.641-1.172h1.367a2.621,2.621,0,0,1-.5,1.383,3.293,3.293,0,0,1-1.23,1.047,3.55,3.55,0,0,1-1.629.391A3.482,3.482,0,0,1,194.324,14a4.59,4.59,0,0,1-1.02-3.152v-.242a5.089,5.089,0,0,1,.453-2.2,3.451,3.451,0,0,1,1.3-1.492,3.7,3.7,0,0,1,2-.531,3.39,3.39,0,0,1,2.363.852,3.043,3.043,0,0,1,1,2.211h-1.367a1.992,1.992,0,0,0-.621-1.348,1.932,1.932,0,0,0-1.379-.527,2.023,2.023,0,0,0-1.707.793,3.724,3.724,0,0,0-.605,2.293v.273a3.65,3.65,0,0,0,.6,2.25A2.033,2.033,0,0,0,197.07,13.977ZM203.625,15H202.18V6.547h1.445ZM202.063,4.3a.863.863,0,0,1,.215-.594.807.807,0,0,1,.637-.242.819.819,0,0,1,.641.242.854.854,0,0,1,.219.594.826.826,0,0,1-.219.586.834.834,0,0,1-.641.234.821.821,0,0,1-.637-.234A.834.834,0,0,1,202.063,4.3Zm3.492,6.391a4.993,4.993,0,0,1,.488-2.234A3.642,3.642,0,0,1,207.4,6.93a3.7,3.7,0,0,1,1.988-.539,3.565,3.565,0,0,1,2.793,1.2,4.6,4.6,0,0,1,1.066,3.18v.1a5.036,5.036,0,0,1-.473,2.215,3.589,3.589,0,0,1-1.352,1.527,3.743,3.743,0,0,1-2.02.547,3.556,3.556,0,0,1-2.785-1.2,4.575,4.575,0,0,1-1.066-3.164Zm1.453.172a3.616,3.616,0,0,0,.652,2.258,2.211,2.211,0,0,0,3.5-.012A3.954,3.954,0,0,0,211.8,10.7a3.61,3.61,0,0,0-.66-2.254,2.1,2.1,0,0,0-1.754-.863,2.075,2.075,0,0,0-1.727.852A3.925,3.925,0,0,0,207.008,10.867ZM210.047,3h1.75L209.7,5.3l-1.164,0Zm6.383,3.547.047,1.063a3.08,3.08,0,0,1,2.531-1.219q2.68,0,2.7,3.023V15h-1.445V9.406a1.946,1.946,0,0,0-.418-1.352,1.675,1.675,0,0,0-1.277-.437,2.086,2.086,0,0,0-1.234.375,2.546,2.546,0,0,0-.828.984V15h-1.445V6.547Z" transform="translate(987 2053.065)" fill="#12263f"/>
    <path id="Path_839948" data-name="Path 839948" d="M7.75,9.742H2.82v4.031H8.547V15H1.32V3.625H8.469V4.852H2.82V8.516H7.75ZM11.758,15H10.313V3h1.445Zm13.414-4.133a5.062,5.062,0,0,1-.883,3.109,2.829,2.829,0,0,1-2.391,1.18,3.1,3.1,0,0,1-2.422-.977v4.07H18.031V6.547h1.32l.07.938a2.977,2.977,0,0,1,2.453-1.094,2.882,2.882,0,0,1,2.41,1.148,5.117,5.117,0,0,1,.887,3.2ZM23.727,10.7a3.735,3.735,0,0,0-.609-2.258,1.963,1.963,0,0,0-1.672-.828,2.125,2.125,0,0,0-1.969,1.164V12.82a2.129,2.129,0,0,0,1.984,1.156,1.954,1.954,0,0,0,1.652-.824A4.077,4.077,0,0,0,23.727,10.7Zm7.367-2.859a4.331,4.331,0,0,0-.711-.055A1.9,1.9,0,0,0,28.453,9v6H27.008V6.547h1.406l.023.977a2.251,2.251,0,0,1,2.016-1.133,1.477,1.477,0,0,1,.641.109Zm4.688,7.313a3.693,3.693,0,0,1-2.8-1.129,4.19,4.19,0,0,1-1.078-3.02v-.266a5.073,5.073,0,0,1,.48-2.246A3.748,3.748,0,0,1,33.73,6.949,3.378,3.378,0,0,1,35.6,6.391a3.166,3.166,0,0,1,2.563,1.086,4.7,4.7,0,0,1,.914,3.109v.6H33.352a3,3,0,0,0,.73,2.02,2.3,2.3,0,0,0,1.777.77,2.517,2.517,0,0,0,1.3-.312,3.259,3.259,0,0,0,.93-.828l.883.688A3.55,3.55,0,0,1,35.781,15.156ZM35.6,7.578a1.928,1.928,0,0,0-1.469.637A3.1,3.1,0,0,0,33.4,10h4.234V9.891a2.753,2.753,0,0,0-.594-1.707A1.815,1.815,0,0,0,35.6,7.578Zm8.539,6.4a2.082,2.082,0,0,0,1.352-.469,1.649,1.649,0,0,0,.641-1.172H47.5a2.621,2.621,0,0,1-.5,1.383,3.293,3.293,0,0,1-1.23,1.047,3.55,3.55,0,0,1-1.629.391A3.482,3.482,0,0,1,41.395,14a4.59,4.59,0,0,1-1.02-3.152v-.242a5.089,5.089,0,0,1,.453-2.2,3.451,3.451,0,0,1,1.3-1.492,3.7,3.7,0,0,1,2-.531,3.39,3.39,0,0,1,2.363.852,3.043,3.043,0,0,1,1,2.211H46.133a1.992,1.992,0,0,0-.621-1.348,1.932,1.932,0,0,0-1.379-.527,2.023,2.023,0,0,0-1.707.793,3.724,3.724,0,0,0-.605,2.293v.273a3.65,3.65,0,0,0,.6,2.25A2.033,2.033,0,0,0,44.141,13.977ZM50.7,15H49.25V6.547H50.7ZM49.133,4.3a.863.863,0,0,1,.215-.594.807.807,0,0,1,.637-.242.819.819,0,0,1,.641.242.854.854,0,0,1,.219.594.826.826,0,0,1-.219.586.834.834,0,0,1-.641.234.821.821,0,0,1-.637-.234A.834.834,0,0,1,49.133,4.3ZM52.625,10.7a4.993,4.993,0,0,1,.488-2.234A3.643,3.643,0,0,1,54.473,6.93a3.7,3.7,0,0,1,1.988-.539,3.565,3.565,0,0,1,2.793,1.2,4.6,4.6,0,0,1,1.066,3.18v.1a5.036,5.036,0,0,1-.473,2.215A3.589,3.589,0,0,1,58.5,14.609a3.743,3.743,0,0,1-2.02.547,3.556,3.556,0,0,1-2.785-1.2A4.575,4.575,0,0,1,52.625,10.8Zm1.453.172a3.616,3.616,0,0,0,.652,2.258,2.211,2.211,0,0,0,3.5-.012,3.955,3.955,0,0,0,.648-2.418,3.61,3.61,0,0,0-.66-2.254,2.1,2.1,0,0,0-1.754-.863,2.075,2.075,0,0,0-1.727.852A3.925,3.925,0,0,0,54.078,10.867Z" transform="translate(390 1844.001)" fill="#12263f"/>
    <path id="Path_839949" data-name="Path 839949" d="M2.828,13.773H8.219V15H1.32V3.625H2.828ZM14.922,15a3.036,3.036,0,0,1-.2-.891,3.225,3.225,0,0,1-2.406,1.047,2.984,2.984,0,0,1-2.051-.707,2.287,2.287,0,0,1-.8-1.793,2.39,2.39,0,0,1,1-2.051,4.733,4.733,0,0,1,2.824-.73H14.7V9.211A1.623,1.623,0,0,0,14.242,8a1.821,1.821,0,0,0-1.336-.449,2.107,2.107,0,0,0-1.3.391,1.151,1.151,0,0,0-.523.945H9.633a2,2,0,0,1,.449-1.223A3.066,3.066,0,0,1,11.3,6.734a4.1,4.1,0,0,1,1.691-.344,3.342,3.342,0,0,1,2.289.73,2.635,2.635,0,0,1,.859,2.012v3.891a4.757,4.757,0,0,0,.3,1.852V15Zm-2.4-1.1a2.54,2.54,0,0,0,1.289-.352,2.127,2.127,0,0,0,.883-.914V10.9H13.563q-2.656,0-2.656,1.555a1.316,1.316,0,0,0,.453,1.063A1.742,1.742,0,0,0,12.523,13.9Zm16.984-3.031a5.062,5.062,0,0,1-.883,3.109,2.829,2.829,0,0,1-2.391,1.18,3.1,3.1,0,0,1-2.422-.977v4.07H22.367V6.547h1.32l.07.938a2.977,2.977,0,0,1,2.453-1.094,2.882,2.882,0,0,1,2.41,1.148,5.117,5.117,0,0,1,.887,3.2ZM28.063,10.7a3.735,3.735,0,0,0-.609-2.258,1.963,1.963,0,0,0-1.672-.828,2.125,2.125,0,0,0-1.969,1.164V12.82A2.129,2.129,0,0,0,25.8,13.977a1.954,1.954,0,0,0,1.652-.824A4.077,4.077,0,0,0,28.063,10.7ZM35.43,7.844a4.331,4.331,0,0,0-.711-.055A1.9,1.9,0,0,0,32.789,9v6H31.344V6.547H32.75l.023.977a2.251,2.251,0,0,1,2.016-1.133,1.477,1.477,0,0,1,.641.109Zm.789,2.852a4.993,4.993,0,0,1,.488-2.234A3.643,3.643,0,0,1,38.066,6.93a3.7,3.7,0,0,1,1.988-.539,3.565,3.565,0,0,1,2.793,1.2,4.6,4.6,0,0,1,1.066,3.18v.1a5.036,5.036,0,0,1-.473,2.215,3.589,3.589,0,0,1-1.352,1.527,3.743,3.743,0,0,1-2.02.547,3.556,3.556,0,0,1-2.785-1.2A4.575,4.575,0,0,1,36.219,10.8Zm1.453.172a3.616,3.616,0,0,0,.652,2.258,2.211,2.211,0,0,0,3.5-.012,3.955,3.955,0,0,0,.648-2.418,3.61,3.61,0,0,0-.66-2.254,2.1,2.1,0,0,0-1.754-.863,2.075,2.075,0,0,0-1.727.852A3.925,3.925,0,0,0,37.672,10.867Zm9.414-4.32.039.938a3.122,3.122,0,0,1,2.508-1.094A2.417,2.417,0,0,1,52.047,7.75a3.2,3.2,0,0,1,1.1-.984,3.242,3.242,0,0,1,1.6-.375q2.781,0,2.828,2.945V15H56.125V9.422a1.941,1.941,0,0,0-.414-1.355,1.823,1.823,0,0,0-1.391-.449,1.917,1.917,0,0,0-1.336.48,1.949,1.949,0,0,0-.617,1.293V15H50.914V9.461a1.613,1.613,0,0,0-1.8-1.844,1.934,1.934,0,0,0-1.945,1.211V15H45.719V6.547ZM59.367,10.7a4.993,4.993,0,0,1,.488-2.234A3.643,3.643,0,0,1,61.215,6.93,3.7,3.7,0,0,1,63.2,6.391,3.565,3.565,0,0,1,66,7.586a4.6,4.6,0,0,1,1.066,3.18v.1a5.036,5.036,0,0,1-.473,2.215,3.589,3.589,0,0,1-1.352,1.527,3.743,3.743,0,0,1-2.02.547,3.556,3.556,0,0,1-2.785-1.2A4.575,4.575,0,0,1,59.367,10.8Zm1.453.172a3.616,3.616,0,0,0,.652,2.258,2.211,2.211,0,0,0,3.5-.012,3.955,3.955,0,0,0,.648-2.418,3.61,3.61,0,0,0-.66-2.254A2.1,2.1,0,0,0,63.2,7.578a2.075,2.075,0,0,0-1.727.852A3.925,3.925,0,0,0,60.82,10.867Zm11.445,3.109a2.082,2.082,0,0,0,1.352-.469,1.649,1.649,0,0,0,.641-1.172h1.367a2.621,2.621,0,0,1-.5,1.383,3.293,3.293,0,0,1-1.23,1.047,3.55,3.55,0,0,1-1.629.391A3.482,3.482,0,0,1,69.52,14a4.59,4.59,0,0,1-1.02-3.152v-.242a5.089,5.089,0,0,1,.453-2.2,3.451,3.451,0,0,1,1.3-1.492,3.7,3.7,0,0,1,2-.531,3.39,3.39,0,0,1,2.363.852,3.043,3.043,0,0,1,1,2.211H74.258a1.992,1.992,0,0,0-.621-1.348,1.932,1.932,0,0,0-1.379-.527,2.023,2.023,0,0,0-1.707.793,3.724,3.724,0,0,0-.605,2.293v.273a3.65,3.65,0,0,0,.6,2.25A2.033,2.033,0,0,0,72.266,13.977ZM78.82,15H77.375V6.547H78.82ZM77.258,4.3a.863.863,0,0,1,.215-.594.807.807,0,0,1,.637-.242.819.819,0,0,1,.641.242.854.854,0,0,1,.219.594.826.826,0,0,1-.219.586.834.834,0,0,1-.641.234.821.821,0,0,1-.637-.234A.834.834,0,0,1,77.258,4.3ZM80.75,10.7a4.993,4.993,0,0,1,.488-2.234A3.643,3.643,0,0,1,82.6,6.93a3.7,3.7,0,0,1,1.988-.539,3.565,3.565,0,0,1,2.793,1.2,4.6,4.6,0,0,1,1.066,3.18v.1a5.036,5.036,0,0,1-.473,2.215,3.589,3.589,0,0,1-1.352,1.527,3.743,3.743,0,0,1-2.02.547,3.556,3.556,0,0,1-2.785-1.2A4.575,4.575,0,0,1,80.75,10.8Zm1.453.172a3.616,3.616,0,0,0,.652,2.258,2.211,2.211,0,0,0,3.5-.012A3.955,3.955,0,0,0,87,10.7a3.61,3.61,0,0,0-.66-2.254,2.1,2.1,0,0,0-1.754-.863,2.075,2.075,0,0,0-1.727.852A3.925,3.925,0,0,0,82.2,10.867ZM85.242,3h1.75L84.9,5.3l-1.164,0Zm6.383,3.547.047,1.063A3.08,3.08,0,0,1,94.2,6.391q2.68,0,2.7,3.023V15H95.461V9.406a1.946,1.946,0,0,0-.418-1.352,1.675,1.675,0,0,0-1.277-.437,2.086,2.086,0,0,0-1.234.375,2.546,2.546,0,0,0-.828.984V15H90.258V6.547Z" transform="translate(1111 1844.001)" fill="#12263f"/>
    <path id="Path_839073" data-name="Path 839073" d="M92.524,18.277c-1.069-2.319-.855-4.707-.866-7.069,0-1.041-.009-2.082,0-3.123a2.086,2.086,0,0,1,1.908-2.241C97,5.308,99.64,3.416,101.981,1c.155-.159.3-.331.45-.49A1.1,1.1,0,0,1,104.3.524a19.412,19.412,0,0,0,4.353,3.667A12.316,12.316,0,0,0,113.1,5.838a2.081,2.081,0,0,1,1.946,2.271c-.023,2.523-.03,5.048-.145,7.568a14.745,14.745,0,0,1-.612,2.632l5.078,1.106c2.79.609,5.583,1.2,8.36,1.852a1.986,1.986,0,0,1,1.129.79c1.667,2.689,3.29,5.407,4.9,8.13a3.187,3.187,0,0,1-1.591,4.721c-1.081.446-2.175.861-3.289,1.3v6.661c0,1.44,0,2.88,0,4.321a3.2,3.2,0,0,1-2.29,3.353q-8.46,3.326-16.926,6.63c-1.854.724-3.713,1.437-5.559,2.182a1.839,1.839,0,0,1-1.466.01q-11.236-4.419-22.484-8.812a3.213,3.213,0,0,1-2.326-3.393c0-3.456-.009-6.911.01-10.367,0-.439-.1-.665-.544-.815-.92-.31-1.818-.69-2.721-1.051a3.19,3.19,0,0,1-1.645-4.7c1.623-2.744,3.258-5.48,4.934-8.19a1.881,1.881,0,0,1,1.077-.758c4.228-.959,8.469-1.868,12.706-2.791.257-.057.513-.121.876-.207m1.26-10.316c0,1.885.044,3.721-.01,5.556A10.078,10.078,0,0,0,96.011,20.1a22.575,22.575,0,0,0,7.038,5.877.86.86,0,0,0,.756-.07c1.687-1.213,3.422-2.373,5-3.72a12.669,12.669,0,0,0,3.521-4.927,13.264,13.264,0,0,0,.608-5.171c0-1.368,0-2.734,0-4.132a16.54,16.54,0,0,1-9.447-5.186c-1.527,1.142-2.947,2.308-4.47,3.316a12.391,12.391,0,0,1-5.228,1.868m10.677,27.863V56.9c.131-.041.213-.064.293-.1q10.531-4.116,21.066-8.229a1.328,1.328,0,0,0,.946-1.41c-.021-3.189-.008-6.379-.011-9.567,0-.162-.027-.324-.047-.541-1.035.4-2,.777-2.966,1.153-3.934,1.537-7.864,3.082-11.8,4.608a3.156,3.156,0,0,1-4.115-1.4c-.372-.6-.731-1.212-1.1-1.819l-2.268-3.775m-2.182.014c-.217.331-.339.506-.449.687q-1.4,2.333-2.8,4.666a3.248,3.248,0,0,1-4.5,1.537l-10.748-4.2-3.767-1.47a1.964,1.964,0,0,0-.048.276q0,5.015-.007,10.032a1.213,1.213,0,0,0,.936,1.206q9.824,3.828,19.642,7.678c.567.222,1.135.44,1.746.676Zm-.48-3.395c-7.526-2.946-14.973-5.859-22.438-8.779-.141.224-.261.408-.374.6q-2.02,3.356-4.035,6.714c-.653,1.089-.467,1.633.7,2.089q4.389,1.713,8.775,3.427,5.5,2.152,10.995,4.306c.785.307,1.226.207,1.608-.422,1.584-2.611,3.149-5.232,4.771-7.933m3.119,0c1.632,2.717,3.216,5.373,4.823,8.015.364.6.923.585,1.524.351q9.943-3.9,19.889-7.782c1.047-.41,1.237-1,.656-1.969q-1.566-2.621-3.143-5.235l-1.3-2.163-22.451,8.783m19.108-9.761a1.563,1.563,0,0,0-.214-.122c-3.393-.74-6.788-1.471-10.178-2.224-.385-.087-.541.074-.736.357a24.174,24.174,0,0,1-8.94,7.553,1.47,1.47,0,0,1-1.177.006,23.983,23.983,0,0,1-8.905-7.489.786.786,0,0,0-.966-.393c-2.027.462-4.064.886-6.095,1.331-1.354.3-2.706.6-4.191.932.25.112.366.172.487.219q9.73,3.8,19.456,7.614a1.945,1.945,0,0,0,1.571.011c3.841-1.531,7.7-3.024,11.546-4.529l8.343-3.264" transform="translate(599.72 1924.001)" fill="#12263f"/>
    <path id="Path_839074" data-name="Path 839074" d="M94.31,13.38c-.632-.672-1.165-1.266-1.727-1.829-.587-.589-1.219-.629-1.682-.145-.439.459-.379,1.072.18,1.635q1.217,1.227,2.449,2.436c.746.736,1.338.695,1.98-.152.991-1.3,1.971-2.616,2.953-3.927.558-.744,1.132-1.476,1.659-2.241A1.048,1.048,0,0,0,98.441,7.9c-.247.283-.463.594-.689.893-1.115,1.483-2.229,2.966-3.443,4.582" transform="translate(607.356 1927.151)" fill="#12263f"/>
    <path id="Path_839075" data-name="Path 839075" d="M94.31,13.38c1.214-1.616,2.328-3.1,3.443-4.582.226-.3.442-.611.689-.893a1.048,1.048,0,0,1,1.68,1.251c-.527.766-1.1,1.5-1.659,2.241-.981,1.311-1.961,2.623-2.953,3.927-.642.847-1.234.888-1.98.152q-1.231-1.212-2.449-2.436c-.56-.562-.619-1.176-.18-1.635.463-.484,1.1-.445,1.682.145.562.564,1.1,1.158,1.727,1.829" transform="translate(607.356 1927.151)" fill="#12263f"/>
    <path id="Path_839076" data-name="Path 839076" d="M208.495,95.025a9.436,9.436,0,0,1-.529,1.4,4.33,4.33,0,0,1-3.7,2.317c-.539.033-1.081.021-1.622.009a.836.836,0,0,1-.917-.828.86.86,0,0,1,.87-.893c.442-.03.888-.006,1.331-.012a2.672,2.672,0,0,0,2.829-2.834q0-18.327,0-36.655a2.721,2.721,0,0,0-1.821-2.738c-3.326-1.384-6.656-2.762-9.978-4.158a3.191,3.191,0,0,0-2.631.019c-1.486.641-2.982,1.258-4.484,1.861a1.164,1.164,0,0,1-.822.1,1.266,1.266,0,0,1-.6-.744c-.093-.409.2-.713.6-.878,1.229-.506,2.451-1.03,3.684-1.528a18.456,18.456,0,0,1,2.059-.751,4.158,4.158,0,0,1,2.717.264c3.4,1.41,6.792,2.836,10.194,4.241a4.711,4.711,0,0,1,2.816,3.36Z" transform="translate(630.68 1773.521)" fill="#12263f" stroke="#12263f" stroke-width="0.5"/>
    <path id="Path_839077" data-name="Path 839077" d="M182.4,72.822H186v-.678q0-7.674,0-15.346a4.347,4.347,0,0,1,2.892-4.37c.443-.187.884-.383,1.333-.557a.87.87,0,1,1,.654,1.6c-.51.228-1.04.415-1.544.654a2.54,2.54,0,0,0-1.592,2.415q-.017,7.992,0,15.984c0,.076.012.151.026.316.475,0,.948-.006,1.421,0a25.277,25.277,0,0,1,3,.077,3.465,3.465,0,0,1,3.056,2.774,3.594,3.594,0,0,1-1.442,3.933c-.09.071-.184.135-.312.229a3.835,3.835,0,0,1,.848,3.089,3.769,3.769,0,0,1-1.817,2.629,3.81,3.81,0,0,1,.852,3.2,3.721,3.721,0,0,1-1.939,2.614,3.906,3.906,0,0,1-.025,4.865h.662q6.688,0,13.378,0a2.869,2.869,0,0,1,.744.068.777.777,0,0,1,.612.867.8.8,0,0,1-.777.791,4.447,4.447,0,0,1-.463.009c-4.923,0-9.845.015-14.768-.015a13.635,13.635,0,0,1-2.091-.345,4.963,4.963,0,0,0-.795-.1c-4.749-.006-9.5-.022-14.247.007a5.375,5.375,0,0,1-3.4-1.067,6.784,6.784,0,0,0-3.805-1.206c0,.692.007,1.325,0,1.958-.012.779-.309,1.075-1.1,1.076q-3.966.007-7.934,0c-.772,0-1.077-.318-1.077-1.1q0-12.075,0-24.149c0-.844.3-1.133,1.161-1.134q3.881,0,7.76,0c.925,0,1.186.271,1.192,1.217,0,.208,0,.416,0,.652.1-.019.166-.012.2-.041q2.5-1.968,5-3.943a8.5,8.5,0,0,0,3.484-4.959,21.331,21.331,0,0,0,.275-3.389,3.4,3.4,0,0,1,2.726-3.351,3.328,3.328,0,0,1,3.87,2.189,20.347,20.347,0,0,1,.457,12.241c-.021.072-.036.146-.073.295M164.722,96.538v-.753q0-5.992,0-11.986a2.829,2.829,0,0,1,.059-.687.845.845,0,0,1,1.65.092,4.524,4.524,0,0,1,.025.635c0,3.012.012,6.022-.011,9.033,0,.5.135.659.633.7a8.177,8.177,0,0,1,4.25,1.518,3.518,3.518,0,0,0,2.2.706c4.882-.017,9.766-.009,14.65-.01a5.635,5.635,0,0,0,.578-.014,1.986,1.986,0,0,0-.071-3.954c-.462-.026-.926,0-1.389-.014-.661-.015-1.07-.365-1.058-.894.01-.51.4-.833,1.036-.839.772-.009,1.545.009,2.316,0a2.008,2.008,0,1,0,.014-4.013c-.444-.01-.888,0-1.332,0-.682-.006-1.076-.322-1.077-.857s.4-.87,1.071-.878c.772-.009,1.545,0,2.316,0a1.99,1.99,0,1,0-.007-3.976c-.714-.012-1.429,0-2.142,0-.817,0-1.244-.312-1.237-.889s.406-.845,1.2-.848c1.042,0,2.085.01,3.127,0a2.008,2.008,0,1,0-.056-4.008c-3.378-.01-6.755,0-10.134,0-.875,0-1.243-.506-.945-1.325a17,17,0,0,0,1.03-4.73,20.431,20.431,0,0,0-1.07-7.686,1.6,1.6,0,0,0-1.791-1.058,1.64,1.64,0,0,0-1.4,1.6c-.014.425.017.849.009,1.274a9.672,9.672,0,0,1-2.663,6.838c-.873.893-1.869,1.666-2.829,2.472-1.607,1.352-3.242,2.671-4.83,4.046a1.483,1.483,0,0,0-.379.953c-.054.885-.007,1.775-.036,2.662a.772.772,0,0,1-.831.789.8.8,0,0,1-.853-.708,3.086,3.086,0,0,1-.033-.577q0-2.316,0-4.632v-.8h-6.6V96.538Z" transform="translate(623.527 1774.283)" fill="#12263f" stroke="#12263f" stroke-width="0.5"/>
    <path id="Path_839078" data-name="Path 839078" d="M191.845,70.763c0-.605,0-1.162,0-1.719.009-.649.316-1.013.848-1.022.553-.01.879.368.886,1.045.006.556,0,1.112,0,1.674a10.546,10.546,0,0,1,1.056.2,2.917,2.917,0,0,1,2.071,2.65.871.871,0,1,1-1.729.177c-.145-.884-.509-1.212-1.38-1.222-.638-.006-1.275-.012-1.911,0a1.169,1.169,0,0,0-1.234,1.238c-.014.5.01,1-.007,1.505a.927.927,0,0,0,.746,1.016c1.159.36,2.311.742,3.462,1.124a2.612,2.612,0,0,1,2.057,2.831,8.757,8.757,0,0,1-.051,1.443c-.248,1.484-1.238,2.353-3.08,2.741,0,.563.007,1.14,0,1.716-.011.634-.338,1.006-.868,1.008s-.857-.371-.867-1.005c-.007-.576,0-1.151,0-1.739a3.292,3.292,0,0,1-3.065-2.6,2.39,2.39,0,0,1-.061-.515.863.863,0,0,1,.754-.99c.515-.056.852.274.988.838a2.493,2.493,0,0,0,.47,1.075c.563.621,2.944.631,3.534.026a1.611,1.611,0,0,0,.48-.945c.066-2.067.223-1.9-1.576-2.477-.9-.29-1.8-.571-2.7-.867a2.594,2.594,0,0,1-1.961-2.73c0-.463,0-.926,0-1.389a2.913,2.913,0,0,1,2.835-3.044c.076-.006.149-.021.3-.043" transform="translate(631.228 1778.146)" fill="#12263f" stroke="#12263f" stroke-width="0.5"/>
    <path id="Path_839079" data-name="Path 839079" d="M192.768,53.236a3.287,3.287,0,0,1,3.305,3.3,3.3,3.3,0,1,1-3.305-3.3M191.2,56.53a1.565,1.565,0,1,0,3.129-.019,1.565,1.565,0,0,0-3.129.019" transform="translate(631.407 1774.629)" fill="#12263f" stroke="#12263f" stroke-width="0.5"/>
    <path id="Path_839080" data-name="Path 839080" d="M104.724,119.881h-4.632v10.336h25.37c0-1.143,0-2.264,0-3.387,0-.407-.013-.815.007-1.221a1.075,1.075,0,0,1,1.06-1.065,1.056,1.056,0,0,1,1.086.976c.047.513.028,1.034.03,1.552,0,1.033,0,2.065,0,3.19.685,0,1.324,0,1.963,0,1.074.006,1.414.353,1.416,1.441,0,1.146,0,2.293,0,3.439,0,.867-.394,1.276-1.241,1.277q-8.351.005-16.7,0a1.1,1.1,0,1,1-.046-2.182c.5-.021,1-.007,1.5-.007h14.276v-1.752H91.788v1.752h.723q7.852,0,15.7,0a3.705,3.705,0,0,1,.716.05,1.075,1.075,0,0,1,.87,1.122,1.1,1.1,0,0,1-1.009,1.008c-.147.014-.3.009-.443.009H91.036c-1.118,0-1.457-.338-1.461-1.454s-.007-2.256,0-3.385c.008-.935.382-1.307,1.315-1.32.569-.007,1.139,0,1.79,0v-.7q0-6.1,0-12.206c0-.888.226-1.189,1.077-1.423-.242-.092-.436-.17-.632-.242a5.425,5.425,0,0,1-3.525-4.927,2.074,2.074,0,0,1,.128-.7q1.823-5.346,3.661-10.687c.26-.755.532-.948,1.356-.948q8.213,0,16.425,0c.848,0,1.32.4,1.322,1.079s-.469,1.084-1.311,1.084c-5.105,0-10.21.008-15.316-.011a.68.68,0,0,0-.78.551c-.873,2.608-1.776,5.207-2.666,7.808-.059.172-.1.349-.181.615h22.49a5.092,5.092,0,0,1,.555.011,1.079,1.079,0,0,1,.091,2.136c-.194.039-.4.05-.632.077.274.391.507.765.78,1.107a2.527,2.527,0,0,0,1.9,1c.844.051,1.337.53,1.269,1.209s-.664,1.071-1.48.973a5.118,5.118,0,0,1-3.151-1.778,4.875,4.875,0,0,1-7.631-.225,5.416,5.416,0,0,1-3.768,1.954,5.277,5.277,0,0,1-3.9-1.772,5.3,5.3,0,0,1-4.5,1.769c.65.409.594,1.024.593,1.631q-.007,5.936,0,11.873v.7h3v-.689q0-5.188,0-10.374c0-1.152.343-1.5,1.482-1.5q3.107,0,6.215,0c.965,0,1.368.387,1.371,1.331q.007,4.494,0,8.987c0,.849-.46,1.335-1.175,1.283-.65-.046-1.017-.494-1.018-1.271q-.007-3.745,0-7.489Zm-5.293-8.111c1.127,1.684,2.164,2.269,3.563,2.036a3.263,3.263,0,0,0,2.544-2.036Zm13.977.02h-6.087a3.183,3.183,0,0,0,2.74,2.042,3.386,3.386,0,0,0,3.347-2.042m-21.159-.018a3,3,0,0,0,2.4,2.043,3.377,3.377,0,0,0,3.448-2.043Z" transform="translate(700.428 1948.945)" fill="#12263f"/>
    <path id="Path_839081" data-name="Path 839081" d="M122.879,121.745c1.39-1.931,2.759-3.832,4.125-5.735.172-.239.321-.5.5-.733a1.087,1.087,0,1,1,1.79,1.232q-1.311,1.924-2.671,3.813c-.933,1.286-1.892,2.555-2.858,3.816a1.092,1.092,0,0,1-1.867.03,119.482,119.482,0,0,1-8.264-11.6,27.053,27.053,0,0,1-3.4-7.959A12.359,12.359,0,0,1,119.911,89.9a12.511,12.511,0,0,1,14.818,9.915,14.534,14.534,0,0,1-1.01,8.36c-.754,1.859-1.713,3.635-2.614,5.431a1.068,1.068,0,0,1-1.535.525,1.084,1.084,0,0,1-.355-1.584,30.709,30.709,0,0,0,2.952-6.607,11.264,11.264,0,0,0-.381-8.219,10.36,10.36,0,0,0-19.618,3.135,12.492,12.492,0,0,0,1.157,6.252,43.32,43.32,0,0,0,5.213,8.926c1.323,1.826,2.7,3.609,4.062,5.409.065.087.147.161.279.3" transform="translate(704.21 1947.316)" fill="#12263f"/>
    <path id="Path_839082" data-name="Path 839082" d="M116.2,116.879h-3.894c-.352,0-.7.013-1.054-.011a1.047,1.047,0,0,1-1-1.052,1.01,1.01,0,0,1,.967-1.078q3.1-.039,6.21,0c.622.008.98.466.994,1.175.019.979.006,1.959.006,2.938,0,1.59,0,3.179,0,4.768,0,1.026-.39,1.42-1.4,1.422q-4.935.005-9.871,0c-1,0-1.388-.385-1.391-1.368q-.011-3.8,0-7.595c0-1,.37-1.355,1.381-1.363.37,0,.74-.011,1.109,0a1.081,1.081,0,1,1,.024,2.161c-.09.007-.179.019-.3.032v5.9H116.2Z" transform="translate(703.433 1951.967)" fill="#12263f"/>
    <path id="Path_839083" data-name="Path 839083" d="M115.454,100.948c.154-.679.268-1.372.472-2.036a1.087,1.087,0,0,1,1.446-.824,1.113,1.113,0,0,1,.6,1.553,3.679,3.679,0,0,0,2.427,4.886,3.729,3.729,0,0,0,4.022-1.424,3.695,3.695,0,0,0-4.086-5.66c-.141.043-.276.107-.417.147a1.089,1.089,0,1,1-.722-2.055,5.871,5.871,0,0,1,7.69,3.371,5.645,5.645,0,0,1-1.293,6.153,5.48,5.48,0,0,1-5.9,1.51,5.683,5.683,0,0,1-4.1-4.772c-.047-.272-.043-.551-.063-.828l-.083-.023" transform="translate(705.232 1948.326)" fill="#12263f"/>
    <path id="Path_839950" data-name="Path 839950" d="M0,0H6.107" transform="translate(799.859 2060.716)" fill="#fff"/>
    <path id="Path_839951" data-name="Path 839951" d="M0,0H6.087" transform="translate(807.75 2060.735)" fill="#fff"/>
    <path id="Path_839952" data-name="Path 839952" d="M0,0H5.844" transform="translate(792.677 2060.718)" fill="#fff"/>
    <path id="Path_839084" data-name="Path 839084" d="M21.469,97.324c.159.239.277.422.4.6q3.573,5.283,7.15,10.564a4.977,4.977,0,0,1,.963,3.432,4.773,4.773,0,0,1-3.8,4.349,5.092,5.092,0,0,1-5.3-2.271q-4.1-6.026-8.18-12.067c-.135-.2-.275-.4-.354-.507a21.724,21.724,0,0,1-3.009,1c-5.678,1.023-9.516-3.96-9.33-8.116A7.621,7.621,0,0,1,3.4,88.11C5.021,86.972,6.687,85.9,8.31,84.757a2.592,2.592,0,0,0,.81-.932q4.649-9.383,9.259-18.787a4.391,4.391,0,0,1,3.676-2.523,9.529,9.529,0,0,1,5.678,1.411,27.675,27.675,0,0,1,8.2,7.125A36.635,36.635,0,0,1,43.2,84.729a14.445,14.445,0,0,1,.436,6.673,5.725,5.725,0,0,1-2.01,3.506,4.379,4.379,0,0,1-2.449.944q-8.59.673-17.178,1.37c-.155.013-.307.057-.532.1m-1.758-27.8a30.1,30.1,0,0,0,.572,3.3A34.911,34.911,0,0,0,32,90.643a12.982,12.982,0,0,0,5.386,2.806,2.621,2.621,0,0,0,2.778-.914,5.53,5.53,0,0,0,1.023-2.086,10.143,10.143,0,0,0-.163-4.638,27.935,27.935,0,0,0-3.73-8.654,34.313,34.313,0,0,0-8.281-9.527,13.438,13.438,0,0,0-5.084-2.619A3.041,3.041,0,0,0,19.9,67.649c-.1.535-.112,1.086-.188,1.875M32.42,93.994A37.887,37.887,0,0,1,17.58,72.078a1.724,1.724,0,0,0-.129.2q-3.058,6.244-6.1,12.5a.9.9,0,0,0,.093.744c2.061,3.079,4.149,6.141,6.216,9.217a.756.756,0,0,0,.787.392c3.669-.3,7.339-.586,11.009-.878.977-.078,1.954-.165,2.961-.252M9.459,86.88c-1.674,1.148-3.317,2.221-4.9,3.374a5.285,5.285,0,0,0-1.338,7.1c1.623,2.64,4.566,3.669,7.086,2.278,1.866-1.031,3.585-2.331,5.4-3.534L9.459,86.88m4.8,13.081c.266.4.507.77.754,1.135q3.934,5.807,7.865,11.615a2.588,2.588,0,0,0,2.026,1.273,2.391,2.391,0,0,0,2.377-1.266,2.484,2.484,0,0,0-.178-2.8L19.034,98a.958.958,0,0,0-1.383-.337c-1.135.734-2.241,1.513-3.394,2.3" transform="translate(897.282 1870.323)" fill="#12263f"/>
    <path id="Path_839085" data-name="Path 839085" d="M47.232,71.221a1.245,1.245,0,0,1-1.354-.8A1.17,1.17,0,0,1,46.408,69c1.175-.787,2.362-1.556,3.542-2.332q2.252-1.482,4.5-2.964a1.251,1.251,0,0,1,1.869.189c.43.622.229,1.337-.539,1.844q-3.921,2.583-7.851,5.153a4.438,4.438,0,0,1-.7.328" transform="translate(896.066 1870.297)" fill="#12263f"/>
    <path id="Path_839086" data-name="Path 839086" d="M49.243,77.147l5.029.9c1.511.271,3.022.546,4.534.811a1.21,1.21,0,1,1-.369,2.38q-4.747-.837-9.485-1.708a1.22,1.22,0,0,1-1.1-1.356,1.233,1.233,0,0,1,1.393-1.028" transform="translate(896.012 1869.932)" fill="#12263f"/>
    <path id="Path_839087" data-name="Path 839087" d="M42.949,55.385l-.742,7.242c-.059.583-.114,1.167-.186,1.749a1.174,1.174,0,0,1-1.329,1.107,1.147,1.147,0,0,1-1.029-1.329q.44-4.5.914-8.993A1.152,1.152,0,0,1,41.9,54.12a1.18,1.18,0,0,1,1.049,1.266" transform="translate(896.229 1870.545)" fill="#12263f"/>
    <path id="Path_839088" data-name="Path 839088" d="M28.643,74.52a6.657,6.657,0,0,1,6.629,4.37A6.5,6.5,0,0,1,33.165,86.1a2.451,2.451,0,0,1-.778.449,1.159,1.159,0,0,1-1.365-.639,1.183,1.183,0,0,1,.417-1.5,4.1,4.1,0,0,0,1.718-2.819,3.909,3.909,0,0,0-1.684-3.91,3.955,3.955,0,0,0-4.245-.3c-.164.079-.312.188-.473.273a1.194,1.194,0,1,1-1.244-2.039,6.082,6.082,0,0,1,3.133-1.087" transform="translate(896.62 1870.003)" fill="#12263f"/>
    <path id="Path_839828" data-name="Path 839828" d="M-1688.4-9611.264h331.038" transform="translate(2567.36 11694.002)" fill="none" stroke="#39628c" stroke-width="3" stroke-dasharray="4"/>
    <path id="Path_839831" data-name="Path 839831" d="M-1688.4-9611.264h295" transform="translate(2078.398 11630.002)" fill="none" stroke="#39628c" stroke-width="3" stroke-dasharray="4"/>
    <path id="Path_839829" data-name="Path 839829" d="M-1688.4-9611.264h295" transform="translate(2603.398 11486.002)" fill="none" stroke="#6debff" stroke-width="3" stroke-dasharray="4"/>
    <path id="Path_839830" data-name="Path 839830" d="M-1688.4-9611.264h353.656" transform="translate(2078.398 11442.002)" fill="none" stroke="#2b7e3b" stroke-width="3" stroke-dasharray="4"/>
    <path id="Path_839953" data-name="Path 839953" d="M28,0A28,28,0,1,1,0,28,28,28,0,0,1,28,0Z" transform="translate(314 2004.736)" fill="#eba325" opacity="0.3"/>
    <path id="Path_839954" data-name="Path 839954" d="M17,0A17,17,0,1,1,0,17,17,17,0,0,1,17,0Z" transform="translate(325 2015.736)" fill="#eba325"/>
    <path id="Path_839955" data-name="Path 839955" d="M8.077-3.163H3.013L1.876,0H.232L4.848-12.086H6.242L10.866,0H9.23Zm-4.582-1.3H7.6L5.545-10.119Z" transform="translate(337 2038.736)" fill="#12263f"/>
    <path id="Path_839956" data-name="Path 839956" d="M28,0A28,28,0,1,1,0,28,28,28,0,0,1,28,0Z" transform="translate(314 1816.928)" fill="#eba325" opacity="0.3"/>
    <path id="Path_839957" data-name="Path 839957" d="M17,0A17,17,0,1,1,0,17,17,17,0,0,1,17,0Z" transform="translate(325 1827.928)" fill="#eba325"/>
    <path id="Path_839958" data-name="Path 839958" d="M1.4,0V-12.086H5.354a4.587,4.587,0,0,1,2.959.813,2.932,2.932,0,0,1,.992,2.407,2.455,2.455,0,0,1-.481,1.5A3.121,3.121,0,0,1,7.512-6.358,2.8,2.8,0,0,1,9.06-5.317a2.99,2.99,0,0,1,.569,1.83A3.232,3.232,0,0,1,8.575-.93,4.36,4.36,0,0,1,5.595,0ZM3-5.653V-1.3H5.628A2.534,2.534,0,0,0,7.384-1.88a2.026,2.026,0,0,0,.643-1.59q0-2.183-2.374-2.183ZM3-6.931H5.4a2.523,2.523,0,0,0,1.673-.524A1.757,1.757,0,0,0,7.7-8.878a1.728,1.728,0,0,0-.581-1.452,2.853,2.853,0,0,0-1.768-.453H3Z" transform="translate(337 1850.928)" fill="#12263f"/>
    <path id="Path_839959" data-name="Path 839959" d="M28,0A28,28,0,1,1,0,28,28,28,0,0,1,28,0Z" transform="translate(1230 1828.928)" fill="#eba325" opacity="0.3"/>
    <path id="Path_839960" data-name="Path 839960" d="M17,0A17,17,0,1,1,0,17,17,17,0,0,1,17,0Z" transform="translate(1241 1839.928)" fill="#eba325"/>
    <path id="Path_839961" data-name="Path 839961" d="M10.293-3.835A4.447,4.447,0,0,1,8.878-.876,4.638,4.638,0,0,1,5.711.166,4.259,4.259,0,0,1,2.279-1.37,6.178,6.178,0,0,1,.988-5.479V-6.641A6.886,6.886,0,0,1,1.59-9.6,4.5,4.5,0,0,1,3.3-11.567a4.75,4.75,0,0,1,2.557-.685A4.367,4.367,0,0,1,8.94-11.177,4.5,4.5,0,0,1,10.293-8.2h-1.6a3.472,3.472,0,0,0-.9-2.1,2.725,2.725,0,0,0-1.938-.649,2.851,2.851,0,0,0-2.395,1.13A5.187,5.187,0,0,0,2.59-6.6v1.171A5.332,5.332,0,0,0,3.412-2.3a2.655,2.655,0,0,0,2.3,1.163,3.067,3.067,0,0,0,2.038-.6,3.34,3.34,0,0,0,.942-2.1Z" transform="translate(1253 1862.928)" fill="#12263f"/>
    <path id="Path_839962" data-name="Path 839962" d="M28,0A28,28,0,1,1,0,28,28,28,0,0,1,28,0Z" transform="translate(1230 2042.736)" fill="#eba325" opacity="0.3"/>
    <path id="Path_839963" data-name="Path 839963" d="M17,0A17,17,0,1,1,0,17,17,17,0,0,1,17,0Z" transform="translate(1241 2053.736)" fill="#eba325"/>
    <path id="Path_839964" data-name="Path 839964" d="M1.4,0V-12.086H4.814a5.492,5.492,0,0,1,2.789.7A4.716,4.716,0,0,1,9.475-9.4a6.457,6.457,0,0,1,.668,2.955v.772a6.48,6.48,0,0,1-.66,3A4.642,4.642,0,0,1,7.6-.706,5.842,5.842,0,0,1,4.748,0ZM3-10.783V-1.3H4.673A3.648,3.648,0,0,0,7.541-2.45,4.737,4.737,0,0,0,8.566-5.715v-.706a4.812,4.812,0,0,0-.967-3.2,3.441,3.441,0,0,0-2.743-1.159Z" transform="translate(1253 2076.736)" fill="#12263f"/>
  </g>
</svg>
