<svg xmlns="http://www.w3.org/2000/svg" width="141" height="141" viewBox="0 0 141 141">
  <g id="Group_1086824" data-name="Group 1086824" transform="translate(-730.36 -14143)">
    <g id="Group_1074905" data-name="Group 1074905" transform="translate(0.36 12100.174)">
      <g id="Group_1074446" data-name="Group 1074446" transform="translate(461 1084.826)">
        <circle id="Ellipse_5614" data-name="Ellipse 5614" cx="70.5" cy="70.5" r="70.5" transform="translate(269 958)" fill="#fff"/>
      </g>
    </g>
    <g id="ventas_1_" data-name="ventas (1)" transform="translate(757.306 14169)">
      <path id="Path_839943" data-name="Path 839943" d="M34.229,328H24.88L8.054,344.48l9.349,9.7L34.229,337.7Z" transform="translate(-6.546 -267.629)" fill="#f0d0b4"/>
      <path id="Path_839944" data-name="Path 839944" d="M312.054,37.084h10.387l18.7-18.313L330.751,8l-18.7,18.313Z" transform="translate(-254.538 -6.546)" fill="#ff826e"/>
      <path id="Path_839945" data-name="Path 839945" d="M200.054,264l6.07,20.359h22.485L234.955,264Z" transform="translate(-163.125 -215.475)" fill="#4fc1e9"/>
      <g id="Group_1086798" data-name="Group 1086798" transform="translate(45.65 80.729)">
        <circle id="Ellipse_6033" data-name="Ellipse 6033" cx="2.908" cy="2.908" r="2.908" fill="#dbe6fd"/>
        <circle id="Ellipse_6034" data-name="Ellipse 6034" cx="2.908" cy="2.908" r="2.908" transform="translate(15.996)" fill="#dbe6fd"/>
      </g>
      <path id="Path_839946" data-name="Path 839946" d="M48.771,48.717V34.175L23.134,8,8.054,22.542,33.691,48.717Z" transform="translate(-6.546 -6.546)" fill="#fccc38"/>
      <path id="Path_839947" data-name="Path 839947" d="M222.063,279.267H199.577a1.453,1.453,0,0,1-1.393-1.039l-6.07-20.359a1.453,1.453,0,0,1,1.393-1.87h34.9a1.454,1.454,0,0,1,1.389,1.886l-6.345,20.359A1.456,1.456,0,0,1,222.063,279.267Zm-21.4-2.908h20.333l5.438-17.45H195.459Z" transform="translate(-156.57 -208.921)"/>
      <path id="Path_839948" data-name="Path 839948" d="M248.054,296H265.5v2.908h-17.45Z" transform="translate(-202.436 -241.717)"/>
      <path id="Path_839949" data-name="Path 839949" d="M256.054,328H270.6v2.908H256.054Z" transform="translate(-208.987 -267.849)"/>
      <path id="Path_839950" data-name="Path 839950" d="M256.771,248a1.454,1.454,0,0,0-1.365.951l-9.829,26.678H216.054v2.908h7.271v3.176a4.362,4.362,0,1,0,2.908,0v-3.176h13.088v3.176a4.362,4.362,0,1,0,2.908,0v-3.176h4.363a1.454,1.454,0,0,0,1.365-.951l9.829-26.678h6.257V248Zm-31.992,39.263a1.454,1.454,0,1,1,1.454-1.454A1.454,1.454,0,0,1,224.779,287.263Zm16,0a1.454,1.454,0,1,1,1.454-1.454A1.454,1.454,0,0,1,240.775,287.263Z" transform="translate(-175.988 -202.171)"/>
      <path id="Path_839951" data-name="Path 839951" d="M42.226,43.626H27.684a1.453,1.453,0,0,1-1.028-.426L.48,17.024a1.454,1.454,0,0,1,0-2.056h0L15.022.426a1.454,1.454,0,0,1,2.056,0h0L43.254,26.6a1.455,1.455,0,0,1,.426,1.028V42.172a1.454,1.454,0,0,1-1.453,1.454Zm-13.94-2.908H40.772V28.232L16.05,3.511,3.565,16Z" transform="translate(0 0)"/>
      <path id="Path_839952" data-name="Path 839952" d="M356.057,75.625a4.007,4.007,0,0,1-2.835-6.843l2.056,2.056a1.1,1.1,0,0,0,1.558,1.557c.393-.393.459-.538-.26-1.907-.652-1.241-1.742-3.319.26-5.321a4.01,4.01,0,0,1,5.674,5.667l0,0-2.056-2.056a1.1,1.1,0,0,0-1.558-1.557c-.395.395-.462.54.258,1.912.65,1.24,1.74,3.317-.258,5.315A4,4,0,0,1,356.057,75.625Z" transform="translate(-287.261 -52.359)"/>
      <path id="Path_839953" data-name="Path 839953" d="M63.63,374.179a3.581,3.581,0,0,1-2.533-6.116l2.056,2.056a.676.676,0,1,0,.953.958l0,0c.236-.236.278-.278-.26-1.305a3.633,3.633,0,0,1,.26-4.718,3.584,3.584,0,1,1,5.068,5.068l-2.056-2.056a.676.676,0,1,0-.953-.958l0,0c-.238.238-.281.281.258,1.31a3.631,3.631,0,0,1-.258,4.713,3.573,3.573,0,0,1-2.535,1.047Z" transform="translate(-49.086 -297.087)"/>
      <path id="Path_839954" data-name="Path 839954" d="M315.688,31.992H305.508a1.454,1.454,0,0,1-1.454-1.453h0V20.359a1.455,1.455,0,0,1,.426-1.028l18.9-18.9a1.454,1.454,0,0,1,2.056,0h0L335.62,10.606a1.454,1.454,0,0,1,0,2.056h0l-18.9,18.9a1.451,1.451,0,0,1-1.028.426Zm-8.725-2.908h8.123l17.45-17.45-8.123-8.123-17.45,17.45Z" transform="translate(-247.992 0)"/>
      <path id="Path_839955" data-name="Path 839955" d="M11.688,349.084a1.45,1.45,0,0,1-1.028-.426L.48,338.478a1.454,1.454,0,0,1,0-2.056h0l16-16A1.453,1.453,0,0,1,17.5,320H27.684a1.454,1.454,0,0,1,1.454,1.453h0v10.179a1.455,1.455,0,0,1-.426,1.028l-16,16a1.449,1.449,0,0,1-1.028.426ZM3.565,337.45l8.123,8.123L26.23,331.032v-8.123H18.107Z" transform="translate(0 -261.083)"/>
      <path id="Path_839956" data-name="Path 839956" d="M178.235,180.363a2.181,2.181,0,1,1,2.181-2.181A2.181,2.181,0,0,1,178.235,180.363Z" transform="translate(-143.719 -143.719)"/>
      <path id="Path_839957" data-name="Path 839957" d="M90.249,88.139a4.851,4.851,0,0,0-.854-5.672c-2.413-2.414-4.884-1.118-6.52-.258-1.767.927-2.3,1.072-3.117.258A1.953,1.953,0,0,1,82.521,79.7l2.056-2.056a4.851,4.851,0,0,0-5.673-.854l-2.45-2.45L74.4,76.4l2.451,2.451a4.851,4.851,0,0,0,.854,5.672c2.416,2.418,4.889,1.119,6.525.261,1.761-.927,2.3-1.073,3.111-.261a1.953,1.953,0,0,1-2.762,2.762l-2.056,2.056a4.8,4.8,0,0,0,5.672.854l2.2,2.2L92.45,90.34Z" transform="translate(-60.684 -60.684)"/>
      <path id="Path_839958" data-name="Path 839958" d="M296.054,192h2.908v2.908h-2.908Z" transform="translate(-241.717 -156.789)"/>
      <path id="Path_839959" data-name="Path 839959" d="M296.054,224h2.908v2.908h-2.908Z" transform="translate(-241.717 -182.921)"/>
      <path id="Path_839960" data-name="Path 839960" d="M160.054,256h2.908v2.908h-2.908Z" transform="translate(-130.658 -209.053)"/>
      <path id="Path_839961" data-name="Path 839961" d="M160.054,288h2.908v2.908h-2.908Z" transform="translate(-130.658 -235.184)"/>
    </g>
  </g>
</svg>
