<svg xmlns="http://www.w3.org/2000/svg" width="85" height="85" viewBox="0 0 85 85">
  <g id="Group_1086823" data-name="Group 1086823" transform="translate(-285.36 -14804)">
    <circle id="Ellipse_6029" data-name="Ellipse 6029" cx="42.5" cy="42.5" r="42.5" transform="translate(285.36 14804)" fill="#0c5e46"/>
    <g id="personal" transform="translate(301.36 14820)">
      <path id="Path_839916" data-name="Path 839916" d="M47.968,33.131V31.643l1.009-.673a9.027,9.027,0,0,0-2.9-16.292A6.288,6.288,0,0,0,47.7,12.632l.365-.729L42.615,1H11.385L5.933,11.9l.365.729a6.279,6.279,0,0,0,1.628,2.046,9.027,9.027,0,0,0-2.9,16.292l1.009.673v1.488A8.185,8.185,0,0,0,1,40.691,12.323,12.323,0,0,0,13.309,53H40.691A12.323,12.323,0,0,0,53,40.691,8.185,8.185,0,0,0,47.968,33.131ZM33.61,47.637a4.643,4.643,0,0,0-.739.144v-2.33a2.513,2.513,0,0,0-1.677-2.362V42.1a2.519,2.519,0,0,0-2.516-2.516H25.323A2.519,2.519,0,0,0,22.806,42.1v.993a2.513,2.513,0,0,0-1.677,2.362v2.331a4.552,4.552,0,0,0-.739-.144L16.1,47.209V46.1A14.111,14.111,0,0,0,11.9,36.027v-.64H42.1v.639A14.112,14.112,0,0,0,37.9,46.1v1.11Zm-4.094-4.7H24.484V42.1a.839.839,0,0,1,.839-.839h3.355a.839.839,0,0,1,.839.839ZM7.464,27.246s-.5-.5-.954-.949a1.627,1.627,0,0,1-.477-1.183,1.559,1.559,0,0,1,.89-1.4l.788-.371v-.533a1.679,1.679,0,0,1,1.677-1.677h3.355a.839.839,0,0,1,.839.839v1.065a2.3,2.3,0,0,0,.679,1.639l.811.811a.634.634,0,0,1,.187.452.641.641,0,0,1-.437.607l-2.079.693v2.282a.839.839,0,0,1-.839.839H9.387v1.677h.839v2.575A14.28,14.28,0,0,0,7.71,33.165V27.491Zm7.984-12.257a6.211,6.211,0,0,0,1.488-1.439A6.245,6.245,0,0,0,27,13.55a6.245,6.245,0,0,0,10.065,0,6.227,6.227,0,0,0,1.488,1.439,3.346,3.346,0,0,0,.48,5.832,2.479,2.479,0,0,0-.29,1.147v1.065a.634.634,0,0,1-.188.453l-.811.811a2.316,2.316,0,0,0,.906,3.835l.932.312v1.073A2.519,2.519,0,0,0,42.1,32.033V33.71H11.9V32.033a2.519,2.519,0,0,0,2.516-2.516V28.444l.932-.311a2.316,2.316,0,0,0,.9-3.836l-.811-.811a.638.638,0,0,1-.187-.453V21.968a2.479,2.479,0,0,0-.29-1.147,3.346,3.346,0,0,0,.48-5.832Zm23.113-2.247h7.072a4.566,4.566,0,0,1-7.072,0ZM27.839,11.065V2.677h5.267l2.8,8.387Zm7.73,1.677a4.566,4.566,0,0,1-7.072,0Zm-9.407-1.677H18.1l2.795-8.387h5.267ZM25.5,12.742a4.566,4.566,0,0,1-7.072,0ZM11.9,14.419a4.555,4.555,0,0,1-3.536-1.677h7.072A4.554,4.554,0,0,1,11.9,14.419ZM43.774,32.032h.839V30.355H42.1a.839.839,0,0,1-.839-.839V27.235l-2.079-.693a.64.64,0,0,1-.249-1.06l.811-.811a2.3,2.3,0,0,0,.679-1.638V21.968a.839.839,0,0,1,.839-.839h3.355a1.679,1.679,0,0,1,1.677,1.677v.533l.787.37a1.573,1.573,0,0,1,.891,1.436,1.608,1.608,0,0,1-.476,1.152c-.456.45-.955.949-.955.949l-.246.246v5.674a14.332,14.332,0,0,0-2.516,1.443ZM43.966,16.1a7.356,7.356,0,0,1,4.08,13.477l-.079.053v-1.44c.186-.185.45-.449.7-.7a3.293,3.293,0,0,0,.975-2.376,3.243,3.243,0,0,0-1.723-2.857,3.359,3.359,0,0,0-3.31-2.805H40.419a1.677,1.677,0,1,1,0-3.355Zm1.806-5.032h-8.1l-2.8-8.387h6.705ZM12.422,2.677h6.705l-2.8,8.387h-8.1Zm-6.468,26.9A7.356,7.356,0,0,1,10.034,16.1h3.547a1.677,1.677,0,1,1,0,3.355H9.387a3.36,3.36,0,0,0-3.31,2.805,3.292,3.292,0,0,0-.746,5.234c.251.248.516.511.7.7v1.44Zm.9,5.034a12.443,12.443,0,0,1,7.57,11.49v.943a7.479,7.479,0,0,1-6.71-7.46H6.032a9.173,9.173,0,0,0,1.381,4.858,5.047,5.047,0,0,1-3.161,1.792,10.555,10.555,0,0,1-1.574-5.54,6.514,6.514,0,0,1,4.172-6.083ZM21.968,51.323H13.309a10.6,10.6,0,0,1-7.965-3.613,6.729,6.729,0,0,0,3.1-1.916A9.159,9.159,0,0,0,14.3,48.715l5.925.592a2.86,2.86,0,0,1,2.46,2.015Zm2.438,0a4.516,4.516,0,0,0-1.6-2.681v-3.19a.839.839,0,0,1,.839-.839h6.71a.839.839,0,0,1,.839.839v3.19a4.523,4.523,0,0,0-1.6,2.681Zm6.911,0a2.858,2.858,0,0,1,2.46-2.015l.772-.077v2.093H31.317Zm9.374,0H36.226v-2.26l3.476-.347a9.152,9.152,0,0,0,8.265-9.134H46.29a7.479,7.479,0,0,1-6.71,7.46V46.1a12.441,12.441,0,0,1,7.57-11.489,6.512,6.512,0,0,1,4.172,6.082A10.644,10.644,0,0,1,40.691,51.323Z" fill="#fff"/>
      <path id="Path_839917" data-name="Path 839917" d="M30.548,35.1A7.548,7.548,0,1,0,23,27.548,7.557,7.557,0,0,0,30.548,35.1Zm1.333-10.065a9.4,9.4,0,0,1,.3,1.677H28.913a9.4,9.4,0,0,1,.3-1.677Zm-2.019-1.677a9.4,9.4,0,0,1,.686-1.169,9.524,9.524,0,0,1,.686,1.169Zm2.322,5.032a9.4,9.4,0,0,1-.3,1.677H29.217a9.4,9.4,0,0,1-.3-1.677Zm-.95,3.355a9.477,9.477,0,0,1-.686,1.17,9.471,9.471,0,0,1-.687-1.17Zm1.848,0h1.567a5.872,5.872,0,0,1-2.239,1.37A11.106,11.106,0,0,0,33.082,31.742Zm.53-1.677a10.964,10.964,0,0,0,.259-1.677h2.481a5.818,5.818,0,0,1-.507,1.677Zm.259-3.355a10.964,10.964,0,0,0-.259-1.677h2.233a5.818,5.818,0,0,1,.507,1.677Zm-.789-3.355a11.11,11.11,0,0,0-.672-1.37,5.885,5.885,0,0,1,2.239,1.37Zm-5.067,0H26.448a5.872,5.872,0,0,1,2.239-1.37A11.107,11.107,0,0,0,28.015,23.355Zm-.53,1.677a10.964,10.964,0,0,0-.259,1.677H24.745a5.819,5.819,0,0,1,.507-1.677Zm-.259,3.355a10.964,10.964,0,0,0,.259,1.677H25.252a5.818,5.818,0,0,1-.507-1.677Zm.789,3.355a11.109,11.109,0,0,0,.672,1.37,5.885,5.885,0,0,1-2.239-1.37Z" transform="translate(-3.548 -3.065)" fill="#fff"/>
    </g>
  </g>
</svg>
